<?xml version="1.0" encoding="utf-8"?>
<!-- Generator: Adobe Illustrator 16.0.0, SVG Export Plug-In . SVG Version: 6.00 Build 0)  -->
<!DOCTYPE svg PUBLIC "-//W3C//DTD SVG 1.1//EN" "http://www.w3.org/Graphics/SVG/1.1/DTD/svg11.dtd">
<svg version="1.1" id="Capa_1" xmlns="http://www.w3.org/2000/svg" xmlns:xlink="http://www.w3.org/1999/xlink" x="0px" y="0px"
	 width="412.594px" height="409.676px" viewBox="0 0 412.594 409.676" enable-background="new 0 0 412.594 409.676"
	 xml:space="preserve">
<g>
	<g>
		<g>
			<path fill="#F1CD9B" d="M143.947,87.501c3.7-3.436,1.85-9.647,1.058-13.877c-0.397-2.379-0.927-4.758-1.322-7.137
				c-0.265-1.322-1.322-7.667-3.041-4.625c-1.978,3.499,1.19,10.309-0.529,13.746c-0.792,1.717-3.436,1.453-5.154,2.246
				c-2.907,1.189-5.418,1.719-6.741,4.89c-1.32,3.304-0.528,7.798,1.059,10.837c1.717,3.569,1.982,6.08,1.982,10.177
				c2.115-0.131,4.097-0.131,6.079-0.396c3.172-0.396,2.38-1.322,2.775-4.097c0.662-4.493,4.362-7.004,4.627-11.63"/>
			<g>
				<path d="M144.035,87.589c2.352-2.424,2.454-5.598,2.061-8.794c-0.518-4.202-1.529-8.422-2.338-12.576
					c-0.31-1.59-0.49-4.143-1.889-5.212c-1.317-1.007-1.977,3.044-2.014,3.537c-0.25,3.244,2.671,10.588-1.436,12.247
					c-3.158,1.274-6.688,1.435-9.193,4.05c-2.283,2.385-1.99,6.409-1.342,9.346c0.487,2.21,1.708,4.155,2.417,6.288
					c0.777,2.336,0.821,4.845,0.834,7.282c0,0.065,0.057,0.129,0.125,0.125c2.312-0.127,8.407,0.842,8.802-2.543
					c0.346-2.97,1.098-5.192,2.623-7.777c1.113-1.887,1.963-3.727,2.182-5.928c0.016-0.161-0.234-0.159-0.25,0
					c-0.43,4.319-3.832,7.387-4.623,11.597c-0.103,0.547-0.117,1.121-0.151,1.675c-0.125,2.016-1.651,2.231-3.353,2.428
					c-1.142,0.132-2.299,0.158-3.446,0.208c-2.047,0.089-1.659-1.429-1.751-2.97c-0.271-4.543-3.012-8.235-3.55-12.695
					c-0.37-3.062,0.44-6.227,3.053-8.053c1.625-1.136,3.985-1.92,5.919-2.361c2.8-0.638,3.929-1.531,4.056-4.507
					c0.083-1.949-0.35-3.937-0.562-5.867c-0.093-0.848-0.121-1.693-0.104-2.545c0.024-1.243,1.391-4.673,2.483-1.973
					c1.374,3.394,1.68,7.523,2.297,11.086c0.784,4.524,2.636,9.98-1.025,13.755C143.746,87.528,143.923,87.705,144.035,87.589
					L144.035,87.589z"/>
			</g>
		</g>
		<g>
			<path fill="#F1CD9B" d="M142.229,93.845c1.717-1.719,3.701-5.021,3.568-7.269c-0.133-2.248-0.528-5.551-2.908-6.477
				c-0.661-0.264-6.344-1.982-6.74-1.718c-3.172,1.85,3.437,4.097,3.701,4.361c0.131,0,1.057,0,1.057,0
				c-0.133,1.189-0.794,3.173,0.132,4.229c-2.512,1.19-5.684,4.362-5.022,7.403"/>
			<g>
				<path d="M142.317,93.933c1.61-1.713,3.555-4.3,3.595-6.775c0.032-1.907-0.156-4.716-1.583-6.169
					c-1.27-1.292-3.188-1.594-4.876-2.067c-1.348-0.378-2.938-1.22-4.047-0.091c-1.469,1.496,3.465,4.037,4.444,4.037
					c0.414,0,0.95-0.253,0.853,0.395c-0.1,0.665-0.216,1.305-0.272,1.976c-0.126,1.522,0.402,1.574-1.117,2.643
					c-2.094,1.472-3.764,3.863-3.422,6.493c0.021,0.158,0.271,0.16,0.25,0c-0.427-3.289,2.27-5.895,4.96-7.295
					c0.06-0.031,0.079-0.115,0.045-0.171c-0.809-1.333-0.328-2.746-0.12-4.132c0.012-0.079-0.032-0.158-0.121-0.158
					c-1.456,0-2.697-0.726-3.946-1.453c-0.545-0.317-1.034-0.703-1.403-1.219c-1.396-1.954,1.585-1.345,1.892-1.279
					c0.999,0.213,1.983,0.505,2.964,0.787c0.768,0.221,1.532,0.453,2.289,0.709c1.8,0.609,2.391,2.514,2.728,4.171
					c0.74,3.639-0.822,6.797-3.289,9.422C142.03,93.874,142.206,94.051,142.317,93.933L142.317,93.933z"/>
			</g>
		</g>
		<g>
			<path fill="#F1CD9B" d="M133.241,77.721c-2.908-0.265-5.287,4.625-3.437,7.004c2.512,3.041,3.569-5.55,3.437-6.872"/>
			<g>
				<path d="M133.241,77.596c-2.096-0.073-3.467,1.829-4.02,3.649c-0.413,1.359-0.238,3.757,1.423,4.232
					c2.229,0.637,2.814-6.348,2.721-7.624c-0.012-0.16-0.262-0.161-0.25,0c0.153,2.093-0.347,4.845-1.383,6.672
					c-0.355,0.626-0.904,0.934-1.534,0.432c-0.811-0.646-0.96-1.791-0.902-2.751c0.121-2.019,1.743-4.437,3.944-4.36
					C133.403,77.852,133.402,77.602,133.241,77.596L133.241,77.596z"/>
			</g>
		</g>
		<g>
			<path fill="#FFFFFF" d="M130.267,108.582c-0.199-1.785-0.199-3.568-0.199-5.552c3.568-0.991,6.938-2.576,10.706-2.973
				c0.594,1.388,0.198,4.163,0.594,4.957"/>
			<g>
				<path fill="#5B340A" d="M130.392,108.582c-0.096-0.999-0.876-5.262,0.471-5.652c1.775-0.515,3.51-1.17,5.272-1.728
					c0.758-0.24,1.527-0.436,2.299-0.624c0.775-0.24,1.565-0.251,2.37-0.034c0.115,0.537,0.181,1.08,0.197,1.628
					c0.06,0.954-0.056,1.954,0.247,2.874c0.05,0.152,0.292,0.087,0.241-0.066c-0.522-1.584-0.061-3.344-0.594-4.957
					c-0.016-0.048-0.064-0.099-0.121-0.092c-3.723,0.477-7.157,1.94-10.739,2.978c-0.054,0.016-0.092,0.064-0.092,0.121
					c0.001,1.856,0.021,3.703,0.199,5.552C130.157,108.741,130.408,108.742,130.392,108.582L130.392,108.582z"/>
			</g>
		</g>
		<g>
			<g>
				<path fill="#3D3D3D" d="M171.052,387.252c-0.043,1.291,0.7,2.41,2.763,2.773c3.172,0.528,7.269-0.661,10.441-1.188
					c2.776-0.396,5.419-0.926,7.93-1.585c2.114-0.53,6.08-0.268,7.667-1.721c0.871-0.64,1.274-2.005,1.421-3.621
					c-0.378,0.259-0.764,0.501-1.159,0.714C196.54,384.651,175.779,391.293,171.052,387.252z"/>
			</g>
			<g>
				<path fill="#AFB3B5" d="M200.644,373.108l-13.612-1.189c-1.719,6.874-8.591,7.136-13.349,10.97
					c-1.43,1.071-2.579,2.839-2.631,4.363c4.727,4.041,25.488-2.601,29.063-4.628c0.395-0.213,0.78-0.455,1.159-0.714
					C201.551,378.87,200.903,374.921,200.644,373.108z"/>
			</g>
			<g>
				<path fill="#AFB3B5" d="M259.853,386.589c2.921,0.731,12.337,3.697,14.325-0.276c-0.552-1.469-2.214-3.039-3.354-3.952
					c-4.361-3.171-12.82-5.551-11.896-12.424l-13.877,6.739c0,1.061,0.131,2.907,0.264,4.231c0.028,0.511,0.033,0.971,0.048,1.388
					c1.902,0.844,4.31,1.378,6.031,2.047C254.171,385.398,257.078,385.797,259.853,386.589z"/>
			</g>
			<g>
				<path fill="#3D3D3D" d="M259.853,386.589c-2.775-0.792-5.683-1.19-8.458-2.247c-1.722-0.669-4.129-1.203-6.031-2.047
					c0.049,1.517,0.229,2.427,2.198,2.841c4.627,0.926,8.987,2.379,13.615,3.701c3.435,0.925,8.324,1.851,11.761,0.264
					c1.459-0.673,1.647-1.703,1.24-2.788C272.19,390.286,262.774,387.32,259.853,386.589z"/>
			</g>
		</g>
		<g>
			<g>
				<path fill="#061119" d="M177.515,201.162c0.619,12.905,0.001,25.819-0.078,38.729c-0.079,12.979,0.627,25.944,1.635,38.882
					c1.012,12.991,2.297,25.959,3.2,38.96c0.856,12.297,0.96,24.641,1.72,36.947c0.258,4.146,0,8.321,0.117,12.477
					c0.075,2.617,0.024,6.222,1.903,8.304c1.329,1.476,4.703,0.943,6.412,0.93c3.06-0.022,6.274-0.057,9.271-0.743
					c2.516-0.576,2.22-3.4,2.007-5.454c-0.182-1.761-0.525-3.506-0.834-5.248c-0.393-2.216-0.448-4.402-0.502-6.655
					c-0.306-12.834,0.015-25.769,0.368-38.603c0.264-9.566,0.739-19.129,1.276-28.681c0.531-9.438,0.941-18.903,1.788-28.318
					c0.395-4.375,0.969-8.726,1.492-13.085c0.3-2.485,0.407-4.985,0.827-7.458c0.357-2.097,0.927-4.773,2.878-5.974
					c1.011-0.623,2.291-0.396,3.362-0.093c0.639,0.184,1.349,0.768,2.013,0.768c0.661,0,1.321,0,1.982,0
					c-0.264-0.264-0.528-0.527-0.794-0.791c0.555,11.26,5.942,21.63,7.825,32.667c2.086,12.236,3.821,24.529,5.55,36.818
					c1.775,12.613,3.452,25.239,5.252,37.851c0.877,6.133,1.788,12.263,2.75,18.384c0.861,5.478,1.321,11.557,3.712,16.624
					c0.107,0.228,0.434,0.422,0.684,0.395c6.164-0.676,15.893-0.901,17.309-8.631c0.939-5.113-1.43-10.701-1.803-15.791
					c-0.221-3.026-0.164-6.075-0.395-9.108c-0.255-3.364-0.604-6.721-0.837-10.085c-0.895-12.89-1.455-25.809-2.267-38.703
					c-0.812-12.929-1.82-25.839-2.821-38.754c-0.919-11.901-1.579-23.936-3.967-35.654c-2.415-11.857-6.097-23.422-8.022-35.388
					c-0.162-1.008-1.69-0.58-1.53,0.421c1.966,12.203,5.705,24.01,8.169,36.105c2.563,12.582,3.073,25.61,4.066,38.389
					c1.003,12.914,1.963,25.827,2.763,38.762c0.797,12.892,1.231,25.832,2.327,38.7c0.261,3.103,0.561,6.2,0.744,9.311
					c0.178,2.997,0.097,5.977,0.505,8.958c0.625,4.585,3.457,11.35,0.252,15.488c-2.374,3.063-7.229,3.563-10.78,3.992
					c-0.935,0.111-1.872,0.204-2.81,0.303c-0.918,0.097-1.224-2.139-1.441-2.94c-0.799-2.928-1.233-6.012-1.72-9.005
					c-4.13-25.445-7.242-51.045-10.977-76.551c-1.319-8.998-2.294-18.267-4.585-27.078c-2.201-8.472-5.932-16.63-6.366-25.479
					c-0.021-0.432-0.345-0.795-0.793-0.795c-2.897,0-5.596-2.034-8.404-0.306c-2.323,1.427-3.008,4.694-3.426,7.16
					c-0.605,3.564-0.793,7.22-1.25,10.809c-0.799,6.283-1.365,12.595-1.747,18.916c-0.778,12.831-1.535,25.671-2.056,38.519
					c-0.524,12.895-0.556,25.794-0.711,38.698c-0.062,5.104-0.387,10.437,0.438,15.49c0.231,1.41,2.291,8.805,0.492,9.456
					c-2.782,1.006-6.354,0.766-9.264,0.802c-1.363,0.02-2.732,0.01-4.092-0.091c-1.237-0.091-1.635-0.824-1.987-1.973
					c-1.116-3.655-0.705-7.944-0.68-11.713c0.028-4.703-0.337-9.349-0.57-14.042c-0.641-12.892-0.911-25.77-1.943-38.643
					c-1.435-17.898-3.306-35.769-3.914-53.724c-0.604-17.818,0.716-35.647-0.138-53.458
					C179.053,200.146,177.468,200.139,177.515,201.162L177.515,201.162z"/>
			</g>
			<g>
				<path fill="#101C25" d="M224.828,238.827c-3.144-5.815-2.579-8.928-12.688-7.93c-9.907,0.977-13.159,0.638-14.684,10.044
					c-1.385,8.535,0.842,16.205,0.411,24.847c-0.5,10.038,1.125,83.071-0.055,109.583c2.427-0.189,4.388-0.499,4.683-0.94
					c1.587-1.586-0.793-9.913-0.793-12.291c-0.397-8.723,0-17.447,0-26.168c0-19.825,1.189-40.048,2.38-59.476
					c0.395-9.118,1.188-17.841,2.376-26.566c0.793-6.343,0.398-18.633,9.914-13.875c0.396,0,1.586,0,1.982,0
					c0.397,10.308,5.947,21.015,7.533,30.926c1.982,11.5,3.569,22.6,5.154,33.702c3.173,22.203,5.948,44.407,9.518,66.214
					c0.792,3.964,1.188,7.932,2.773,11.103c1.122-0.125,2.305-0.24,3.498-0.376c-1.214-9.523-3.046-21.759-5.613-40.467
					C238.324,316.08,229.695,247.825,224.828,238.827z"/>
			</g>
			<g>
				<path fill="#1E344E" d="M259.986,368.482c0-4.759-1.981-10.309-1.981-15.464c0-5.946-0.794-11.895-1.19-17.841
					c-1.189-21.013-2.379-42.425-3.965-63.438c-1.19-13.88-1.984-27.358-3.568-40.841c-1.983-14.668-7.136-28.941-9.516-44.009
					l-61.457,14.272c0.793,15.859-0.396,32.119,0,47.978c0.396,22.995,3.172,45.596,4.758,68.593
					c0.792,11.895,0.792,23.789,1.586,35.286c0.792,7.14-1.057,21.146,2.643,22.336c0.979,0.314,6.413,0.339,10.516,0.017
					c1.179-26.512,0.611-91.615,1.113-101.653c0.431-8.642-0.53-15.331,2.113-26.432c1.593-6.688,0.667-14.356,10.575-15.333
					c10.108-0.995,12.846,2.854,14.273,12.687c1.471,10.126,12.438,71.44,15.332,92.517c2.567,18.708,4.399,30.943,5.613,40.467
					C253.228,376.887,259.986,375.499,259.986,368.482z"/>
			</g>
		</g>
		<g>
			<g>
				<path fill="#F1CD9B" d="M227.58,105.098c0,0-7.316-3.581-7.257-16.166c0,0-4.532,2.336-8.395,2.484
					c-3.862,0.149-8.321-3.071-8.321-3.071s0.313,16.034-10.574,18.898C207.839,128.058,228.611,115.723,227.58,105.098z"/>
				<path fill="#DFB783" d="M222.858,100.591c0,0,0.213,0,0.215,0c-2.082-2.407-2.808-6.772-2.79-11.372
					c0,0-4.492,2.049-8.354,2.197c-2.982,0.113-6.306-1.77-7.673-2.641l-0.697,0.797c-0.007,0.13-0.018,0.271-0.03,0.421
					C204.794,91.69,212.831,104.702,222.858,100.591z"/>
			</g>
			<path fill="#F0CB9C" d="M244.57,51.643c1.461-45.184-32.186-41.911-32.197-41.91c-0.01-0.001-33.661-3.274-32.197,41.91
				c0,0-0.045,18.865,5.02,25.922c6.655,9.274,18.859,14.125,27.177,14.125c8.317,0,20.625-4.236,27.175-14.125
				C244.719,69.76,244.57,51.643,244.57,51.643z"/>
			<g>
				<g>
					<path fill="#F1CD9B" d="M243.75,55.469c0,0,1.993-3.906,4.209-1.262c2.222,2.646,1.783,13.423-5.272,13.437
						C242.686,67.644,243.715,58.03,243.75,55.469z"/>
					<path fill="#DFB783" d="M243.784,59.41c0,0,1.427-3.835,2.845-1.859c1.422,1.976,0.702,4.538-1.423,6.276
						C245.206,63.827,246.166,56.853,243.784,59.41z"/>
				</g>
				<g>
					<path fill="#F1CD9B" d="M180.496,55.469c0,0-1.996-3.906-4.211-1.262c-2.22,2.646-1.783,13.423,5.271,13.437
						C181.557,67.644,180.529,58.03,180.496,55.469z"/>
					<path fill="#DFB783" d="M180.465,59.41c0,0-1.43-3.835-2.848-1.859c-1.421,1.976-0.702,4.538,1.422,6.276
						C179.038,63.827,178.076,56.853,180.465,59.41z"/>
				</g>
			</g>
			<path fill="#394940" d="M244.743,53.463c0,0,4.684-23.448-2.083-25.081c0,0,2.295-4.91-1.301-8.771
				c-3.053-3.275-3.904-6.73-3.904-6.73s-0.263,1.632,0,3.67c0,0-4.162-4.486-8.067-5.709c0,0,2.604,2.651,2.082,3.875
				c0,0-2.695-5.381-11.189-6.526c0,0,3.384,2.245,3.122,3.265c0,0-2.082-2.5-5.854-3.265c0,0,1.236,1.02,1.171,1.427
				c0,0-2.732-1.172-5.141-1.733c0,0,1.677,1.022,1.303,1.122c-0.269,0.071-4.425-0.356-4.946-1.785c0,0-0.275,0.962,0.521,1.428
				c0,0-3.448-0.254-4.424-1.225c0,0,0.13,0.918,1.237,1.377c0,0-4.294-0.765-6.049-1.836c0,0,1.43,1.376,2.731,1.886
				c0,0-5.664,0.463-7.748-0.201c0,0,0.852,1.272,2.023,1.375c0,0-1.627,0.255-2.409-0.103c0,0,1.314,1.802,0.523,2.04
				c-0.952,0.286-1.497-0.611-1.433-1.121c0,0-0.688,1.225-1.625,1.121c-0.999-0.109,0.144-1.817,0.144-1.817
				s-4.05,0.849-6.325,3.551c-2.277,2.703-4.684,8.463-4.684,8.463s-3.91,8.819-3.81,13.555c0.223,10.558,1.272,20.304,2.767,22.65
				c0,0,0.682-9.158,4.88-11.423c1-0.538-1.241-6.885,1.85-11.491c3.792-5.654,7.137-4.984,15.52-2.785
				c11.324,2.969,21.09-2.674,24.398-2.398c13.286,1.104,9.688,15.193,11.23,17.275c3.448,4.657,3.048,7.779,5.166,10.822
				L244.743,53.463z"/>
			<g>
				<g>
					<ellipse fill="#DFB783" cx="212.252" cy="67.442" rx="3.847" ry="2.427"/>
					<g>
						<g>
							<path fill="#DEA38D" d="M201.913,76.221c2.995,6.934,17.803,7.011,20.482-0.218c0.413-1.111-1.356-1.584-1.765-0.487
								c-2.154,5.81-14.815,5.151-17.134-0.219C203.028,74.214,201.45,75.148,201.913,76.221L201.913,76.221z"/>
						</g>
					</g>
				</g>
				<circle fill="#213B58" cx="229.558" cy="57.537" r="4.066"/>
				<circle fill="#FFFFFF" cx="230.866" cy="55.679" r="1.308"/>
				<circle fill="#213B58" cx="194.729" cy="57.537" r="4.064"/>
				<circle fill="#FFFFFF" cx="196.037" cy="55.679" r="1.308"/>
				<g>
					<path fill="#4B0000" d="M223.929,50.31c3.45-2.958,8.014-2.509,11.408,0.282c0.828,0.682,1.85-0.624,1.026-1.303
						c-3.934-3.234-9.416-3.749-13.44-0.3C222.118,49.681,223.115,51.008,223.929,50.31L223.929,50.31z"/>
				</g>
				<g>
					<path fill="#4B0000" d="M200.449,50.31c-3.452-2.958-8.016-2.509-11.411,0.282c-0.829,0.682-1.849-0.624-1.026-1.303
						c3.934-3.234,9.416-3.749,13.439-0.3C202.259,49.681,201.263,51.008,200.449,50.31L200.449,50.31z"/>
				</g>
			</g>
		</g>
		<g>
			<g>
				<path fill="#250000" d="M194.037,105.918c-5.072,1.193-10.656,0.143-14.124,4.912c-2.746,3.777-2.271,9.745-2.168,14.126
					c0.363,15.52,0.016,31.005-1.13,46.481c-0.54,7.292-0.648,14.657-1.37,21.927c-0.447,4.503-1.506,10.295,1.312,14.263
					c2.35,3.31,7.667,4.098,11.335,4.653c4.952,0.75,10.007,0.81,14.994,1.207c7.705,0.613,15.366,0.461,23.054-0.271
					c2.993-0.285,5.981-0.586,8.957-1.013c2.674-0.384,5.821-0.719,8.189-2.116c3.402-2.008,3.177-7.326,3.068-10.673
					c-0.209-6.409-0.003-12.786,0.007-19.201c0.024-16.159-1.471-32.279-0.924-48.434c0.192-5.684,0.901-11.387,0.884-17.07
					c-0.013-4.355-1.343-6.717-5.529-8.178c-3.235-1.129-8.495-2.064-11.797-0.711c-0.982,0.403-1.175,1.591-1.452,2.491
					c-0.96,3.118-2.485,5.373-5.216,7.16c-5.494,3.596-13.073,5.548-18.902,1.631c-1.884-1.266-9.396-6.849-7.566-9.656
					c0.354-0.542-0.513-1.042-0.863-0.505c-1.671,2.564,2.262,6.128,3.841,7.667c3.24,3.158,6.614,5.293,11.231,5.673
					c5.366,0.44,12.047-2.452,15.712-6.342c1.473-1.563,2.24-3.779,2.86-5.792c0.709-2.3,3.548-1.869,5.591-1.78
					c2.64,0.115,5.359,0.638,7.781,1.709c2.922,1.293,3.244,3.738,3.31,6.632c0.128,5.658-0.682,11.409-0.884,17.07
					c-0.576,16.15,0.91,32.279,0.924,48.434c0.006,6.415-0.269,12.792-0.007,19.201c0.098,2.383,0.085,4.81-0.632,7.104
					c-1.036,3.313-4.551,3.753-7.509,4.324c-7.093,1.371-14.599,1.91-21.813,2.048c-6.646,0.127-13.246-0.562-19.873-0.913
					c-5.173-0.275-10.848-0.618-15.544-3.01c-5.359-2.729-4.104-10.076-3.601-15.014c0.73-7.157,0.836-14.406,1.362-21.586
					c0.596-8.137,1.135-16.23,1.244-24.393c0.122-9.17-0.256-18.355-0.068-27.519c0.071-3.474,0.386-7.611,2.984-10.202
					c3.333-3.323,8.392-2.383,12.596-3.373C194.93,106.735,194.664,105.771,194.037,105.918L194.037,105.918z"/>
			</g>
		</g>
		<path fill="#FFFFFF" stroke="#5B340A" stroke-width="0.25" stroke-miterlimit="10" d="M204.742,119.088
			c0,0,2.641,3.701,6.873,3.701c0,0,4.229-0.264,6.872-3.833l-2.246-2.908c0,0-4.626,4.362-9.913,0.397L204.742,119.088z"/>
		<g>
			<path fill="#F0CB9C" d="M245.714,215.567c-2.644,0.531-5.815,1.323-7.93,3.438c2.114,5.284,5.286,12.025,10.837,13.611
				c1.057-2.907,3.172-9.118,2.643-12.291"/>
		</g>
		<g>
			<path fill="#FFFFFF" d="M247.564,210.282c-1.586,1.586-2.908,3.173-3.701,5.285l0,0c2.379,2.908,5.552,6.61,9.252,8.195
				c1.32-2.378,2.114-5.55,2.114-8.195"/>
			<g>
				<path fill="#5B340A" d="M247.476,210.193c-1.576,1.614-2.859,3.252-3.733,5.341c-0.019,0.043,0.006,0.09,0.032,0.122
					c2.642,3.214,5.441,6.422,9.276,8.215c0.06,0.027,0.138,0.02,0.172-0.045c1.34-2.578,2.054-5.355,2.131-8.259
					c0.004-0.161-0.246-0.161-0.25,0c-0.056,2.099-0.464,4.09-1.152,6.066c-0.472,1.353-0.802,2.058-2.136,1.333
					c-1.149-0.624-2.166-1.488-3.145-2.345c-1.386-1.212-2.602-2.621-3.791-4.021c-1.698-1.999,1.45-4.878,2.771-6.23
					C247.765,210.255,247.589,210.078,247.476,210.193L247.476,210.193z"/>
			</g>
		</g>
		<g>
			<g>
				<path fill="#250000" d="M233.68,106.512c9.204-1.665,15.959,6.402,20.484,13.264c5.468,8.29,9.333,17.557,13.448,26.557
					c2.018,4.415,4.248,8.639,6.618,12.874c1.854,3.313,3.271,6.718,3.279,10.567c0.01,4.072-1.256,8.241-2.572,12.054
					c-2.569,7.44-5.85,14.736-9.131,21.883c-1.338,2.915-2.84,5.77-4.087,8.724c-0.712,1.685-2.001,6.76-4.498,6.298
					c-3.038-0.562-6.048-3.345-8.475-5.135c-1.669-1.23-2.463-2.318-2.347-4.464c0.122-2.272,0.937-4.411,1.765-6.502
					c1.771-4.471,3.329-9.01,5.281-13.409c1.829-4.12,3.795-8.175,5.438-12.376c0.73-1.868,0.735-3.642,0.837-5.617
					c0.121-2.362,0.713-2.148-0.302-4.157c-1.746-3.457-3.535-6.893-5.349-10.315c-3.317-6.261-7.247-11.96-10.966-17.963
					c-0.339-0.547-1.204-0.045-0.863,0.505c2.73,4.407,5.792,8.553,8.327,13.084c2.887,5.159,5.582,10.434,8.248,15.709
					c0.522,1.034-0.075,2.731-0.136,3.901c-0.101,1.967-0.365,3.574-1.083,5.41c-1.502,3.841-3.325,7.554-5.015,11.313
					c-1.349,3.002-2.594,6.048-3.616,9.178c-1.07,3.273-2.77,6.289-3.392,9.707c-0.311,1.709-0.423,3.534,0.598,5.015
					c1.112,1.612,3.29,2.773,4.863,3.868c2.617,1.82,6.764,5.242,9.151,1.627c1.195-1.811,1.864-3.98,2.732-5.956
					c1.551-3.527,3.319-6.968,4.907-10.48c3.019-6.673,5.971-13.49,8.362-20.414c1.704-4.937,3.007-10.502,1.841-15.691
					c-1.08-4.808-4.289-8.97-6.49-13.298c-3.488-6.859-6.388-14.007-9.776-20.916c-5.117-10.434-13.982-28.408-28.35-25.808
					C232.781,105.662,233.051,106.626,233.68,106.512L233.68,106.512z"/>
			</g>
		</g>
		<g>
			<g>
				<path fill="#250000" d="M187.427,106.447c-8.353,2.925-13.953,9.677-19.161,16.493c-2.561,3.351-5.2,6.645-7.915,9.872
					c-2.096,2.491-4.244,5.296-6.877,7.255c0.245,0.1,0.49,0.199,0.734,0.299c-2.917-12.532-6.703-24.849-10.045-37.27
					c-0.077-0.286-0.347-0.39-0.615-0.349c-4.281,0.655-8.772,1.283-12.654,3.317c-3.53,1.85-3.423,5.188-2.558,8.633
					c1.245,4.96,3.531,9.627,4.914,14.564c1.924,6.87,3.771,13.725,5.91,20.532c1.367,4.351,2.958,10.783,6.763,13.719
					c1.832,1.414,4.538,0.9,6.552,0.275c7.344-2.281,13.861-8.161,19.38-13.28c3.03-2.811,5.911-5.797,8.559-8.971
					c1.694-2.031,3.495-4.228,4.457-6.721c0.232-0.603-0.734-0.861-0.964-0.266c-1.049,2.721-3.189,5.11-5.055,7.292
					c-2.75,3.215-5.767,6.207-8.895,9.053c-3.33,3.03-6.856,5.863-10.63,8.321c-2.856,1.86-6.128,3.776-9.581,4.154
					c-4.839,0.529-6.693-5.621-8.055-9.199c-2.493-6.55-4.324-13.397-6.122-20.162c-1.456-5.476-3.182-10.691-5.125-15.999
					c-0.841-2.297-1.651-4.721-1.696-7.187c-0.051-2.856,2.782-4.116,5.062-4.944c3.205-1.164,6.648-1.656,10.004-2.17
					c-0.205-0.116-0.41-0.232-0.615-0.349c3.342,12.421,7.128,24.738,10.045,37.27c0.067,0.292,0.478,0.49,0.734,0.299
					c2.257-1.679,4.103-3.952,5.933-6.066c2.726-3.149,5.327-6.408,7.886-9.693c5.539-7.111,11.039-14.659,19.896-17.761
					C188.298,107.2,188.038,106.233,187.427,106.447L187.427,106.447z"/>
			</g>
		</g>
		<g>
			<g>
				<path d="M131.064,88.137c2.297,1.028,2.565,4.591,2.713,6.765c0.011,0.16,0.261,0.161,0.25,0
					c-0.155-2.272-0.432-5.904-2.837-6.98C131.044,87.856,130.917,88.071,131.064,88.137L131.064,88.137z"/>
			</g>
		</g>
		<g>
			<g>
				<path d="M140.874,87.092c0.69,0.243,1.348,0.139,1.946-0.276c0.131-0.091,0.007-0.308-0.126-0.216
					c-0.547,0.38-1.122,0.473-1.753,0.25C140.788,86.797,140.723,87.039,140.874,87.092L140.874,87.092z"/>
			</g>
		</g>
		<g>
			<g>
				<path d="M140.907,83.133c0.675-0.024,1.266-0.283,1.883-0.534c0.147-0.06,0.083-0.302-0.066-0.241
					c-0.595,0.242-1.165,0.501-1.816,0.525C140.746,82.889,140.746,83.139,140.907,83.133L140.907,83.133z"/>
			</g>
		</g>
		<g>
			<path fill="#F1CD9B" d="M136.413,77.06c-3.7-2.644-4.625,4.361-4.097,6.741c0.661,3.568,2.246,1.057,3.172-1.058
				c0.66-1.718,1.585-3.965,1.057-5.683"/>
			<g>
				<path d="M136.476,76.952c-3.809-2.546-4.654,4.092-4.346,6.505c0.186,1.458,0.927,3.132,2.251,1.527
					c0.796-0.965,1.241-2.22,1.672-3.375c0.548-1.467,0.993-3.024,0.613-4.583c-0.038-0.157-0.279-0.09-0.241,0.066
					c0.537,2.204-0.587,4.812-1.605,6.741c-0.288,0.545-1.222,2.303-1.953,1.286c-0.461-0.642-0.52-1.712-0.556-2.484
					c-0.102-2.195,0.73-7.68,4.04-5.468C136.484,77.258,136.609,77.041,136.476,76.952L136.476,76.952z"/>
			</g>
		</g>
		<g>
			<path fill="#F1CD9B" d="M137.47,75.474c-1.453,0.926-1.586,3.304-1.851,4.758c-0.264,1.321-1.189,7.137,1.718,4.758
				c1.586-1.322,4.891-12.026,0.265-9.516"/>
			<g>
				<path d="M137.382,75.385c-1.478,1.162-1.593,3.082-1.883,4.813c-0.194,1.16-0.364,2.306-0.351,3.487
					c0.021,1.892,1.324,2.693,2.627,0.995c1.18-1.538,4.449-11.656-0.236-9.315c-0.145,0.072-0.018,0.288,0.126,0.216
					c4.068-2.033,1.01,6.978,0.251,8.399c-0.347,0.65-1.783,2.39-2.368,0.806c-0.306-0.827-0.155-1.901-0.074-2.758
					c0.196-2.068,0.383-5.13,2.083-6.467C137.685,75.462,137.507,75.287,137.382,75.385L137.382,75.385z"/>
			</g>
		</g>
		<g>
			<g>
				<path fill="#3A6660" d="M180.502,176.544c0.737-7.205,1.518-13.551,1.435-21.064c-0.081-7.294-2.063-14.128-1.999-21.479
					c-1.486,0.674-3.782,3.137-5.207,4.617c-7.654,7.957-25.536,29.772-30.972,10.053c-3.938-14.283-9.368-28.054-12.559-42.202
					c-1.065,0.582-1.896,1.257-2.32,2.046c-2.379,3.171,2.643,12.952,3.7,16.653c2.115,6.872,3.964,15.331,6.344,22.204
					c1.585,5.022,3.17,10.573,6.343,14.802c5.015,6.82,23.273-7.976,33.057-18.974c-0.031,8.792-0.227,17.583-1.071,26.375
					c-0.53,7.137-1.058,14.274-1.323,21.676c-0.263,4.228-1.849,12.423,1.059,16.124c1.093,1.407,2.999,2.417,5.279,3.156
					c-0.889-4.17-1.854-8.225-2.246-12.447C179.382,191.187,179.808,183.336,180.502,176.544z"/>
			</g>
			<g>
				<path fill="#3A6660" d="M254.1,193.192c3.931-7.331,6.509-13.645,9.563-21.065c0.552-1.343,2.324-3.704,2.177-5.16
					c-0.324-3.207-1.625-1.719-3.972-3.924c-2.403-2.259-4.716-6.746-6.573-9.598c-3.445-5.293-7.473-10.588-10.768-16.144
					c-1.546-2.607-2.193-5.358-3.711-7.957c-4.973,14.382,0.149,29.714-0.586,44.803c-0.355,7.314-1.827,14.635-1.807,22.021
					c0.012,4.336,0.982,9.717,1.021,14.674c0.712-0.172,1.396-0.357,2.039-0.561c6.08-1.851,3.701-11.895,3.965-17.446
					c0.529-15.331,0-30.133-0.793-45.464c-0.068-1.791-0.101-3.58-0.107-5.368c2.515,3.832,3.177,4.23,6.452,10.125
					c2.642,4.758,6.739,12.688,8.722,16.653c-1.056,2.908,0,5.022-1.32,7.93c-2.643,6.873-6.345,13.48-8.725,20.618
					c-1.057,3.436-3.436,7.665-3.699,11.102c-0.258,1.934-0.071,2.988,0.583,3.867c0.967-2.576,3.066-5.848,3.815-8.005
					C251.621,200.707,252.236,196.671,254.1,193.192z"/>
			</g>
			<g>
				<path fill="#477D82" d="M272.146,154.509c-8.334-15.366-19.382-51.135-37.771-48.616c-1.026-0.069-1.955-0.076-2.671-0.021
					c-4.23,0.264-2.907,0.528-4.493,4.229c-1.324,3.701-3.438,5.021-6.61,6.872c-5.286,2.644-10.308,3.965-15.859,1.586
					c-2.643-1.058-11.631-8.723-9.515-11.366l-1.058-0.793c-2.054,0.548-4.39,0.531-6.643,0.825l0.033-0.296
					c-0.491,0.165-0.967,0.342-1.432,0.528c-1.59,0.334-3.097,0.929-4.382,2.115c-0.235,0.181-0.447,0.388-0.654,0.602
					c-3.662,2.531-6.623,5.888-9.92,9.707c-2.643,3.701-13.744,17.975-17.445,20.618c-2.379-10.309-7.138-26.433-10.045-37.27
					c-2.647,0.407-8.902,1.286-12.481,3.24c3.191,14.148,8.622,27.919,12.559,42.202c5.436,19.719,23.318-2.096,30.972-10.053
					c1.425-1.48,3.721-3.943,5.207-4.617c-0.064,7.35,1.917,14.185,1.999,21.479c0.083,7.513-0.697,13.86-1.435,21.064
					c-0.694,6.792-1.12,14.643-0.481,21.541c0.393,4.222,1.357,8.277,2.246,12.447c5.436,1.754,13.015,1.944,16.924,2.129
					c7.93,0.793,16.387,1.061,24.583,0.266c4.609-0.461,10.825-0.922,15.671-2.083c-0.039-4.957-1.01-10.338-1.021-14.674
					c-0.021-7.386,1.451-14.707,1.807-22.021c0.735-15.089-4.387-30.421,0.586-44.803c1.518,2.599,2.165,5.35,3.711,7.957
					c3.295,5.555,7.322,10.85,10.768,16.144c1.857,2.852,4.17,7.338,6.573,9.598c2.347,2.206,3.647,0.717,3.972,3.924
					c0.147,1.456-1.625,3.816-2.177,5.16c-3.054,7.42-5.632,13.734-9.563,21.065c-1.864,3.479-2.479,7.514-3.724,11.102
					c-0.749,2.157-2.849,5.429-3.815,8.005c0.686,0.922,1.887,1.654,3.646,3.007c1.586,1.057,6.081,4.492,8.195,3.964
					c1.586-0.529,3.436-6.079,4.229-7.666c3.437-7.136,6.609-14.008,9.516-21.411c2.644-6.344,5.287-12.423,5.815-19.56
					C278.491,164.553,275.053,159.795,272.146,154.509z"/>
			</g>
		</g>
		<polygon fill="#FFFFFF" stroke="#5B340A" stroke-width="0.25" stroke-miterlimit="10" points="187.56,106.929 210.262,170.495 
			234.376,105.893 223.031,108.072 210.617,120.131 198.557,107.008 		"/>
		<path fill="#FFFFFF" stroke="#5B340A" stroke-width="0.25" stroke-miterlimit="10" d="M198.255,103.37
			c0,0,9.32,11.15,13.229,15.058l-4.723-1.037l-5.518,7.816c0,0-11.033-11.494-9.884-17.93L198.255,103.37z"/>
		<path fill="#FFFFFF" stroke="#5B340A" stroke-width="0.25" stroke-miterlimit="10" d="M224.181,103.168
			c0,0-8.441,11.307-12.434,15.127l3.621-1.297l5.342,7.936c0,0,13.852-12.602,12.843-19.062L224.181,103.168z"/>
		<circle fill="#061119" cx="211.351" cy="180.274" r="2.45"/>
		<circle fill="#061119" cx="211.351" cy="192.876" r="2.45"/>
		<circle fill="#061119" cx="211.351" cy="205.125" r="2.45"/>
	</g>
	<g>
		<polyline fill-rule="evenodd" clip-rule="evenodd" fill="#E2791C" stroke="#272425" stroke-miterlimit="10" points="
			207.426,126.873 203.524,172.626 214.164,185.04 223.031,170.499 214.873,125.81 		"/>
		<polygon fill-rule="evenodd" clip-rule="evenodd" fill="#E2791C" stroke="#272425" stroke-miterlimit="10" points="
			204.589,125.809 211.748,118.295 219.13,125.809 211.681,133.257 		"/>
	</g>
</g>
</svg>
