<?xml version="1.0" encoding="utf-8"?>
<!-- Generator: Adobe Illustrator 16.0.0, SVG Export Plug-In . SVG Version: 6.00 Build 0)  -->
<!DOCTYPE svg PUBLIC "-//W3C//DTD SVG 1.1//EN" "http://www.w3.org/Graphics/SVG/1.1/DTD/svg11.dtd">
<svg version="1.1" id="Capa_1" xmlns="http://www.w3.org/2000/svg" xmlns:xlink="http://www.w3.org/1999/xlink" x="0px" y="0px"
	 width="482.976px" height="495.829px" viewBox="-19.102 -83.557 482.976 495.829"
	 enable-background="new -19.102 -83.557 482.976 495.829" xml:space="preserve">
<g>
	<linearGradient id="SVGID_1_" gradientUnits="userSpaceOnUse" x1="11.0811" y1="163.4861" x2="177.887" y2="74.484">
		<stop  offset="0.0245" style="stop-color:#FFFFFF"/>
		<stop  offset="0.9807" style="stop-color:#FFFFFF;stop-opacity:0"/>
	</linearGradient>
	<path opacity="0.5" fill="url(#SVGID_1_)" d="M205.897-0.109L22.937,105.535c-3.384,1.954-6.116,6.688-6.104,10.576l0.275,97.019
		c0.011,3.891,2.762,5.456,6.146,3.502L205.897,111.17V-0.109z"/>
	<g>
		<linearGradient id="SVGID_2_" gradientUnits="userSpaceOnUse" x1="-36.6455" y1="178.4324" x2="181.7728" y2="103.2292">
			<stop  offset="0" style="stop-color:#6FB0F7"/>
			<stop  offset="0.1659" style="stop-color:#6EACF5"/>
			<stop  offset="0.3226" style="stop-color:#69A1ED"/>
			<stop  offset="0.4757" style="stop-color:#628EE1"/>
			<stop  offset="0.6265" style="stop-color:#5973CF"/>
			<stop  offset="0.7758" style="stop-color:#4C50B8"/>
			<stop  offset="0.9219" style="stop-color:#3C279D"/>
			<stop  offset="1" style="stop-color:#330D8C"/>
		</linearGradient>
		<path fill="url(#SVGID_2_)" d="M180.207,37.973c-0.012-3.889-2.761-5.457-6.146-3.501L38.385,112.803
			c-3.385,1.955-6.117,6.688-6.106,10.577l0.275,97.019c0.011,3.889,2.76,5.456,6.146,3.503l135.675-78.332
			c3.384-1.956,6.117-6.688,6.105-10.578L180.207,37.973z"/>
		<g>
			<g>
				<path fill="#FFFFFF" d="M125.655,77.642l1.575-0.911l-1.84,11.85l-1.497,0.865l0.136-0.882
					c-0.573,0.902-1.302,1.654-2.181,2.163c-1.672,0.963-2.979,0.457-2.987-1.694c-0.007-2.639,1.624-5.473,3.781-6.719
					c1.045-0.604,1.855-0.661,2.3-0.116L125.655,77.642z M122.244,88.945c1.34-0.773,2.311-2.525,2.307-4.236
					c-0.004-1.209-0.65-1.578-1.789-0.92c-1.342,0.773-2.313,2.527-2.307,4.235C120.458,89.235,121.104,89.604,122.244,88.945"/>
			</g>
			<g>
				<path fill="#FFFFFF" d="M117.093,129.125c2.541-1.466,3.982-0.327,3.992,3.143c0.01,3.719-1.811,6.764-4.466,8.298
					c-0.886,0.511-1.749,0.808-2.359,0.722l0.519-1.512c0.498,0.083,1.133-0.142,1.829-0.546c1.923-1.11,3.136-3.193,3.129-5.922
					l-0.001-0.391c-0.554,1.271-1.554,2.33-2.737,3.012c-1.88,1.086-3.24,0.581-3.246-1.429
					C113.746,132.4,115.213,130.211,117.093,129.125z M117.23,134.534c1.297-0.749,2.191-2.186,2.189-3.376
					c-0.004-1.121-0.791-1.657-2.269-0.804c-1.238,0.714-2.086,2.036-2.083,3.326C115.071,134.96,115.9,135.303,117.23,134.534"/>
			</g>
			<g>
				<polygon fill="#FFFFFF" points="125.265,124.537 125.294,135.426 123.956,136.198 123.929,126.66 121.796,127.89 
					121.793,126.542 				"/>
			</g>
			<g>
				<polygon fill="#FFFFFF" points="160.698,104.08 160.729,114.97 159.379,115.748 159.353,106.21 157.222,107.441 157.216,106.09 
									"/>
			</g>
			<g>
				<path fill="#FFFFFF" d="M168.869,99.362l0.002,1.061l-2.461,4.936c1.889-0.879,2.859-0.206,2.863,1.472
					c0.005,1.831-1.166,4.009-3.576,5.4c-1.357,0.786-2.69,1.053-3.483,0.69l0.613-1.587c0.638,0.314,1.7,0.182,2.867-0.492
					c1.418-0.819,2.225-2.027,2.222-3.216c-0.003-1.151-0.718-1.488-2.347-0.548l-0.756,0.438l-0.003-1.081l2.375-4.746
					l-4.569,2.638l-0.003-1.35L168.869,99.362z"/>
			</g>
			<g>
				<path fill="#E0A400" d="M156.933,129.097c2.337,0.654,3.849,2.975,3.838,6.567c0,0.057,0,0.115-0.001,0.172
					c-0.059,3.699-1.686,7.824-4.124,11.146c-2.3-0.642-3.802-2.91-3.832-6.41c0-0.114,0-0.228,0.002-0.343
					C152.876,136.539,154.494,132.42,156.933,129.097z"/>
			</g>
			<g>
				<path fill="#E0C173" d="M52.356,114.893l0.008,3.359l-11.843,6.837c0.162-1.978,1.556-4.262,3.229-5.227L52.356,114.893z"/>
			</g>
			<g>
				<path fill="#FFFFFF" d="M102.388,91.546c1.514-0.874,2.743-0.994,3.365-0.25l-1.18,1.833c-0.49-0.49-1.249-0.474-2.292,0.131
					c-2.263,1.307-3.667,4.08-3.661,6.459c0.005,1.68,0.966,2.248,2.766,1.208c0.993-0.573,1.845-1.446,2.513-2.622l0.961,0.627
					c-0.85,1.632-2.128,2.88-3.59,3.726c-2.688,1.55-4.305,0.7-4.312-1.859C96.949,97.36,99.107,93.439,102.388,91.546z"/>
			</g>
			<g>
				<path fill="#FFFFFF" d="M111.052,89.006l-0.281,1.896c-0.141,0.05-0.245,0.101-0.392,0.185c-1.235,0.713-2.06,1.91-2.334,3.681
					l-0.659,4.207l-1.575,0.91l1.317-8.522l1.498-0.865l-0.171,1.101C109.07,90.431,109.913,89.664,111.052,89.006z"/>
			</g>
			<g>
				<path fill="#FFFFFF" d="M118.033,88.381c0,0.39-0.033,0.791-0.103,1.16l-5.35,3.09c0.029,1.225,0.649,1.529,1.954,0.774
					c0.766-0.442,1.47-1.139,1.939-1.918l0.665,0.886c-0.713,1.134-1.729,2.07-2.765,2.667c-2.036,1.176-3.328,0.571-3.333-1.49
					c-0.008-2.63,1.613-5.469,3.876-6.774C116.787,85.695,118.026,86.262,118.033,88.381z M112.716,91.351l3.864-2.229
					c0.014-1.201-0.684-1.459-1.738-0.852C113.772,88.888,113,90.046,112.716,91.351"/>
			</g>
			<g>
				<path fill="#FFFFFF" d="M130.057,74.67c0.564-0.326,0.949-0.118,0.95,0.423c0.003,0.709-0.432,1.451-1.075,1.823
					c-0.565,0.326-0.942,0.082-0.943-0.468C128.987,75.788,129.412,75.042,130.057,74.67z"/>
			</g>
			<g>
				<polygon fill="#FFFFFF" points="127.469,87.38 128.788,78.858 130.371,77.942 129.052,86.466 				"/>
			</g>
			<g>
				<path fill="#FFFFFF" d="M134.517,73.837l-0.308,1.951l1.817-1.049l-0.248,1.594l-1.818,1.05l-0.625,4.006
					c-0.009,0.125-0.024,0.244-0.024,0.355c0.002,0.53,0.246,0.728,0.801,0.407c0.305-0.176,0.618-0.466,0.879-0.817l0.281,1.179
					c-0.475,0.626-1.067,1.078-1.624,1.398c-1.149,0.664-1.934,0.346-1.938-0.955c0-0.189,0.007-0.404,0.05-0.638l0.633-4.031
					l-1.103,0.637l0.255-1.601l1.098-0.633l0.299-1.945L134.517,73.837z"/>
			</g>
			<g>
				<path fill="#FFFFFF" d="M145.712,66.531c1.514-0.874,2.743-0.992,3.365-0.249l-1.189,1.838
					c-0.481-0.494-1.239-0.477-2.283,0.126c-2.263,1.306-3.675,4.084-3.668,6.464c0.004,1.68,0.973,2.243,2.774,1.202
					c0.991-0.573,1.845-1.445,2.512-2.622l0.96,0.627c-0.849,1.632-2.126,2.88-3.589,3.724c-2.688,1.552-4.303,0.704-4.31-1.856
					C140.274,72.345,142.423,68.429,145.712,66.531z"/>
			</g>
			<g>
				<path fill="#FFFFFF" d="M155.215,63.6l1.575-0.91l-1.32,8.524l-1.495,0.862l0.137-0.88c-0.574,0.912-1.312,1.658-2.201,2.17
					c-1.652,0.956-2.969,0.454-2.976-1.696c-0.008-2.64,1.632-5.479,3.79-6.725c1.044-0.603,1.846-0.655,2.301-0.087L155.215,63.6z
					 M152.316,71.582c1.332-0.768,2.321-2.53,2.315-4.24c-0.003-1.211-0.649-1.578-1.789-0.921c-1.34,0.773-2.32,2.531-2.315,4.241
					C150.531,71.872,151.176,72.24,152.316,71.582"/>
			</g>
			<g>
				<path fill="#FFFFFF" d="M169.572,52.286l1.575-0.91l-1.84,11.85l-1.497,0.864l0.137-0.88c-0.573,0.902-1.303,1.653-2.182,2.161
					c-1.671,0.965-2.971,0.454-2.976-1.697c-0.009-2.641,1.615-5.469,3.772-6.714c1.044-0.603,1.854-0.661,2.301-0.116
					L169.572,52.286z M166.161,63.59c1.34-0.774,2.312-2.526,2.306-4.237c-0.001-1.209-0.648-1.577-1.79-0.92
					c-1.34,0.775-2.311,2.527-2.306,4.235C164.375,63.879,165.021,64.248,166.161,63.59"/>
			</g>
			<g enable-background="new    ">
				<g>
					<path fill="#FFFFFF" d="M97.405,144.908c1.889-1.091,3.259-0.59,3.264,1.421c0.006,2.099-1.471,4.292-3.348,5.378
						c-2.55,1.472-3.99,0.341-4.001-3.128c-0.011-3.72,1.82-6.779,4.473-8.313c0.889-0.512,1.742-0.794,2.353-0.716l-0.51,1.515
						c-0.489-0.097-1.132,0.133-1.812,0.526c-1.923,1.11-3.155,3.214-3.147,5.934c0,0.129,0.001,0.249,0.018,0.378
						C95.232,146.663,96.231,145.587,97.405,144.908z M97.265,150.478c1.226-0.708,2.095-2.041,2.091-3.331
						c-0.004-1.28-0.843-1.617-2.174-0.848c-1.287,0.743-2.181,2.181-2.177,3.38C95.008,150.8,95.803,151.322,97.265,150.478"/>
				</g>
				<g>
					<path fill="#E0C173" d="M53.12,135.314l-0.009-3.36l11.79-6.808c-0.161,1.979-1.555,4.262-3.228,5.229L53.12,135.314z"/>
				</g>
				<g>
					<path fill="#E0C173" d="M55.992,124.971c0.424-0.816,0.527-1.485,0.552-1.881l8.354-4.823l0.018,6.12l-11.809,6.818
						l-0.009-3.281C54.439,127.08,55.412,126.079,55.992,124.971z"/>
				</g>
				<g>
					<path fill="#E0C173" d="M40.561,139.2l11.904-6.875l0.011,3.36l-8.667,5.004C42.136,141.655,40.735,140.985,40.561,139.2z"/>
				</g>
				<g>
					<polygon fill="#E0C173" points="52.368,119.003 52.376,122.212 40.517,129.059 40.506,125.85 					"/>
				</g>
				<g>
					<path fill="#EBECEC" d="M53.008,114.516l0.011,3.359l11.842-6.837l0.02,0.739l-11.861,6.849l0.008,3.198
						c1.203-0.682,3.049-1.218,3.455,0.562l8.414-4.859l0.002,0.74l-8.354,4.823c-0.025,0.396-0.128,1.065-0.552,1.881
						c-0.58,1.107-1.553,2.109-2.894,2.953l0.009,3.281l11.809-6.818l0.002,0.75l-11.807,6.816l0.009,3.36l-0.644,0.371l-0.011-3.36
						L40.561,139.2l-0.017-0.37l-0.002-0.372l11.922-6.881l-0.009-3.271l-11.921,6.882l-0.003-0.749l12.244-7.069
						c1.305-0.762,2.218-1.641,2.721-2.602c0.468-0.903,0.396-1.572,0.396-1.582c-0.214-1.991-2.287-0.947-2.958-0.559
						c-0.115,0.067-0.189,0.112-0.208,0.124l-0.347,0.23l-11.861,6.819l-0.001-0.742l11.859-6.848l-0.009-3.208l-11.861,6.847
						l0-0.37v-0.38l11.859-6.847l-0.008-3.359L53.008,114.516z"/>
				</g>
				<g>
					<path fill="#FFFFFF" d="M107.467,140.001c1.09-0.148,1.685,0.42,1.687,1.66c0.007,1.98-1.452,4.052-3.767,5.389
						c-2.298,1.327-3.755,0.937-3.758-1.045c-0.004-1.239,0.593-2.506,1.654-3.589c-0.862,0.038-1.326-0.505-1.329-1.586
						c-0.005-1.82,1.358-3.747,3.402-4.929c2.063-1.189,3.45-0.85,3.453,0.971C108.813,137.953,108.336,139.039,107.467,140.001z
						 M105.384,145.791c1.504-0.87,2.424-2.172,2.422-3.392c-0.003-1.201-0.93-1.417-2.433-0.549
						c-1.506,0.87-2.392,2.132-2.388,3.332C102.988,146.404,103.877,146.659,105.384,145.791 M105.359,137.163
						c-1.271,0.732-2.069,1.865-2.067,2.956c0.004,1.079,0.78,1.302,2.076,0.553c1.314-0.76,2.113-1.891,2.11-2.97
						C107.476,136.611,106.637,136.423,105.359,137.163"/>
				</g>
				<g>
					<path fill="#E0C173" d="M53.02,118.627l11.861-6.849l0.016,5.75l-8.414,4.859c-0.406-1.78-2.252-1.244-3.455-0.562
						L53.02,118.627z"/>
				</g>
				<g>
					<path fill="#E0C173" d="M61.614,109.549c1.672-0.967,3.073-0.296,3.247,1.49l-11.842,6.837l-0.011-3.359L61.614,109.549z"/>
				</g>
				<g>
					<polygon fill="#E0C173" points="52.455,128.306 52.464,131.577 40.542,138.458 40.534,135.188 					"/>
				</g>
				<g>
					<path fill="#E0C173" d="M55.496,124.769c-0.503,0.961-1.417,1.839-2.721,2.602l-12.244,7.069l-0.013-4.638l11.861-6.85
						l0.347-0.199c0.019-0.012,0.093-0.057,0.208-0.124c0.671-0.388,2.744-1.432,2.958,0.559
						C55.892,123.197,55.964,123.866,55.496,124.769z"/>
				</g>
			</g>
			<g>
				<polygon fill="#FFFFFF" points="46.201,170.184 46.233,181.073 44.894,181.846 44.866,172.309 42.726,173.545 42.72,172.194 
									"/>
			</g>
			<g>
				<path fill="#FFFFFF" d="M51.275,167.124c1.983-1.145,3.258-0.708,3.263,1.163c0.003,1.059-0.265,2.166-1.549,4.318l-2.888,4.883
					l4.865-2.809l0.003,1.35l-6.813,3.934l-0.004-1.051l3.843-6.504c1.007-1.713,1.186-2.498,1.186-3.179
					c-0.003-1.13-0.693-1.413-2.024-0.644c-1.01,0.582-1.836,1.429-2.416,2.575l-0.925-0.387
					C48.544,169.313,49.803,167.974,51.275,167.124z"/>
			</g>
			<g>
				<path fill="#FFFFFF" d="M62.152,160.976l0.003,1.061l-2.47,4.94c1.897-0.886,2.857-0.208,2.863,1.471
					c0.003,1.831-1.167,4.009-3.576,5.4c-1.358,0.785-2.682,1.048-3.484,0.689l0.623-1.59c0.637,0.312,1.691,0.183,2.856-0.488
					c1.42-0.819,2.235-2.032,2.232-3.222c-0.003-1.148-0.727-1.483-2.355-0.543l-0.757,0.437l-0.003-1.081l2.375-4.745l-4.56,2.632
					l-0.003-1.351L62.152,160.976z"/>
			</g>
			<g>
				<polygon fill="#FFFFFF" points="69.958,156.469 65.329,166.031 68.976,163.926 68.969,161.557 70.241,160.823 70.246,163.193 
					72.048,162.152 72.051,163.492 70.25,164.532 70.258,167.203 68.945,167.962 68.937,165.291 63.673,168.329 63.669,167.24 
					68.496,157.312 				"/>
			</g>
			<g>
				<path fill="#FFFFFF" d="M82.601,149.169l0.003,1.35l-4.212,2.432l-0.244,3.136l1.053-0.608c2.829-1.632,3.946-0.917,3.952,1.014
					c0.006,1.881-1.156,4.063-3.585,5.465c-1.339,0.773-2.663,1.037-3.475,0.683l0.615-1.586c0.636,0.313,1.7,0.181,2.847-0.483
					c1.438-0.828,2.242-2.055,2.241-3.235c-0.003-1.229-0.677-1.603-2.877-0.332l-2.149,1.241l0.479-5.985L82.601,149.169z"/>
			</g>
			<g>
				<polygon fill="#FFFFFF" points="90.423,144.653 85.805,154.21 89.443,152.11 89.436,149.74 90.714,149.001 90.721,151.37 
					92.523,150.332 92.526,151.671 90.726,152.711 90.733,155.38 89.418,156.139 89.412,153.471 84.138,156.513 84.136,155.425 
					88.962,145.498 				"/>
			</g>
			<g>
				<path fill="#FFFFFF" d="M131.215,120.971c2.202-1.271,3.862-0.197,3.872,3.354c0.01,3.539-1.638,6.523-3.839,7.794
					c-2.228,1.288-3.888,0.212-3.898-3.329C127.341,125.24,128.989,122.257,131.215,120.971z M131.243,130.73
					c1.471-0.85,2.494-2.841,2.487-5.622c-0.01-2.791-1.041-3.595-2.51-2.748c-1.498,0.865-2.52,2.857-2.512,5.647
					C128.716,130.788,129.748,131.594,131.243,130.73"/>
			</g>
			<g>
				<polygon fill="#FFFFFF" points="139.266,116.453 139.296,127.344 137.957,128.116 137.929,118.577 135.788,119.814 
					135.786,118.464 				"/>
			</g>
			<g>
				<polygon fill="#FFFFFF" points="147.915,111.46 147.946,122.348 146.606,123.124 146.578,113.584 144.438,114.819 
					144.435,113.469 				"/>
			</g>
			<g>
				<path fill="#E0006C" d="M151.274,130.21c0.074-0.043,0.148-0.087,0.224-0.127c2.045-1.13,3.918-1.411,5.435-0.986
					c-2.438,3.323-4.056,7.442-4.116,11.131c-0.002,0.115-0.002,0.229-0.002,0.343c0.03,3.5,1.532,5.769,3.832,6.41
					c-1.513,2.054-3.332,3.799-5.3,4.934c-0.068,0.041-0.135,0.077-0.205,0.117c-5.22,2.883-9.369,0.301-9.271-5.762
					C141.965,140.301,146.153,133.165,151.274,130.21z"/>
			</g>
			<g>
				<path fill="#E0D900" d="M162.232,124.154c0.068-0.04,0.135-0.077,0.205-0.116c5.222-2.873,9.377-0.305,9.272,5.764
					c-0.094,5.983-4.292,13.116-9.419,16.076c-0.07,0.041-0.14,0.081-0.21,0.119c-2.036,1.125-3.909,1.406-5.434,0.985
					c2.438-3.321,4.065-7.446,4.124-11.146c0.001-0.057,0.001-0.115,0.001-0.172c0.01-3.592-1.501-5.913-3.838-6.567
					C158.452,127.03,160.273,125.284,162.232,124.154z"/>
			</g>
			<g>
				<path fill="#FFFFFF" d="M152.987,108.402c1.985-1.146,3.258-0.711,3.263,1.16c0.003,1.06-0.263,2.166-1.547,4.318l-2.889,4.883
					l4.865-2.808l0.004,1.348l-6.814,3.936l-0.003-1.051l3.842-6.505c1.006-1.712,1.188-2.496,1.185-3.178
					c-0.002-1.128-0.693-1.413-2.024-0.643c-1.008,0.583-1.834,1.43-2.416,2.576l-0.925-0.388
					C150.258,110.589,151.518,109.25,152.987,108.402z"/>
			</g>
			<g>
				<path fill="#FFFFFF" d="M162.784,59.139l-0.282,1.896c-0.14,0.05-0.244,0.101-0.391,0.186c-1.236,0.714-2.061,1.912-2.334,3.683
					l-0.659,4.205l-1.575,0.911l1.316-8.522l1.507-0.87l-0.18,1.105C160.801,60.565,161.654,59.793,162.784,59.139z"/>
			</g>
		</g>
	</g>
	<g opacity="0.5">
		<g>
			<linearGradient id="SVGID_3_" gradientUnits="userSpaceOnUse" x1="-1.9351" y1="84.5203" x2="176.4282" y2="-11.2949">
				<stop  offset="0.0245" style="stop-color:#FFFFFF"/>
				<stop  offset="0.9807" style="stop-color:#FFFFFF;stop-opacity:0"/>
			</linearGradient>
			<polygon fill="url(#SVGID_3_)" points="45.044,41.233 60.774,50.198 45.147,77.28 45.124,69.265 53.81,54.219 45.065,49.236 			
				"/>
		</g>
		<g>
			<linearGradient id="SVGID_4_" gradientUnits="userSpaceOnUse" x1="-1.6938" y1="84.9788" x2="176.6852" y2="-10.8449">
				<stop  offset="0.0245" style="stop-color:#FFFFFF"/>
				<stop  offset="0.9807" style="stop-color:#FFFFFF;stop-opacity:0"/>
			</linearGradient>
			<polygon fill="url(#SVGID_4_)" points="30.399,49.689 46.14,58.646 30.5,85.735 30.478,77.719 39.165,62.673 30.421,57.691 			
				"/>
		</g>
		<g>
			<linearGradient id="SVGID_5_" gradientUnits="userSpaceOnUse" x1="-1.4482" y1="85.4343" x2="176.9265" y2="-10.387">
				<stop  offset="0.0245" style="stop-color:#FFFFFF"/>
				<stop  offset="0.9807" style="stop-color:#FFFFFF;stop-opacity:0"/>
			</linearGradient>
			<polygon fill="url(#SVGID_5_)" points="15.762,58.136 31.494,67.103 15.865,94.185 15.842,86.17 24.529,71.123 15.786,66.141 			
				"/>
		</g>
		<g>
			<linearGradient id="SVGID_6_" gradientUnits="userSpaceOnUse" x1="-2.1846" y1="84.0647" x2="176.1896" y2="-11.7563">
				<stop  offset="0.0245" style="stop-color:#FFFFFF"/>
				<stop  offset="0.9807" style="stop-color:#FFFFFF;stop-opacity:0"/>
			</linearGradient>
			<polygon fill="url(#SVGID_6_)" points="59.679,32.782 75.419,41.741 59.781,68.828 59.758,60.814 68.445,45.767 59.703,40.784 
							"/>
		</g>
		<g>
			<linearGradient id="SVGID_7_" gradientUnits="userSpaceOnUse" x1="-2.4268" y1="83.6077" x2="175.9437" y2="-12.2114">
				<stop  offset="0.0245" style="stop-color:#FFFFFF"/>
				<stop  offset="0.9807" style="stop-color:#FFFFFF;stop-opacity:0"/>
			</linearGradient>
			<polygon fill="url(#SVGID_7_)" points="74.325,24.326 90.065,33.286 74.427,60.374 74.404,52.36 83.092,37.312 74.347,32.331 			
				"/>
		</g>
		<g>
			<linearGradient id="SVGID_8_" gradientUnits="userSpaceOnUse" x1="-2.6699" y1="83.1506" x2="175.6966" y2="-12.6663">
				<stop  offset="0.0245" style="stop-color:#FFFFFF"/>
				<stop  offset="0.9807" style="stop-color:#FFFFFF;stop-opacity:0"/>
			</linearGradient>
			<polygon fill="url(#SVGID_8_)" points="88.969,15.871 104.7,24.836 89.072,51.918 89.049,43.905 97.727,28.864 88.993,23.874 			
				"/>
		</g>
		<g>
			<linearGradient id="SVGID_9_" gradientUnits="userSpaceOnUse" x1="-2.9219" y1="82.6985" x2="175.4556" y2="-13.1243">
				<stop  offset="0.0245" style="stop-color:#FFFFFF"/>
				<stop  offset="0.9807" style="stop-color:#FFFFFF;stop-opacity:0"/>
			</linearGradient>
			<polygon fill="url(#SVGID_9_)" points="103.604,7.423 119.345,16.381 103.707,43.469 103.683,35.455 112.372,20.407 
				103.628,15.426 			"/>
		</g>
		<g>
			<linearGradient id="SVGID_10_" gradientUnits="userSpaceOnUse" x1="-3.4082" y1="81.7844" x2="174.9643" y2="-14.0357">
				<stop  offset="0.0245" style="stop-color:#FFFFFF"/>
				<stop  offset="0.9807" style="stop-color:#FFFFFF;stop-opacity:0"/>
			</linearGradient>
			<polygon fill="url(#SVGID_10_)" points="132.886,-9.483 148.626,-0.524 132.988,26.563 132.965,18.549 141.652,3.502 
				132.907,-1.48 			"/>
		</g>
		<g>
			<linearGradient id="SVGID_11_" gradientUnits="userSpaceOnUse" x1="-3.166" y1="82.2419" x2="175.2108" y2="-13.5805">
				<stop  offset="0.0245" style="stop-color:#FFFFFF"/>
				<stop  offset="0.9807" style="stop-color:#FFFFFF;stop-opacity:0"/>
			</linearGradient>
			<polygon fill="url(#SVGID_11_)" points="118.25,-1.033 133.982,7.931 118.352,35.013 118.33,26.999 127.017,11.953 118.272,6.97 
							"/>
		</g>
		<g>
			<linearGradient id="SVGID_12_" gradientUnits="userSpaceOnUse" x1="-3.6563" y1="81.3279" x2="174.7185" y2="-14.4934">
				<stop  offset="0.0245" style="stop-color:#FFFFFF"/>
				<stop  offset="0.9807" style="stop-color:#FFFFFF;stop-opacity:0"/>
			</linearGradient>
			<polygon fill="url(#SVGID_12_)" points="147.531,-17.939 163.262,-8.973 147.632,18.109 147.61,10.094 156.297,-4.953 
				147.553,-9.936 			"/>
		</g>
	</g>
</g>
<g>
	<g>
		<path fill="#12258A" d="M77.653,314.797L116,292.658l-0.171-60.063l-9.216,5.32l-0.009-3.384
			c-0.019-6.558-4.677-9.213-10.385-5.916c-5.704,3.293-10.33,11.308-10.313,17.865l0.01,3.385l-8.766,4.998v60.084
			C77.67,314.743,77.66,314.769,77.653,314.797z M88.322,245.087c-0.015-5.024,3.533-11.169,7.906-13.693
			c4.372-2.526,7.944-0.49,7.958,4.534l0.01,3.384l-15.866,9.159L88.322,245.087z"/>
		<g>
			<g>
				<polygon fill="#5B71F7" points="77.114,254.891 77.276,314.899 88.454,321.537 88.292,261.531 				"/>
			</g>
		</g>
		<g>
			<g>
				<polygon fill="#0A184A" points="115.877,232.651 115.708,292.743 127.074,299.068 127.244,238.976 				"/>
			</g>
		</g>
		<path fill="#475DE0" d="M88.281,261.478l0.17,60.063l38.979-22.504l-0.17-60.063l-9.216,5.321l-0.01-3.385
			c-0.017-6.559-4.675-9.213-10.382-5.917c-5.706,3.294-10.333,11.309-10.314,17.865l0.009,3.385L88.281,261.478z M99.751,251.465
			c-0.014-5.023,3.535-11.17,7.907-13.694c4.374-2.525,7.943-0.49,7.959,4.534l0.009,3.385l-15.864,9.16L99.751,251.465z"/>
	</g>
	<g>
		<path fill="#690033" d="M110.017,334.948l38.345-22.14l-0.17-60.063l-9.215,5.321l-0.01-3.384
			c-0.019-6.561-4.675-9.214-10.383-5.918c-5.705,3.295-10.332,11.307-10.313,17.866l0.01,3.385l-8.767,4.995v60.086
			C110.034,334.895,110.024,334.92,110.017,334.948z M120.685,265.238c-0.014-5.024,3.533-11.17,7.907-13.692
			c4.373-2.526,7.944-0.491,7.958,4.534l0.01,3.383l-15.866,9.158L120.685,265.238z"/>
		<g>
			<g>
				<polygon fill="#F73994" points="109.477,275.043 109.639,335.049 120.817,341.688 120.655,281.683 				"/>
			</g>
		</g>
		<g>
			<g>
				<polygon fill="#4A002D" points="148.241,252.803 148.07,312.895 159.438,319.217 159.608,259.127 				"/>
			</g>
		</g>
		<path fill="#E0006C" d="M120.645,281.629l0.17,60.063l38.979-22.505l-0.17-60.063l-9.216,5.321l-0.01-3.386
			c-0.019-6.559-4.676-9.211-10.381-5.916c-5.706,3.293-10.333,11.308-10.314,17.866l0.008,3.386L120.645,281.629z M132.116,271.615
			c-0.014-5.024,3.535-11.169,7.907-13.694c4.372-2.524,7.943-0.488,7.958,4.535l0.009,3.385l-15.864,9.158L132.116,271.615z"/>
	</g>
</g>
<g>
	<g opacity="0.5">
		<path fill="#FFFFFF" d="M411.859-27.193c1.923,1.11,3.476,3.799,3.469,6.009c-0.006,2.207-1.57,3.098-3.491,1.988
			c-1.922-1.11-3.476-3.799-3.471-6.007C408.373-27.413,409.939-28.302,411.859-27.193z"/>
	</g>
	<g opacity="0.25">
		<path fill="#FFFFFF" d="M391.928,6.159c1.921,1.109,3.476,3.798,3.469,6.009c-0.006,2.208-1.57,3.098-3.491,1.988
			c-1.922-1.11-3.476-3.8-3.469-6.008C388.442,5.939,390.006,5.05,391.928,6.159z"/>
	</g>
	<g opacity="0.1">
		<path fill="#FFFFFF" d="M374.689-40.864c1.922,1.11,3.476,3.799,3.467,6.009c-0.005,2.207-1.566,3.098-3.489,1.988
			c-1.922-1.11-3.476-3.8-3.471-6.008C371.203-41.082,372.767-41.973,374.689-40.864z"/>
	</g>
	<g opacity="0.1">
		<path fill="#FFFFFF" d="M398.645-74.4c1.922,1.11,3.474,3.799,3.467,6.009c-0.005,2.207-1.567,3.098-3.491,1.988
			c-1.922-1.11-3.476-3.8-3.471-6.008C395.159-74.619,396.721-75.51,398.645-74.4z"/>
	</g>
	<g opacity="0.1">
		<path fill="#FFFFFF" d="M402.821,74.489c1.924,1.11,3.475,3.799,3.469,6.01c-0.007,2.206-1.569,3.097-3.493,1.987
			c-1.919-1.11-3.474-3.799-3.468-6.008C399.335,74.271,400.898,73.379,402.821,74.489z"/>
	</g>
	<g opacity="0.5">
		<path fill="#FFFFFF" d="M346.598-27.9c1.925,1.11,3.476,3.8,3.471,6.009c-0.006,2.207-1.569,3.098-3.491,1.988
			c-1.922-1.11-3.474-3.799-3.469-6.008C343.114-28.12,344.678-29.01,346.598-27.9z"/>
	</g>
	<g opacity="0.5">
		<path fill="#FFFFFF" d="M419.816,37.945c1.923,1.112,3.476,3.801,3.47,6.009c-0.008,2.209-1.569,3.098-3.492,1.989
			c-1.92-1.11-3.476-3.801-3.469-6.007C416.332,37.726,417.894,36.836,419.816,37.945z"/>
	</g>
	<g opacity="0.5">
		<path fill="#FFFFFF" d="M305.693-56.277c1.922,1.11,3.474,3.799,3.469,6.008c-0.007,2.207-1.57,3.099-3.491,1.989
			c-1.922-1.11-3.476-3.799-3.471-6.007C302.207-56.497,303.771-57.387,305.693-56.277z"/>
	</g>
</g>
<g>
	<linearGradient id="SVGID_13_" gradientUnits="userSpaceOnUse" x1="296.478" y1="135.7996" x2="392.7328" y2="135.7996">
		<stop  offset="0.0245" style="stop-color:#FFFFFF"/>
		<stop  offset="0.9807" style="stop-color:#FFFFFF;stop-opacity:0"/>
	</linearGradient>
	<path opacity="0.5" fill="url(#SVGID_13_)" d="M384.054,39.238h-0.002c0-0.246-0.003-0.545-0.009-0.746
		c-0.009-0.266-0.021-0.533-0.038-0.8s-0.038-0.534-0.063-0.804c-0.026-0.268-0.056-0.539-0.091-0.809
		c-0.034-0.276-0.074-0.553-0.118-0.829c-0.043-0.279-0.092-0.558-0.144-0.837c-0.054-0.287-0.112-0.575-0.175-0.863
		c-0.064-0.288-0.132-0.576-0.201-0.864c-0.075-0.292-0.149-0.584-0.231-0.877c-0.081-0.291-0.164-0.582-0.255-0.872
		c-0.086-0.286-0.179-0.571-0.273-0.855c-0.094-0.281-0.192-0.562-0.295-0.843c-0.098-0.269-0.199-0.54-0.304-0.81
		c-0.103-0.267-0.212-0.535-0.322-0.802c-0.109-0.264-0.223-0.526-0.339-0.789c-0.116-0.266-0.237-0.532-0.362-0.797
		c-0.137-0.291-0.277-0.582-0.421-0.873c-0.167-0.331-0.339-0.662-0.514-0.99c-0.262-0.49-0.532-0.975-0.813-1.453
		c-0.392-0.664-0.8-1.314-1.226-1.953c-0.339-0.506-0.688-1.002-1.046-1.492c-0.241-0.324-0.486-0.647-0.735-0.964
		c-0.208-0.265-0.422-0.528-0.637-0.787c-0.212-0.251-0.423-0.5-0.639-0.748c-0.211-0.239-0.427-0.477-0.644-0.712
		c-0.222-0.238-0.447-0.476-0.676-0.708c-0.23-0.232-0.462-0.463-0.695-0.688c-0.241-0.229-0.484-0.455-0.727-0.676
		c-0.243-0.217-0.487-0.432-0.735-0.64c-0.243-0.205-0.487-0.405-0.735-0.601c-0.241-0.188-0.482-0.374-0.726-0.552
		c-0.237-0.175-0.479-0.345-0.718-0.512c-0.234-0.16-0.467-0.314-0.702-0.463c-0.232-0.148-0.467-0.291-0.701-0.429
		c-0.054-0.031-0.107-0.063-0.161-0.093l-92.608-53.469c-0.176-0.101-0.351-0.198-0.526-0.293c-0.227-0.123-0.452-0.241-0.676-0.351
		c-0.146-0.072-0.291-0.139-0.438-0.206c-0.034-0.016-0.067-0.032-0.102-0.047c-0.044-0.021-0.087-0.042-0.131-0.063
		c-0.222-0.099-0.443-0.193-0.66-0.279c-0.224-0.091-0.447-0.174-0.668-0.252c-0.04-0.013-0.074-0.024-0.114-0.036
		c-0.033-0.012-0.066-0.023-0.099-0.033c-0.149-0.05-0.301-0.103-0.449-0.147c-0.229-0.07-0.456-0.132-0.682-0.188
		c-0.109-0.027-0.216-0.047-0.326-0.072c-0.045-0.011-0.094-0.022-0.141-0.031c-0.071-0.015-0.143-0.033-0.212-0.048
		c-0.244-0.047-0.485-0.085-0.723-0.119l-0.031,0.019l0,0l0.031-0.019c-0.146-0.019-0.292-0.03-0.436-0.043
		c-0.051-0.006-0.103-0.012-0.152-0.016c-0.049-0.005-0.1-0.012-0.147-0.016c-0.262-0.018-0.521-0.026-0.775-0.026
		c-0.114,0.001-0.222,0.011-0.335,0.018c-0.087,0.002-0.172,0.005-0.257,0.011c-0.088,0.006-0.18,0.004-0.267,0.013
		c-0.324,0.028-0.642,0.076-0.952,0.138c-0.006,0.001-0.011,0.002-0.018,0.004c-0.069,0.015-0.132,0.04-0.199,0.055
		c-0.319,0.073-0.635,0.15-0.937,0.259c-0.469,0.166-0.916,0.372-1.337,0.617l-5.397,3.136c0.009-0.004,0.019-0.007,0.029-0.013
		c-2.983,1.717-4.835,5.387-4.851,10.612l-0.744,262.553c-0.029,10.487,7.345,23.261,16.473,28.529l92.606,53.467
		c4.883,2.819,9.262,2.898,12.299,0.778c-0.179,0.125-0.351,0.265-0.538,0.374l5.396-3.135c0.335-0.193,0.65-0.421,0.954-0.666
		c0.094-0.071,0.18-0.152,0.269-0.232c0.215-0.187,0.422-0.386,0.619-0.597c0.085-0.092,0.172-0.185,0.255-0.28
		c0.224-0.266,0.438-0.547,0.64-0.846c0.031-0.049,0.069-0.094,0.103-0.144c0.007-0.013,0.016-0.021,0.022-0.031
		c0.226-0.354,0.434-0.732,0.625-1.131c0.005-0.013,0.01-0.027,0.017-0.042c0.02-0.041,0.035-0.087,0.054-0.127
		c0.113-0.25,0.226-0.503,0.326-0.771c0.049-0.132,0.089-0.273,0.134-0.408c0.027-0.081,0.056-0.162,0.082-0.243
		c0.022-0.074,0.05-0.143,0.07-0.217c0.082-0.274,0.154-0.558,0.221-0.844c0.024-0.102,0.043-0.208,0.063-0.312
		c0.014-0.067,0.027-0.132,0.04-0.2c0.021-0.1,0.043-0.197,0.061-0.299c0.045-0.258,0.083-0.521,0.118-0.788
		c0.019-0.149,0.032-0.303,0.047-0.453c0.005-0.053,0.01-0.104,0.017-0.157c0.006-0.064,0.013-0.123,0.02-0.186
		c0.021-0.257,0.036-0.516,0.047-0.78c0.009-0.2,0.014-0.529,0.018-0.796v-0.002l0.003-0.001c0-0.016,0-0.032,0-0.048l0.742-262.365
		h0.002c0-0.018-0.002-0.05-0.002-0.072L384.054,39.238z M365.358,312.522c0.02,0.004,0.035,0.004,0.054,0.009h0.002
		C365.393,312.526,365.377,312.526,365.358,312.522z M368.797,308.17L368.797,308.17h0.002H368.797z M368.896,312.606h0.004h0.002
		C368.9,312.606,368.9,312.606,368.896,312.606z M371.247,305.126c-0.026,0.068-0.053,0.134-0.08,0.202
		c0.027-0.068,0.056-0.136,0.081-0.206C371.248,305.123,371.247,305.125,371.247,305.126z"/>
	<g>
		<g>
			<g enable-background="new    ">
				<g enable-background="new    ">
					<defs>
						<path id="SVGID_14_" enable-background="new    " d="M357.85,321.97l-5.396,3.136c2.966-1.724,4.807-5.39,4.822-10.6
							l5.395-3.136C362.656,316.58,360.816,320.246,357.85,321.97z"/>
					</defs>
					<clipPath id="SVGID_15_">
						<use xlink:href="#SVGID_14_"  overflow="visible"/>
					</clipPath>
					<path clip-path="url(#SVGID_15_)" fill="#2D2D2D" d="M357.277,314.506l5.395-3.136c0,0.016,0,0.031,0,0.048l-5.395,3.136
						C357.277,314.537,357.277,314.522,357.277,314.506"/>
				</g>
				<path fill="#212121" d="M237.182-31.195l5.394-3.135c0.425-0.246,0.871-0.452,1.339-0.618l-5.396,3.136
					C238.051-31.647,237.605-31.441,237.182-31.195"/>
				<g>
					<linearGradient id="SVGID_16_" gradientUnits="userSpaceOnUse" x1="294.8198" y1="37.033" x2="294.8198" y2="326.9514">
						<stop  offset="0" style="stop-color:#6FB0F7"/>
						<stop  offset="0.1657" style="stop-color:#6EACF7"/>
						<stop  offset="0.3222" style="stop-color:#6DA1F7"/>
						<stop  offset="0.4752" style="stop-color:#6A8EF7"/>
						<stop  offset="0.6259" style="stop-color:#6773F7"/>
						<stop  offset="0.775" style="stop-color:#6250F7"/>
						<stop  offset="0.9209" style="stop-color:#5D27F7"/>
						<stop  offset="0.9572" style="stop-color:#5B1BF7"/>
					</linearGradient>
					<path fill="url(#SVGID_16_)" d="M341.527,30.36c5.793,3.344,10.476,11.455,10.456,18.11l-0.744,262.55
						c-0.019,6.656-4.73,9.334-10.523,5.991l-92.607-53.467c-5.792-3.345-10.47-11.444-10.45-18.099l0.743-262.551
						c0.02-6.655,4.729-9.346,10.519-6.002l11.53,6.657c1.52,0.878,2.756,3.019,2.752,4.767l-0.009,2.836
						c-0.012,3.968,2.779,8.797,6.23,10.791l51.533,29.752c3.451,1.995,6.259,0.394,6.27-3.573l0.009-2.835
						c0.005-1.75,1.243-2.461,2.771-1.58L341.527,30.36z"/>
				</g>
				<g>
					<path d="M341.538,26.891c7.447,4.301,13.487,14.764,13.465,23.322l-0.744,262.551c-0.024,8.558-6.106,12.022-13.554,7.722
						l-92.606-53.467c-7.447-4.3-13.488-14.764-13.464-23.32l0.744-262.55c0.022-8.559,6.104-12.022,13.552-7.724L341.538,26.891z
						 M351.239,311.02l0.744-262.55c0.02-6.655-4.663-14.766-10.456-18.11l-11.521-6.653c-1.528-0.881-2.767-0.168-2.771,1.58
						l-0.009,2.835c-0.011,3.966-2.818,5.567-6.27,3.573L269.423,1.943c-3.451-1.993-6.242-6.823-6.23-10.791l0.009-2.836
						c0.004-1.748-1.232-3.889-2.752-4.767l-11.53-6.657c-5.79-3.344-10.497-0.653-10.519,6.002l-0.743,262.551
						c-0.02,6.654,4.658,14.756,10.45,18.1l92.607,53.467C346.508,320.354,351.22,317.676,351.239,311.02"/>
				</g>
				<g>
					<path fill="#222222" d="M341.548,23.424c9.127,5.27,16.502,18.042,16.472,28.531l-0.743,262.551
						c-0.031,10.487-7.455,14.718-16.58,9.447l-92.609-53.467c-9.126-5.269-16.502-18.043-16.473-28.53l0.744-262.551
						c0.031-10.487,7.454-14.717,16.58-9.449L341.548,23.424z M354.257,312.764l0.745-262.551
						c0.022-8.558-6.018-19.021-13.465-23.322l-92.609-53.466c-7.445-4.299-13.525-0.835-13.55,7.724l-0.744,262.55
						c-0.024,8.557,6.017,19.021,13.464,23.322l92.606,53.467C348.152,324.786,354.234,321.322,354.257,312.764"/>
				</g>
				<path fill="#2D2D2D" d="M363.416,48.82L363.416,48.82c-0.001-0.246-0.005-0.545-0.01-0.746c-0.009-0.265-0.02-0.533-0.038-0.8
					c-0.016-0.267-0.038-0.535-0.064-0.805c-0.026-0.267-0.054-0.538-0.089-0.808c-0.036-0.277-0.074-0.553-0.117-0.829
					c-0.046-0.279-0.094-0.558-0.147-0.836c-0.053-0.287-0.111-0.575-0.174-0.863c-0.063-0.288-0.13-0.576-0.201-0.865
					c-0.073-0.292-0.151-0.585-0.23-0.877c-0.082-0.291-0.167-0.582-0.255-0.872c-0.089-0.286-0.181-0.571-0.274-0.855
					c-0.094-0.281-0.192-0.562-0.295-0.843c-0.097-0.269-0.197-0.54-0.304-0.809c-0.104-0.269-0.211-0.536-0.322-0.802
					c-0.109-0.264-0.22-0.527-0.338-0.789c-0.116-0.267-0.239-0.534-0.362-0.797c-0.138-0.292-0.278-0.583-0.422-0.874
					c-0.165-0.331-0.336-0.663-0.514-0.991c-0.262-0.489-0.532-0.974-0.814-1.452c-0.389-0.664-0.798-1.314-1.225-1.952
					c-0.338-0.507-0.687-1.003-1.046-1.492c-0.241-0.325-0.485-0.648-0.733-0.965c-0.21-0.266-0.424-0.527-0.639-0.787
					c-0.211-0.251-0.423-0.5-0.638-0.747c-0.212-0.24-0.427-0.478-0.644-0.713c-0.222-0.238-0.449-0.477-0.675-0.708
					c-0.23-0.233-0.463-0.463-0.697-0.688c-0.241-0.23-0.482-0.455-0.729-0.676c-0.241-0.217-0.485-0.432-0.733-0.64
					c-0.243-0.205-0.487-0.405-0.735-0.6c-0.241-0.189-0.482-0.375-0.725-0.553c-0.238-0.176-0.479-0.345-0.72-0.512
					c-0.232-0.16-0.465-0.314-0.703-0.463c-0.23-0.149-0.463-0.292-0.698-0.429c-0.054-0.032-0.107-0.063-0.162-0.094
					l-92.608-53.468c-0.175-0.101-0.351-0.199-0.525-0.293c-0.228-0.123-0.453-0.24-0.677-0.352
					c-0.146-0.072-0.291-0.138-0.437-0.206c-0.035-0.016-0.068-0.032-0.103-0.047c-0.043-0.02-0.087-0.042-0.13-0.062
					c-0.223-0.1-0.442-0.193-0.661-0.279c-0.224-0.091-0.447-0.174-0.668-0.252c-0.038-0.013-0.074-0.025-0.112-0.036
					c-0.033-0.012-0.067-0.023-0.101-0.033c-0.149-0.051-0.3-0.103-0.449-0.147c-0.228-0.07-0.456-0.133-0.682-0.188
					c-0.109-0.028-0.217-0.048-0.326-0.072c-0.045-0.012-0.094-0.021-0.141-0.032c-0.07-0.014-0.141-0.033-0.211-0.047
					c-0.243-0.048-0.486-0.086-0.724-0.12l-0.031,0.019l0,0l0.031-0.019c-0.146-0.019-0.291-0.03-0.436-0.043
					c-0.052-0.006-0.103-0.012-0.152-0.016c-0.049-0.005-0.099-0.012-0.147-0.016c-0.262-0.018-0.521-0.026-0.775-0.026
					c-0.114,0.001-0.222,0.012-0.335,0.018c-0.086,0.002-0.171,0.006-0.255,0.012c-0.09,0.005-0.18,0.004-0.269,0.013
					c-0.324,0.028-0.642,0.076-0.952,0.138c-0.005,0.001-0.012,0.002-0.018,0.004c-0.069,0.014-0.132,0.04-0.199,0.055
					c-0.32,0.073-0.635,0.151-0.937,0.259l-0.043,0.024c-0.451,0.163-0.887,0.356-1.296,0.594l-5.394,3.135
					c0.693-0.404,1.459-0.689,2.271-0.875c0.069-0.016,0.133-0.042,0.202-0.056c0.401-0.081,0.815-0.128,1.237-0.155
					c0.085-0.006,0.172-0.009,0.258-0.012c0.408-0.016,0.827-0.011,1.258,0.024c0.049,0.005,0.099,0.011,0.149,0.015
					c0.447,0.043,0.905,0.113,1.371,0.212c0.047,0.01,0.094,0.02,0.141,0.032c0.479,0.106,0.965,0.241,1.461,0.408
					c0.03,0.011,0.062,0.02,0.095,0.031c0.517,0.178,1.041,0.387,1.573,0.631c0.034,0.016,0.069,0.032,0.104,0.047
					c0.537,0.251,1.085,0.532,1.637,0.851l92.609,53.468c0.052,0.031,0.107,0.063,0.162,0.095c0.232,0.138,0.467,0.28,0.699,0.429
					c0.236,0.149,0.47,0.303,0.701,0.463c0.242,0.166,0.481,0.335,0.72,0.512c0.244,0.179,0.485,0.364,0.725,0.552
					c0.248,0.196,0.492,0.396,0.735,0.601c0.248,0.208,0.492,0.423,0.737,0.64c0.241,0.222,0.483,0.446,0.723,0.676
					c0.236,0.225,0.467,0.455,0.697,0.688c0.228,0.231,0.455,0.47,0.679,0.708c0.215,0.235,0.43,0.472,0.642,0.712l0,0
					c0.215,0.246,0.428,0.496,0.638,0.748c0.215,0.259,0.429,0.521,0.637,0.789c0.25,0.315,0.494,0.636,0.733,0.962
					c0.361,0.489,0.71,0.985,1.048,1.492c0.427,0.638,0.836,1.289,1.225,1.953c0.282,0.478,0.555,0.962,0.814,1.452
					c0.176,0.329,0.348,0.66,0.514,0.99c0.145,0.292,0.284,0.583,0.422,0.873c0.125,0.265,0.246,0.532,0.364,0.799
					c0.114,0.26,0.227,0.524,0.336,0.788c0.111,0.267,0.219,0.534,0.323,0.802c0.105,0.27,0.208,0.541,0.305,0.809
					c0.101,0.281,0.197,0.562,0.295,0.842c0.094,0.285,0.184,0.57,0.272,0.856c0.088,0.29,0.175,0.581,0.255,0.872
					c0.081,0.292,0.157,0.584,0.23,0.876c0.069,0.29,0.139,0.578,0.201,0.865c0.064,0.288,0.121,0.576,0.174,0.863
					c0.054,0.278,0.102,0.557,0.146,0.835c0.045,0.277,0.085,0.553,0.118,0.831c0.034,0.27,0.065,0.541,0.09,0.808
					c0.026,0.27,0.047,0.538,0.064,0.805c0.017,0.267,0.029,0.534,0.038,0.8c0.005,0.201,0.009,0.557,0.01,0.817l-0.743,262.109l0,0
					c-0.004,0.271-0.009,0.954-0.02,1.217c-0.012,0.263-0.027,0.523-0.049,0.78c-0.022,0.269-0.05,0.533-0.083,0.796
					c-0.033,0.267-0.073,0.53-0.118,0.788c-0.047,0.276-0.103,0.547-0.163,0.81c-0.063,0.288-0.139,0.57-0.218,0.844
					c-0.087,0.3-0.185,0.589-0.29,0.868c-0.12,0.326-0.253,0.641-0.396,0.941c-0.19,0.398-0.398,0.776-0.624,1.13
					c-0.765,1.201-1.731,2.139-2.862,2.796l5.396-3.136c1.13-0.656,2.097-1.595,2.862-2.796c0.225-0.354,0.434-0.731,0.624-1.13
					c0.143-0.301,0.275-0.615,0.396-0.94c0.104-0.279,0.201-0.569,0.288-0.869c0.081-0.273,0.154-0.556,0.222-0.844
					c0.059-0.263,0.114-0.532,0.161-0.81c0.045-0.257,0.083-0.521,0.118-0.788c0.034-0.261,0.061-0.527,0.083-0.796
					c0.021-0.257,0.036-0.516,0.047-0.78c0.011-0.212,0.016-0.571,0.018-0.845l0.003-0.002l0.743-262.365h0.001
					c0-0.019-0.001-0.05-0.001-0.071L363.416,48.82z"/>
			</g>
		</g>
		<g>
			<linearGradient id="SVGID_17_" gradientUnits="userSpaceOnUse" x1="325.3911" y1="63.5793" x2="269.2367" y2="170.5877">
				<stop  offset="0.3069" style="stop-color:#6FB0F7"/>
				<stop  offset="1" style="stop-color:#6FB0F7;stop-opacity:0"/>
			</linearGradient>
			<polygon fill="url(#SVGID_17_)" points="250.153,20.376 249.947,165.237 341.692,219.095 341.9,74.231 			"/>
			<g>
				<g>
					<g>
						<polygon fill="#FFFFFF" points="250.202,17.24 196.284,64.344 208.038,71.225 261.929,24.239 						"/>
						<path fill="#D6D6D6" d="M196.284,64.344v5.604c0,0-0.41,6.095,5.651,8.372c6.74,2.53,6.103-7.095,6.103-7.095L196.284,64.344z
							"/>
						<path fill="#D6D6D6" d="M261.929,24.203l-11.728-7c0,0,0-3.547,0-3.583l11.728,7C261.929,20.62,261.912,24.22,261.929,24.203z
							"/>
					</g>
					<g>
						<polygon fill="#E0006C" points="261.954,24.234 208.038,71.341 219.791,78.221 273.684,31.236 						"/>
						<path fill="#910046" d="M208.038,71.341v5.604c0,0-0.411,6.095,5.651,8.372c6.74,2.53,6.102-7.095,6.102-7.095L208.038,71.341
							z"/>
						<path fill="#910046" d="M273.684,31.199l-11.73-7c0,0,0-3.547,0-3.583l11.73,7C273.684,27.616,273.666,31.217,273.684,31.199z
							"/>
					</g>
				</g>
				<g>
					<g>
						<polygon fill="#FFFFFF" points="273.66,31.201 219.743,78.305 231.494,85.186 285.389,38.2 						"/>
						<path fill="#D6D6D6" d="M219.743,78.305v5.604c0,0-0.411,6.094,5.649,8.372c6.741,2.53,6.102-7.095,6.102-7.095
							L219.743,78.305z"/>
						<path fill="#D6D6D6" d="M285.389,38.164l-11.729-7c0,0,0-3.547,0-3.583l11.729,7C285.389,34.582,285.37,38.183,285.389,38.164
							z"/>
					</g>
					<g>
						<polygon fill="#E0006C" points="285.375,38.181 231.457,85.286 243.21,92.167 297.103,45.18 						"/>
						<path fill="#910046" d="M231.457,85.286v5.604c0,0-0.41,6.095,5.652,8.371c6.74,2.531,6.102-7.095,6.102-7.095L231.457,85.286
							z"/>
						<path fill="#910046" d="M297.103,45.145l-11.728-7c0,0,0-3.546,0-3.583l11.728,7
							C297.103,41.562,297.085,45.163,297.103,45.145z"/>
					</g>
				</g>
				<g>
					<g>
						<polygon fill="#FFFFFF" points="297.083,45.189 243.169,92.295 254.92,99.177 308.814,52.189 						"/>
						<path fill="#D6D6D6" d="M243.169,92.295V97.9c0,0-0.413,6.096,5.651,8.373c6.738,2.53,6.1-7.096,6.1-7.096L243.169,92.295z"/>
						<path fill="#D6D6D6" d="M308.814,52.154l-11.73-6.999c0,0,0-3.548,0-3.583l11.73,6.999
							C308.814,48.571,308.795,52.171,308.814,52.154z"/>
					</g>
					<g>
						<polygon fill="#E0006C" points="308.83,52.201 254.914,99.307 266.667,106.187 320.559,59.201 						"/>
						<path fill="#910046" d="M254.914,99.307v5.604c0,0-0.411,6.095,5.652,8.372c6.739,2.531,6.102-7.095,6.102-7.095
							L254.914,99.307z"/>
						<path fill="#910046" d="M320.559,59.165l-11.729-7c0,0,0-3.547,0-3.583l11.729,7.001
							C320.559,55.583,320.541,59.184,320.559,59.165z"/>
					</g>
				</g>
				<g>
					<g>
						<polygon fill="#FFFFFF" points="320.572,59.146 266.653,106.251 278.407,113.133 332.3,66.145 						"/>
						<path fill="#D6D6D6" d="M266.653,106.251v5.605c0,0-0.409,6.095,5.652,8.37c6.741,2.531,6.102-7.093,6.102-7.093
							L266.653,106.251z"/>
						<path fill="#D6D6D6" d="M332.3,66.109l-11.729-6.999c0,0,0-3.547,0-3.582l11.729,7C332.3,62.528,332.282,66.128,332.3,66.109z
							"/>
					</g>
					<g>
						<polygon fill="#E0006C" points="332.255,66.096 278.339,113.202 290.092,120.083 343.985,73.096 						"/>
						<path fill="#910046" d="M278.339,113.202v5.604c0,0-0.411,6.096,5.652,8.371c6.737,2.531,6.101-7.094,6.101-7.094
							L278.339,113.202z"/>
						<path fill="#910046" d="M343.985,73.06l-11.729-7c0,0,0-3.547,0-3.583l11.729,7C343.985,69.478,343.967,73.077,343.985,73.06z
							"/>
					</g>
				</g>
			</g>
		</g>
	</g>
</g>
<g>
	<g opacity="0.43">
		<path fill="#FFFFFF" d="M398.763,183.422c3.321,1.917,6.004,6.563,5.993,10.382l-0.052,18.018
			c-0.011,3.817-2.711,5.357-6.033,3.439l-102.488-59.172c-3.321-1.917-6.006-6.564-5.993-10.382l0.05-18.018
			c0.013-3.818,2.713-5.357,6.034-3.439L398.763,183.422z"/>
	</g>
	<g>
		<g>
			<path fill="#FFFFFF" d="M393.478,192.265c3.323,1.918,6.006,6.565,5.996,10.383l-0.052,18.018
				c-0.011,3.818-2.711,5.356-6.032,3.438l-102.489-59.171c-3.321-1.918-6.004-6.564-5.994-10.383l0.052-18.018
				c0.009-3.817,2.711-5.357,6.034-3.439L393.478,192.265z"/>
		</g>
		<g>
			<g>
				<path fill="#5B1BF7" d="M375.594,198.979l-0.004,1.104c0.659,0.456,1.308,1.025,1.825,1.66l-0.646,1.394
					c-0.619-0.716-1.203-1.237-1.759-1.558c-0.621-0.359-0.818-0.268-0.82-0.019c-0.003,0.876,3.482,2.163,3.476,4.823
					c-0.003,1.124-0.702,1.695-2.097,1.161l-0.005,1.157l-1.268-0.731l0.001-1.104c-0.901-0.587-1.777-1.362-2.313-2.063
					l0.692-1.375c0.593,0.743,1.384,1.458,2.077,1.86c0.604,0.347,0.82,0.332,0.82,0.083c0.004-0.909-3.482-2.195-3.474-4.889
					c0.004-1.166,0.741-1.727,2.22-1.112l0.002-1.124L375.594,198.979z"/>
			</g>
			<g>
				<polygon fill="#5B1BF7" points="380.963,203.315 380.945,210.562 378.817,209.332 378.833,203.937 377.75,203.312 
					377.755,201.463 				"/>
			</g>
			<g>
				<path fill="#5B1BF7" d="M384.588,205.245c1.667,0.962,2.848,3.03,2.841,5.432c-0.005,2.401-1.195,3.101-2.861,2.139
					c-1.665-0.962-2.85-3.031-2.843-5.432C381.734,204.983,382.921,204.283,384.588,205.245z M384.573,210.86
					c0.414,0.238,0.727-0.016,0.73-1.41c0.003-1.396-0.308-2.009-0.72-2.248c-0.415-0.238-0.717,0.021-0.722,1.415
					C383.86,210.012,384.159,210.619,384.573,210.86"/>
			</g>
			<g>
				<path fill="#5B1BF7" d="M390.82,208.843c1.667,0.962,2.848,3.03,2.841,5.431c-0.005,2.401-1.196,3.101-2.863,2.139
					c-1.665-0.962-2.847-3.03-2.841-5.432C387.963,208.579,389.153,207.879,390.82,208.843z M390.804,214.456
					c0.413,0.238,0.725-0.014,0.73-1.409c0.003-1.397-0.308-2.009-0.72-2.247c-0.417-0.24-0.719,0.02-0.722,1.414
					C390.089,213.61,390.39,214.215,390.804,214.456"/>
			</g>
			<g>
				<polygon fill="#BAA1F7" points="358.818,190.346 358.797,197.862 292.387,159.52 292.408,152.003 				"/>
			</g>
			<g>
				<polygon fill="#5B1BF7" points="318.232,155.484 292.439,140.594 292.418,148.099 318.232,163.002 				"/>
			</g>
		</g>
	</g>
</g>
<g>
	<g>
		<linearGradient id="SVGID_18_" gradientUnits="userSpaceOnUse" x1="384.4937" y1="128.739" x2="384.4937" y2="168.6614">
			<stop  offset="0" style="stop-color:#6FB0F7"/>
			<stop  offset="0.1657" style="stop-color:#6EACF7"/>
			<stop  offset="0.3222" style="stop-color:#6DA1F7"/>
			<stop  offset="0.4752" style="stop-color:#6A8EF7"/>
			<stop  offset="0.6259" style="stop-color:#6773F7"/>
			<stop  offset="0.775" style="stop-color:#6250F7"/>
			<stop  offset="0.9209" style="stop-color:#5D27F7"/>
			<stop  offset="0.9572" style="stop-color:#5B1BF7"/>
		</linearGradient>
		<path fill="none" stroke="url(#SVGID_18_)" stroke-width="2" stroke-miterlimit="10" d="M384.542,131.76
			c8.143,4.701,14.721,16.095,14.693,25.451c-0.026,9.355-6.647,13.128-14.789,8.427c-8.143-4.7-14.721-16.095-14.694-25.45
			C369.779,130.834,376.399,127.061,384.542,131.76z"/>
	</g>
	<g>
		<path fill="#FFFFFF" d="M408.623,130.79c0.737,0.427,1.393,1.781,0.862,2.37l-23.83,26.376c-0.208,0.232-0.53,0.217-0.854,0.03
			c-0.371-0.215-0.739-0.654-0.925-1.202l-8.458-24.939c-0.377-1.107,0.257-1.573,0.945-1.175c0.246,0.142,0.499,0.396,0.718,0.769
			l5.907,10.239c0.204,0.351,0.468,0.623,0.733,0.775c0.264,0.152,0.529,0.188,0.73,0.07l23.453-13.367
			C408.125,130.613,408.378,130.65,408.623,130.79z"/>
	</g>
</g>
<g>
	<g>
		<g opacity="0.43">
			<path fill="#FFFFFF" d="M398.763,235.017c3.321,1.917,6.004,6.563,5.993,10.382l-0.052,18.019
				c-0.011,3.817-2.711,5.356-6.033,3.439l-102.488-59.173c-3.321-1.917-6.006-6.563-5.993-10.383l0.05-18.018
				c0.013-3.817,2.713-5.356,6.034-3.439L398.763,235.017z"/>
		</g>
		<g>
			<g>
				<path fill="#FFFFFF" d="M393.478,243.862c3.323,1.917,6.006,6.564,5.996,10.383l-0.052,18.018
					c-0.011,3.817-2.711,5.357-6.032,3.438l-102.489-59.172c-3.321-1.917-6.004-6.564-5.994-10.382l0.052-18.018
					c0.009-3.818,2.711-5.357,6.034-3.44L393.478,243.862z"/>
			</g>
			<g>
				<g>
					<path fill="#5B1BF7" d="M375.594,250.574l-0.004,1.104c0.659,0.456,1.308,1.024,1.825,1.659l-0.646,1.394
						c-0.619-0.717-1.203-1.237-1.759-1.557c-0.621-0.359-0.818-0.269-0.82-0.02c-0.003,0.877,3.482,2.163,3.476,4.822
						c-0.003,1.125-0.702,1.696-2.097,1.162l-0.005,1.157l-1.268-0.733l0.001-1.104c-0.901-0.586-1.777-1.361-2.313-2.062
						l0.692-1.376c0.593,0.743,1.384,1.458,2.077,1.86c0.604,0.348,0.82,0.332,0.82,0.084c0.004-0.909-3.482-2.195-3.474-4.889
						c0.004-1.168,0.741-1.728,2.22-1.112l0.002-1.125L375.594,250.574z"/>
				</g>
				<g>
					<polygon fill="#5B1BF7" points="380.963,254.909 380.945,262.156 378.817,260.928 378.833,255.531 377.75,254.907 
						377.755,253.058 					"/>
				</g>
				<g>
					<path fill="#5B1BF7" d="M384.588,256.841c1.667,0.962,2.848,3.03,2.841,5.432c-0.005,2.4-1.195,3.101-2.861,2.14
						c-1.665-0.964-2.85-3.032-2.843-5.434C381.734,256.576,382.921,255.877,384.588,256.841z M384.573,262.454
						c0.414,0.238,0.727-0.015,0.73-1.41c0.003-1.395-0.308-2.008-0.72-2.247c-0.415-0.238-0.717,0.021-0.722,1.415
						C383.86,261.607,384.159,262.215,384.573,262.454"/>
				</g>
				<g>
					<path fill="#5B1BF7" d="M390.82,260.438c1.667,0.963,2.848,3.031,2.841,5.432c-0.005,2.4-1.196,3.1-2.863,2.139
						c-1.665-0.962-2.847-3.03-2.841-5.432C387.963,260.176,389.153,259.477,390.82,260.438z M390.804,266.051
						c0.413,0.237,0.725-0.015,0.73-1.408c0.003-1.396-0.308-2.009-0.72-2.248c-0.417-0.239-0.719,0.021-0.722,1.415
						C390.089,265.205,390.39,265.811,390.804,266.051"/>
				</g>
				<g>
					<polygon fill="#BAA1F7" points="358.818,241.941 358.797,249.457 292.387,211.115 292.408,203.598 					"/>
				</g>
				<g>
					<polygon fill="#5B1BF7" points="318.232,207.08 292.439,192.188 292.418,199.695 318.232,214.598 					"/>
				</g>
			</g>
		</g>
	</g>
	<g>
		<g opacity="0.5">
			<linearGradient id="SVGID_19_" gradientUnits="userSpaceOnUse" x1="385.0103" y1="312.0618" x2="421.8491" y2="348.9006">
				<stop  offset="0.0245" style="stop-color:#FFFFFF"/>
				<stop  offset="0.9807" style="stop-color:#FFFFFF;stop-opacity:0"/>
			</linearGradient>
			<path fill="url(#SVGID_19_)" d="M407.327,307.637c1.145,1.431,1.848,3.236,1.844,4.76l-0.109,38.593
				c-0.007,2.347-1.672,3.296-3.724,2.11l-19.31-11.15c-2.043-1.179-3.696-4.043-3.688-6.39l0.108-38.592
				c0.006-1.522,0.715-2.514,1.866-2.616l9.669-0.837c0.576-0.046,1.216,0.135,1.856,0.504c0.638,0.368,1.276,0.928,1.845,1.633
				L407.327,307.637z"/>
		</g>
		<g>
			<g>
				<g>
					<path fill="#E0D900" d="M395.534,307.269c1.145,1.429,1.847,3.236,1.844,4.759l-0.109,38.593
						c-0.005,2.347-1.672,3.296-3.724,2.111l-19.31-11.149c-2.042-1.18-3.696-4.045-3.689-6.391l0.109-38.592
						c0.005-1.522,0.715-2.514,1.866-2.617l9.669-0.836c0.575-0.047,1.216,0.133,1.855,0.503c0.639,0.369,1.276,0.928,1.846,1.633
						L395.534,307.269z M384.023,301.945c1.001,0.579,1.819,0.112,1.821-1.037c0.005-1.152-0.809-2.56-1.81-3.137
						c-1.013-0.584-1.818-0.112-1.822,1.039C382.208,299.96,383.012,301.36,384.023,301.945"/>
				</g>
				<g>
					<path fill="#FFFFFF" d="M385.331,270.324c0.371,1.027,1.077,2.078,1.821,3.186c1.332,1.978,2.839,4.227,2.242,6.482
						c-0.338,1.319-1.41,1.603-2.355,1.872c-1.328,0.362-2.137,0.677-1.855,2.487c0.203,1.271,1.046,2.479,1.938,3.762
						c1.164,1.666,2.486,3.562,2.343,5.704c-0.123,1.837-1.335,2.19-2.407,2.496c-1.042,0.302-1.947,0.571-1.961,1.998l-1.092-0.642
						c0.026-2.04,1.287-2.41,2.399-2.728c1.013-0.296,1.889-0.546,1.97-1.835c0.104-1.487-0.825-2.814-1.902-4.363
						c-0.972-1.396-2.078-2.984-2.357-4.763c-0.425-2.764,1.012-3.156,2.281-3.507c0.876-0.24,1.703-0.464,1.951-1.394
						c0.387-1.507-0.455-2.873-1.875-4.98c-0.803-1.188-1.636-2.426-2.103-3.757L385.331,270.324z"/>
				</g>
			</g>
			<g>
				<g>
					<polygon fill="#FFFFFF" points="387.252,318.048 388.515,318.777 380.672,327.407 379.41,326.679 					"/>
				</g>
				<g>
					<path fill="#FFFFFF" d="M387.579,324.33c1.581,0.912,2.655,2.985,2.649,5.126c-0.007,2.124-1.089,2.954-2.669,2.041
						c-1.581-0.913-2.643-2.978-2.638-5.105C384.928,324.251,385.999,323.417,387.579,324.33z M387.563,330.426
						c0.978,0.565,1.605-0.03,1.611-1.579c0.005-1.563-0.619-2.881-1.6-3.447c-0.992-0.573-1.605,0.017-1.612,1.595
						C385.958,328.571,386.569,329.854,387.563,330.426"/>
				</g>
				<g>
					<path fill="#FFFFFF" d="M383.001,319.079c-0.005,2.153-1.073,2.96-2.655,2.047c-1.594-0.918-2.667-2.978-2.662-5.117
						c0.007-2.142,1.089-2.97,2.683-2.049C381.947,314.873,383.01,316.925,383.001,319.079z M378.75,316.623
						c-0.003,1.549,0.619,2.867,1.6,3.434c0.991,0.575,1.595-0.009,1.599-1.587c0.005-1.576-0.593-2.866-1.585-3.439
						C379.383,314.463,378.755,315.061,378.75,316.623"/>
				</g>
			</g>
		</g>
	</g>
</g>
<g>
	<g opacity="0.53">
		<path fill="#6FB0F7" d="M325.827,251.066c5.754,3.324,10.407,11.374,10.388,17.986c-0.017,6.622-4.699,9.283-10.456,5.96
			l-67.132-38.757c-5.756-3.323-10.409-11.375-10.39-17.996c0.019-6.613,4.701-9.275,10.458-5.951L325.827,251.066z"/>
	</g>
	<g>
		<g>
			<path fill="#E0006C" d="M323.125,258.682c5.753,3.323,10.405,11.375,10.387,17.987c-0.018,6.622-4.7,9.283-10.456,5.959
				l-67.13-38.757c-5.757-3.322-10.408-11.374-10.391-17.995c0.019-6.612,4.701-9.275,10.458-5.953L323.125,258.682z"/>
		</g>
		<g>
			<g>
				<path fill="#FFFFFF" d="M259.109,229.829c0.876,0.506,1.77,1.292,2.389,2.137l-0.361,0.768c-0.638-0.846-1.37-1.486-2.029-1.866
					c-1.262-0.728-1.8-0.433-1.802,0.314c-0.007,2.077,4.487,3.37,4.479,6.497c-0.004,1.297-0.92,1.895-2.878,0.764
					c-1.131-0.651-2.238-1.726-2.841-2.71l0.399-0.725c0.555,0.894,1.495,1.849,2.445,2.397c1.278,0.739,1.837,0.485,1.838-0.25
					c0.008-2.087-4.486-3.36-4.478-6.527C256.273,229.32,257.162,228.703,259.109,229.829z"/>
			</g>
			<g>
				<polygon fill="#FFFFFF" points="269.735,236.062 269.712,244.584 268.648,243.969 268.658,240.174 264.395,237.713 
					264.385,241.508 263.331,240.9 263.355,232.377 264.409,232.986 264.399,236.653 268.662,239.114 268.672,235.447 				"/>
			</g>
			<g>
				<path fill="#FFFFFF" d="M275.307,239.181c2.259,1.305,3.929,4.12,3.922,6.63c-0.007,2.509-1.688,3.392-3.946,2.087
					c-2.276-1.313-3.947-4.142-3.939-6.641C271.348,238.758,273.031,237.865,275.307,239.181z M275.287,246.818
					c1.646,0.949,2.874,0.261,2.879-1.621c0.005-1.881-1.214-3.982-2.859-4.934c-1.667-0.962-2.895-0.273-2.9,1.608
					C272.399,243.754,273.62,245.855,275.287,246.818"/>
			</g>
			<g>
				<path fill="#FFFFFF" d="M283.759,244.158c1.92,1.107,3.083,2.906,3.078,4.756c-0.006,1.851-1.176,2.291-3.096,1.182l-1.835-1.06
					l-0.007,2.584l-1.065-0.613l0.024-8.523L283.759,244.158z M283.707,249.013c1.354,0.783,2.072,0.504,2.076-0.707
					c0.004-1.222-0.709-2.327-2.065-3.11l-1.797-1.037l-0.011,3.817L283.707,249.013"/>
			</g>
			<g>
				<polygon fill="#FFFFFF" points="297.933,252.342 297.909,260.865 296.498,260.049 292.823,252.749 292.808,257.919 
					291.104,256.936 291.128,248.413 292.55,249.235 296.225,256.534 296.239,251.364 				"/>
			</g>
			<g>
				<path fill="#FFFFFF" d="M303.289,255.281c2.337,1.348,4.052,4.214,4.045,6.755c-0.009,2.542-1.734,3.407-4.068,2.061
					c-2.344-1.354-4.052-4.213-4.045-6.743C299.227,254.822,300.946,253.928,303.289,255.281z M303.27,262.421
					c1.326,0.766,2.325,0.236,2.331-1.383c0.005-1.624-0.989-3.304-2.315-4.069c-1.329-0.766-2.32-0.232-2.324,1.39
					C300.957,259.98,301.941,261.653,303.27,262.421"/>
			</g>
			<g>
				<polygon fill="#FFFFFF" points="319.611,264.857 317.157,271.977 315.313,270.911 313.7,264.196 311.999,268.998 
					310.164,267.939 307.75,258.01 309.529,259.036 311.189,265.995 312.955,261.015 314.544,261.933 316.222,268.947 
					317.971,263.911 				"/>
			</g>
		</g>
	</g>
</g>
<g>
	<g>
		<path fill="#050A1A" d="M177.627,350.085l1.469,0.873c1.985,1.174,4.475,1.088,6.373-0.227l0.653-0.453
			c1.438-0.993,2.265-2.655,2.191-4.4l0,0l10.983-2.922c0,0,5.606-1.636,7.359,0.701c1.754,2.337-2.92,11.333-15.305,13.084
			c0,0-2.097,0.294-5.723,4.44c-2.455,2.804-9.231,1.753-9.581-2.22c-0.228-2.571-0.161-5.926-0.085-7.973
			C175.992,350.152,176.908,349.659,177.627,350.085z"/>
		<path fill="#EFB488" d="M176.33,340.463l0.378,6.904c0.108,2.004,1.261,3.805,3.035,4.745l0.392,0.207
			c1.856,0.982,4.103,0.869,5.85-0.296l0,0c1.671-1.113,2.634-3.021,2.542-5.024l-0.404-8.748L176.33,340.463z"/>
	</g>
	<g>
		<path fill="#EFB488" d="M193.529,354.468l0.377,6.904c0.11,2.004,1.26,3.806,3.036,4.744l0.392,0.208
			c1.856,0.981,4.104,0.869,5.85-0.297l0,0c1.671-1.113,2.635-3.021,2.541-5.024l-0.402-8.746L193.529,354.468z"/>
		<path fill="#050A1A" d="M194.67,363.069l1.544,0.917c2.088,1.235,4.706,1.144,6.699-0.236l0.688-0.477
			c1.513-1.045,2.38-2.793,2.304-4.629l0,0l11.549-3.071c0,0,5.896-1.72,7.738,0.737c1.844,2.458-3.072,11.916-16.093,13.759
			c0,0-2.204,0.309-6.021,4.668c-2.578,2.949-9.705,1.843-10.073-2.333c-0.236-2.705-0.169-6.232-0.087-8.384
			C192.95,363.141,193.913,362.62,194.67,363.069z"/>
	</g>
	<path fill="#0C1D47" d="M171.847,239.73l5.434,41.878c0.295,2.275,0.098,4.587-0.599,6.773c-1.224,3.84-2.382,8.222-2.288,11.822
		l1.076,41.675c0.019,0.786,0.516,1.473,1.253,1.746c2.577,0.959,8.629,3.592,12.914-1.37c0.37-0.428,0.556-0.986,0.579-1.551
		c0.25-6.146,1.92-43.501,6.477-63.751c4.976-22.112,7.37-37.775,2.765-48.278L171.847,239.73z"/>
	<path fill="#1B3D96" d="M189.291,246.117c-0.248,7.776-0.157,16.339,0.491,25.551c0.735,10.448,2.064,19.984,3.652,28.473
		c-0.631,1.851-1.25,4.121-1.653,6.757c-0.349,2.291-0.495,4.615-0.434,6.941l1.074,41.675c0.021,0.786,0.518,1.474,1.255,1.746
		c2.576,0.959,8.626,3.591,12.913-1.367c0.369-0.429,0.557-0.988,0.578-1.557c0.25-6.149,1.922-43.5,6.479-63.748
		c4.974-22.112,7.369-37.775,2.763-48.278L189.291,246.117z"/>
	<g>
		<path fill="#E3E4E8" d="M218.445,237.788c0,0-2.096-25.502-0.664-30.605c1.158-4.125,1.338-8.463,0.525-12.671l-2.203-12.398
			c-2.948-10.687-11.591-15.032-11.591-15.032c-7.024-3.472-15.057-10.704-23.333-7.339c-13.911,5.655-9.027,26.896-3.918,36.961
			c2.616,5.153,4.075,11.863,2.264,17.351c-1.741,5.279-5.909,9.288-7.709,14.581c-1.592,4.678-1.979,9.767-1.056,14.623
			c0.808,4.245,4.549,6.218,8.208,7.862l23.212,9.547c1.321,0.542,2.804,0.78,4.329,0.752c2.635-0.049,4.96-1.685,5.9-4.146
			c0.857-2.244,1.639-5.021,2.035-8.274c1.197-0.269,0.259-0.058,1.455-0.329c0.702,1.169,1.549,3.001,2.15,5.609
			c0.498-1.226,0.789-2.544,0.822-3.902l0.063-2.775C219.011,244.323,218.847,241.044,218.445,237.788z"/>
	</g>
	<path fill="#EFB488" d="M202.712,167.946c-3.074,0.268-9.055,0.078-11.732-4.873c0,0-0.354-18.372-0.354-18.38
		c-0.071-3.731,1.802-7.409,4.872-9.536c2.255-1.562,5.191-1.961,7.868-2.063c2.127-0.083,5.954-0.542,7.515,1.233
		c0.785,0.892,1.658,4.341,1.658,5.529c0,2.903,1.014,6.063,1.014,8.967c0,1.42-0.836,6.395-0.828,7.633
		c0.007,0.955-0.176,1.936-0.68,2.75c-0.408,0.662-1.037,1.177-1.75,1.483c-0.808,0.35-1.572,0.144-2.373,0.348
		c-3.643,0.931-3.305,4.822-3.305,4.822C204.617,166.947,203.796,167.852,202.712,167.946z"/>
	<g>
		<path fill="#B2B2B5" d="M217.781,207.183L217.781,207.183c1.158-4.125,1.338-8.463,0.525-12.671l-2.203-12.398
			c-0.771-2.794-1.935-5.144-3.228-7.107c-2.163,1.467-4.233,3.067-6.129,4.858c2.204,2.806,3.634,6.596,3.765,12.14
			c0.527,21.94,2.705,59.525-7.532,68.937c1.069,0.33,2.216,0.487,3.392,0.479c2.717-0.019,5.123-1.721,6.082-4.262
			c0.841-2.225,1.604-4.965,1.994-8.164c1.193-0.271,0.257-0.06,1.45-0.328c0.702,1.165,1.55,3.001,2.153,5.612
			c0.498-1.226,0.789-2.544,0.822-3.902l0.063-2.775c0.076-3.278-0.088-6.558-0.49-9.813
			C218.445,237.788,216.349,212.286,217.781,207.183z"/>
	</g>
	<path fill="#EFB488" d="M233.453,200.941l34.826-20.208c0.186-0.104,0.378-0.193,0.577-0.271l9.569-3.765
		c0.736-0.29,1.56,0.118,1.778,0.878l0,0c0.188,0.659-0.152,1.354-0.789,1.609l-5.262,2.105c-0.547,0.218-0.827,0.815-0.665,1.38
		c0.527,1.813,1.287,5.648-1.061,7.308c-1.608,1.136-3.218,2.125-4.402,2.82c-1.179,0.691-2.488,1.12-3.847,1.274l-3.165,0.36
		c-1.923,0.219-3.724,1.045-5.144,2.36l-15.138,14.469L233.453,200.941z"/>
	<path fill="#E3E4E8" d="M206.275,168.233c0,0,9.949,1.474,14.188,8.108c3.749,5.869,14.005,23.771,14.005,23.771l1.75-0.737
		c0,0,5.619,6.541,5.526,11.607l-9.12,4.792c0,0-3.686,3.133-10.319-7.37c-6.634-10.503-15.478-25.983-15.478-25.983
		S199.272,172.287,206.275,168.233z"/>
	<path fill="#FAFBFF" d="M234.898,198.576c0,0,6.02,6.511,7.002,13.267l6.266-4.422c0,0-0.491-9.583-7.371-12.408L234.898,198.576z"
		/>
	<path fill="#E0006C" d="M212.14,137.276c0,0-0.246,5.65-7.861,12.531c-3.695,3.338-5.416,10.014-1.897,20.731
		c0.938,2.86,1.708,5.666,2.251,8.417c2.702,13.695-7.606,26.879-21.561,26.522c-0.812-0.021-1.608-0.091-2.38-0.212
		c-1.205-0.19-2.584-0.678-4.056-1.372c-10.68-5.039-14.829-17.96-9.772-28.629c2.323-4.905,9.479-10.787,8.423-15.938
		c-3.132-15.295,3.345-37.094,20.27-35.933C214.351,124.684,212.14,137.276,212.14,137.276z"/>
</g>
<g>
	<path fill="#F23F95" d="M205.817,129.579c-1.181-1.763-3.683-1.999-5.233-0.549c-1.139,1.067-2.604,2.419-4.475,4.13
		c-12.898,11.793,0.369,24.507,0.369,24.507c-1.291-6.081,4.976-12.529,4.976-12.529
		C209.024,138.012,207.896,132.682,205.817,129.579z"/>
</g>
</svg>
