<?xml version="1.0" encoding="utf-8"?>
<!-- Generator: Adobe Illustrator 16.0.0, SVG Export Plug-In . SVG Version: 6.00 Build 0)  -->
<!DOCTYPE svg PUBLIC "-//W3C//DTD SVG 1.1//EN" "http://www.w3.org/Graphics/SVG/1.1/DTD/svg11.dtd">
<svg version="1.1" id="Capa_1" xmlns="http://www.w3.org/2000/svg" xmlns:xlink="http://www.w3.org/1999/xlink" x="0px" y="0px"
	 width="412.593px" height="409.676px" viewBox="0 0 412.593 409.676" enable-background="new 0 0 412.593 409.676"
	 xml:space="preserve">
<g>
	<g>
		<g>
			<g>
				<g>
					<g>
						<path fill="#E6EEF8" d="M274.851,327.242c0,0-19.887-2.381-19.565-34.447c-5.692-8.615-13.135-14.891-18.271-18.605v-3.906
							c0,0-0.889,0.84-2.295,2.299c-2.182-1.459-3.65-2.299-3.65-2.299l0.566,5.637c-3.389,3.824-8.02,9.504-12.892,16.875
							c0.321,32.068-19.565,34.447-19.565,34.447l37.836,1.102v0.18l0,0L274.851,327.242z"/>
						<g opacity="0.62">
							<path fill="#E6EEF8" d="M217.125,307.601c7.82-4.359,22.331-9.408,39.536-1.008c-0.902-3.85-1.431-8.391-1.376-13.795
								c-0.154-0.232-0.32-0.447-0.476-0.674c-23.463-3.309,4.752-7.957-25.154-3.035c-3.553,0.584-6.679,1.1-9.46,1.559
								c-0.48,0.705-0.965,1.412-1.451,2.148C218.804,298.675,218.179,303.548,217.125,307.601z"/>
						</g>
						<path fill="#FFFFF8" d="M385.84,301.023H88.188c-6.165,0-11.166-4.996-11.166-11.162V116.446
							c0.276-6.303,5.688-10.86,11.166-11.165h296.799c6.166,0,12.021,5.316,12.021,11.483v173.097
							C397.006,296.029,392.007,301.023,385.84,301.023z"/>
						<path fill="#202448" d="M385.144,105.281H88.887c-6.554,0-11.866,5.311-11.866,11.862V265.8h319.985V117.144
							C397.006,110.593,391.694,105.281,385.144,105.281z"/>
					</g>
					<path fill="#FFFFF8" d="M277.44,328.925h-80.853v-0.779c0-1.385,1.124-2.504,2.509-2.504h75.837
						c1.385,0,2.507,1.121,2.507,2.504V328.925L277.44,328.925z"/>
					<rect x="92.604" y="119.255" fill="#94F8FF" width="291.034" height="132.971"/>
					<rect x="238.595" y="146.24" fill="#4B269C" width="128.961" height="85.066"/>
					<path fill="#2F1A76" d="M332.429,185.842h22.796c2.629,0,4.759-2.132,4.759-4.762v-22.794c0-2.629-2.13-4.762-4.759-4.762
						h-22.796c-2.629,0-4.762,2.131-4.762,4.762v22.794C327.667,183.71,329.798,185.842,332.429,185.842z"/>
					<path fill="#2F1A76" d="M293.006,185.842h22.795c2.63,0,4.762-2.132,4.762-4.762v-22.794c0-2.629-2.132-4.762-4.762-4.762
						h-22.795c-2.628,0-4.76,2.131-4.76,4.762v22.794C288.246,183.71,290.378,185.842,293.006,185.842z"/>
					<rect x="298.589" y="125.243" fill="#DD3226" width="91.71" height="49.144"/>
					<rect x="303.074" y="162.561" fill="#94F8FF" width="44.925" height="0.961"/>
					<rect x="303.074" y="165.717" fill="#94F8FF" width="44.925" height="0.96"/>
					<rect x="303.074" y="168.875" fill="#94F8FF" width="44.925" height="0.959"/>
					<rect x="303.074" y="157.427" fill="#243FBC" width="30.754" height="3.007"/>
					<circle fill="#94F8FF" cx="366.125" cy="149.815" r="18.741"/>
					<circle fill="#78D5F0" cx="366.125" cy="149.815" r="16.382"/>
					<path fill="#EEF4FF" d="M364.209,159.945l10.532-7.898c1.289-0.965,1.289-2.897,0-3.863l-10.532-7.898
						c-1.593-1.194-3.863-0.057-3.863,1.932v15.796C360.346,160.004,362.618,161.136,364.209,159.945z"/>
					<path fill="#2F1A76" d="M253.584,185.842h22.797c2.628,0,4.76-2.132,4.76-4.762v-22.794c0-2.629-2.132-4.762-4.76-4.762
						h-22.797c-2.628,0-4.76,2.131-4.76,4.762v22.794C248.824,183.71,250.956,185.842,253.584,185.842z"/>
					<path fill="#2F1A76" d="M332.429,225.136h22.796c2.629,0,4.759-2.131,4.759-4.76V197.58c0-2.63-2.13-4.762-4.759-4.762h-22.796
						c-2.629,0-4.762,2.131-4.762,4.762v22.796C327.667,223.005,329.798,225.136,332.429,225.136z"/>
					<path fill="#2F1A76" d="M293.006,225.136h22.795c2.63,0,4.762-2.131,4.762-4.76V197.58c0-2.63-2.132-4.762-4.762-4.762h-22.795
						c-2.628,0-4.76,2.131-4.76,4.762v22.796C288.246,223.005,290.378,225.136,293.006,225.136z"/>
					<g>
						<path fill="#94F8FF" d="M301.569,217.867L301.569,217.867c-0.686,0-1.338-0.273-1.824-0.758l-6.057-6.059
							c-1.006-1.008-1.006-2.641,0-3.646c1.007-1.008,2.641-1.008,3.647,0l4.233,4.234l10.504-10.506
							c1.007-1.006,2.642-1.006,3.648,0c1.007,1.008,1.007,2.641,0,3.646l-12.33,12.33
							C302.911,217.593,302.253,217.867,301.569,217.867z"/>
					</g>
					<path fill="#2F1A76" d="M253.584,225.136h22.797c2.628,0,4.76-2.131,4.76-4.76V197.58c0-2.63-2.132-4.762-4.76-4.762h-22.797
						c-2.628,0-4.76,2.131-4.76,4.762v22.796C248.824,223.005,250.956,225.136,253.584,225.136z"/>
				</g>
			</g>
			<path fill="#355FDE" d="M343.33,316.439c0.876-2.326-1.146-7.059-8.867-4.053c-9.723,3.789-20.453,9.824-35.078-1.824
				l-4.819,1.32c0,0,12.617,18.793,37.176,12.004C334.828,323.035,341.604,321.017,343.33,316.439z"/>
			<path opacity="0.46" fill="#F3D03C" enable-background="new    " d="M330.962,324.082c0.868-6.988,4.784-12.012,4.784-12.012
				l5.099-0.189c0,0,0,0-0.21,4.777c-0.079,1.82-0.549,3.176-1.467,4.27c-2.577,1.566-5.626,2.465-7.427,2.961
				C331.478,323.96,331.224,324.013,330.962,324.082z"/>
			<g>
				<path opacity="0.09" fill="#4D8CC6" enable-background="new    " d="M321.151,404.56l-172.856-1.047
					c-1.386-0.01-2.149-0.949-1.717-2.086l14.361-37.619c0.232-0.609,1.228-1.096,2.224-1.09l124.553,0.758
					c0.996,0.006,2.216,0.504,2.727,1.121l31.482,37.898C322.876,403.636,322.534,404.566,321.151,404.56z"/>
				<path fill="#CEE0FD" d="M333.95,346.109l-185.152,56.902c-1.481,0.453-2.278-1.295-2.328-2.088l16.741-45.965
					c0.265-0.752,1.342-1.623,2.41-1.947l133.413-41.004c1.067-0.328,2.363-0.186,2.896,0.322l32.769,30.25
					C335.258,343.695,335.434,345.652,333.95,346.109z"/>
				<path fill="#EEF6FF" d="M333.551,344.812l-185.153,56.9c-1.479,0.457-2.281-0.322-1.791-1.721l16.206-46.328
					c0.262-0.752,1.339-1.621,2.41-1.949l133.411-41.002c1.067-0.33,2.363-0.186,2.896,0.322l32.896,31.236
					C335.422,343.212,335.035,344.355,333.551,344.812z"/>
				<g>
					<polygon fill="#FFFFF8" points="177.799,353.337 165.348,357.164 166.677,353.029 178.747,349.32 					"/>
					<polygon fill="#FFFFF8" points="186.423,350.687 180.496,352.509 181.361,348.517 187.106,346.751 					"/>
					<polygon fill="#FFFFF8" points="195.949,347.759 190.021,349.582 190.593,345.681 196.338,343.914 					"/>
					<polygon fill="#FFFFF8" points="205.475,344.833 199.546,346.652 199.823,342.845 205.57,341.078 					"/>
					<polygon fill="#FFFFF8" points="214.999,341.906 209.071,343.728 209.056,340.007 214.803,338.24 					"/>
					<polygon fill="#FFFFF8" points="224.525,338.976 218.597,340.8 218.287,337.167 224.033,335.404 					"/>
					<polygon fill="#FFFFF8" points="234.051,336.05 228.12,337.871 227.521,334.332 233.266,332.564 					"/>
					<polygon fill="#FFFFF8" points="243.574,333.123 237.646,334.945 236.752,331.494 242.498,329.728 					"/>
					<polygon fill="#FFFFF8" points="253.098,330.195 247.171,332.019 245.984,328.656 251.73,326.89 					"/>
					<polygon fill="#FFFFF8" points="262.624,327.269 256.695,329.091 255.216,325.82 260.962,324.052 					"/>
					<polygon fill="#FFFFF8" points="272.151,324.341 266.222,326.164 264.448,322.982 270.194,321.216 					"/>
					<polygon fill="#FFFFF8" points="281.674,321.414 275.747,323.236 273.679,320.146 279.426,318.378 					"/>
					<polygon fill="#FFFFF8" points="291.199,318.488 285.271,320.308 282.911,317.308 288.658,315.542 					"/>
					<polygon fill="#FFFFF8" points="300.724,315.56 294.796,317.382 292.143,314.47 297.889,312.705 					"/>
					<path fill="#F4D4B6" d="M299.385,310.564l-0.75,0.148l-3.764,4.33c0,0-1.646,0.174-1.187-1.389
						c0.463-1.563,1.305-1.822,1.305-1.822l-4.808,1.479c0,0,0.075-2.145,1.645-3.385c1.571-1.242,3.587-1.078,3.587-1.078
						L299.385,310.564z"/>
				</g>
				<g>
					<polygon fill="#FFFFF8" points="315.864,330.808 306.625,321.503 301.837,322.974 310.625,332.417 					"/>
					<g>
						<polygon fill="#FFFFF8" points="292.112,324.042 305.164,320.031 302.054,316.9 289.422,320.781 						"/>
						<polygon fill="#FFFFF8" points="283.072,326.82 289.284,324.912 286.687,321.623 280.673,323.47 						"/>
						<polygon fill="#FFFFF8" points="273.088,329.888 279.302,327.978 277.023,324.591 271.011,326.439 						"/>
						<polygon fill="#FFFFF8" points="263.104,332.955 269.316,331.046 267.362,327.56 261.349,329.408 						"/>
						<polygon fill="#FFFFF8" points="253.118,336.023 259.333,334.117 257.698,330.529 251.685,332.378 						"/>
						<polygon fill="#FFFFF8" points="243.135,339.091 249.351,337.183 248.036,333.498 242.023,335.347 						"/>
						<polygon fill="#FFFFF8" points="233.152,342.16 239.365,340.251 238.374,336.468 232.36,338.318 						"/>
						<polygon fill="#FFFFF8" points="223.168,345.23 229.381,343.32 228.713,339.439 222.698,341.287 						"/>
						<polygon fill="#FFFFF8" points="213.183,348.298 219.398,346.39 219.051,342.408 213.036,344.257 						"/>
						<polygon fill="#FFFFF8" points="203.2,351.367 209.413,349.458 209.388,345.376 203.372,347.224 						"/>
						<polygon fill="#FFFFF8" points="193.214,354.435 199.43,352.527 199.725,348.345 193.71,350.193 						"/>
						<polygon fill="#FFFFF8" points="183.231,357.503 189.444,355.593 190.063,351.316 184.048,353.164 						"/>
						<polygon fill="#FFFFF8" points="173.248,360.572 179.462,358.662 180.4,354.287 174.387,356.134 						"/>
						<polygon fill="#FFFFF8" points="163.264,363.638 169.478,361.728 170.737,357.255 164.723,359.105 						"/>
					</g>
					<g>
						<polygon fill="#FFFFF8" points="301.243,352.203 308.974,349.828 304.983,344.779 297.56,347.06 						"/>
						<polygon fill="#FFFFF8" points="320.994,346.134 328.725,343.759 323.95,338.951 316.525,341.232 						"/>
						<polygon fill="#FFFFF8" points="308.767,345.919 316.302,343.603 314.69,341.794 307.267,344.076 						"/>
						<polygon fill="#FFFFF8" points="311.353,349.099 319.081,346.722 317.386,344.818 309.774,347.158 						"/>
						<polygon fill="#FFFFF8" points="288.822,356.019 296.552,353.646 293.058,348.445 285.633,350.724 						"/>
						<polygon fill="#FFFFF8" points="276.403,359.837 284.132,357.462 281.13,352.109 273.706,354.39 						"/>
						<polygon fill="#FFFFF8" points="263.982,363.656 271.713,361.281 269.204,355.775 261.781,358.056 						"/>
						<polygon fill="#FFFFF8" points="251.563,367.472 259.291,365.097 257.277,359.439 249.854,361.722 						"/>
						<polygon fill="#FFFFF8" points="239.142,371.291 246.872,368.914 245.352,363.105 237.928,365.386 						"/>
						<polygon fill="#FFFFF8" points="226.722,375.107 234.451,372.73 233.425,366.769 226.001,369.05 						"/>
						<polygon fill="#FFFFF8" points="214.302,378.923 222.034,376.548 221.499,370.435 214.074,372.714 						"/>
						<polygon fill="#FFFFF8" points="201.882,382.74 209.611,380.365 209.571,374.101 202.149,376.382 						"/>
						<polygon fill="#FFFFF8" points="189.461,386.556 197.192,384.183 197.645,377.767 190.222,380.048 						"/>
						<polygon fill="#FFFFF8" points="177.042,390.376 184.771,388 185.719,381.431 178.296,383.714 						"/>
						<polygon fill="#FFFFF8" points="164.622,394.191 172.351,391.816 173.792,385.097 166.368,387.378 						"/>
						<polygon fill="#FFFFF8" points="152.2,398.009 159.932,395.63 161.866,388.761 154.441,391.044 						"/>
					</g>
					<g>
						<polygon fill="#FFFFF8" points="306.612,341.625 321.932,336.916 317.672,332.626 302.93,337.158 						"/>
						<polygon fill="#FFFFF8" points="296.003,344.886 303.296,342.644 299.736,338.138 292.718,340.296 						"/>
						<polygon fill="#FFFFF8" points="284.285,348.486 291.579,346.246 288.459,341.603 281.44,343.761 						"/>
						<polygon fill="#FFFFF8" points="272.567,352.085 279.86,349.847 277.182,345.07 270.162,347.228 						"/>
						<polygon fill="#FFFFF8" points="260.849,355.689 268.144,353.449 265.905,348.537 258.886,350.693 						"/>
						<polygon fill="#FFFFF8" points="249.133,359.289 256.426,357.046 254.627,352.001 247.608,354.158 						"/>
						<polygon fill="#FFFFF8" points="237.414,362.89 244.708,360.652 243.35,355.466 236.332,357.625 						"/>
						<polygon fill="#FFFFF8" points="225.695,366.492 232.989,364.25 232.073,358.933 225.055,361.089 						"/>
						<polygon fill="#FFFFF8" points="213.979,370.093 221.272,367.853 220.796,362.4 213.777,364.556 						"/>
						<polygon fill="#FFFFF8" points="202.263,373.695 209.555,371.453 209.52,365.865 202.5,368.023 						"/>
						<polygon fill="#FFFFF8" points="190.543,377.296 197.837,375.054 198.242,369.33 191.223,371.488 						"/>
						<polygon fill="#FFFFF8" points="178.827,380.898 186.118,378.656 186.964,372.796 179.946,374.953 						"/>
						<polygon fill="#FFFFF8" points="168.433,384.089 175.726,381.849 176.962,375.871 169.941,378.025 						"/>
						<polygon fill="#FFFFF8" points="155.392,388.097 164.543,385.287 166.2,379.179 157.392,381.886 						"/>
					</g>
				</g>
				<g>
					<polygon fill="#FFFFF8" points="174.681,366.556 160.969,370.771 162.578,365.771 175.828,361.701 					"/>
					<polygon fill="#FFFFF8" points="184.18,363.638 177.65,365.644 178.696,360.818 185.005,358.878 					"/>
					<polygon fill="#FFFFF8" points="194.67,360.414 188.141,362.421 188.832,357.705 195.14,355.763 					"/>
					<polygon fill="#FFFFF8" points="205.158,357.191 198.63,359.197 198.966,354.587 205.274,352.652 					"/>
					<polygon fill="#FFFFF8" points="215.647,353.968 209.118,355.974 209.102,351.472 215.408,349.537 					"/>
					<polygon fill="#FFFFF8" points="226.138,350.744 219.608,352.75 219.236,348.359 225.545,346.419 					"/>
					<polygon fill="#FFFFF8" points="236.626,347.519 230.098,349.525 229.372,345.246 235.681,343.304 					"/>
					<polygon fill="#FFFFF8" points="247.115,344.296 240.587,346.3 239.507,342.128 245.813,340.191 					"/>
					<polygon fill="#FFFFF8" points="257.605,341.072 251.077,343.08 249.642,339.013 255.949,337.076 					"/>
					<polygon fill="#FFFFF8" points="268.095,337.847 261.565,339.855 259.776,335.9 266.084,333.962 					"/>
					<polygon fill="#FFFFF8" points="278.584,334.625 272.055,336.63 269.912,332.787 276.22,330.847 					"/>
					<polygon fill="#FFFFF8" points="289.073,331.4 282.545,333.406 280.047,329.671 286.355,327.732 					"/>
					<polygon fill="#FFFFF8" points="299.563,328.177 293.034,330.181 290.182,326.556 296.489,324.617 					"/>
					<polygon fill="#FFFFF8" points="310.052,324.953 301.907,327.457 298.756,323.919 306.625,321.503 					"/>
				</g>
				<g>
					<polygon fill="#FFFFF8" points="172.737,374.794 158.239,379.25 160.035,373.673 174.016,369.378 					"/>
					<polygon fill="#FFFFF8" points="182.779,371.708 175.876,373.83 177.043,368.445 183.7,366.398 					"/>
					<polygon fill="#FFFFF8" points="193.87,368.298 186.968,370.419 187.739,365.158 194.395,363.115 					"/>
					<polygon fill="#FFFFF8" points="204.961,364.894 198.059,367.015 198.433,361.873 205.089,359.828 					"/>
					<polygon fill="#FFFFF8" points="216.049,361.484 209.148,363.605 209.128,358.583 215.785,356.539 					"/>
					<polygon fill="#FFFFF8" points="227.142,358.074 220.238,360.197 219.823,355.298 226.479,353.251 					"/>
					<polygon fill="#FFFFF8" points="238.232,354.666 231.33,356.789 230.519,352.011 237.175,349.964 					"/>
					<polygon fill="#FFFFF8" points="249.323,351.257 242.421,353.378 241.214,348.724 247.871,346.677 					"/>
					<polygon fill="#FFFFF8" points="260.414,347.851 253.51,349.97 251.909,345.439 258.566,343.392 					"/>
					<polygon fill="#FFFFF8" points="271.503,344.443 264.601,346.562 262.604,342.148 269.262,340.105 					"/>
					<polygon fill="#FFFFF8" points="282.594,341.035 275.691,343.156 273.301,338.865 279.957,336.818 					"/>
					<polygon fill="#FFFFF8" points="293.685,337.625 286.782,339.746 283.994,335.576 290.65,333.531 					"/>
					<polygon fill="#FFFFF8" points="304.773,334.214 297.871,336.337 294.688,332.292 301.347,330.246 					"/>
				</g>
			</g>
		</g>
		<g>
			<g>
				<g>
					<g>
						<path fill="#59A0FB" d="M334.301,312.447c0,0-1.625,8.088,1.152,13.947c2.777,5.857,14.325,29.449,14.325,29.449
							s7.029,5.346,18.476-5.258c0,0-13.57-31.488-16.656-36.654c-3.083-5.164-7.187-10.057-12.082-6.693L334.301,312.447z"/>
						<path fill="#5395E9" d="M338.358,332.421l5.488-7.627l6.691-8.104c0,0,4.504,14.746-6.717,26.957
							C341.967,339.849,339.985,335.779,338.358,332.421z"/>
						<path fill="#F4D4B6" d="M341.104,299.929l1.5,7.773c0,0-1.354,4.865-5.705,6.795l-1.554-8.059L341.104,299.929z"/>
						<g>
							<path fill="#202448" d="M330.067,286.947c1.347-2.578,10.776-6.969,14.031,0c0,0,9.578,8-0.14,13.316l-2.041,1.967
								l-1.431-0.078l-1.858,1.664l-1.701-8.572l-6.919-0.703l0.059-2.785C327.457,290.236,327.031,286.322,330.067,286.947z"/>
							<polygon fill="#E68A97" points="330.067,293.05 327.457,297.736 329.879,298.296 							"/>
							<path fill="#F4D4B6" d="M330.067,291.755l-2.001,14.789c0,0,9.652,4.123,13.038-4.035c0,0,4.311-1.072,3.139-4.037
								c-0.178-0.455-0.897-0.771-1.509-0.779c-0.546-0.008-1.154,0.297-1.505,0.705c-0.703,0.807-0.735,1.787-0.735,1.787
								s-1.147-1.008-0.722-2.953c0,0-2.088-1.434-1.609-3.617C338.163,293.613,330.461,295.673,330.067,291.755L330.067,291.755z"
								/>
							<path fill="#FFFFFF" d="M328.524,303.22l0.398-2.875l4.57,0.725c0,0-1.082,2.674-4.218,2.414
								C329.007,303.458,328.79,303.38,328.524,303.22z"/>
						</g>
					</g>
				</g>
				<path fill="#6DC6FC" d="M336.899,314.498l2.781,1.9c0,0,7.288-8.375,2.534-10.705
					C342.215,305.693,342.096,310.111,336.899,314.498z"/>
				<path fill="#6DC6FC" d="M336.148,310.603l0.751,3.893l-3.08,0.885c0,0-0.062-3.443,2.051-6.227L336.148,310.603z"/>
			</g>
			<ellipse opacity="0.09" fill="#4D8CC6" enable-background="new    " cx="388.21" cy="390.499" rx="8.711" ry="3.241"/>
			<ellipse opacity="0.09" fill="#4D8CC6" enable-background="new    " cx="358.46" cy="390.5" rx="4.408" ry="1.641"/>
			<ellipse opacity="0.09" fill="#4D8CC6" enable-background="new    " cx="328.063" cy="390.499" rx="13.982" ry="5.204"/>
			<g>
				<path fill="#0E1A2D" d="M335.625,389.035v1.107c0,0.455-0.369,0.822-0.82,0.822h-16.573c0,0,2.308-4.258,10.335-4.529
					C332.791,387.246,335.625,389.035,335.625,389.035z"/>
				<path fill="#192C5B" d="M347.028,350.585l-26.861,5.768l11.177,31.191l4.281,1.492c0,0,0.391-20.25-5.816-25.855l26.995,2.162"
					/>
			</g>
			<path fill="#1B316F" d="M347.028,350.585l9.118,40.377l31.931-8.225l-0.438-2.746c0,0-20.021-2.014-24.651,2.924l5.264-24.473
				c0,0,1.103-5.746,0-7.857C368.254,350.585,359.488,354.173,347.028,350.585z"/>
			<path fill="#0E1A2D" d="M387.64,379.994h3.723v10.971h-7.28c0,0,0.709-2.682,3.995-3.529v-4.695L387.64,379.994z"/>
			<g>
				<path fill="#355FDE" d="M349.386,311.548c-1.565-1.932-6.672-2.578-7.972,5.607c-1.638,10.305-3.625,23.352-21.058,30.1
					l0.486,4.092c0,0,22.592-1.408,29.126-26.037C350.79,322.216,352.471,315.347,349.386,311.548z"/>
				
					<rect x="319.954" y="346.815" transform="matrix(-0.9817 0.1904 -0.1904 -0.9817 702.8716 630.6415)" fill="#6DC6FC" width="2.37" height="4.546"/>
				<path fill="#F4D4B6" d="M313.493,353.48c1.299,0.32,4.73,0.096,4.73,0.096l2.307-2.15l-0.62-4.412l-2.19-0.988l-3.508-0.818
					l-2.1,0.928l4.201,2.83l-0.024,2.383l-2.206,0.885l-2.654,0.781L313.493,353.48z"/>
			</g>
		</g>
		<g>
			<path fill="#16275C" d="M317.45,91.342l23.423,40.502l-4.46,0.652c0,0-10.716-6.209-17.249-22.52"/>
			<polyline fill="#16275C" points="314.651,105.479 279.359,107.657 307.091,95.087 317.543,95.688 			"/>
			<path fill="#1B316F" d="M255.742,83.217l30.133,4.234l31.575,3.889l6.419,46.854l-5.063-0.115c0,0-14.401-27.375-6.727-38.637
				l-32.719,8.214c0,0-14.271,0.507-19.271-6.111C253.094,92.288,255.742,83.217,255.742,83.217z"/>
			<path fill="#182B61" d="M255.742,83.215l26.587,3.737l0,0c0.795,0.11-26.793,3.897-26.828,3.898
				C254.906,86.52,255.742,83.215,255.742,83.215z"/>
			<polygon fill="#0E1A2D" points="318.807,138.08 318.692,143.086 336.53,143.492 324.076,138.199 			"/>
			<polygon fill="#0E1A2D" points="336.413,132.496 338.679,136.965 354.595,128.899 341.115,130.115 			"/>
			<g>
				<path fill="#F4D4B6" d="M279.012,37.992c0,0-6.688-1.548-14.905,3.906c0,0,15.48,22.558,47.398,25.956l1.421-4.216
					C312.926,63.638,284.803,54.75,279.012,37.992z"/>
				<path fill="#E0E7FD" d="M268.753,48.52l10.834-10.528l-14.03,6.804C266.566,46.074,267.267,47.014,268.753,48.52z"/>
				<path fill="#F4D4B6" d="M312.021,63.904c0,0,2.242-1.38,3.167-1.56c0,0,4.509-1.591,5.224-1.791c0,0,0.821,0.778-0.293,1.569
					c-1.112,0.79-2.45,1.773-2.45,1.773s1.783,0.009,3.1-0.232c1.32-0.242,3.937-0.651,4.646-0.204
					c0.709,0.445,0.026,0.953,0.026,0.953s-4.023,0.623-4.886,0.761c-0.755,0.124-0.496,0.397-0.496,0.397s4.683-0.338,5.534-0.286
					c0.853,0.056,1.197,0.381,0.906,1.06c0,0-3.625,0.382-4.166,0.447c-0.538,0.067-2.317-0.021-2.252,0.563
					c0,0,4.07-0.069,4.77-0.036c0.696,0.032,1.017,0.46,0.541,0.991l-5.598,0.386c0,0-0.396,0.036-0.277,0.274
					c0.105,0.212,2.461,0.826,2.744,0.869c0.283,0.045,1.168,0.252,0.902,0.904c0,0-0.124,0.209-0.953,0.024
					c-0.83-0.183-4.733-0.539-4.733-0.539s-2.655-0.238-5.165-1.817c-2.53-1.588-2.4-2.721-1.893-1.155l0.696-1.392L312.021,63.904z
					"/>
			</g>
			<g>
				<g>
					<path fill="#F4D4B6" d="M282.948,12.746c0,0,2.888,5.769,3.235,13.883c0,0-2.941,2.019-8.656,1.448l-0.737,7.401l-6.405-4.655
						l0.512-5.139l1.627-0.127l-0.867-2.263c0,0-2.266-0.388-2.821-2.809c-0.555-2.419,2.073-1.581,2.702-1.23l0.796,1.577
						c0,0,0.078-3.367-1.853-4.423l1.026-3.217C271.505,13.194,276.534,14.85,282.948,12.746z"/>
					<path fill="#202448" d="M272.521,25.56l-1.625,0.127l-0.174,1.718c0,0-0.983-0.533-1.466-2.17c0,0-7.388-1.182-4.528-10.452
						c0,0-1.196-4.906,2.917-8.2c7.767-6.211,18.536,4.163,18.536,4.163s-0.886,2.267-5.69,2.813l0.907,0.981
						c0,0-4.145,1.737-8.614,0.506l-0.56,0.956c0,0,0.332,1.191,0.104,4.832l-0.795-1.577c0,0-1.438-0.949-2.355,0.073
						c-0.916,1.021,0.475,3.296,2.475,3.964L272.521,25.56z"/>
					<path fill="#202448" d="M268.757,8.883l-0.807-2.526c0,0,4.046-3.872,13.114-6.357c0,0,2.384,4.597-1.478,8.882
						c-3.863,4.285-7.015,1.179-7.015,1.179"/>
					<polygon fill="#E9A18E" points="281.062,16.467 280.636,20.737 282.649,20.937 					"/>
					<path fill="#FFFFFF" d="M284.581,22.334c-0.492,1.787-2.203,3.014-4.107,2.826c-1.907-0.191-3.341-1.732-3.472-3.58
						L284.581,22.334z"/>
				</g>
				<polygon fill="#3966EB" points="285.064,47.411 277.712,54.999 276.563,47.771 275.979,42.322 279.012,38.549 				"/>
				<path fill="#94F8FF" d="M255.249,87.932l27.08-0.979l-2.511-47.881c0,0-1.495-8.076-7.796-8.056
					c-5.712,0.018-11.134,7.406-13.323,16.439C254.423,65.091,255.249,87.932,255.249,87.932z"/>
			</g>
			<polygon fill="#233EB7" points="278.61,33.058 279.012,29.917 270.563,29.046 275.793,31.88 			"/>
			<path fill="#3966EB" d="M267.95,32.289l0.95-3.488c0,0,7.049,0.562,10.111,4.764l-0.342,2.606
				C278.67,36.17,273.155,32.648,267.95,32.289z"/>
			<path fill="#86EAFD" d="M282.177,82.258c-8.326-2.29-15.745-9.65-15.745-9.65s-2.273-22.168-1.989-27.474
				c0.287-5.368,1.846-10.507,7.458-9.706c5.764,0.822,4.678,8.974,4.678,8.974l-2.194,18.652l7.363,13.167L282.177,82.258z"/>
			<path fill="#F4D4B6" d="M278.021,44.126c0,0,0.364-8.263-5.72-8.538c-6.041-0.273-7.145,5.151-6.857,10.617
				c0.279,5.333,2.038,24.047,2.038,24.047s11.605,11.304,29.654,14.137l-0.65-4.17l-19.113-13.396L278.021,44.126z"/>
			<path fill="#F4D4B6" d="M296.49,80.223l6.535-1.313l5.606,1.862l1.295,6.646c0,0-1.499,0.559-2.368-3.366l-1.539-0.209
				c0,0-2.758,1.449-4.962,1.029c-2.204-0.423-4.398-0.506-4.398-0.506L296.49,80.223z"/>
			<g>
				<path fill="#FFFFFF" d="M323.868,72.012c-0.653,0.24-0.994,0.978-0.994,0.978l-8.539,17.914l1.427,0.525l9.24-19.378
					C325.002,72.05,324.551,71.76,323.868,72.012z"/>
				
					<rect x="291.196" y="88.072" transform="matrix(-0.9909 -0.1346 0.1346 -0.9909 592.3857 217.9017)" fill="#F0F2FF" width="24.727" height="1.705"/>
			</g>
		</g>
		<g>
			<g>
				<path fill="#5931B5" d="M29.552,235.294c0,0-3.547,5.803-2.449,15.41c0,0,26.368,0.086,42.849-27.973l-4.419-3.902
					C65.532,218.828,51.199,239.853,29.552,235.294z"/>
				<path fill="#F4D4B6" d="M67.819,217.837c0,0,0.198-2.574,0.586-3.41c0,0,1.34-4.49,1.593-5.174c0,0,1.09-0.205,1.077,1.133
					c-0.016,1.34-0.456,2.988-0.456,2.988s1.487-1.43,2.055-2.615c0.568-1.186,1.754-3.496,2.515-3.803
					c0.761-0.303,0.771,0.531,0.771,0.531s-1.825,3.549-2.211,4.311c-0.335,0.672,0.028,0.625,0.028,0.625s2.429-3.91,2.963-4.555
					c0.533-0.646,0.991-0.729,1.36-0.107c0,0-1.788,3.094-2.044,3.563c-0.259,0.467-1.355,1.826-0.854,2.111
					c0,0,2.292-3.27,2.719-3.805c0.427-0.533,0.953-0.539,1.099,0.141l-2.919,4.662c0,0-0.199,0.334,0.057,0.377
					c0.229,0.039,2.073-1.477,2.271-1.676c0.199-0.201,0.872-0.781,1.237-0.193c0,0,0.098,0.219-0.529,0.77
					c-0.624,0.553-3.156,3.443-3.156,3.443s-1.719,1.967-4.416,3.049c-2.717,1.088-3.541,0.334-2.007,0.832l-0.702-1.354
					L67.819,217.837z"/>
				<polygon fill="#F1CB2D" points="72.042,220.361 67.558,216.576 65.456,218.828 69.877,222.732 				"/>
				<path fill="#94F8FF" d="M50.895,172.987v-5.03h-2.916c-0.246-0.962-0.623-1.869-1.12-2.697l2.064-2.063l-3.561-3.561
					l-2.062,2.064c-0.83-0.496-1.736-0.875-2.698-1.119v-2.916h-5.031v2.916c-0.962,0.243-1.867,0.621-2.697,1.119l-2.061-2.064
					l-3.563,3.561l2.064,2.063c-0.494,0.829-0.875,1.736-1.118,2.697h-2.916v5.03h2.916c0.243,0.963,0.623,1.868,1.118,2.697
					l-2.064,2.063l3.563,3.56l2.061-2.063c0.832,0.495,1.737,0.876,2.697,1.119v2.918h5.031v-2.918
					c0.964-0.243,1.87-0.623,2.698-1.119l2.062,2.063l3.561-3.56l-2.064-2.063c0.495-0.829,0.874-1.735,1.12-2.697H50.895z
					 M33.008,170.318c0.085-2.739,2.323-4.935,5.081-4.935c2.812,0,5.089,2.278,5.089,5.091c0,2.756-2.194,4.998-4.934,5.079
					C35.388,175.472,33.09,173.176,33.008,170.318z"/>
				<path opacity="0.67" fill="#FFFFFF" enable-background="new    " d="M275.979,244.294H38.089V91.139h224.21
					c7.556,0,13.682,6.125,13.682,13.679L275.979,244.294L275.979,244.294z"/>
				<rect x="144.147" y="220.009" fill="#FDFAFF" width="120.764" height="1.75"/>
				<rect x="144.147" y="226.4" fill="#FDFAFF" width="120.764" height="1.748"/>
				<rect x="144.147" y="232.789" fill="#FDFAFF" width="120.764" height="1.752"/>
				<path fill="#89F8FF" d="M126.913,186.504v-9.549h-5.535c-0.463-1.824-1.18-3.544-2.121-5.12l3.913-3.914l-6.752-6.754
					l-3.913,3.917c-1.575-0.94-3.295-1.659-5.121-2.122v-5.535h-9.548v5.535c-1.825,0.463-3.544,1.182-5.121,2.122l-3.914-3.917
					l-6.753,6.754l3.914,3.914c-0.938,1.576-1.658,3.296-2.118,5.12h-5.536v9.549h5.536c0.46,1.824,1.181,3.544,2.118,5.12
					l-3.914,3.913l6.753,6.753l3.914-3.916c1.577,0.941,3.296,1.66,5.121,2.123v5.533h9.548v-5.533
					c1.826-0.463,3.546-1.182,5.121-2.123l3.913,3.916l6.752-6.753l-3.913-3.913c0.941-1.576,1.658-3.296,2.121-5.12H126.913z
					 M92.968,181.436c0.158-5.197,4.408-9.362,9.641-9.362c5.335,0,9.659,4.323,9.659,9.658c0,5.231-4.166,9.481-9.362,9.639
					C97.481,191.213,93.124,186.857,92.968,181.436z"/>
				<path opacity="0.69" fill="#3E6FFA" enable-background="new    " d="M257.973,215.324H108.509c-3.259,0-5.9-2.643-5.9-5.9
					v-71.02c0-3.261,2.642-5.901,5.9-5.901h149.464c3.26,0,5.901,2.641,5.901,5.901v71.02
					C263.874,212.683,261.232,215.324,257.973,215.324z"/>
				<path opacity="0.21" fill="#3E6FFA" enable-background="new    " d="M251.843,186.211l-64.987-22.131l64.987-22.131
					c0.966-0.329,1.485-1.383,1.156-2.352c-0.33-0.966-1.382-1.487-2.352-1.156l-69.541,23.682l-69.541-23.682
					c-0.967-0.332-2.024,0.189-2.353,1.156c-0.331,0.969,0.188,2.023,1.157,2.352l64.988,22.131l-64.988,22.131
					c-0.968,0.329-1.486,1.381-1.157,2.35c0.263,0.771,0.983,1.258,1.755,1.258c0.198,0,0.4-0.031,0.598-0.102l69.541-23.68
					l69.541,23.68c0.198,0.07,0.401,0.102,0.6,0.102c0.771,0,1.489-0.486,1.752-1.258
					C253.33,187.592,252.811,186.54,251.843,186.211z"/>
				<path opacity="0.69" fill="#3E6FFA" enable-background="new    " d="M172.452,235.5H66.22c-3.26,0-5.901-2.641-5.901-5.9
					v-48.818c0-3.258,2.642-5.902,5.901-5.902h106.23c3.261,0,5.902,2.643,5.902,5.902v48.818
					C178.353,232.859,175.711,235.5,172.452,235.5z"/>
				<path fill="#DD3226" d="M209.419,79.483h-27.698V94.21h34.904v-7.52C216.627,82.71,213.399,79.483,209.419,79.483z"/>
				<path fill="#4B269C" d="M275.979,108.422H38.089V91.139h227.149c5.931,0,10.743,4.809,10.743,10.742L275.979,108.422
					L275.979,108.422z"/>
				<g>
					<circle fill="#2D1E7C" cx="45.357" cy="99.78" r="3.609"/>
					<circle fill="#59A0FB" cx="45.359" cy="99.78" r="2.42"/>
				</g>
				<g>
					<circle fill="#2D1E7C" cx="55.527" cy="99.78" r="3.609"/>
					<circle fill="#94F8FF" cx="55.528" cy="99.78" r="2.419"/>
				</g>
				<g>
					<circle fill="#2D1E7C" cx="65.696" cy="99.78" r="3.609"/>
					<circle fill="#FFFFFF" cx="65.696" cy="99.78" r="2.419"/>
				</g>
				<path fill="#B76DFA" d="M178.016,76.411h-27.696v14.728h34.906v-7.52C185.226,79.638,181.997,76.411,178.016,76.411z"/>
				<path fill="#94F8FF" d="M148.09,73.634h-34.281v17.504h41.487V80.841C155.296,76.861,152.069,73.634,148.09,73.634z"/>
				<path fill="#59A0FB" d="M111.88,70.558H45.005c-3.819,0-6.916,3.098-6.916,6.915v13.666h85.29v-9.084
					C123.377,75.707,118.229,70.558,111.88,70.558z"/>
				<rect x="102.608" y="121.595" fill="#2B3469" width="101.129" height="3.125"/>
				<rect x="102.608" y="113.096" fill="#2B3469" width="40.351" height="3.125"/>
				<rect x="159.496" y="113.096" fill="#2B3469" width="7.009" height="3.125"/>
				<rect x="177.602" y="113.096" fill="#2B3469" width="7.011" height="3.125"/>
				<rect x="195.707" y="113.096" fill="#2B3469" width="7.011" height="3.125"/>
				<rect x="213.813" y="113.096" fill="#2B3469" width="7.012" height="3.125"/>
				<rect x="231.918" y="113.096" fill="#2B3469" width="7.014" height="3.125"/>
				<rect x="250.026" y="113.096" fill="#2B3469" width="7.01" height="3.125"/>
				<rect x="206.013" y="200.378" fill="#94F8FF" width="50.438" height="2.721"/>
				<rect x="206.013" y="206.253" fill="#94F8FF" width="50.438" height="2.725"/>
			</g>
			<path fill="#4F8FFB" d="M89.954,146.6v-9.234h-5.354c-0.449-1.764-1.143-3.426-2.052-4.951l3.785-3.785l-6.531-6.531
				l-3.784,3.784c-1.525-0.909-3.188-1.601-4.954-2.05v-5.354h-9.235v5.354c-1.765,0.45-3.429,1.142-4.95,2.05l-3.789-3.784
				l-6.528,6.531l3.786,3.785c-0.911,1.525-1.604,3.188-2.053,4.951h-5.353v9.234h5.353c0.448,1.767,1.142,3.43,2.053,4.954
				l-3.786,3.786l6.528,6.532l3.789-3.787c1.521,0.909,3.186,1.604,4.95,2.05v5.354h9.235v-5.354
				c1.766-0.446,3.429-1.141,4.954-2.05l3.784,3.787l6.531-6.532l-3.785-3.786c0.909-1.524,1.603-3.188,2.052-4.954H89.954z
				 M57.121,141.698c0.152-5.025,4.265-9.056,9.325-9.056c5.158,0,9.34,4.183,9.34,9.341c0,5.063-4.03,9.173-9.055,9.325
				C61.487,151.158,57.271,146.942,57.121,141.698z"/>
			<path fill="#B76DFA" d="M69.167,180.004v-3.39h-1.964c-0.164-0.649-0.42-1.259-0.753-1.819l1.389-1.388l-2.396-2.397
				l-1.389,1.389c-0.559-0.334-1.168-0.588-1.816-0.752v-1.963h-3.389v1.963c-0.65,0.166-1.258,0.42-1.817,0.752l-1.391-1.389
				l-2.395,2.397l1.39,1.388c-0.336,0.561-0.588,1.17-0.754,1.819h-1.963v3.39h1.963c0.166,0.647,0.418,1.256,0.754,1.816
				l-1.39,1.389l2.395,2.396l1.391-1.389c0.56,0.334,1.167,0.588,1.817,0.752v1.966h3.389v-1.966
				c0.648-0.164,1.258-0.418,1.816-0.752l1.389,1.389l2.396-2.396l-1.389-1.389c0.333-0.561,0.589-1.169,0.753-1.816H69.167z
				 M57.121,178.203c0.058-1.844,1.564-3.322,3.421-3.322c1.893,0,3.427,1.533,3.427,3.426c0,1.857-1.478,3.367-3.324,3.42
				C58.723,181.674,57.177,180.128,57.121,178.203z"/>
		</g>
		<g>
			<g>
				<g>
					<g>
						<path fill="#F4D4B6" d="M32.941,213.23c0,0,3.378,5.344,4.503,13.229c0,0-2.674,2.252-8.305,2.252v7.291l-6.701-3.92v-5.061
							l1.575-0.281l-1.066-2.125c0,0-2.247-0.158-3.023-2.465c-0.777-2.303,1.869-1.744,2.515-1.461l0.931,1.461
							c0,0-0.253-3.287-2.235-4.135l0.688-3.238C21.821,214.775,26.889,215.9,32.941,213.23z"/>
						<path fill="#232D5D" d="M14.88,215.617c0,0-1.3-3.811,2.366-6.172c0.611,3.033,3.476,4.623,5.704,6.762l-1.622,0.371
							c0,0,1.907,1.998,2.042,5.57l-0.932-1.461c0,0-1.491-0.787-2.288,0.301c-0.796,1.082,0.783,3.168,2.797,3.627l1.066,2.125
							l-1.575,0.281v1.693c0,0-1.009-0.422-1.64-1.975C20.799,226.74,12.991,224.937,14.88,215.617z"/>
						<path fill="#232D5D" d="M19.3,214.658c0,0,14.73,3.91,15.873-5.215l-1.305,0.732c0,0,1.386-2.443,0.327-5.459l-0.749,1.314
							c0,0-8.131-4.49-16.2,3.412l-0.649,2.037L19.3,214.658z"/>
						<polygon fill="#E9A18E" points="31.462,217.039 31.462,221.246 33.444,221.246 						"/>
						<path fill="#FFFFFF" d="M35.899,221.246c0.357,1.779-0.597,3.611-2.348,4.287c-1.75,0.676-3.687-0.039-4.617-1.6
							L35.899,221.246z"/>
					</g>
					<path opacity="0.09" fill="#4D8CC6" enable-background="new    " d="M0,362.91c0,5.83,11.415,10.555,25.498,10.555
						c14.078,0,25.494-4.725,25.494-10.555c0-5.826-11.416-10.553-25.494-10.553C11.415,352.357,0,357.083,0,362.91z"/>
					<polygon fill="#0E1A2D" points="34.886,360.519 34.886,363.517 47.321,363.517 38.892,360.519 					"/>
					<polygon fill="#0E1A2D" points="5.191,360.519 5.191,363.517 12.707,366.957 16.083,366.957 9.782,360.519 					"/>
					<path fill="#1B316F" d="M36.152,286.931l2.739,73.588h-4.006c0,0-6.675-18.695-5.609-37.121l-4.541-27.775L9.779,360.519H5.241
						c0,0-3.947-23.959,1.602-38.455l2.137-41.66L36.152,286.931z"/>
					<polygon fill="#13224F" points="24.737,295.623 29.857,285.419 29.276,323.398 					"/>
					<polygon fill="#13224F" points="36.152,286.931 8.702,292.513 8.724,286.443 					"/>
					<path fill="#B76DFA" d="M8.226,286.443l27.927,0.49c0,0,0.374-22.271-3.708-47.719c-0.437-2.715-2.243-7.736-8.386-7.105
						c-5.571,0.572-9.007,7.121-11.372,15.918C8.881,262.189,8.226,286.443,8.226,286.443z"/>
				</g>
				<path fill="#FCFFFF" d="M21.328,232.958l0.586-3.496c0,0,5.729,0.488,8.788,4.447l0.304,1.668
					C31.006,235.578,25.321,233.593,21.328,232.958z"/>
				<g>
					<path fill="#7145D2" d="M31.39,240.052c0,0-3.625-4.051-6.614-3.51c-5.834,1.057-6.218,7.404-3.445,11.029
						c0.337,0.445,0.867,1.004,1.536,1.656c11.768,11.385,29.83,13.154,43.855,4.705c3.248-1.953,6.754-4.16,10.46-6.621
						l-3.725-4.592l-7.668,2.965C54.148,250.183,40.987,248.027,31.39,240.052L31.39,240.052z"/>
					<polygon fill="#B76DFA" points="79.556,245.531 77.182,247.312 73.339,242.808 75.714,241.025 					"/>
				</g>
			</g>
			<path fill="#F4D4B6" d="M79.014,239.375c0,0,3.755,0.051,5.698,0.334c0,0,4.061,0.117,5.002,0.4c0,0-0.339,1.539-2.085,1.988
				c-1.795,0.457-3.285,0.494-3.285,0.494s3.835,1.354,5.37,1.709c-1.123,0.939-1.979,1.229-1.979,1.229s-6.049,4.082-11.288-2.682
				C74.128,239.853,79.014,239.375,79.014,239.375z"/>
		</g>
		<rect x="338.858" y="205.189" fill="#B76DFA" width="37.633" height="37.635"/>
		<rect x="345.314" y="211.646" fill="#DCA1FB" width="24.719" height="24.719"/>
		<rect x="353.675" y="220.009" fill="#EEB6FC" width="7.997" height="7.996"/>
		<g>
			<path fill="#FFFFF8" d="M108.104,227.503L108.104,227.503c-4.005-2.107-5.554-7.113-3.445-11.117l13.071-24.808
				c2.11-4.002,7.112-5.551,11.118-3.442l0,0c4.003,2.108,5.555,7.112,3.444,11.118l-13.073,24.805
				C117.11,228.062,112.108,229.615,108.104,227.503z"/>
			<path fill="#243FBC" d="M166.166,196.203c5.516-10.469,2.459-23.148-6.652-30.088l0.017-0.022l-44.096-38.41l-17.219,32.677
				l-17.223,32.678l56.171,14.542C148.144,211.435,160.577,206.804,166.166,196.203z"/>
			
				<ellipse transform="matrix(-0.8847 -0.4661 0.4661 -0.8847 110.3183 348.026)" fill="#F3D03C" cx="98.194" cy="160.372" rx="17.229" ry="43.209"/>
			
				<ellipse transform="matrix(-0.8847 -0.4662 0.4662 -0.8847 103.3962 341.8746)" fill="#DE8D1F" cx="93.979" cy="158.15" rx="10.216" ry="31.976"/>
			<path fill="#DD3226" d="M92.254,144.609c-5.166-1.709-10.954,0.502-13.575,5.473c-2.652,5.036-1.126,11.15,3.329,14.416
				l12.868,11.207c2.778-3.619,5.565-7.965,8.111-12.797c2.561-4.854,4.575-9.627,5.99-13.984l-16.719-4.328L92.254,144.609z"/>
			<g>
				<path fill="#F3D03C" d="M113.975,117.555L113.975,117.555c-2.029,0-3.688-1.659-3.688-3.688V94.824
					c0-2.026,1.659-3.685,3.688-3.685l0,0c2.026,0,3.684,1.659,3.684,3.685v19.042C117.659,115.895,116.001,117.555,113.975,117.555
					z"/>
				<path fill="#F3D03C" d="M125.109,119.859L125.109,119.859c-1.757-1.013-2.363-3.282-1.349-5.038l7.636-12.734
					c1.015-1.755,3.282-2.364,5.036-1.349l0,0c1.758,1.014,2.367,3.281,1.352,5.038l-7.638,12.732
					C129.133,120.267,126.866,120.873,125.109,119.859z"/>
				<path fill="#F3D03C" d="M101.991,119.859L101.991,119.859c1.755-1.013,2.362-3.282,1.35-5.038l-7.124-12.448
					c-1.014-1.755-3.282-2.363-5.037-1.349l0,0c-1.758,1.015-2.364,3.281-1.351,5.038l7.124,12.445
					C97.969,120.267,100.234,120.873,101.991,119.859z"/>
			</g>
		</g>
		<g>
			<g>
				<g>
					<path fill="#B76DFA" d="M133.393,276.833l-26.735,26.736l34.861-14.67C139.519,284.404,136.758,280.33,133.393,276.833z"/>
					<path fill="#DD3226" d="M105.85,254.912v45.564l32.22-32.221C129.68,260.181,118.356,255.148,105.85,254.912z"/>
					<path fill="#59A0FB" d="M103.161,307.591L103.161,307.591c-0.096,0-0.187-0.021-0.276-0.053
						c-0.011-0.006-0.022-0.006-0.036-0.01c-0.017-0.01-0.027-0.021-0.047-0.031c-0.06-0.031-0.119-0.07-0.171-0.115
						c-0.021-0.02-0.041-0.033-0.062-0.055c-0.059-0.064-0.113-0.139-0.151-0.227c-0.002-0.002-0.006-0.006-0.006-0.008
						c0,0,0,0-0.001,0c0,0,0-0.002,0-0.004c-0.041-0.098-0.061-0.205-0.061-0.309l0,0c0,0,0-0.002,0-0.004v-41.945
						c-22.801,0.436-41.156,19.041-41.156,41.947c0,23.174,18.789,41.965,41.966,41.965c22.903,0,41.513-18.354,41.945-41.154
						L103.161,307.591L103.161,307.591z"/>
					<path fill="#F8E640" d="M154.074,288.599l-34.969,14.717h37.93C156.935,298.123,155.896,293.166,154.074,288.599z"/>
				</g>
				<g>
					<g>
						<path fill="#77D6FD" d="M144.206,267.031c-0.242,0-0.488-0.1-0.658-0.301c-16.454-18.773-41.355-16.523-41.606-16.508
							c-0.461,0.061-0.911-0.303-0.959-0.785c-0.05-0.479,0.303-0.91,0.783-0.959c0.259-0.027,26.042-2.371,43.099,17.098
							c0.321,0.363,0.285,0.918-0.082,1.24C144.619,266.958,144.412,267.031,144.206,267.031z"/>
					</g>
					<g>
						<path fill="#77D6FD" d="M101.904,252.421c-0.477,0-0.864-0.379-0.876-0.857l-0.117-5.043
							c-0.009-0.486,0.374-0.887,0.857-0.898c0.499,0.016,0.885,0.375,0.896,0.855l0.115,5.045c0.013,0.486-0.371,0.887-0.855,0.898
							C101.919,252.421,101.911,252.421,101.904,252.421z"/>
					</g>
					<g>
						<path fill="#77D6FD" d="M142.571,268.873c-0.248,0-0.492-0.104-0.666-0.305c-0.315-0.367-0.275-0.92,0.094-1.238l3.744-3.227
							c0.362-0.313,0.923-0.277,1.237,0.092c0.314,0.365,0.274,0.92-0.093,1.24l-3.743,3.227
							C142.979,268.8,142.773,268.873,142.571,268.873z"/>
					</g>
				</g>
			</g>
		</g>
		<g>
			<g>
				<path fill="#192C5B" d="M172.986,349.462l-33.119-1.457l-9.556,53.645l4.271,0.102c0,0,11.969-23.424,9.503-35.785l7.374-5.26
					L172.986,349.462z"/>
				<g>
					<path fill="#1B316F" d="M191.48,361.791c0,0-4.994,9.883-23.731,7.773c-18.736-2.105-30.513-5.074-30.513-5.074
						s0.658,12.115-26.792,36.691l-4.039-0.094l24.668-47.691l41.912-3.934L191.48,361.791z"/>
					<path fill="#1E3671" d="M187.652,365.798c-4.914-5.342-14.666-16.336-14.666-16.336l18.494,12.33
						C191.48,361.791,190.405,363.925,187.652,365.798z"/>
					<polygon fill="#0E1A2D" points="110.559,401.183 110.441,406.177 96.155,405.843 106.286,401.083 					"/>
					<ellipse opacity="0.09" fill="#4D8CC6" enable-background="new    " cx="127.795" cy="406.177" rx="9.398" ry="3.498"/>
					<ellipse opacity="0.09" fill="#4D8CC6" enable-background="new    " cx="103.883" cy="406.177" rx="9.396" ry="3.498"/>
					<polygon fill="#0E1A2D" points="134.646,401.755 134.528,406.748 119.938,406.402 130.37,401.652 					"/>
				</g>
				<g>
					<path fill="#F3D03C" d="M178.68,309.279c0,0-19.28,3.734-31.784-8.891l-2.837,5.049c0,0,9.679,15.297,37.667,14.836
						C181.726,320.273,184.08,315.039,178.68,309.279z"/>
					<path opacity="0.6" fill="#EDB733" enable-background="new    " d="M177.792,309.421c0.415-0.061,0.693-0.107,0.812-0.129
						l0.11,0.029c1.678,1.803,2.601,3.549,3.076,5.102l-0.413,1.223l-3.233,4.586c-0.109-0.004-0.217-0.008-0.325-0.012
						l-4.234-0.291c-0.074-0.008-0.146-0.018-0.22-0.023C177.558,315.669,177.806,310.75,177.792,309.421z"/>
					<path fill="#F4D4B6" d="M144.573,299.279l-3.869-4.816L129,291.275c0,0-1.239,2.254,7.058,4.285l-1.201,2.35l1.731,3.916
						l4.641,0.895l0.848,1.135L144.573,299.279z"/>
					<polygon fill="#EDB638" points="140.431,303.542 145.438,298.384 148.274,300.876 143.36,306.171 					"/>
				</g>
				<path fill="#F8E640" d="M172.962,349.423l5.283-38.156c0,0-0.2-6.865,6.982-10.193c0,0-1.809,1.828,5.451,3.328
					c8.424,1.744,11.275,40.375,0.807,57.389L172.962,349.423z"/>
				<path opacity="0.68" fill="#F3D03C" enable-background="new    " d="M174.172,340.677l1.891-13.652
					c2.903-4.313,4.626-9.053,6.186-13.314c2.917-7.98,8.024-6.025,9.953-4.359c3.187,2.75,2.701,7.275-0.217,13.641
					C187.626,332.505,180.796,337.771,174.172,340.677z"/>
				<g>
					<g>
						<path fill="#E4F2FF" d="M133.166,314.898l-8.308,15.359c-0.469,0.867,0.045,1.943,1.016,2.123l25.142,4.965
							c1.019,0.188,2.045-0.297,2.544-1.203l8.11-14.707c0.267-0.484,0-1.09-0.534-1.221l-25.877-6.246
							C134.432,313.765,133.569,314.148,133.166,314.898z"/>
						<path fill="#2A4ACD" d="M133.621,315.982l-7.398,13.777c-0.248,0.459,0.023,1.025,0.536,1.123l24.04,4.928
							c0.677,0.121,1.359-0.201,1.69-0.805l7.319-13.268c0.143-0.26,0-0.582-0.286-0.652l-24.1-5.902
							C134.711,315.007,133.972,315.337,133.621,315.982z"/>
						<path fill="#DD3226" d="M155.392,322.968l-6.059,10.609c0,0-10.082-3.193-9.806-4.781c0.276-1.586,8.097,0.514,9.159-0.467
							c1.064-0.982-9.075-3.566-8.195-5.721C141.04,321.269,145.693,320.109,155.392,322.968z"/>
					</g>
					<path fill="#F4D4B6" d="M144.104,338.384c0,0-7.117,0.373-11.05-4.74l7.456-0.049l-4.221-1.35c0,0,0.597-1.465,3.245-0.695
						l2.589,0.725c0,0,2.309-0.289,3.334,1.67L144.104,338.384z"/>
					<path fill="#F8E640" d="M148.058,334.994l-1.129,4.381l-2.824-0.99c0,0-0.255-2.969,1.354-4.439L148.058,334.994z"/>
					<path fill="#EDB733" d="M192.859,309.873c-1.716-2.119-7.444-3.996-10.872,4.426c-4.099,10.072-10.899,20.664-33.93,20.697
						l-1.129,4.381c0,0,26.488,10.381,43.128-15.178C194.146,317.917,195.699,313.371,192.859,309.873z"/>
				</g>
				<g>
					<path fill="#202448" d="M188.559,280.302c-1.602-4.25-8.13-4.373-13.046-2.43c-0.018,0.99,1.838,2.863,1.515,3.818
						c-0.256,1.641-0.905,3.131-1.948,4.469c-0.343,0.514-0.734,0.969-1.149,1.396l6.987,7.031l4.767,2.795l2.658-2.076
						C195.04,286.14,188.559,280.302,188.559,280.302z"/>
					<circle fill="#202448" cx="175.524" cy="282.621" r="6.268"/>
					<path fill="#E9A18E" d="M173.655,289.24c0,0-1.662,2.066-1.317,6.557l3.957-0.637L173.655,289.24z"/>
					<polyline fill="#FFFFFF" points="174.104,296.828 174.92,299.117 178.192,298.097 178.241,296.162 177.854,295.251 					"/>
					<path fill="#F4D4B6" d="M185.993,293.865c0,0-1.58,1.016-2.414-1.43c0,0,2.981-1.133,2.099-3.297
						c-0.733-1.797-2.981-0.791-3.47,0.936l0.344,2.146c0,0-0.831-0.359-1.708-4.439l-1.43-1.594l-5.539,1.318
						c0,0-1.136,4.395,0.228,9.322l3.309-0.531c0,0-0.271,1.967-2.493,2.818c0.37,0.926,0.584,1.301,1.182,2.209l4.865-0.783
						l0.572,3.555l2.994,0.814l2.53,0.377l1.901-1.268l0.335-2.736l-0.962-5.977C188.34,295.306,187.218,295.427,185.993,293.865z"
						/>
					<path fill="#EEB929" d="M181.311,302.664l-1.913,4.107c0,0,7.944,0.379,11.279-2.367l-1.375-3.119
						C189.302,301.285,185.054,303.242,181.311,302.664z"/>
				</g>
			</g>
		</g>
		<g>
			<g>
				<g>
					<path fill="#C9E9FD" d="M410.83,353.207l-2.32,1.379c-2.007-1.859-6.28-3.145-11.227-3.145s-9.22,1.285-11.226,3.145
						l-2.32-1.303l1.186,7.482l0.003,0.002c0.72,2.752,5.975,4.893,12.357,4.893s11.637-2.139,12.358-4.893l0.006-0.002
						L410.83,353.207z"/>
					<path fill="#D3F1FF" d="M386.923,358.55v2.902c0,0,1.925,1.814,6.624,2.08v-2.904
						C393.547,360.628,389.702,360.349,386.923,358.55z"/>
					<path fill="#D3F1FF" d="M405.484,359.496l-0.255,3.195c1.791-0.672,2.733-1.648,2.733-1.648l0.405-3.031
						C407.456,358.683,406.442,359.15,405.484,359.496z"/>
					<ellipse fill="#E3F9FF" cx="397.284" cy="353.206" rx="13.546" ry="6.026"/>
					<ellipse fill="#BCDEFD" cx="397.284" cy="352.592" rx="11.432" ry="5.089"/>
				</g>
			</g>
			<path fill="#89FBED" d="M388.206,339.355c0,0-7.585-19.295-4.469-23.154c3.118-3.859,9.679,17.75,9.679,17.75
				s-1.353-17.514,1.929-18.211c3.283-0.695,4.245,8.375,4.245,8.375s3.282-8.721,5.983-8.412
				c2.702,0.307-1.351,14.588-1.351,14.588s2.038-4.48,4.491-5.037c2.458-0.559-3.914,21.926-3.914,21.926l-7.813-1.092"/>
			<path fill="#CC2F51" d="M388.18,353.207c0,0-5.824-3.074-5.274-6.029c0.55-2.953,5.965,1.023,5.965,1.023
				s-10.178-13.605,4.507-21.705c13.249-7.303,10.618,19.873,10.618,19.873s2.992-3.701,6.024-2.902
				c3.913,1.033-3.621,9.74-3.621,9.74S400.038,353.773,388.18,353.207z"/>
			<path fill="#AA2345" d="M391.137,354.916c0,0-5.27-3.193-3.77-4.955c1.501-1.76,4.526,1.48,4.526,1.48s-4.851-11.82-1.403-14.836
				c3.448-3.014,6.793,10.572,6.793,10.572s0.101-8.957,3.225-9.066c3.125-0.105,0.97,12.496,0.97,12.496s2.477-8.51,4.631-8.295
				c2.152,0.217-1.832,10.02-1.832,10.02s1.083-1.898,2.471-1.613c1.388,0.283-1.824,4.197-1.824,4.197
				S399.379,357.361,391.137,354.916z"/>
		</g>
		<g>
			<g>
				<ellipse opacity="0.09" fill="#4D8CC6" enable-background="new    " cx="61.123" cy="394.473" rx="14.804" ry="6.587"/>
				<path fill="#C9E9FD" d="M75.776,376.412l-2.385,0.561c-2.193-2.031-6.863-3.438-12.271-3.438
					c-5.406,0-10.072,1.404-12.267,3.436l-2.383-0.559l1.143,17.506h0.002c0.787,3.01,6.532,5.348,13.507,5.348
					c6.977,0,12.723-2.34,13.508-5.346l0.006-0.002L75.776,376.412z"/>
				<path fill="#D3F1FF" d="M51.408,391.466v2.9c0,0,2.367,1.289,6.623,1.258v-2.902C58.031,392.722,54.515,392.962,51.408,391.466z
					"/>
				<ellipse fill="#E3F9FF" cx="61.123" cy="375.462" rx="14.804" ry="6.588"/>
				<ellipse fill="#BCDEFD" cx="61.121" cy="374.794" rx="11.561" ry="5.143"/>
			</g>
			<g>
				<g>
					<path fill="#F1CB2D" d="M60.596,376.193l-26.859-24.654c0,0-0.226,5.52,3.418,8.443c3.644,2.928,6.585,1.896,7.035,6.482
						c0.454,4.586,3.544,7.207,6.256,7.607C55.991,374.888,57.278,377.847,60.596,376.193z"/>
					<path fill="#EEBC2A" d="M60.599,376.193l-26.862-24.656c0,0,5.479-0.695,8.705,2.686c3.229,3.381,2.451,6.398,7.061,6.459
						c4.609,0.057,7.483,2.91,8.114,5.578C58.902,371.714,61.962,372.744,60.599,376.193z"/>
				</g>
				<path fill="#89FBED" d="M61.121,376.552v-92.529c0,0-10.706,9.043-9.923,20.879c0.783,11.838,7.758,15.566-0.042,24.285
					c-7.797,8.719-7.397,18.988-3.484,24.746C55.659,365.699,52.332,373.187,61.121,376.552z"/>
				<path fill="#82EEEE" d="M61.123,376.552v-92.529c0,0,10.705,9.043,9.924,20.879c-0.784,11.836-7.759,15.566,0.04,24.285
					s7.397,18.988,3.484,24.746C66.584,365.699,69.911,373.187,61.123,376.552z"/>
			</g>
			<g>
				<path fill="#CC2F51" d="M64.93,376.687l19.161-57.643c0,0-8.543,3.418-10.506,10.953s1.611,11.301-5.054,15.119
					c-6.663,3.814-8.54,10.295-7.298,14.695C63.776,368.794,60.152,372.771,64.93,376.687z"/>
				<path fill="#AA2345" d="M64.933,376.687l19.158-57.643c0,0,4.798,7.854,1.858,15.064c-2.938,7.209-8.054,8.09-5.001,15.135
					c3.051,7.045,0.676,13.361-2.954,16.139C70.583,371.056,71.104,376.41,64.933,376.687z"/>
			</g>
		</g>
		<g>
			<path fill="#EDC74C" d="M398.353,271.486h-68.289c-1.674,0-3.034-1.357-3.034-3.033v-35.498c0-1.676,1.359-3.035,3.034-3.035
				h68.289c1.676,0,3.035,1.359,3.035,3.035v35.498C401.388,270.13,400.028,271.486,398.353,271.486z"/>
			<path fill="#E8AE49" d="M328.416,270.523L361,245.466c1.899-1.459,4.532-1.479,6.454-0.053l33.068,24.537
				c-0.708,0.912-1.767,1.537-3.012,1.537h-66.606C329.944,271.486,329.095,271.103,328.416,270.523z"/>
			<path opacity="0.39" fill="#E8AE49" enable-background="new    " d="M328.422,230.962l32.725,27.039
				c1.905,1.574,4.542,1.596,6.455,0.059l32.932-26.479c-0.714-0.984-1.775-1.662-3.021-1.662h-66.606
				C329.944,229.919,329.095,230.335,328.422,230.962z"/>
			<path fill="#F1D84E" d="M328.416,230.888L361,255.941c1.899,1.459,4.532,1.48,6.454,0.057l33.068-24.539
				c-0.708-0.914-1.767-1.537-3.012-1.537h-66.606C329.944,229.919,329.095,230.304,328.416,230.888z"/>
			<circle fill="#DD3226" cx="400.524" cy="229.919" r="12.068"/>
			<circle fill="#AC2A26" cx="400.524" cy="229.919" r="8.947"/>
			
				<text transform="matrix(0.9091 0 0 1 395.6533 229.4634)" fill="#FFFFF8" font-family="'ArialMT'" font-size="9.7391" letter-spacing="3.3">3</text>
		</g>
	</g>
	<path fill="#3966EB" d="M278.689,45.035c0,0,0.404-9.141-6.323-9.445c-6.683-0.303-7.903,5.698-7.584,11.746
		c0.076,1.478,0.256,3.885,0.485,6.663l13.194-0.837L278.689,45.035z"/>
</g>
</svg>
