<?xml version="1.0" encoding="utf-8"?>
<!-- Generator: Adobe Illustrator 16.0.0, SVG Export Plug-In . SVG Version: 6.00 Build 0)  -->
<!DOCTYPE svg PUBLIC "-//W3C//DTD SVG 1.1//EN" "http://www.w3.org/Graphics/SVG/1.1/DTD/svg11.dtd">
<svg version="1.1" id="Capa_1" xmlns="http://www.w3.org/2000/svg" xmlns:xlink="http://www.w3.org/1999/xlink" x="0px" y="0px"
	 width="1001.18px" height="777.629px" viewBox="0 0 1001.18 777.629" enable-background="new 0 0 1001.18 777.629"
	 xml:space="preserve">
<g>
	<g>
		<defs>
			<rect id="SVGID_1_" width="1001" height="778"/>
		</defs>
		<clipPath id="SVGID_3_">
			<use xlink:href="#SVGID_1_"  overflow="visible"/>
		</clipPath>
		<g clip-path="url(#SVGID_3_)">
			<path fill="#F1F1F1" d="M1066.663-8.935C998.258,199.721,929.854,408.377,861.45,617.032
				c-318.646,9.383-637.291,18.77-956.229,28.162c0.779-2.381,1.273-3.891,1.768-5.396C-33.54,458.389,25.946,276.985,85.319,95.584
				c1.508-4.613,3.137-6.712,6.635-7.736c19.976-5.844,40.131-12.607,59.939-17.638c34.016-8.641,67.084-13.417,99.739-16.522
				c58.788-5.59,114.863-3.468,169.485,2.7c32.635,3.686,65.396,6.941,99.482,6.73c42.937-0.265,87.471-6.142,132.802-14.824
				c28.344-5.428,56.787-11.242,84.959-15.987c32.526-5.479,63.932-7.217,94.413-5.947c39.734,1.652,80.946-1.343,123.175-7.675
				c13.391-2.009,26.68-3.355,40.396-6.94C1019.625,5.658,1043.207-1.961,1066.663-8.935z"/>
			<path fill="#F1F1F1" d="M-156.69,810.565c60.953-206.4,121.906-412.803,182.86-619.205
				c317.993-12.434,635.985-24.868,954.271-37.316c-0.693,2.353-1.137,3.846-1.574,5.339
				C925.87,338.83,872.863,518.276,819.968,697.715c-1.345,4.563-2.895,6.648-6.354,7.693c-19.749,5.961-39.647,12.83-59.256,17.986
				c-33.677,8.857-66.54,13.896-99.055,17.285c-58.531,6.102-114.627,4.566-169.41-0.969c-32.732-3.309-65.579-6.189-99.62-5.641
				c-42.885,0.689-87.166,6.928-132.145,15.941c-28.123,5.635-56.332,11.652-84.309,16.611c-32.302,5.727-63.611,7.754-94.108,6.807
				c-39.751-1.23-80.818,2.133-122.78,8.797c-13.303,2.115-26.53,3.574-40.106,7.246
				C-110.216,795.706-133.504,803.456-156.69,810.565z"/>
			<g>
				<g>
					
						<linearGradient id="SVGID_4_" gradientUnits="userSpaceOnUse" x1="111.5425" y1="890.7202" x2="888.9496" y2="113.313" gradientTransform="matrix(0.9996 0.0295 0.0295 -0.9996 11.1292 854.3936)">
						<stop  offset="0.1073" style="stop-color:#1A1E7E"/>
						<stop  offset="1" style="stop-color:#040527"/>
					</linearGradient>
					<path fill="url(#SVGID_4_)" d="M1033.582,69.361c-5.816,197.132-11.632,394.269-17.448,591.403
						c-343.461-10.133-686.923-20.268-1030.698-30.408c0.066-2.248,0.108-3.674,0.15-5.1C-9.358,453.866-4.284,282.48,0.665,111.087
						c0.127-4.358,1.207-6.283,4.674-7.062c19.803-4.435,39.503-9.743,59.393-13.404c34.153-6.284,68.547-8.9,103.039-9.929
						c62.099-1.854,123.784,3.57,185.213,12.807c36.705,5.52,73.404,10.631,110.406,12.48c46.609,2.331,93.109-0.657,139.557-6.302
						c29.044-3.529,58.064-7.425,87.146-10.306c33.574-3.328,67.155-3.112,100.726-0.053c43.754,3.985,87.595,3.583,131.438,0.015
						c13.902-1.132,27.912-1.631,41.649-4.263C987.222,80.606,1010.366,74.674,1033.582,69.361z"/>
				</g>
				
					<linearGradient id="SVGID_5_" gradientUnits="userSpaceOnUse" x1="78.7827" y1="840.5229" x2="860.975" y2="58.3306" gradientTransform="matrix(0.9996 0.0295 0.0295 -0.9996 11.1292 854.3936)">
					<stop  offset="0.1073" style="stop-color:#1A1E7E"/>
					<stop  offset="1" style="stop-color:#040527"/>
				</linearGradient>
				<path fill="url(#SVGID_5_)" d="M-18.308,716.844C-12.492,519.713-6.677,322.577-0.86,125.442
					c346.655,10.227,693.311,20.455,1040.281,30.691c-0.066,2.247-0.107,3.673-0.15,5.099
					c-5.057,171.388-10.131,342.776-15.078,514.169c-0.127,4.357-1.217,6.281-4.717,7.061c-19.985,4.43-39.866,9.734-59.94,13.389
					c-34.469,6.273-69.181,8.881-103.992,9.9c-62.674,1.836-124.934-3.605-186.937-12.857
					c-37.047-5.531-74.091-10.654-111.437-12.512c-47.041-2.342-93.975,0.631-140.851,6.264
					c-29.311,3.523-58.602,7.41-87.951,10.283c-33.887,3.316-67.778,3.092-101.659,0.025c-44.163-3.998-88.41-3.607-132.66-0.051
					c-14.03,1.129-28.171,1.623-42.035,4.252C28.48,705.614,5.124,711.536-18.308,716.844z"/>
			</g>
		</g>
	</g>
</g>
<g opacity="0.05">
	<g>
		<g>
			<path fill="#FFFFFF" d="M215.902,265.095H256.3c27.434,0,40.896,14.908,40.896,42.285v16.858
				c0,27.377-13.463,42.299-40.896,42.299h-12.963v69.652h-27.435V265.095z M256.295,342.085c8.722,0,13.467-3.909,13.467-16.128
				V305.67c0-12.228-4.745-16.138-13.467-16.138h-12.964v52.554H256.295L256.295,342.085z"/>
			<path fill="#FFFFFF" d="M324.62,265.095h37.156l28.423,171.088h-27.434l-4.986-33.966v0.491h-31.175l-4.986,33.49h-25.436
				L324.62,265.095z M354.543,379.481l-12.219-84.569h-0.499l-11.975,84.564h24.692V379.481z"/>
			<path fill="#FFFFFF" d="M403.407,265.095h40.651c28.424,0,40.643,12.948,40.643,39.345v10.509
				c0,17.606-5.735,28.845-17.948,33.725v0.5c13.717,4.15,18.208,16.858,18.208,36.166v30.066c0,8.309,0.244,14.418,2.987,20.782
				h-27.934c-1.494-4.404-2.493-7.089-2.493-21.019v-31.28c0-15.888-4.735-21.018-17.209-21.018h-9.476v73.32h-27.43V265.095z
				 M440.812,338.416c10.23,0,16.465-4.404,16.465-18.087V307.13c0-12.218-4.24-17.598-13.967-17.598h-12.469v48.884H440.812
				L440.812,338.416z"/>
			<path fill="#FFFFFF" d="M499.148,395.609v-9.769h25.925v11.729c0,12.229,5.496,16.618,14.222,16.618
				c8.728,0,14.221-4.399,14.221-17.108c0-14.179-5.484-23.217-23.447-38.615c-22.943-19.798-30.431-33.726-30.431-53.283
				c0-26.892,14.221-42.525,40.903-42.525c26.685,0,39.902,15.639,39.902,43.015v7.089h-25.938v-8.799
				c0-12.219-4.983-16.873-13.718-16.873c-8.717,0-13.715,4.649-13.715,16.377c0,12.468,5.732,21.517,23.692,36.906
				c22.943,19.797,30.175,33.491,30.175,54.757c0,27.866-14.46,43.505-41.4,43.505C512.621,438.633,499.148,422.986,499.148,395.609
				z"/>
			<path fill="#FFFFFF" d="M594.646,395.609V305.67c0-27.376,14.716-43.024,41.654-43.024c26.93,0,41.641,15.648,41.641,43.024
				v89.939c0,27.377-14.711,43.024-41.641,43.024C609.361,438.633,594.646,422.986,594.646,395.609z M650.513,397.324v-93.373
				c0-12.219-5.49-16.863-14.213-16.863c-8.731,0-14.222,4.639-14.222,16.863v93.373c0,12.214,5.485,16.863,14.222,16.863
				C645.017,414.187,650.513,409.546,650.513,397.324z"/>
			<path fill="#FFFFFF" d="M696.384,265.095h34.409l26.685,102.407h0.498V265.095h24.438v171.088H754.24l-32.921-124.898h-0.498
				v124.898h-24.445V265.095H696.384z"/>
		</g>
		<g>
			<path fill="#FFFFFF" d="M216.613,466.47v-4.678h26.685v4.678h-10.864v43.073h-4.966V466.47H216.613z"/>
			<path fill="#FFFFFF" d="M288.118,461.792h9.702c5.408,0,9.073,0.212,10.999,0.653c2.891,0.645,5.234,2.037,7.05,4.169
				c1.807,2.134,2.714,4.765,2.714,7.887c0,2.604-0.624,4.89-1.868,6.863c-1.243,1.979-3.031,3.469-5.346,4.467
				c-2.319,1.008-5.519,1.532-9.601,1.542l17.521,22.17h-6.027l-17.516-22.17h-2.757v22.17h-4.861v-47.751H288.118L288.118,461.792z
				 M292.984,466.47v16.226l8.39,0.067c3.252,0,5.648-0.308,7.214-0.913c1.566-0.605,2.776-1.565,3.65-2.9
				c0.884-1.336,1.316-2.825,1.316-4.468c0-1.594-0.452-3.055-1.335-4.375c-0.894-1.307-2.046-2.233-3.482-2.8
				c-1.437-0.558-3.818-0.847-7.166-0.847h-8.587V466.47z"/>
			<path fill="#FFFFFF" d="M386.453,461.792l22.708,47.741h-5.254l-7.661-15.706h-20.984l-7.588,15.706h-5.428l23.006-47.741
				H386.453z M385.839,471.932l-8.348,17.286h16.646L385.839,471.932z"/>
			<path fill="#FFFFFF" d="M453.559,461.792h4.87v47.741h-4.87V461.792z"/>
			<path fill="#FFFFFF" d="M507.16,509.543v-47.751h1.065l32.409,36.608v-36.608h4.8v47.751h-1.092l-32.151-36.162v36.162H507.16z"
				/>
			<path fill="#FFFFFF" d="M594.139,461.792h4.872v47.741h-4.872V461.792z"/>
			<path fill="#FFFFFF" d="M647.74,509.543v-47.751h1.067l32.409,36.608v-36.608h4.797v47.751h-1.089l-32.151-36.162v36.162H647.74z
				"/>
			<path fill="#FFFFFF" d="M782.395,469.814l-3.774,3.506c-2.721-2.623-5.691-4.61-8.915-5.955
				c-3.237-1.354-6.388-2.037-9.463-2.037c-3.813,0-7.451,0.923-10.906,2.758c-3.452,1.844-6.135,4.332-8.026,7.481
				c-1.901,3.151-2.848,6.476-2.848,9.981c0,3.588,0.985,7.012,2.954,10.239c1.956,3.238,4.68,5.784,8.137,7.637
				c3.466,1.844,7.271,2.767,11.383,2.767c5.015,0,9.254-1.384,12.708-4.149c3.467-2.776,5.524-6.359,6.168-10.777h-15.528v-4.611
				h20.994c-0.05,7.377-2.278,13.236-6.707,17.578c-4.429,4.343-10.345,6.503-17.764,6.503c-9.006,0-16.134-2.997-21.398-9.02
				c-4.029-4.63-6.052-9.979-6.052-16.065c0-4.523,1.158-8.727,3.478-12.626c2.324-3.891,5.495-6.937,9.528-9.136
				c4.035-2.19,8.607-3.295,13.71-3.295c4.12,0,8.01,0.73,11.649,2.19C775.371,464.243,778.926,466.582,782.395,469.814z"/>
		</g>
	</g>
</g>
<polygon opacity="0.2" fill="#0090EC" enable-background="new    " points="956.159,113.771 946.368,123.432 936.864,113.478 
	946.655,103.817 "/>
<defs>
	<filter id="Adobe_OpacityMaskFilter" filterUnits="userSpaceOnUse" x="785.277" y="552.694" width="107.234" height="107.236">
		<feColorMatrix  type="matrix" values="1 0 0 0 0  0 1 0 0 0  0 0 1 0 0  0 0 0 1 0"/>
	</filter>
</defs>
<mask maskUnits="userSpaceOnUse" x="785.277" y="552.694" width="107.234" height="107.236" id="SVGID_2_">
	<g filter="url(#Adobe_OpacityMaskFilter)">
		<g>
			<g>
				<defs>
					<rect id="SVGID_6_" x="688.924" y="264.993" width="1594.916" height="1287.097"/>
				</defs>
				<clipPath id="SVGID_7_">
					<use xlink:href="#SVGID_6_"  overflow="visible"/>
				</clipPath>
			</g>
			<g>
				<defs>
					<rect id="SVGID_8_" x="688.924" y="264.993" width="1594.916" height="1287.097"/>
				</defs>
				<defs>
					<rect id="SVGID_9_" x="774.959" y="550.802" width="128.58" height="119.137"/>
				</defs>
				<clipPath id="SVGID_10_">
					<use xlink:href="#SVGID_8_"  overflow="visible"/>
				</clipPath>
				<clipPath id="SVGID_11_" clip-path="url(#SVGID_10_)">
					<use xlink:href="#SVGID_9_"  overflow="visible"/>
				</clipPath>
				
					<linearGradient id="SVGID_12_" gradientUnits="userSpaceOnUse" x1="9086.0313" y1="-443.6934" x2="9075.2285" y2="-632.7481" gradientTransform="matrix(1 0 0 -1 -8240.6846 133.75)">
					<stop  offset="0" style="stop-color:#FFFFFF"/>
					<stop  offset="1" style="stop-color:#000000"/>
				</linearGradient>
				<rect x="759.819" y="545.317" clip-path="url(#SVGID_11_)" fill="url(#SVGID_12_)" width="157.006" height="310.05"/>
			</g>
		</g>
	</g>
</mask>
<circle opacity="0.1" mask="url(#SVGID_2_)" fill="#0090EC" cx="838.896" cy="606.312" r="53.618"/>
</svg>
