<?xml version="1.0" encoding="utf-8"?>
<!-- Generator: Adobe Illustrator 16.0.0, SVG Export Plug-In . SVG Version: 6.00 Build 0)  -->
<!DOCTYPE svg PUBLIC "-//W3C//DTD SVG 1.1//EN" "http://www.w3.org/Graphics/SVG/1.1/DTD/svg11.dtd">
<svg version="1.1" id="Capa_1" xmlns="http://www.w3.org/2000/svg" xmlns:xlink="http://www.w3.org/1999/xlink" x="0px" y="0px"
	 width="1000px" height="1068.106px" viewBox="0 4221.141 1000 1068.106" enable-background="new 0 4221.141 1000 1068.106"
	 xml:space="preserve">
<g>
	<defs>
		<circle id="SVGID_1_" cx="-364.366" cy="5375.794" r="71.996"/>
	</defs>
	<clipPath id="SVGID_2_">
		<use xlink:href="#SVGID_1_"  overflow="visible"/>
	</clipPath>
	<circle clip-path="url(#SVGID_2_)" fill="#9F9F9F" cx="158.489" cy="5205.357" r="71.996"/>
</g>
<g>
	<defs>
		<rect id="SVGID_3_" y="4221.141" width="1000" height="1068.106"/>
	</defs>
	<clipPath id="SVGID_4_">
		<use xlink:href="#SVGID_3_"  overflow="visible"/>
	</clipPath>
	<g clip-path="url(#SVGID_4_)">
		<path d="M178.257,4777.463c0,0,10.054-0.141,27.65-0.387c8.797-0.099,19.48-0.217,31.734-0.354
			c12.254-0.142,26.079-0.303,41.16-0.381c15.082-0.103,31.42-0.214,48.701-0.331c17.281-0.097,35.505-0.199,54.357-0.305
			c18.852-0.056,38.333-0.113,58.127-0.173c19.795-0.022,39.903-0.046,60.013-0.069c20.108,0.022,40.218,0.046,60.013,0.067
			c19.794,0.059,39.274,0.115,58.127,0.17c18.852,0.105,37.075,0.207,54.356,0.303c17.281,0.118,33.62,0.23,48.701,0.333
			c15.082,0.08,28.907,0.237,41.161,0.382c12.254,0.137,22.937,0.256,31.734,0.355c17.595,0.247,27.649,0.389,27.649,0.389
			s-10.055,0.142-27.649,0.389c-8.798,0.1-19.48,0.219-31.734,0.355c-12.254,0.145-26.079,0.302-41.161,0.382
			c-15.081,0.103-31.42,0.215-48.701,0.333c-17.281,0.096-35.505,0.197-54.356,0.303c-18.853,0.055-38.333,0.111-58.127,0.17
			c-19.795,0.021-39.904,0.045-60.013,0.067c-20.109-0.023-40.218-0.047-60.013-0.069c-19.795-0.06-39.275-0.117-58.127-0.173
			c-18.852-0.105-37.076-0.208-54.357-0.305c-17.281-0.117-33.62-0.229-48.701-0.331c-15.082-0.078-28.906-0.239-41.16-0.381
			c-12.254-0.137-22.937-0.255-31.734-0.354C188.312,4777.604,178.257,4777.463,178.257,4777.463z"/>
	</g>
	<g clip-path="url(#SVGID_4_)">
		<path fill-rule="evenodd" clip-rule="evenodd" fill="#F1F1F1" d="M1165.881,4185.434
			c-46.183,285.354-92.363,570.708-138.545,856.063c-406.974,41.599-813.95,83.2-1221.294,124.842
			c0.524-3.252,0.859-5.317,1.191-7.38c40.152-248.089,80.322-496.176,120.346-744.247c1.017-6.308,2.688-9.267,6.972-10.954
			c24.466-9.639,48.979-20.523,73.393-29.057c41.923-14.66,83.396-24.063,124.677-31.195c74.316-12.838,146.688-15.111,218-11.84
			c42.608,1.957,85.295,3.325,128.984-0.066c55.042-4.268,111.01-16.189,167.44-31.937c35.285-9.845,70.622-20.216,105.822-29.131
			c40.645-10.297,80.591-15.482,119.955-16.564c51.309-1.411,103.592-9.173,156.512-21.496c16.778-3.907,33.561-6.919,50.444-12.965
			C1108.438,4209.245,1137.177,4196.902,1165.881,4185.434z"/>
		<path fill-rule="evenodd" clip-rule="evenodd" fill="#F1F1F1" d="M-225.263,5332.813
			c51.205-284.667,95.069-592.736,146.273-877.399c407.657-35.839,835.784-48.271,1243.813-84.141
			c-0.581,3.245-29.064,0.485-29.432,2.544c-44.52,247.49-60.949,499.797-105.339,747.27c-1.129,6.295-2.853,9.228-7.164,10.854
			c-24.633,9.292-49.335,19.828-73.896,28.018c-42.178,14.064-83.811,22.878-125.213,29.425
			c-74.533,11.786-146.935,13.033-218.181,8.753c-42.569-2.559-85.226-4.531-128.97-1.76
			c-55.11,3.489-111.281,14.617-167.982,29.564c-35.454,9.345-70.969,19.215-106.322,27.631
			c-40.82,9.719-80.852,14.339-120.231,14.862c-51.329,0.686-103.741,7.706-156.872,19.277
			c-16.844,3.671-33.678,6.444-50.667,12.251C-154.28,5309.818-196.36,5321.753-225.263,5332.813z"/>
	</g>
	<circle opacity="0.4" clip-path="url(#SVGID_4_)" fill="#CBCBCB" cx="1000" cy="4359.256" r="101.647"/>
	<circle opacity="0.4" clip-path="url(#SVGID_4_)" fill="#CBCBCB" cx="0" cy="5217.19" r="50.838"/>
	
		<rect x="45.866" y="4397.716" transform="matrix(0.6912 -0.7226 0.7226 0.6912 -3171.5635 1410.4695)" opacity="0.4" clip-path="url(#SVGID_4_)" fill="#CBCBCB" width="37.769" height="37.769"/>
</g>
</svg>
