<?xml version="1.0" encoding="utf-8"?>
<!-- Generator: Adobe Illustrator 16.0.0, SVG Export Plug-In . SVG Version: 6.00 Build 0)  -->
<!DOCTYPE svg PUBLIC "-//W3C//DTD SVG 1.1//EN" "http://www.w3.org/Graphics/SVG/1.1/DTD/svg11.dtd">
<svg version="1.1" id="Capa_1" xmlns="http://www.w3.org/2000/svg" xmlns:xlink="http://www.w3.org/1999/xlink" x="0px" y="0px"
	 width="1030.139px" height="1976.592px" viewBox="-1651.719 -268.268 1030.139 1976.592"
	 enable-background="new -1651.719 -268.268 1030.139 1976.592" xml:space="preserve">
<g>
	<defs>
		<rect id="SVGID_3_" x="-1651.719" y="-268.268" width="1030.139" height="1976.592"/>
	</defs>
	<clipPath id="SVGID_4_">
		<use xlink:href="#SVGID_3_"  overflow="visible"/>
	</clipPath>
	<path clip-path="url(#SVGID_4_)" fill-rule="evenodd" clip-rule="evenodd" fill="#F1F1F1" d="M-461.824-268.268
		C-539.503,199.073-617.18,666.411-694.858,1133.75c-392.352,44.16-784.703,88.325-1177.414,132.53
		c0.884-5.327,1.447-8.709,2.006-12.088c67.534-406.308,135.085-812.611,202.497-1218.898c1.713-10.331,3.653-15.104,7.931-17.627
		c24.429-14.414,49.052-30.878,73.301-43.477c41.644-21.64,82.237-34.647,122.379-43.924c72.265-16.7,141.431-16.109,208.934-6.45
		c40.331,5.773,80.806,10.585,122.799,7.616c52.901-3.737,107.592-20.023,163.175-42.586
		c34.755-14.106,69.621-29.075,104.186-41.656c39.907-14.525,78.549-20.68,116.15-20.103c49.014,0.747,99.706-8.909,151.54-26.039
		c16.435-5.433,32.768-9.39,49.555-18.341C-519.324-232.481-490.507-251.094-461.824-268.268z"/>
	<linearGradient id="SVGID_5_" gradientUnits="userSpaceOnUse" x1="-1712.0337" y1="87.8425" x2="-497.167" y2="1302.7092">
		<stop  offset="0.1073" style="stop-color:#0B0094"/>
		<stop  offset="1" style="stop-color:#000028"/>
	</linearGradient>
	<path clip-path="url(#SVGID_4_)" fill-rule="evenodd" clip-rule="evenodd" fill="url(#SVGID_5_)" d="M-621.581-123.863
		c0,516.99,0,1033.989,0,1550.984c-351.003,0-702.007,0-1053.333,0c0-5.894,0-9.634,0-13.373c0-449.478,0.017-898.95-0.091-1348.426
		c-0.003-11.43,1.042-16.561,4.56-18.865c20.086-13.151,40.04-28.586,60.239-39.715c34.684-19.104,69.724-28.621,104.912-33.981
		c63.35-9.656,126.498-0.215,189.499,19.241c37.646,11.626,75.273,22.183,113.109,24.165c47.661,2.503,95.053-8.919,142.306-27.302
		c29.548-11.492,59.066-23.944,88.671-33.74c34.183-11.314,68.476-13.344,102.845-7.925c44.798,7.061,89.55,2.614,134.21-10.124
		c14.159-4.041,28.449-6.431,42.398-14.388C-668.579-90.815-645.128-108.144-621.581-123.863z"/>
	<path clip-path="url(#SVGID_4_)" fill-rule="evenodd" clip-rule="evenodd" fill="#F1F1F1" d="M-1819.652,1795.085
		c68.536-468.715,137.071-937.428,205.608-1406.142c391.417-51.529,782.835-103.062,1174.611-154.643
		c-0.78,5.343-1.278,8.733-1.771,12.123c-59.586,407.503-119.19,815.002-178.654,1222.482c-1.511,10.36-3.356,15.17-7.584,17.772
		c-24.143,14.87-48.44,31.794-72.438,44.847c-41.214,22.419-81.547,36.187-121.499,46.217
		c-71.928,18.056-141.09,18.765-208.77,10.377c-40.436-5.015-80.998-9.063-122.926-5.306c-52.818,4.73-107.18,22.042-162.312,45.646
		c-34.474,14.756-69.04,30.379-103.354,43.606c-39.616,15.273-78.129,22.153-115.736,22.283
		c-49.019,0.175-99.512,10.782-151.002,28.883c-16.326,5.741-32.578,10.005-49.188,19.27
		C-1762.862,1758.223-1791.31,1777.375-1819.652,1795.085z"/>
	<linearGradient id="SVGID_6_" gradientUnits="userSpaceOnUse" x1="-1789.709" y1="227.0183" x2="-573.948" y2="1442.7793">
		<stop  offset="0.1073" style="stop-color:#0B0094"/>
		<stop  offset="1" style="stop-color:#000028"/>
	</linearGradient>
	<path clip-path="url(#SVGID_4_)" fill-rule="evenodd" clip-rule="evenodd" fill="url(#SVGID_6_)" d="M-1665.746,1654.038
		c0-516.99,0-1033.989,0-1550.984c351.603,0,703.204,0,1055.128,0c0,5.894,0,9.634,0,13.373c0,449.478-0.017,898.95,0.091,1348.426
		c0.004,11.43-1.042,16.561-4.567,18.865c-20.12,13.151-40.108,28.586-60.342,39.715c-34.744,19.104-69.841,28.621-105.091,33.981
		c-63.458,9.656-126.714,0.215-189.824-19.241c-37.708-11.626-75.4-22.183-113.301-24.165
		c-47.742-2.503-95.213,8.919-142.549,27.302c-29.598,11.492-59.166,23.944-88.822,33.74c-34.241,11.314-68.592,13.344-103.02,7.925
		c-44.873-7.061-89.702-2.614-134.438,10.124c-14.185,4.041-28.499,6.431-42.471,14.388
		C-1618.667,1620.99-1642.16,1638.319-1665.746,1654.038z"/>
	<defs>
		<filter id="Adobe_OpacityMaskFilter" filterUnits="userSpaceOnUse" x="-1808.857" y="1028.162" width="514.278" height="514.275">
			<feColorMatrix  type="matrix" values="1 0 0 0 0  0 1 0 0 0  0 0 1 0 0  0 0 0 1 0"/>
		</filter>
	</defs>
	<mask maskUnits="userSpaceOnUse" x="-1808.857" y="1028.162" width="514.278" height="514.275" id="SVGID_15_">
		<g filter="url(#Adobe_OpacityMaskFilter)">
			<g>
				<g>
					<defs>
						<rect id="SVGID_7_" x="-3330.05" y="-2119.089" width="5636.801" height="4548.899"/>
					</defs>
					<clipPath id="SVGID_8_" clip-path="url(#SVGID_4_)">
						<use xlink:href="#SVGID_7_"  overflow="visible"/>
					</clipPath>
				</g>
				<g>
					<defs>
						<rect id="SVGID_9_" x="-3330.05" y="-2119.089" width="5636.801" height="4548.899"/>
					</defs>
					<defs>
						<rect id="SVGID_10_" x="-1858.344" y="1019.1" width="616.637" height="571.333"/>
					</defs>
					<clipPath id="SVGID_11_" clip-path="url(#SVGID_4_)">
						<use xlink:href="#SVGID_9_"  overflow="visible"/>
					</clipPath>
					<clipPath id="SVGID_12_" clip-path="url(#SVGID_11_)">
						<use xlink:href="#SVGID_10_"  overflow="visible"/>
					</clipPath>
					
						<linearGradient id="SVGID_13_" gradientUnits="userSpaceOnUse" x1="6740.4873" y1="-1090.4871" x2="6688.6772" y2="-1997.1345" gradientTransform="matrix(1 0 0 -1 -8261.2744 56.3823)">
						<stop  offset="0" style="stop-color:#FFFFFF"/>
						<stop  offset="1" style="stop-color:#000000"/>
					</linearGradient>
					<rect x="-1930.945" y="992.795" clip-path="url(#SVGID_12_)" fill="url(#SVGID_13_)" width="752.953" height="1486.903"/>
				</g>
			</g>
		</g>
	</mask>
	<path opacity="0.3" clip-path="url(#SVGID_4_)" mask="url(#SVGID_15_)" fill="#0090EC" d="M-1551.719,1028.162
		c142.015,0,257.141,115.125,257.141,257.135c0,142.016-115.125,257.141-257.141,257.141
		c-142.012,0-257.138-115.125-257.138-257.141C-1808.857,1143.287-1693.731,1028.162-1551.719,1028.162z"/>
	<defs>
		<filter id="Adobe_OpacityMaskFilter_1_" filterUnits="userSpaceOnUse" x="-844.472" y="-23.22" width="120.812" height="120.812">
			<feColorMatrix  type="matrix" values="1 0 0 0 0  0 1 0 0 0  0 0 1 0 0  0 0 0 1 0"/>
		</filter>
	</defs>
	<mask maskUnits="userSpaceOnUse" x="-844.472" y="-23.22" width="120.812" height="120.812" id="SVGID_1_">
		<g filter="url(#Adobe_OpacityMaskFilter_1_)">
			<g>
				<g>
					<defs>
						<rect id="SVGID_14_" x="-1201.824" y="-762.558" width="1324.172" height="1068.607"/>
					</defs>
					<clipPath id="SVGID_16_" clip-path="url(#SVGID_4_)">
						<use xlink:href="#SVGID_14_"  overflow="visible"/>
					</clipPath>
				</g>
				<g>
					<defs>
						<rect id="SVGID_17_" x="-1201.824" y="-762.558" width="1324.172" height="1068.607"/>
					</defs>
					<defs>
						<rect id="SVGID_18_" x="-856.097" y="-25.348" width="144.858" height="134.215"/>
					</defs>
					<clipPath id="SVGID_19_" clip-path="url(#SVGID_4_)">
						<use xlink:href="#SVGID_17_"  overflow="visible"/>
					</clipPath>
					<clipPath id="SVGID_20_" clip-path="url(#SVGID_19_)">
						<use xlink:href="#SVGID_18_"  overflow="visible"/>
					</clipPath>
					
						<linearGradient id="SVGID_21_" gradientUnits="userSpaceOnUse" x1="7484.4746" y1="51.717" x2="7472.3037" y2="-161.2686" gradientTransform="matrix(1 0 0 -1 -8261.2744 56.3823)">
						<stop  offset="0" style="stop-color:#FFFFFF"/>
						<stop  offset="1" style="stop-color:#000000"/>
					</linearGradient>
					<rect x="-873.152" y="-31.528" clip-path="url(#SVGID_20_)" fill="url(#SVGID_21_)" width="176.88" height="349.296"/>
				</g>
			</g>
		</g>
	</mask>
	<circle opacity="0.3" clip-path="url(#SVGID_4_)" mask="url(#SVGID_1_)" fill="#0090EC" cx="-784.066" cy="37.186" r="60.406"/>
	<defs>
		
			<filter id="Adobe_OpacityMaskFilter_2_" filterUnits="userSpaceOnUse" x="-829.755" y="1335.345" width="148.743" height="148.741">
			<feColorMatrix  type="matrix" values="1 0 0 0 0  0 1 0 0 0  0 0 1 0 0  0 0 0 1 0"/>
		</filter>
	</defs>
	<mask maskUnits="userSpaceOnUse" x="-829.755" y="1335.345" width="148.743" height="148.741" id="SVGID_2_">
		<g filter="url(#Adobe_OpacityMaskFilter_2_)">
			<g>
				<g>
					<defs>
						<rect id="SVGID_22_" x="-1269.726" y="425.075" width="1630.315" height="1315.664"/>
					</defs>
					<clipPath id="SVGID_23_" clip-path="url(#SVGID_4_)">
						<use xlink:href="#SVGID_22_"  overflow="visible"/>
					</clipPath>
				</g>
				<g>
					<defs>
						<rect id="SVGID_24_" x="-1269.726" y="425.075" width="1630.315" height="1315.664"/>
					</defs>
					<defs>
						<rect id="SVGID_25_" x="-844.069" y="1332.724" width="178.349" height="165.244"/>
					</defs>
					<clipPath id="SVGID_26_" clip-path="url(#SVGID_4_)">
						<use xlink:href="#SVGID_24_"  overflow="visible"/>
					</clipPath>
					<clipPath id="SVGID_27_" clip-path="url(#SVGID_26_)">
						<use xlink:href="#SVGID_25_"  overflow="visible"/>
					</clipPath>
					
						<linearGradient id="SVGID_28_" gradientUnits="userSpaceOnUse" x1="7514.8359" y1="-1313.2961" x2="7499.8511" y2="-1575.5229" gradientTransform="matrix(1 0 0 -1 -8261.2744 56.3823)">
						<stop  offset="0" style="stop-color:#FFFFFF"/>
						<stop  offset="1" style="stop-color:#000000"/>
					</linearGradient>
					<rect x="-865.067" y="1325.116" clip-path="url(#SVGID_27_)" fill="url(#SVGID_28_)" width="217.774" height="430.053"/>
				</g>
			</g>
		</g>
	</mask>
	<circle opacity="0.3" clip-path="url(#SVGID_4_)" mask="url(#SVGID_2_)" fill="#0090EC" cx="-755.384" cy="1409.716" r="74.371"/>
	<polygon opacity="0.3" clip-path="url(#SVGID_4_)" fill="#0090EC" enable-background="new    " points="-1450.204,295.901 
		-1469.385,314.829 -1488.002,295.328 -1468.82,276.4 	"/>
	<polygon opacity="0.3" clip-path="url(#SVGID_4_)" fill="#0090EC" enable-background="new    " points="-1492.224,60.685 
		-1515.337,83.493 -1537.771,59.995 -1514.656,37.186 	"/>
	<polygon opacity="0.3" clip-path="url(#SVGID_4_)" fill="#0090EC" enable-background="new    " points="-1516.565,871.838 
		-1539.679,894.646 -1562.113,871.148 -1538.998,848.34 	"/>
	<path opacity="0.1" clip-path="url(#SVGID_4_)" fill="#0090EC" d="M-1464.988-30.741l889.917,1111.871l0.47-459.284
		l-761.273-637.697C-1335.875-15.851-1372.802-21.844-1464.988-30.741z"/>
</g>
</svg>
