<?xml version="1.0" encoding="utf-8"?>
<!-- Generator: Adobe Illustrator 16.0.0, SVG Export Plug-In . SVG Version: 6.00 Build 0)  -->
<!DOCTYPE svg PUBLIC "-//W3C//DTD SVG 1.1//EN" "http://www.w3.org/Graphics/SVG/1.1/DTD/svg11.dtd">
<svg version="1.1" id="Capa_1" xmlns="http://www.w3.org/2000/svg" xmlns:xlink="http://www.w3.org/1999/xlink" x="0px" y="0px"
	 width="1067.297px" height="309.846px" viewBox="0 0 1067.297 309.846" enable-background="new 0 0 1067.297 309.846"
	 xml:space="preserve">
<g>
	<defs>
		<rect id="SVGID_2_" x="0" y="0" width="1067.298" height="309.846"/>
	</defs>
	<clipPath id="SVGID_3_">
		<use xlink:href="#SVGID_2_"  overflow="visible"/>
	</clipPath>
	<rect x="0" y="0" clip-path="url(#SVGID_3_)" fill="none" width="1067.298" height="309.846"/>
	<path clip-path="url(#SVGID_3_)" fill="#F1F1F1" d="M-48.658,160.458c2.17-234.312,4.33-468.214,6.498-702.63
		c376.674,3.463,753.255,6.924,1130.189,10.387c-2.422,261.649-4.838,523.213-7.262,784.835
		c-9.27-5.545-18.063-11.196-27.154-16.146c-16.119-8.785-33.139-14.59-50.512-19.439c-28.497-7.951-57.485-8.918-86.489-7.824
		c-24.344,0.927-47.917,7.691-70.595,18.054c-32.279,14.75-64.338,30.177-96.884,44.123c-18.838,8.067-38.631,12.749-59.048,10.569
		c-19.053-2.037-37.473-7.439-55.238-15.362c-27.675-12.345-54.878-26.146-82.884-37.399c-23.271-9.35-47.247-16.664-71.23-23.436
		c-14.095-3.979-28.753-5.788-43.259-7.396c-19.172-2.127-38.427-3.614-57.678-4.43c-19.479-0.822-39.022-1.32-58.489-0.453
		c-22.88,1.023-45.748,3.201-68.549,5.742c-26.453,2.941-52.765,7.922-79.254,9.948c-20.782,1.589-41.76,0.504-62.626-0.284
		c-22.226-0.843-44.187-4.794-65.557-11.691c-20.83-6.721-41.466-14.285-61.973-22.194
		C-27.551,171.224-37.993,165.503-48.658,160.458z"/>
	<rect x="0" y="0" clip-path="url(#SVGID_3_)" fill="none" width="1067.298" height="309.846"/>
	
		<linearGradient id="SVGID_4_" gradientUnits="userSpaceOnUse" x1="-128.2876" y1="552.9795" x2="1008.3999" y2="552.9795" gradientTransform="matrix(1 0 0 -1 79.6299 400.4316)">
		<stop  offset="0.1073" style="stop-color:#1A1E7E"/>
		<stop  offset="1" style="stop-color:#040527"/>
	</linearGradient>
	<path clip-path="url(#SVGID_3_)" fill="url(#SVGID_4_)" d="M-48.658,137.537c2.17-234.312,4.33-468.215,6.498-702.631
		c376.674,3.463,753.255,6.924,1130.189,10.387c-2.422,261.649-4.838,523.213-7.262,784.835
		c-9.27-5.545-18.063-11.196-27.154-16.147c-16.119-8.784-33.139-14.589-50.512-19.438c-28.497-7.951-57.485-8.918-86.489-7.824
		c-24.344,0.927-47.917,7.691-70.595,18.054c-32.279,14.75-64.338,30.177-96.884,44.123c-18.838,8.067-38.631,12.749-59.048,10.569
		c-19.053-2.037-37.473-7.44-55.238-15.362c-27.675-12.345-54.878-26.146-82.884-37.399c-23.271-9.35-47.247-16.664-71.23-23.436
		c-14.095-3.979-28.753-5.788-43.259-7.396c-19.172-2.127-38.427-3.615-57.678-4.431c-19.479-0.821-39.022-1.319-58.489-0.452
		c-22.88,1.023-45.748,3.201-68.549,5.742c-26.453,2.941-52.765,7.922-79.254,9.948c-20.782,1.589-41.76,0.504-62.626-0.284
		c-22.226-0.844-44.187-4.794-65.557-11.691c-20.83-6.722-41.466-14.285-61.973-22.195C-27.551,148.3-37.993,142.58-48.658,137.537z
		"/>
	<rect x="0" y="0" clip-path="url(#SVGID_3_)" fill="none" width="1067.298" height="309.846"/>
	<polygon opacity="0.3" clip-path="url(#SVGID_3_)" fill="#0090EC" enable-background="new    " points="180.027,155.101 
		168.042,166.927 156.411,154.745 168.396,142.918 	"/>
	<rect x="0" y="0" clip-path="url(#SVGID_3_)" fill="none" width="1067.298" height="309.846"/>
	<polygon opacity="0.3" clip-path="url(#SVGID_3_)" fill="#0090EC" enable-background="new    " points="982.94,119.761 
		970.957,131.587 959.325,119.405 971.309,107.579 	"/>
	<rect x="0" y="0" clip-path="url(#SVGID_3_)" fill="none" width="1067.298" height="309.846"/>
	<defs>
		<filter id="Adobe_OpacityMaskFilter" filterUnits="userSpaceOnUse" x="98.451" y="-35.779" width="81.576" height="81.576">
			<feColorMatrix  type="matrix" values="1 0 0 0 0  0 1 0 0 0  0 0 1 0 0  0 0 0 1 0"/>
		</filter>
	</defs>
	<mask maskUnits="userSpaceOnUse" x="98.451" y="-35.779" width="81.576" height="81.576" id="SVGID_15_">
		<g filter="url(#Adobe_OpacityMaskFilter)">
			<g>
				<g>
					<g>
						<defs>
							<rect id="SVGID_5_" x="-181" y="-15" width="1067.298" height="309.846"/>
						</defs>
						<clipPath id="SVGID_6_" clip-path="url(#SVGID_3_)">
							<use xlink:href="#SVGID_5_"  overflow="visible"/>
						</clipPath>
					</g>
				</g>
				<g>
					<g>
						<defs>
							<rect id="SVGID_7_" x="-181" y="-15" width="1067.298" height="309.846"/>
						</defs>
						<clipPath id="SVGID_8_" clip-path="url(#SVGID_3_)">
							<use xlink:href="#SVGID_7_"  overflow="visible"/>
						</clipPath>
					</g>
					<g>
						<defs>
							<rect id="SVGID_9_" x="-181" y="-15" width="1067.298" height="309.846"/>
						</defs>
						<defs>
							<rect id="SVGID_10_" x="-142.844" y="-535.002" width="894.125" height="721.557"/>
						</defs>
						<clipPath id="SVGID_11_" clip-path="url(#SVGID_3_)">
							<use xlink:href="#SVGID_9_"  overflow="visible"/>
						</clipPath>
						<clipPath id="SVGID_12_" clip-path="url(#SVGID_11_)">
							<use xlink:href="#SVGID_10_"  overflow="visible"/>
						</clipPath>
					</g>
					<g>
						<defs>
							<rect id="SVGID_13_" x="-181" y="-15" width="1067.298" height="309.846"/>
						</defs>
						<defs>
							<rect id="SVGID_14_" x="-142.844" y="-535.002" width="894.125" height="721.557"/>
						</defs>
						<defs>
							<rect id="SVGID_16_" x="90.602" y="-37.216" width="97.813" height="90.627"/>
						</defs>
						<clipPath id="SVGID_17_" clip-path="url(#SVGID_3_)">
							<use xlink:href="#SVGID_13_"  overflow="visible"/>
						</clipPath>
						<clipPath id="SVGID_18_" clip-path="url(#SVGID_17_)">
							<use xlink:href="#SVGID_14_"  overflow="visible"/>
						</clipPath>
						<clipPath id="SVGID_19_" clip-path="url(#SVGID_18_)">
							<use xlink:href="#SVGID_16_"  overflow="visible"/>
						</clipPath>
						
							<linearGradient id="SVGID_20_" gradientUnits="userSpaceOnUse" x1="8376.4297" y1="620.4424" x2="8368.2119" y2="764.2564" gradientTransform="matrix(1 0 0 1 -8232.2852 -637.3926)">
							<stop  offset="0" style="stop-color:#FFFFFF"/>
							<stop  offset="1" style="stop-color:#000000"/>
						</linearGradient>
						<rect x="79.085" y="-41.389" clip-path="url(#SVGID_19_)" fill="url(#SVGID_20_)" width="119.435" height="235.855"/>
					</g>
				</g>
			</g>
		</g>
	</mask>
	
		<circle opacity="0.2" clip-path="url(#SVGID_3_)" mask="url(#SVGID_15_)" fill="#0090EC" enable-background="new    " cx="139.239" cy="5.009" r="40.788"/>
	<rect x="0" y="0" clip-path="url(#SVGID_3_)" fill="none" width="1067.298" height="309.846"/>
	<defs>
		<filter id="Adobe_OpacityMaskFilter_1_" filterUnits="userSpaceOnUse" x="63.556" y="104.957" width="31.202" height="31.202">
			<feColorMatrix  type="matrix" values="1 0 0 0 0  0 1 0 0 0  0 0 1 0 0  0 0 0 1 0"/>
		</filter>
	</defs>
	<mask maskUnits="userSpaceOnUse" x="63.556" y="104.957" width="31.202" height="31.202" id="SVGID_1_">
		<g filter="url(#Adobe_OpacityMaskFilter_1_)">
			<g>
				<g>
					<g>
						<defs>
							<rect id="SVGID_21_" x="0" y="0" width="1067.298" height="309.846"/>
						</defs>
						<clipPath id="SVGID_22_" clip-path="url(#SVGID_3_)">
							<use xlink:href="#SVGID_21_"  overflow="visible"/>
						</clipPath>
					</g>
				</g>
				<g>
					<g>
						<defs>
							<rect id="SVGID_23_" x="0" y="0" width="1067.298" height="309.846"/>
						</defs>
						<clipPath id="SVGID_24_" clip-path="url(#SVGID_3_)">
							<use xlink:href="#SVGID_23_"  overflow="visible"/>
						</clipPath>
					</g>
					<g>
						<defs>
							<rect id="SVGID_25_" x="0" y="0" width="1067.298" height="309.846"/>
						</defs>
						<defs>
							<rect id="SVGID_26_" x="-28.731" y="-85.982" width="341.979" height="275.976"/>
						</defs>
						<clipPath id="SVGID_27_" clip-path="url(#SVGID_3_)">
							<use xlink:href="#SVGID_25_"  overflow="visible"/>
						</clipPath>
						<clipPath id="SVGID_28_" clip-path="url(#SVGID_27_)">
							<use xlink:href="#SVGID_26_"  overflow="visible"/>
						</clipPath>
					</g>
					<g>
						<defs>
							<rect id="SVGID_29_" x="0" y="0" width="1067.298" height="309.846"/>
						</defs>
						<defs>
							<rect id="SVGID_30_" x="-28.731" y="-85.982" width="341.979" height="275.976"/>
						</defs>
						<defs>
							<rect id="SVGID_31_" x="60.555" y="104.407" width="37.411" height="34.663"/>
						</defs>
						<clipPath id="SVGID_32_" clip-path="url(#SVGID_3_)">
							<use xlink:href="#SVGID_29_"  overflow="visible"/>
						</clipPath>
						<clipPath id="SVGID_33_" clip-path="url(#SVGID_32_)">
							<use xlink:href="#SVGID_30_"  overflow="visible"/>
						</clipPath>
						<clipPath id="SVGID_34_" clip-path="url(#SVGID_33_)">
							<use xlink:href="#SVGID_31_"  overflow="visible"/>
						</clipPath>
						
							<linearGradient id="SVGID_35_" gradientUnits="userSpaceOnUse" x1="8313.3184" y1="749.5518" x2="8310.1748" y2="804.5568" gradientTransform="matrix(1 0 0 1 -8232.2852 -637.3926)">
							<stop  offset="0" style="stop-color:#FFFFFF"/>
							<stop  offset="1" style="stop-color:#000000"/>
						</linearGradient>
						<rect x="56.15" y="102.811" clip-path="url(#SVGID_34_)" fill="url(#SVGID_35_)" width="45.681" height="90.208"/>
					</g>
				</g>
			</g>
		</g>
	</mask>
	
		<circle opacity="0.2" clip-path="url(#SVGID_3_)" mask="url(#SVGID_1_)" fill="#0090EC" enable-background="new    " cx="79.157" cy="120.558" r="15.601"/>
	<rect x="0" y="0" clip-path="url(#SVGID_3_)" fill="none" width="1067.298" height="309.846"/>
	<polygon clip-path="url(#SVGID_3_)" fill="#0090EC" points="0,0 0,0 0,0 	"/>
	<rect x="0" y="0" clip-path="url(#SVGID_3_)" fill="none" width="1067.298" height="309.846"/>
	<rect x="0" y="0" clip-path="url(#SVGID_3_)" fill="none" width="1067.298" height="272.873"/>
	<g opacity="0.05" clip-path="url(#SVGID_3_)">
		<g>
			<path fill="#FFFFFF" d="M285.903,28.143h34.976c23.754,0,35.416,12.909,35.416,36.613v14.605
				c0,23.705-11.662,36.614-35.416,36.614H309.65v60.317h-23.747V28.143z M320.879,94.807c7.553,0,11.66-3.385,11.66-13.965V63.275
				c0-10.581-4.107-13.965-11.66-13.965H309.65v45.496H320.879z"/>
			<path fill="#FFFFFF" d="M380.033,28.143h32.171l24.612,148.15h-23.756l-4.315-29.419v0.425h-26.991l-4.315,29.003h-22.026
				L380.033,28.143z M405.941,127.195L395.362,53.96h-0.433l-10.363,73.235H405.941z"/>
			<path fill="#FFFFFF" d="M448.253,28.143h35.199c24.612,0,35.191,11.22,35.191,34.076v9.1c0,15.238-4.965,24.978-15.545,29.203
				v0.424c11.878,3.602,15.77,14.605,15.77,31.324v26.034c0,7.192,0.209,12.484,2.586,17.982h-24.187
				c-1.289-3.81-2.155-6.131-2.155-18.2v-27.09c0-13.748-4.1-18.198-14.904-18.198h-8.201v63.495h-23.754V28.143z M480.641,91.638
				c8.858,0,14.257-3.81,14.257-15.661V64.548c0-10.587-3.668-15.245-12.093-15.245h-10.798V91.63h8.634V91.638z"/>
			<path fill="#FFFFFF" d="M531.161,141.16v-8.467h22.451v10.164c0,10.58,4.756,14.389,12.309,14.389
				c7.561,0,12.311-3.809,12.311-14.813c0-12.276-4.75-20.111-20.295-33.444c-19.871-17.143-26.35-29.202-26.35-46.137
				c0-23.281,12.309-36.822,35.415-36.822s34.553,13.549,34.553,37.254v6.13h-22.457v-7.619c0-10.58-4.318-14.597-11.877-14.597
				c-7.553,0-11.879,4.017-11.879,14.181c0,10.797,4.965,18.623,20.52,31.957c19.863,17.141,26.125,28.994,26.125,47.4
				c0,24.129-12.525,37.67-35.85,37.67C542.823,178.406,531.161,164.865,531.161,141.16z"/>
			<path fill="#FFFFFF" d="M613.846,141.16V63.275c0-23.705,12.74-37.246,36.064-37.246c23.322,0,36.057,13.541,36.057,37.246
				v77.885c0,23.705-12.734,37.246-36.057,37.246C626.586,178.406,613.846,164.865,613.846,141.16z M662.219,142.641V61.795
				c0-10.58-4.758-14.605-12.309-14.605c-7.561,0-12.311,4.025-12.311,14.605v80.846c0,10.581,4.75,14.605,12.311,14.605
				C657.461,157.246,662.219,153.222,662.219,142.641z"/>
			<path fill="#FFFFFF" d="M701.936,28.143h29.795l23.105,88.673h0.432V28.143h21.16v148.15h-24.396L723.528,68.142h-0.432v108.151
				h-21.168V28.143H701.936z"/>
		</g>
		<g>
			<path fill="#FFFFFF" d="M286.51,202.51v-4.05h23.106v4.05h-9.406v37.296h-4.301V202.51H286.51z"/>
			<path fill="#FFFFFF" d="M348.426,198.46h8.401c4.683,0,7.859,0.192,9.523,0.564c2.504,0.566,4.541,1.773,6.105,3.619
				c1.563,1.846,2.353,4.116,2.353,6.82c0,2.255-0.539,4.233-1.621,5.946c-1.073,1.707-2.62,2.994-4.625,3.868
				c-2.013,0.873-4.782,1.314-8.317,1.331l15.172,19.196h-5.215l-15.171-19.196h-2.381v19.196h-4.215V198.46H348.426z
				 M352.644,202.51v14.057l7.27,0.06c2.812,0,4.891-0.268,6.246-0.791c1.348-0.524,2.403-1.363,3.161-2.521
				c0.757-1.146,1.131-2.437,1.131-3.867c0-1.381-0.384-2.646-1.148-3.776c-0.773-1.13-1.771-1.946-3.019-2.437
				c-1.24-0.482-3.31-0.725-6.205-0.725H352.644L352.644,202.51z"/>
			<path fill="#FFFFFF" d="M433.572,198.46l19.671,41.346h-4.557l-6.63-13.598h-18.166l-6.57,13.598h-4.7l19.921-41.346H433.572z
				 M433.039,207.251l-7.228,14.963h14.414L433.039,207.251z"/>
			<path fill="#FFFFFF" d="M491.679,198.46h4.216v41.346h-4.216V198.46z"/>
			<path fill="#FFFFFF" d="M538.098,239.806v-41.338h0.914l28.063,31.69v-31.69h4.16v41.338h-0.947l-27.838-31.299v31.299H538.098z"
				/>
			<path fill="#FFFFFF" d="M613.405,198.46h4.217v41.346h-4.217V198.46z"/>
			<path fill="#FFFFFF" d="M659.827,239.806v-41.338h0.912l28.064,31.69v-31.69h4.158v41.338h-0.947l-27.838-31.299v31.299H659.827z
				"/>
			<path fill="#FFFFFF" d="M776.411,205.405l-3.26,3.036c-2.354-2.264-4.932-3.985-7.727-5.157
				c-2.805-1.173-5.529-1.755-8.186-1.755c-3.311,0-6.453,0.79-9.447,2.387c-2.986,1.588-5.309,3.751-6.945,6.48
				c-1.646,2.719-2.471,5.604-2.471,8.633c0,3.11,0.857,6.071,2.553,8.874c1.697,2.803,4.051,5.007,7.055,6.605
				c3.002,1.604,6.287,2.402,9.855,2.402c4.342,0,8.01-1.205,11.004-3.601c3.004-2.396,4.783-5.507,5.34-9.332h-13.449v-3.984
				h18.174c-0.033,6.387-1.971,11.461-5.805,15.222c-3.826,3.751-8.959,5.63-15.381,5.63c-7.793,0-13.973-2.603-18.521-7.811
				c-3.494-4.009-5.24-8.65-5.24-13.915c0-3.909,0.998-7.561,3.012-10.929c2.002-3.376,4.756-6.015,8.248-7.91
				c3.494-1.904,7.455-2.853,11.871-2.853c3.566,0,6.938,0.631,10.09,1.896C770.34,200.59,773.409,202.618,776.411,205.405z"/>
		</g>
	</g>
</g>
</svg>
