<?xml version="1.0" encoding="utf-8"?>
<!-- Generator: Adobe Illustrator 16.0.0, SVG Export Plug-In . SVG Version: 6.00 Build 0)  -->
<!DOCTYPE svg PUBLIC "-//W3C//DTD SVG 1.1//EN" "http://www.w3.org/Graphics/SVG/1.1/DTD/svg11.dtd">
<svg version="1.1" id="Capa_1" xmlns="http://www.w3.org/2000/svg" xmlns:xlink="http://www.w3.org/1999/xlink" x="0px" y="0px"
	 width="1000.369px" height="807.447px" viewBox="0 0 1000.369 807.447" enable-background="new 0 0 1000.369 807.447"
	 xml:space="preserve">
<g>
	<defs>
		<rect id="SVGID_1_" y="0.577" width="1000" height="807"/>
	</defs>
	<clipPath id="SVGID_2_">
		<use xlink:href="#SVGID_1_"  overflow="visible"/>
	</clipPath>
	<path clip-path="url(#SVGID_2_)" fill-rule="evenodd" clip-rule="evenodd" fill="#F1F1F1" d="M-54.414,662.446
		c9.52-223.433,19.021-446.479,28.543-670.011C329.725,7.872,685.233,23.304,1041.074,38.75
		c-10.631,249.502-21.256,498.922-31.885,748.397c-8.577-5.586-16.701-11.26-25.13-16.277
		c-14.943-8.896-30.826-14.981-47.077-20.167c-26.657-8.504-54.004-10.359-81.427-10.25c-23.02,0.099-45.496,5.793-67.241,14.946
		c-30.954,13.03-61.719,26.713-92.899,38.967c-18.047,7.089-36.887,10.917-56.097,8.18c-17.929-2.557-35.149-8.303-51.673-16.433
		c-25.741-12.668-50.989-26.709-77.078-38.344c-21.677-9.668-44.086-17.418-66.519-24.649c-13.182-4.25-26.967-6.448-40.614-8.45
		c-18.037-2.646-36.172-4.685-54.327-6.085c-18.367-1.41-36.807-2.516-55.218-2.314c-21.639,0.239-43.304,1.58-64.917,3.267
		c-25.073,1.955-50.08,5.858-75.159,6.937c-19.676,0.846-39.452-0.864-59.129-2.287c-20.962-1.52-41.576-5.997-61.536-13.264
		c-19.457-7.082-38.703-14.962-57.815-23.168C-34.826,673.394-44.504,667.601-54.414,662.446z"/>
	<linearGradient id="SVGID_3_" gradientUnits="userSpaceOnUse" x1="233.3779" y1="-134.1421" x2="800.2084" y2="847.6373">
		<stop  offset="0.1073" style="stop-color:#0B0094"/>
		<stop  offset="1" style="stop-color:#000028"/>
	</linearGradient>
	<path clip-path="url(#SVGID_2_)" fill-rule="evenodd" clip-rule="evenodd" fill="url(#SVGID_3_)" d="M0.392,655.628
		c0-218.51,0-436.646,0-655.255c333.152,0,666.223,0,999.608,0c0,244.006,0,487.934,0,731.915
		c-8.246-5.09-16.069-10.286-24.151-14.825c-14.328-8.051-29.423-13.318-44.827-17.691c-25.266-7.172-50.915-7.826-76.555-6.556
		c-21.524,1.071-42.317,7.582-62.286,17.439c-28.429,14.032-56.654,28.692-85.324,41.975c-16.594,7.685-34.059,12.222-52.13,10.362
		c-16.873-1.735-33.206-6.615-48.981-13.854c-24.575-11.272-48.745-23.91-73.608-34.162c-20.655-8.519-41.921-15.135-63.186-21.244
		c-12.498-3.589-25.475-5.15-38.319-6.527c-16.972-1.818-34.013-3.041-51.046-3.636c-17.232-0.602-34.521-0.897-51.731,0.08
		c-20.226,1.149-40.433,3.375-60.578,5.938c-23.368,2.972-46.598,7.841-70.009,9.956c-18.366,1.659-36.928,0.83-55.386,0.272
		c-19.664-0.594-39.118-4.093-58.075-10.34c-18.478-6.088-36.789-12.966-54.988-20.165C19.145,665.483,9.863,660.238,0.392,655.628z
		"/>
	<rect y="-0.423" clip-path="url(#SVGID_2_)" fill="none" width="984.631" height="804"/>
	<polygon opacity="0.3" clip-path="url(#SVGID_2_)" fill="#0090EC" points="356.48,129.484 344.496,141.31 332.864,129.127 
		344.849,117.301 	"/>
	<polygon opacity="0.3" clip-path="url(#SVGID_2_)" fill="#0090EC" points="127.65,578.979 111.769,594.648 96.355,578.504 
		112.236,562.834 	"/>
	<rect y="-0.423" clip-path="url(#SVGID_2_)" fill="none" width="1000" height="808"/>
	<defs>
		<filter id="Adobe_OpacityMaskFilter" filterUnits="userSpaceOnUse" x="376.333" y="-136.089" width="717.657" height="881.489">
			
				<feColorMatrix  type="matrix" values="-1 0 0 0 1  0 -1 0 0 1  0 0 -1 0 1  0 0 0 1 0" color-interpolation-filters="sRGB" result="source"/>
			<feFlood  style="flood-color:white;flood-opacity:1" result="back"/>
			<feBlend  in="source" in2="back" mode="normal"/>
		</filter>
	</defs>
	<mask maskUnits="userSpaceOnUse" x="376.333" y="-136.089" width="717.657" height="881.489" id="SVGID_4_">
		<g filter="url(#Adobe_OpacityMaskFilter)">
			
				<linearGradient id="SVGID_5_" gradientUnits="userSpaceOnUse" x1="5029.8281" y1="2000.3008" x2="5029.8281" y2="2156.4834" gradientTransform="matrix(-1.3098 -0.3296 1.2996 -5.1644 4638.0342 12697.5498)">
				<stop  offset="0" style="stop-color:#FFFFFF"/>
				<stop  offset="1" style="stop-color:#000000"/>
			</linearGradient>
			<polygon clip-path="url(#SVGID_2_)" fill="url(#SVGID_5_)" points="481.385,-102.395 1182.038,73.506 978.71,879.571 
				278.052,703.687 			"/>
			
				<linearGradient id="SVGID_6_" gradientUnits="userSpaceOnUse" x1="3878.5176" y1="2607.0352" x2="3878.5176" y2="2763.459" gradientTransform="matrix(-0.9766 0.9331 -3.679 -3.8503 13801.5967 5990.2544)">
				<stop  offset="0" style="stop-color:#FFFFFF"/>
				<stop  offset="1" style="stop-color:#000000"/>
			</linearGradient>
			<polygon clip-path="url(#SVGID_2_)" fill="url(#SVGID_6_)" points="-355.004,-719.654 167.377,-1217.582 742.974,-616.617 
				220.604,-118.677 			"/>
		</g>
	</mask>
	<polygon opacity="0.3" clip-path="url(#SVGID_2_)" mask="url(#SVGID_4_)" fill="#0090EC" points="376.333,-136.089 876.757,-7.565 
		1093.99,274.006 802.231,745.399 450.217,697.944 669.036,308.808 	"/>
	<defs>
		<filter id="Adobe_OpacityMaskFilter_1_" filterUnits="userSpaceOnUse" x="231.145" y="-33.527" width="84.342" height="84.342">
			
				<feColorMatrix  type="matrix" values="-1 0 0 0 1  0 -1 0 0 1  0 0 -1 0 1  0 0 0 1 0" color-interpolation-filters="sRGB" result="source"/>
			<feFlood  style="flood-color:white;flood-opacity:1" result="back"/>
			<feBlend  in="source" in2="back" mode="normal"/>
		</filter>
	</defs>
	<mask maskUnits="userSpaceOnUse" x="231.145" y="-33.527" width="84.342" height="84.342" id="SVGID_7_">
		<g filter="url(#Adobe_OpacityMaskFilter_1_)">
			<g>
				<defs>
					<rect id="SVGID_8_" x="223.029" y="-35.013" width="101.128" height="93.7"/>
				</defs>
				<clipPath id="SVGID_9_" clip-path="url(#SVGID_2_)">
					<use xlink:href="#SVGID_8_"  overflow="visible"/>
				</clipPath>
				
					<linearGradient id="SVGID_10_" gradientUnits="userSpaceOnUse" x1="8598.7031" y1="720.4053" x2="8590.207" y2="869.0952" gradientTransform="matrix(1 0 0 1 -8320.3145 -734.4648)">
					<stop  offset="0" style="stop-color:#FFFFFF"/>
					<stop  offset="1" style="stop-color:#000000"/>
				</linearGradient>
				<rect x="211.122" y="-39.328" clip-path="url(#SVGID_9_)" fill="url(#SVGID_10_)" width="123.484" height="243.852"/>
			</g>
		</g>
	</mask>
	<circle clip-path="url(#SVGID_2_)" mask="url(#SVGID_7_)" fill="#0090EC" cx="273.315" cy="8.644" r="42.171"/>
	<defs>
		<filter id="Adobe_OpacityMaskFilter_2_" filterUnits="userSpaceOnUse" x="60.413" y="180.963" width="67.237" height="67.237">
			
				<feColorMatrix  type="matrix" values="-1 0 0 0 1  0 -1 0 0 1  0 0 -1 0 1  0 0 0 1 0" color-interpolation-filters="sRGB" result="source"/>
			<feFlood  style="flood-color:white;flood-opacity:1" result="back"/>
			<feBlend  in="source" in2="back" mode="normal"/>
		</filter>
	</defs>
	<mask maskUnits="userSpaceOnUse" x="60.413" y="180.963" width="67.237" height="67.237" id="SVGID_11_">
		<g filter="url(#Adobe_OpacityMaskFilter_2_)">
			<g>
				<defs>
					<rect id="SVGID_12_" x="53.943" y="179.778" width="80.62" height="74.697"/>
				</defs>
				<clipPath id="SVGID_13_" clip-path="url(#SVGID_2_)">
					<use xlink:href="#SVGID_12_"  overflow="visible"/>
				</clipPath>
				
					<linearGradient id="SVGID_14_" gradientUnits="userSpaceOnUse" x1="8418.3896" y1="930.9473" x2="8411.6162" y2="1049.4828" gradientTransform="matrix(1 0 0 1 -8320.3145 -734.4648)">
					<stop  offset="0" style="stop-color:#FFFFFF"/>
					<stop  offset="1" style="stop-color:#000000"/>
				</linearGradient>
				<rect x="44.451" y="176.339" clip-path="url(#SVGID_13_)" fill="url(#SVGID_14_)" width="98.441" height="194.398"/>
			</g>
		</g>
	</mask>
	<circle clip-path="url(#SVGID_2_)" mask="url(#SVGID_11_)" fill="#0090EC" cx="94.031" cy="214.582" r="33.618"/>
	<defs>
		<filter id="Adobe_OpacityMaskFilter_3_" filterUnits="userSpaceOnUse" x="269.868" y="558.916" width="91.236" height="91.236">
			
				<feColorMatrix  type="matrix" values="-1 0 0 0 1  0 -1 0 0 1  0 0 -1 0 1  0 0 0 1 0" color-interpolation-filters="sRGB" result="source"/>
			<feFlood  style="flood-color:white;flood-opacity:1" result="back"/>
			<feBlend  in="source" in2="back" mode="normal"/>
		</filter>
	</defs>
	<mask maskUnits="userSpaceOnUse" x="269.868" y="558.916" width="91.236" height="91.236" id="SVGID_15_">
		<g filter="url(#Adobe_OpacityMaskFilter_3_)">
			<g>
				<defs>
					<rect id="SVGID_16_" x="261.089" y="557.309" width="109.395" height="101.358"/>
				</defs>
				<clipPath id="SVGID_17_" clip-path="url(#SVGID_2_)">
					<use xlink:href="#SVGID_16_"  overflow="visible"/>
				</clipPath>
				
					<linearGradient id="SVGID_18_" gradientUnits="userSpaceOnUse" x1="8641.2891" y1="1314.4404" x2="8632.0977" y2="1475.2847" gradientTransform="matrix(1 0 0 1 -8320.3145 -734.4648)">
					<stop  offset="0" style="stop-color:#FFFFFF"/>
					<stop  offset="1" style="stop-color:#000000"/>
				</linearGradient>
				<rect x="248.209" y="552.642" clip-path="url(#SVGID_17_)" fill="url(#SVGID_18_)" width="133.578" height="263.785"/>
			</g>
		</g>
	</mask>
	<circle clip-path="url(#SVGID_2_)" mask="url(#SVGID_15_)" fill="#0090EC" cx="315.486" cy="604.534" r="45.618"/>
	<rect y="0.577" clip-path="url(#SVGID_2_)" fill="none" width="1000" height="807"/>
</g>
</svg>
