<?xml version="1.0" encoding="utf-8"?>
<!-- Generator: Adobe Illustrator 16.0.0, SVG Export Plug-In . SVG Version: 6.00 Build 0)  -->
<!DOCTYPE svg PUBLIC "-//W3C//DTD SVG 1.1//EN" "http://www.w3.org/Graphics/SVG/1.1/DTD/svg11.dtd">
<svg version="1.1" id="Capa_1" xmlns="http://www.w3.org/2000/svg" xmlns:xlink="http://www.w3.org/1999/xlink" x="0px" y="0px"
	 width="661.381px" height="20.767px" viewBox="-1108.697 -58.544 661.381 20.767"
	 enable-background="new -1108.697 -58.544 661.381 20.767" xml:space="preserve">
<g>
	<path fill="#FFFFFF" d="M-1108.697-47.661c0,0,10.054-0.141,27.65-0.388c8.797-0.098,19.48-0.217,31.734-0.353
		c12.254-0.142,26.079-0.303,41.16-0.381c15.082-0.103,31.42-0.214,48.701-0.331c17.281-0.097,35.505-0.199,54.357-0.305
		c18.852-0.056,38.333-0.113,58.127-0.172c19.795-0.023,39.903-0.047,60.013-0.07c20.108,0.022,40.218,0.046,60.013,0.068
		c19.794,0.058,39.274,0.114,58.127,0.17c18.852,0.104,37.075,0.206,54.356,0.302c17.281,0.118,33.62,0.23,48.701,0.333
		c15.082,0.08,28.907,0.237,41.161,0.381c12.254,0.138,22.937,0.258,31.734,0.355c17.595,0.248,27.649,0.39,27.649,0.39
		s-10.055,0.142-27.649,0.39c-8.798,0.098-19.48,0.218-31.734,0.355c-12.254,0.144-26.079,0.301-41.161,0.381
		c-15.081,0.103-31.42,0.215-48.701,0.333c-17.281,0.096-35.505,0.197-54.356,0.302c-18.853,0.056-38.333,0.112-58.127,0.17
		c-19.795,0.022-39.904,0.046-60.013,0.068c-20.109-0.023-40.218-0.047-60.013-0.07c-19.795-0.059-39.275-0.116-58.127-0.172
		c-18.852-0.105-37.076-0.208-54.357-0.305c-17.281-0.117-33.62-0.229-48.701-0.331c-15.082-0.078-28.906-0.239-41.16-0.381
		c-12.254-0.136-22.937-0.255-31.734-0.353C-1098.643-47.521-1108.697-47.661-1108.697-47.661z"/>
</g>
</svg>
