<?xml version="1.0" encoding="utf-8"?>
<!-- Generator: Adobe Illustrator 16.0.0, SVG Export Plug-In . SVG Version: 6.00 Build 0)  -->
<!DOCTYPE svg PUBLIC "-//W3C//DTD SVG 1.1//EN" "http://www.w3.org/Graphics/SVG/1.1/DTD/svg11.dtd">
<svg version="1.1" id="Capa_1" xmlns="http://www.w3.org/2000/svg" xmlns:xlink="http://www.w3.org/1999/xlink" x="0px" y="0px"
	 width="412.594px" height="409.676px" viewBox="0 0 412.594 409.676" enable-background="new 0 0 412.594 409.676"
	 xml:space="preserve">
<g>
	<g>
		<path fill="#FFA400" d="M68.074,81.803c-0.056-12.361,9.862-26.57,22.05-31.562l0.777-0.318
			c12.188-5.002,33.031-8.316,46.314-7.376l171.906,12.15c13.283,0.945,28.872,4.121,34.642,7.064
			c5.771,2.943,10.299,15.465,10.073,27.819l-4.825,176.993c-0.233,12.362-1.729,20.63-7.645,26.619
			c-2.901,2.937-14.158,6.374-27.478,6.148l-180.799,2.675c-13.322-0.226-33.19-4.136-44.149-8.685
			c-10.96-4.55-19.971-18.381-20.03-30.747L68.074,81.803L68.074,81.803z"/>
		
			<linearGradient id="SVGID_1_" gradientUnits="userSpaceOnUse" x1="210.3699" y1="130.5166" x2="159.501" y2="155.2784" gradientTransform="matrix(1 0 0 -1 -97.6602 189.7158)">
			<stop  offset="0" style="stop-color:#FFDA20"/>
			<stop  offset="0.5977" style="stop-color:#C06F0D"/>
			<stop  offset="1" style="stop-color:#942400"/>
		</linearGradient>
		<path fill="url(#SVGID_1_)" d="M116.515,52.901c0.885,0.299,1.694,0.69,2.428,1.175c-0.164-0.278-0.331-0.467-0.505-0.557
			C117.983,53.281,117.315,53.071,116.515,52.901L116.515,52.901z M107.514,52.674c-3.158,0.306-7.261,0.83-10.275,1.332
			c-0.896,0.148-1.518,0.222-1.877,0.226c-1.817,0.791-3.543,1.643-5.084,2.517C95.916,54.849,102.497,53.503,107.514,52.674
			L107.514,52.674z"/>
		
			<linearGradient id="SVGID_2_" gradientUnits="userSpaceOnUse" x1="629.1687" y1="144.0283" x2="24.818" y2="-30.3732" gradientTransform="matrix(1 0 0 -1 -97.6602 189.7158)">
			<stop  offset="0" style="stop-color:#FFDA20"/>
			<stop  offset="0.5977" style="stop-color:#C06F0D"/>
			<stop  offset="1" style="stop-color:#942400"/>
		</linearGradient>
		<path fill="url(#SVGID_2_)" d="M90.278,56.75c-4.2,1.416-7.876,3.14-9.993,5.186C75.047,67,73.163,78.628,73.208,86.833
			l0.95,173.643c0.052,8.211,3.613,17.978,7.929,21.706c1.922,1.665,5.088,3.451,8.771,5.064c0.146,0.016,0.375,0.061,0.697,0.139
			c0.752,0.184,1.846,0.397,3.137,0.624c-4.177-1.809-7.852-3.923-9.946-5.863c-3.935-3.653-0.274-6.533,8.124-6.533
			c0.225,0,0.452,0.003,0.684,0.006l24.837,0.391c0.074-0.815,0.137-1.652,0.191-2.505l-18.213-0.327
			c-11.241-0.194-20.435-7.041-20.435-15.21l-1.068-172.72c0-8.053,8.941-14.507,19.968-14.508c0.157,0,0.316,0.001,0.477,0.004
			l21.794,0.626v-0.292c0-0.847-0.009-1.684-0.031-2.507l-27.528-0.982c-8.878-0.269-12.367-3.765-7.752-7.776
			C86.963,58.797,88.499,57.758,90.278,56.75L90.278,56.75z"/>
		
			<linearGradient id="SVGID_3_" gradientUnits="userSpaceOnUse" x1="-177.2991" y1="-753.8311" x2="-176.4909" y2="-753.8311" gradientTransform="matrix(144.166 6.9121 -6.9121 144.166 20367.8984 110180.5)">
			<stop  offset="0" style="stop-color:#FFD91F"/>
			<stop  offset="1" style="stop-color:#CB5B00"/>
		</linearGradient>
		<path fill="url(#SVGID_3_)" d="M92.87,275.613c-8.397,0-12.059,2.88-8.124,6.533c2.095,1.94,5.769,4.054,9.946,5.862
			c2.806,0.487,6.549,1.022,9.776,1.375c1.051,0.115,2.12,0.169,3.163,0.169c3.642,0,6.962-0.664,8.109-1.731
			c1.09-1.012,2.114-5.812,2.651-11.813l-24.837-0.391C93.323,275.615,93.095,275.613,92.87,275.613L92.87,275.613z"/>
		
			<linearGradient id="SVGID_4_" gradientUnits="userSpaceOnUse" x1="-177.2966" y1="-755.3691" x2="-176.4919" y2="-755.3691" gradientTransform="matrix(144.166 6.9121 -6.9121 144.166 20367.8984 110180.5)">
			<stop  offset="0" style="stop-color:#FFF036"/>
			<stop  offset="0.6913" style="stop-color:#FCAB11"/>
			<stop  offset="1" style="stop-color:#FA8A00"/>
		</linearGradient>
		<path fill="url(#SVGID_4_)" d="M111.529,52.421c-0.499,0-0.992,0.015-1.47,0.046c-0.724,0.044-1.592,0.116-2.544,0.208
			c-5.017,0.829-11.598,2.175-17.238,4.076c-1.777,1.008-3.315,2.047-4.483,3.063c-4.615,4.011-1.126,7.506,7.752,7.776
			l27.528,0.982c-0.168-6.803-1.029-12.636-2.131-14.494c-0.733-0.485-1.543-0.876-2.428-1.175
			C115.105,52.6,113.289,52.421,111.529,52.421L111.529,52.421z"/>
		
			<linearGradient id="SVGID_5_" gradientUnits="userSpaceOnUse" x1="456.9031" y1="7.2959" x2="61.2438" y2="23.4452" gradientTransform="matrix(1 0 0 -1 -97.6602 189.7158)">
			<stop  offset="0" style="stop-color:#FFDA20"/>
			<stop  offset="0.1295" style="stop-color:#FCD41F"/>
			<stop  offset="0.3001" style="stop-color:#F3C41B"/>
			<stop  offset="0.4939" style="stop-color:#E5A816"/>
			<stop  offset="0.7046" style="stop-color:#D2820E"/>
			<stop  offset="0.9268" style="stop-color:#B95204"/>
			<stop  offset="1" style="stop-color:#B04000"/>
		</linearGradient>
		<path fill="url(#SVGID_5_)" d="M120.937,171.742L120.937,171.742c-0.003,3.788,0.433,6.937,1.05,8.143l0,0
			C121.368,178.679,120.933,175.53,120.937,171.742L120.937,171.742z M98.835,70.739c-11.025,0.001-19.968,6.456-19.968,14.508
			l1.069,172.72c0,8.17,9.192,15.016,20.434,15.21l18.213,0.327c0.089-1.408,0.15-2.858,0.181-4.324l1.862-90.425
			c0.124-6.015,0.225-9.402,0.277-9.402c0.023,0,0.038,0.769,0.035,2.39c0.009-5.022,0.029-16.402,0.045-25.282l0.123-75.091
			l-21.794-0.626C99.151,70.74,98.992,70.739,98.835,70.739L98.835,70.739z"/>
		
			<radialGradient id="SVGID_6_" cx="-176.8528" cy="-755.1235" r="1.9592" gradientTransform="matrix(283.7197 0 0 283.7197 50216.0195 214142.3125)" gradientUnits="userSpaceOnUse">
			<stop  offset="0" style="stop-color:#FFD71D"/>
			<stop  offset="0.5254" style="stop-color:#C87B0E"/>
			<stop  offset="1" style="stop-color:#942400"/>
		</radialGradient>
		<path fill="url(#SVGID_6_)" d="M221.754,293.841l-56.015,0.53c3.214,0.681-0.293,1.237-8.479,1.277l-16.214,0.088
			c-0.431,0.002-0.865,0.003-1.305,0.003c-2.813,0-5.805-0.042-8.714-0.118c1.788,0.697,3.734,1.081,5.768,1.083l86.597,0.107
			l-0.074-0.107C222.654,295.729,222.135,294.771,221.754,293.841L221.754,293.841z M326.295,287.486
			c-2.026,0-4.28-0.392-6.729-1.285c-8.075-2.944-18.997-7.5-18.575-15.733l10.5-187.304c0.416-8.234,6.714-11.971,13.925-14.106
			c2.668-0.794,5.383-1.173,7.849-1.173c4.192,0,7.658,1.099,8.93,3.122c2.013,3.205,3.525,12.579,3.351,20.813l-3.561,168.533
			c-0.174,8.242-2.673,18.263-5.56,22.282C334.414,285.427,330.943,287.486,326.295,287.486L326.295,287.486z M181.636,51.776
			c-0.016,0.061-0.055,0.121-0.111,0.178l135.654,10.068c8.854,0.654,10.437,3.605,3.512,6.548
			c-6.686,2.842-12.059,6.364-20.422,6.364c-0.294,0-0.593-0.003-0.894-0.013l-173.084-6.166c-0.025,0.671-0.044,1.352-0.056,2.038
			l-0.013,0.724l162.385,4.668c15.929,0.96,20.492,10.16,19.912,18.314l-9.95,169.972c-0.574,7.95-12.183,11.839-23.184,11.839
			c-0.281,0-0.561-0.002-0.841-0.008l-150.521-2.7c0.025,0.85,0.062,1.685,0.108,2.498l166.365,2.608
			c8.88,0.161,12.624,3.443,20.625,7.027l1.322,0.596c8.001,3.583,7.275,6.584-1.606,6.665l-30.971,0.294
			c0.257,1.157,0.337,2.364,0.222,3.592l18.939,0.023c0.041,0,0.083,0,0.124,0c8.877,0,21.835-1.55,28.865-3.445
			c7.056-1.911,13.989-8.153,15.398-13.88c1.416-5.728,2.726-17.674,2.925-26.555l3.574-165.329
			c0.195-8.88-2.603-18.575-6.206-21.546c-3.612-2.98-13.822-5.827-22.69-6.337L181.636,51.776L181.636,51.776z"/>
		
			<linearGradient id="SVGID_7_" gradientUnits="userSpaceOnUse" x1="-176.5662" y1="-753.7617" x2="-175.7583" y2="-753.7617" gradientTransform="matrix(283.7197 0 0 283.7197 50216.0195 214142.3125)">
			<stop  offset="0" style="stop-color:#FFD91F"/>
			<stop  offset="1" style="stop-color:#C75700"/>
		</linearGradient>
		<path fill="url(#SVGID_7_)" d="M124.131,276.1c0.351,6.146,1.266,11.047,2.38,11.975c1.482,1.236,8.75,2.807,16.147,3.496
			c7.407,0.683,17.349,1.868,22.108,2.623c0.374,0.06,0.699,0.119,0.973,0.178l56.015-0.531c-2.497-6.091,0.899-11.032,8.585-11.534
			l8.059-0.524c2.032-0.133,4.321-0.196,6.738-0.196c8.132,0,17.724,0.713,23.864,1.868c5.725,1.08,9.805,5.039,10.867,9.837
			l30.971-0.294c8.881-0.081,9.607-3.083,1.606-6.667l-1.322-0.594c-8.001-3.584-11.744-6.867-20.625-7.026L124.131,276.1
			L124.131,276.1z"/>
		<g>
			<path fill="none" d="M121.861,179.598c0.118,0.728,0.345,0.925,0.775,0.805C122.358,180.48,122.095,180.18,121.861,179.598z"/>
			
				<linearGradient id="SVGID_8_" gradientUnits="userSpaceOnUse" x1="188.3362" y1="18.2173" x2="279.3025" y2="18.2173" gradientTransform="matrix(1 0 0 -1 -97.6602 189.7158)">
				<stop  offset="0" style="stop-color:#FFFFE3"/>
				<stop  offset="0.0394" style="stop-color:#FFFFDF"/>
				<stop  offset="0.0794" style="stop-color:#FFFFD3"/>
				<stop  offset="0.1197" style="stop-color:#FFFFBE"/>
				<stop  offset="0.1601" style="stop-color:#FFFFA2"/>
				<stop  offset="0.2007" style="stop-color:#FFFF7D"/>
				<stop  offset="0.2409" style="stop-color:#FFFF51"/>
				<stop  offset="0.2418" style="stop-color:#FFFF50"/>
				<stop  offset="0.2745" style="stop-color:#FFFF6D"/>
				<stop  offset="0.3183" style="stop-color:#FFFF8C"/>
				<stop  offset="0.368" style="stop-color:#FFFFA8"/>
				<stop  offset="0.4241" style="stop-color:#FFFFBE"/>
				<stop  offset="0.4897" style="stop-color:#FFFFCF"/>
				<stop  offset="0.5707" style="stop-color:#FFFFDA"/>
				<stop  offset="0.6844" style="stop-color:#FFFFE1"/>
				<stop  offset="1" style="stop-color:#FFFFE3"/>
			</linearGradient>
			<path fill="url(#SVGID_8_)" d="M169.068,49.276l-25.362-1.651c-8.867-0.574-20.007-0.458-24.767,0.262
				c-4.753,0.719-13.191,2.659-18.742,4.309c-5.545,1.649-6.883,2.462-2.958,1.809c3.925-0.653,9.693-1.345,12.819-1.54
				c3.124-0.198,6.896,0.276,8.378,1.053c1.476,0.769,2.676,8.678,2.667,17.557l-0.123,75.383
				c-0.016,8.879-0.037,20.26-0.045,25.282c0,0.399,0.006,0.787,0.015,1.171c-0.146,1.225-0.272,3.142-0.326,5.842l-1.862,90.426
				c-0.181,8.881-1.54,17.269-3.023,18.641c-1.474,1.373-6.546,2.077-11.271,1.562c-4.715-0.515-10.53-1.416-12.914-1.998
				c-2.391-0.582,0.262,0.626,5.886,2.689c5.625,2.057,14.104,4.192,18.837,4.738c4.738,0.553,15.885,0.968,24.766,0.923
				l16.214-0.088c8.887-0.044,12.261-0.696,7.506-1.452c-4.759-0.756-14.701-1.941-22.108-2.625
				c-7.398-0.689-14.665-2.26-16.147-3.495c-1.481-1.234-2.616-9.52-2.528-18.4l1.497-148.491c0.094-8.88,0.037-8.88-0.117,0
				c0.153-8.88,0.407-23.416,0.558-32.296l0.314-18.096c0.153-8.879,1.482-16.722,2.964-17.418
				c1.482-0.699,9.955-0.952,18.831-0.568l12.949,0.56c8.873,0.385,17.951-0.138,20.166-1.17
				C183.369,51.166,177.934,49.849,169.068,49.276z M121.861,179.598c0.233,0.582,0.497,0.882,0.775,0.805
				C122.207,180.523,121.98,180.326,121.861,179.598z"/>
		</g>
		<g>
			<g>
				<defs>
					<path id="SVGID_9_" d="M121.986,179.885L121.986,179.885c0.118,0.232,0.243,0.392,0.374,0.472l0,0
						C122.228,180.277,122.104,180.118,121.986,179.885L121.986,179.885z"/>
				</defs>
				<clipPath id="SVGID_10_">
					<use xlink:href="#SVGID_9_"  overflow="visible"/>
				</clipPath>
				<g transform="matrix(1 0 0 1 0 0)" clip-path="url(#SVGID_10_)">
					
						<image overflow="visible" enable-background="new    " width="5" height="7" xlink:href="4C21EDEF.jpg"  transform="matrix(0.3101 0 0 -0.2769 121.5061 181.0659)">
					</image>
				</g>
			</g>
		</g>
		
			<linearGradient id="SVGID_11_" gradientUnits="userSpaceOnUse" x1="400.2498" y1="-88.0977" x2="442.5173" y2="-88.0977" gradientTransform="matrix(1 0 0 -1 -97.6602 189.7158)">
			<stop  offset="0" style="stop-color:#FFFF9E"/>
			<stop  offset="1" style="stop-color:#FFFFE3"/>
		</linearGradient>
		<path fill="url(#SVGID_11_)" d="M302.6,294.852c0.302,1.234,14.541,1.065,23.013-0.48c8.471-1.544,9.921-2.618,12.92-4.869
			c2.996-2.251,6.324-13.791,6.324-23.059s-1.182-8.509-2.626,1.687c-1.441,10.194-4.905,18.818-13.786,21.816l-11.306,2.248
			C308.334,293.587,302.297,293.616,302.6,294.852z"/>
		
			<linearGradient id="SVGID_12_" gradientUnits="userSpaceOnUse" x1="172.8606" y1="-131.0332" x2="202.3336" y2="-7.3528" gradientTransform="matrix(1 0 0 -1 -97.6602 189.7158)">
			<stop  offset="0" style="stop-color:#FFDA20"/>
			<stop  offset="0.5977" style="stop-color:#C06F0D"/>
			<stop  offset="1" style="stop-color:#942400"/>
		</linearGradient>
		<path fill="url(#SVGID_12_)" d="M81.068,252.946c-0.539-6.33-1.548-9.458-1.649-0.678l0.303,5.249
			c0.795,8.845,8.164,15.463,14.827,15.6c6.661,0.137,6.783-0.649,0.27-1.747c-6.513-1.1-12.682-9.217-13.705-18.041L81.068,252.946
			z"/>
		<path fill="#FFA400" d="M279.457,299.85l-53.454,0.79l7.197,10.553c5,7.341,14.593,17.52,21.315,22.63
			c6.722,5.109,19.229,11.229,27.781,13.605l9.622,2.667c2.325,0.646,4.171,0.949,5.512,0.949c3.597,0,3.534-2.197-0.816-5.914
			c-5.975-5.109-13.104-14.599-15.844-21.096C278.112,317.729,277.554,307.023,279.457,299.85L279.457,299.85z"/>
		<path fill="#FFA400" d="M223.39,296.81l2.612,3.83l53.454-0.79c0.06-0.221,0.118-0.436,0.18-0.648
			c0.23-0.775,0.378-1.551,0.45-2.32L223.39,296.81L223.39,296.81z"/>
		
			<radialGradient id="SVGID_13_" cx="223.9705" cy="41.958" r="267.3775" gradientTransform="matrix(1 0 0 -1 -97.6602 189.7158)" gradientUnits="userSpaceOnUse">
			<stop  offset="0" style="stop-color:#FFD71D"/>
			<stop  offset="0.5254" style="stop-color:#C87B0E"/>
			<stop  offset="1" style="stop-color:#942400"/>
		</radialGradient>
		<path fill="url(#SVGID_13_)" d="M279.866,293.29l-58.112,0.55c0.381,0.931,0.9,1.889,1.563,2.862l0.074,0.106l56.696,0.072
			C280.202,295.655,280.122,294.446,279.866,293.29L279.866,293.29z"/>
		
			<linearGradient id="SVGID_14_" gradientUnits="userSpaceOnUse" x1="329.8572" y1="-85.3213" x2="371.8457" y2="-123.8109" gradientTransform="matrix(1 0 0 -1 -97.6602 189.7158)">
			<stop  offset="0" style="stop-color:#FFBD03"/>
			<stop  offset="1" style="stop-color:#992900"/>
		</linearGradient>
		<path fill="url(#SVGID_14_)" d="M245.135,281.586c-2.417,0-4.706,0.063-6.738,0.196l-8.059,0.524
			c-7.686,0.502-11.081,5.443-8.584,11.534l58.112-0.55c-1.062-4.798-5.143-8.757-10.867-9.837
			C262.859,282.299,253.266,281.586,245.135,281.586L245.135,281.586z"/>
		
			<linearGradient id="SVGID_15_" gradientUnits="userSpaceOnUse" x1="433.8552" y1="-178.5073" x2="300.0848" y2="-77.574" gradientTransform="matrix(1 0 0 -1 -97.6602 189.7158)">
			<stop  offset="0" style="stop-color:#FFDA20"/>
			<stop  offset="0.7894" style="stop-color:#C16107"/>
			<stop  offset="1" style="stop-color:#B04000"/>
		</linearGradient>
		<path fill="url(#SVGID_15_)" d="M277.456,326.986c-2.95-6.938-2.701-18.766-0.69-26.81c-23.82,0-39.593,0.779-46.025,0.668
			l6.202,9.601c4.721,6.872,14.073,16.72,20.422,21.504c6.281,4.73,18.379,10.604,26.417,12.816l7.958,2.188
			C285.978,341.287,280.052,333.093,277.456,326.986z"/>
		
			<linearGradient id="SVGID_16_" gradientUnits="userSpaceOnUse" x1="292.1785" y1="-47.0146" x2="366.0603" y2="-114.0332" gradientTransform="matrix(1 0 0 -1 -97.6602 189.7158)">
			<stop  offset="0" style="stop-color:#FFDA20"/>
			<stop  offset="0.0485" style="stop-color:#FAD01E"/>
			<stop  offset="0.3786" style="stop-color:#DA9311"/>
			<stop  offset="0.6586" style="stop-color:#C36608"/>
			<stop  offset="0.8744" style="stop-color:#B54A02"/>
			<stop  offset="1" style="stop-color:#B04000"/>
		</linearGradient>
		<path fill="url(#SVGID_16_)" d="M232.712,288.772c-8.774-1.39-9.09-3.526-0.705-4.747c8.386-1.221,22.441-1.187,31.233,0.075
			l3.166,0.454c8.793,1.264,8.791,3.325-0.001,4.581l-0.512,0.073c-8.794,1.258-23.167,1.148-31.938-0.241L232.712,288.772z"/>
		
			<linearGradient id="SVGID_17_" gradientUnits="userSpaceOnUse" x1="339.5867" y1="-132.5098" x2="371.4529" y2="-132.5098" gradientTransform="matrix(1 0 0 -1 -97.6602 189.7158)">
			<stop  offset="0" style="stop-color:#FFFF9E"/>
			<stop  offset="1" style="stop-color:#FFFFE3"/>
		</linearGradient>
		<path fill="url(#SVGID_17_)" d="M267.819,335.835c6.366,3.405,7.886,3.472,3.384,0.144c-4.504-3.329-12.988-10.674-15.699-13.999
			c-3.985-4.889-5.949-14.518-11.271-15.847c-2.423-0.605-3.504,1.117-0.386,7.04c0.628,1.196,3.032,4.474,3.032,4.474
			c4.079,6.023,12.625,13.738,18.991,17.144L267.819,335.835z"/>
		
			<linearGradient id="SVGID_18_" gradientUnits="userSpaceOnUse" x1="-174.9324" y1="-753.8047" x2="-174.1228" y2="-753.8047" gradientTransform="matrix(283.7197 0 0 -283.7197 49752.0195 -213691.625)">
			<stop  offset="0" style="stop-color:#FFF339"/>
			<stop  offset="1" style="stop-color:#E17100"/>
		</linearGradient>
		<path fill="url(#SVGID_18_)" d="M333.266,67.883c-2.472,0-5.182,0.378-7.848,1.177c-7.211,2.136-13.517,5.871-13.925,14.106
			l-7.698,137.304c0.555,2.12,1.095,4.253,1.616,6.404c1.297,5.342,13.43,43.456,13.28,59.009c0.295,0.107,0.587,0.216,0.877,0.32
			c2.447,0.894,4.7,1.28,6.727,1.28c4.645,0,8.117-2.058,10.132-4.854c2.885-4.013,5.384-14.034,5.551-22.276l3.569-168.533
			c0.168-8.234-1.346-17.607-3.352-20.812C340.92,68.98,337.461,67.883,333.266,67.883L333.266,67.883z"/>
		
			<linearGradient id="SVGID_19_" gradientUnits="userSpaceOnUse" x1="-174.9309" y1="-753.7329" x2="-174.1233" y2="-753.7329" gradientTransform="matrix(283.5491 0 0 -283.5491 49722.2969 -213547.6563)">
			<stop  offset="0" style="stop-color:#FFD81E"/>
			<stop  offset="1" style="stop-color:#AE3E00"/>
		</linearGradient>
		<path fill="url(#SVGID_19_)" d="M125.366,121.188l-0.726,42.608c-0.152,8.881-1.054,16.359-2,16.612l-0.086,0.008l0.086-0.008
			c0.946-0.253,1.848-7.73,2-16.612L125.366,121.188L125.366,121.188z M125.376,120.303c-0.001,0.209-0.005,0.425-0.011,0.646
			C125.371,120.735,125.374,120.52,125.376,120.303L125.376,120.303z M220.36,74.225c18.624,13.718,33.719,32.996,45.635,54.332
			c15.321,27.449,27.141,54.322,35.619,83.95l6.909-118.003c0.581-8.154-3.99-17.354-19.913-18.314L220.36,74.225L220.36,74.225z
			 M126.223,71.516l-0.297,17.375c-0.148,8.592-0.395,22.473-0.55,31.411c0.068-3.85,0.116-5.779,0.137-5.779
			s0.014,2.223-0.031,6.664l-1.497,148.49c-0.015,1.323,0,2.646,0.037,3.925l5.461,0.1c-0.697-3.844-1.073-8.045-1.022-12.278
			l2.109-176.034c0.056-4.794,0.266-9.528,0.578-13.732L126.223,71.516L126.223,71.516z"/>
		<g>
			<g>
				<defs>
					<path id="SVGID_20_" d="M303.796,220.47l-2.802,50c-0.414,7.94,9.734,12.46,17.698,15.413
						c0.149-15.553-11.983-53.667-13.28-59.009C304.889,224.723,304.35,222.59,303.796,220.47L303.796,220.47z"/>
				</defs>
				<clipPath id="SVGID_21_">
					<use xlink:href="#SVGID_20_"  overflow="visible"/>
				</clipPath>
				<g transform="matrix(1 0 0 1 0 0)" clip-path="url(#SVGID_21_)">
					
						<image overflow="visible" enable-background="new    " width="51" height="175" xlink:href="4C21EDEA.jpg"  transform="matrix(0.38 0 0 -0.381 300.03 286.5713)">
					</image>
				</g>
			</g>
		</g>
		<g>
			<g>
				<defs>
					<path id="SVGID_22_" d="M125.601,71.657c-0.324,4.204-0.539,8.937-0.599,13.732l-2.176,176.034
						c-0.053,4.233,0.334,8.435,1.055,12.278l149.764,2.605c0.286,0,0.578,0.006,0.862,0.006c11.359,0,23.348-3.889,23.942-11.838
						l3.14-51.969c-8.757-29.627-20.954-56.501-36.774-83.95c-12.302-21.335-27.886-40.614-47.114-54.332L125.601,71.657
						L125.601,71.657z"/>
				</defs>
				<clipPath id="SVGID_23_">
					<use xlink:href="#SVGID_22_"  overflow="visible"/>
				</clipPath>
				<g transform="matrix(1 0 0 1 -1.525879e-05 -3.051758e-05)" clip-path="url(#SVGID_23_)">
					
						<image overflow="visible" enable-background="new    " width="452" height="519" xlink:href="4C21EDE9.jpg"  transform="matrix(0.3984 0 0 -0.3966 122.2918 276.8799)">
					</image>
				</g>
			</g>
		</g>
		
			<linearGradient id="SVGID_24_" gradientUnits="userSpaceOnUse" x1="44.4851" y1="-111.0361" x2="323.4673" y2="67.4154" gradientTransform="matrix(1 0 0 -1 -97.6602 189.7158)">
			<stop  offset="0" style="stop-color:#FFFF9E"/>
			<stop  offset="1" style="stop-color:#FFFFE3"/>
		</linearGradient>
		<path fill="url(#SVGID_24_)" d="M139.621,49.355c-0.314-0.019-0.626-0.027-0.937-0.027c-17.49-1.752-15.272,6.681-15.37,15.245
			l-1.328,115.313l-1.157,100.646c-3.403,15.206,4.174,12.745,10.198,15.089c2.909,0.076,5.901,0.118,8.715,0.118
			c0.44,0,0.874-0.001,1.304-0.003l16.215-0.088c8.186-0.04,11.693-0.597,8.479-1.277c-0.273-0.058-0.598-0.117-0.973-0.177
			c-4.76-0.755-14.701-1.939-22.108-2.623c-7.398-0.69-14.665-2.259-16.147-3.496c-1.114-0.928-2.03-5.829-2.381-11.975
			c-0.045-0.813-0.083-1.648-0.108-2.498c-0.038-1.281-0.053-2.599-0.039-3.928l1.496-148.491c0.047-4.439,0.056-6.66,0.035-6.66
			c-0.021,0-0.073,2.141-0.146,6.424c0.152-8.9,0.403-23.257,0.555-32.06l0.299-17.372l0.013-0.724
			c0.012-0.687,0.031-1.366,0.056-2.038c0.302-8.012,1.541-14.737,2.908-15.381c1.014-0.478,5.292-0.748,10.732-0.748
			c2.521,0,5.289,0.058,8.098,0.18l12.95,0.56c1.978,0.087,3.967,0.126,5.887,0.126c6.694,0,12.557-0.493,14.279-1.295
			c0.17-0.08,0.297-0.161,0.379-0.243c0.058-0.058,0.095-0.118,0.111-0.178L139.621,49.355z"/>
		
			<linearGradient id="SVGID_25_" gradientUnits="userSpaceOnUse" x1="202.8958" y1="160.6743" x2="469.3443" y2="98.907" gradientTransform="matrix(1 0 0 -1 -97.6602 189.7158)">
			<stop  offset="0" style="stop-color:#FFF339"/>
			<stop  offset="0.1036" style="stop-color:#FBE031"/>
			<stop  offset="0.3945" style="stop-color:#F0B11C"/>
			<stop  offset="0.6514" style="stop-color:#E88E0D"/>
			<stop  offset="0.862" style="stop-color:#E37903"/>
			<stop  offset="1" style="stop-color:#E17100"/>
		</linearGradient>
		<path fill="url(#SVGID_25_)" d="M185.396,52.241c12.285,4.709,23.75,11.542,34.186,19.839l79.798,2.844
			c0.297,0.006,0.595,0.006,0.886,0.006c8.364,0,13.741-3.516,20.428-6.357c6.919-2.942,5.341-5.894-3.51-6.548L185.396,52.241
			L185.396,52.241z"/>
		<g>
			<g>
				<defs>
					<path id="SVGID_26_" d="M181.528,51.952c-0.086,0.088-0.211,0.167-0.379,0.247c-1.721,0.8-7.585,1.293-14.278,1.293
						c-1.925,0-3.91-0.043-5.886-0.124l-12.951-0.559c-2.812-0.124-5.58-0.182-8.102-0.182c-5.437,0-9.717,0.269-10.728,0.75
						c-1.373,0.638-2.608,7.367-2.913,15.375l93.291,3.328c-10.436-8.298-21.9-15.132-34.186-19.84L181.528,51.952L181.528,51.952z"
						/>
				</defs>
				<clipPath id="SVGID_27_">
					<use xlink:href="#SVGID_26_"  overflow="visible"/>
				</clipPath>
				<g transform="matrix(1 0 0 1 0 3.814697e-06)" clip-path="url(#SVGID_27_)">
					
						<image overflow="visible" enable-background="new    " width="247" height="55" xlink:href="4C21EDF5.jpg"  transform="matrix(0.3829 0 0 -0.3876 125.6184 72.6221)">
					</image>
				</g>
			</g>
		</g>
		
			<linearGradient id="SVGID_28_" gradientUnits="userSpaceOnUse" x1="376.7" y1="93.0913" x2="406.7957" y2="93.0913" gradientTransform="matrix(1 0 0 -1 -97.6602 189.7158)">
			<stop  offset="0" style="stop-color:#FFF339"/>
			<stop  offset="1" style="stop-color:#E17100"/>
		</linearGradient>
		<path fill="url(#SVGID_28_)" d="M284.302,77.669c-7.697-1.236-6.85-1.686,1.886-0.999c8.732,0.688,17.695,3.834,19.917,6.993
			c2.22,3.159,3.511,12.991,2.865,21.85l-0.347,4.748c-0.645,8.857-1.595,8.851-2.111-0.017l-0.275-4.715
			c-0.517-8.867-2.513-18.258-4.438-20.868C299.874,82.051,292.001,78.906,284.302,77.669z"/>
		
			<linearGradient id="SVGID_29_" gradientUnits="userSpaceOnUse" x1="448.7908" y1="125.8657" x2="422.0446" y2="114.8276" gradientTransform="matrix(1 0 0 -1 -97.6602 189.7158)">
			<stop  offset="0" style="stop-color:#FFFF9E"/>
			<stop  offset="1" style="stop-color:#FFFFE3"/>
		</linearGradient>
		<path fill="url(#SVGID_29_)" d="M304.759,60.688c0.302-0.963,7.48-0.766,15.952,0.436c8.473,1.201,17.133,3.277,21.863,6.235
			c4.846,3.028,6.663,8.332,6.663,15.544c0,7.212-2.393,5.51-3.836-2.423c-1.442-7.933-8.073-12.314-17.36-14.736l-7.82-1.34
			C311.415,63.322,304.457,61.649,304.759,60.688z"/>
	</g>
	<g>
		<g>
			
				<linearGradient id="SVGID_30_" gradientUnits="userSpaceOnUse" x1="202.2371" y1="194.855" x2="443.6699" y2="-205.6494" gradientTransform="matrix(1 0 0 -1 -97.6602 189.7158)">
				<stop  offset="0" style="stop-color:#FFF339"/>
				<stop  offset="0.1036" style="stop-color:#FBE031"/>
				<stop  offset="0.3945" style="stop-color:#F0B11C"/>
				<stop  offset="0.6514" style="stop-color:#E88E0D"/>
				<stop  offset="0.862" style="stop-color:#E37903"/>
				<stop  offset="1" style="stop-color:#E17100"/>
			</linearGradient>
			<path fill="url(#SVGID_30_)" d="M212.39,224.244l-38.749,0.542c0-13.059,1.835-21.67,5.511-25.813
				c3.673-4.114,13.304-8.223,28.892-12.252l14.863-3.845c12.358-3.002,18.538-9.51,18.538-19.583c0-8.345-2.311-13.861-6.93-16.567
				c-4.623-2.727-14.948-4.63-30.982-5.691c-15.03-0.993-25.05-0.299-30.061,2.102c-5.01,2.431-7.515,7.753-7.515,15.954
				l0.166,6.042l-37.912-1.573l0.167-6c0-17.694,5.289-29.215,15.867-34.477c10.576-5.146,31.229-6.334,61.96-3.654
				c27.166,2.368,45.732,6.801,55.699,13.207c9.962,6.296,14.946,16.828,14.946,31.679c0,11.729-2.449,19.869-7.347,24.46
				c-4.901,4.639-15.758,9.129-32.57,13.552c-16.366,4.43-24.548,10.589-24.548,18.362v3.555H212.39z"/>
			<g>
				
					<linearGradient id="SVGID_31_" gradientUnits="userSpaceOnUse" x1="154.178" y1="165.8838" x2="395.6109" y2="-234.6207" gradientTransform="matrix(1 0 0 -1 -97.6602 189.7158)">
					<stop  offset="0" style="stop-color:#FFF339"/>
					<stop  offset="0.1036" style="stop-color:#FBE031"/>
					<stop  offset="0.3945" style="stop-color:#F0B11C"/>
					<stop  offset="0.6514" style="stop-color:#E88E0D"/>
					<stop  offset="0.862" style="stop-color:#E37903"/>
					<stop  offset="1" style="stop-color:#E17100"/>
				</linearGradient>
				<path fill="url(#SVGID_31_)" d="M199.608,231.513c8.091-0.167,14.712,6.349,14.712,14.478v5.711
					c0,8.132-6.621,15.147-14.712,15.594l-13.687,0.753c-8.092,0.446-14.711-6.119-14.711-14.59v-5.949
					c0-8.473,6.62-15.541,14.711-15.708L199.608,231.513z"/>
			</g>
		</g>
		
			<linearGradient id="SVGID_32_" gradientUnits="userSpaceOnUse" x1="522.6179" y1="104.4326" x2="192.363" y2="5.9216" gradientTransform="matrix(1 0 0 -1 -97.6602 189.7158)">
			<stop  offset="0" style="stop-color:#FFFFFF"/>
			<stop  offset="0.068" style="stop-color:#FFF7ED"/>
			<stop  offset="0.3129" style="stop-color:#FDDEB0"/>
			<stop  offset="0.5372" style="stop-color:#FCCA80"/>
			<stop  offset="0.7336" style="stop-color:#FBBB5D"/>
			<stop  offset="0.8946" style="stop-color:#FAB248"/>
			<stop  offset="1" style="stop-color:#FAAF40"/>
		</linearGradient>
		<path fill="url(#SVGID_32_)" d="M269.941,120.33c5.07,2.97,7.609,9.026,7.609,18.187c0,3.47-0.668,6.555-2.006,9.255
			c4.734,9.534,9.051,19.102,12.951,28.837c9.597-3.316,16.223-6.683,19.854-10.12c5.38-5.04,8.067-13.979,8.067-26.853
			c0-16.303-5.471-27.865-16.407-34.776c-10.942-7.033-31.322-11.898-61.146-14.5c-0.17-0.015-0.334-0.026-0.502-0.041
			c7.398,7.993,14.074,16.892,20.063,26.354C263.678,117.688,267.526,118.906,269.941,120.33z"/>
		<g>
			<g>
				<path fill="#F2F2F2" d="M257.198,160.013l-16.316,4.223c-17.114,4.424-27.687,8.935-31.718,13.449
					c-4.034,4.548-6.052,14-6.052,28.336l42.537-0.596v-3.901c0-8.535,8.983-15.293,26.951-20.159
					c5.993-1.576,11.282-3.159,15.897-4.755c-3.901-9.736-8.218-19.304-12.951-28.837
					C272.624,153.679,266.508,157.752,257.198,160.013z"/>
				<path fill="#F2F2F2" d="M170.846,94.374c-11.615,5.776-17.418,18.425-17.418,37.849l-0.185,6.585l41.619,1.727l-0.186-6.631
					c0-9.003,2.752-14.848,8.252-17.513c5.5-2.637,16.5-3.401,33-2.308c9.227,0.61,16.714,1.477,22.497,2.592
					c-5.99-9.462-12.666-18.362-20.064-26.354C204.909,87.437,182.397,88.755,170.846,94.374z"/>
			</g>
			<path fill="#F2F2F2" d="M231.621,213.405l-15.028,0.313c-8.882,0.186-16.149,7.946-16.149,17.245v6.532
				c0,9.299,7.267,16.508,16.149,16.018l15.028-0.829c8.881-0.488,16.149-8.191,16.149-17.116v-6.271
				C247.769,220.373,240.502,213.221,231.621,213.405z"/>
		</g>
	</g>
</g>
</svg>
