<?xml version="1.0" encoding="utf-8"?>
<!-- Generator: Adobe Illustrator 16.0.0, SVG Export Plug-In . SVG Version: 6.00 Build 0)  -->
<!DOCTYPE svg PUBLIC "-//W3C//DTD SVG 1.1//EN" "http://www.w3.org/Graphics/SVG/1.1/DTD/svg11.dtd">
<svg version="1.1" id="Capa_1" xmlns="http://www.w3.org/2000/svg" xmlns:xlink="http://www.w3.org/1999/xlink" x="0px" y="0px"
	 width="1009.023px" height="702.001px" viewBox="1246.979 5996.074 1009.023 702.001"
	 enable-background="new 1246.979 5996.074 1009.023 702.001" xml:space="preserve">
<g>
	<defs>
		<rect id="SVGID_3_" x="1246.979" y="5996.074" width="1009.023" height="702.001"/>
	</defs>
	<clipPath id="SVGID_4_">
		<use xlink:href="#SVGID_3_"  overflow="visible"/>
	</clipPath>
	<g clip-path="url(#SVGID_4_)">
		<path fill-rule="evenodd" clip-rule="evenodd" fill="#F1F1F1" d="M2423.342,5920.154
			c-71.436,444.468-142.871,888.933-214.307,1333.398c-384.484,45.664-768.975,91.331-1153.811,137.041
			c0.813-5.066,1.33-8.282,1.844-11.496c62.107-386.422,124.231-772.842,186.219-1159.243c1.575-9.825,3.431-14.376,7.602-16.812
			c23.82-13.918,47.809-29.785,71.473-41.978c40.635-20.941,80.328-33.68,119.617-42.868
			c70.729-16.544,138.594-16.643,204.918-8.114c39.629,5.099,79.389,9.282,120.557,6.063
			c51.865-4.053,105.355-20.035,159.658-41.986c33.953-13.727,68.006-28.271,101.791-40.545
			c39.006-14.172,76.854-20.383,113.75-20.193c48.094,0.244,97.729-9.406,148.41-26.164c16.068-5.316,32.053-9.229,48.43-17.887
			C2367.295,5954.679,2395.379,5936.732,2423.342,5920.154z"/>
		<linearGradient id="SVGID_5_" gradientUnits="userSpaceOnUse" x1="1214.0254" y1="6247.1396" x2="2371.9438" y2="7405.0581">
			<stop  offset="0.1073" style="stop-color:#0B0094"/>
			<stop  offset="1" style="stop-color:#000028"/>
		</linearGradient>
		<path fill-rule="evenodd" clip-rule="evenodd" fill="url(#SVGID_5_)" d="M2256.002,6048.298c0,490.896,0,981.8,0,1472.7
			c-336.209,0-672.42,0-1008.936,0c0-5.596,0-9.147,0-12.698c0-426.79,0.016-853.577-0.088-1280.365
			c-0.003-10.853,0.998-15.725,4.367-17.913c19.24-12.487,38.354-27.143,57.701-37.71c33.223-18.14,66.785-27.177,100.49-32.266
			c60.68-9.169,121.166-0.204,181.512,18.269c36.059,11.04,72.1,21.063,108.342,22.945c45.654,2.377,91.047-8.469,136.309-25.923
			c28.303-10.912,56.576-22.735,84.934-32.038c32.742-10.742,65.59-12.67,98.51-7.523c42.91,6.705,85.775,2.481,128.553-9.613
			c13.563-3.838,27.25-6.106,40.611-13.662C2210.984,6079.678,2233.447,6063.224,2256.002,6048.298z"/>
		<defs>
			<filter id="Adobe_OpacityMaskFilter" filterUnits="userSpaceOnUse" x="1642.334" y="6060.732" width="717.656" height="782.578">
				<feColorMatrix  type="matrix" values="1 0 0 0 0  0 1 0 0 0  0 0 1 0 0  0 0 0 1 0"/>
			</filter>
		</defs>
		<mask maskUnits="userSpaceOnUse" x="1642.334" y="6060.732" width="717.656" height="782.578" id="SVGID_2_">
			<g filter="url(#Adobe_OpacityMaskFilter)">
				<g>
					<defs>
						<rect id="SVGID_6_" x="1266" y="6182.064" width="1000" height="716.447"/>
					</defs>
					<clipPath id="SVGID_7_">
						<use xlink:href="#SVGID_6_"  overflow="visible"/>
					</clipPath>
					
						<linearGradient id="SVGID_8_" gradientUnits="userSpaceOnUse" x1="3124.877" y1="-204.6841" x2="3124.877" y2="-347.9893" gradientTransform="matrix(-1.3098 -0.3296 -1.2996 5.1644 5748.9487 8907.8447)">
						<stop  offset="0" style="stop-color:#FFFFFF"/>
						<stop  offset="1" style="stop-color:#000000"/>
					</linearGradient>
					<polygon clip-path="url(#SVGID_7_)" fill="url(#SVGID_8_)" points="1747.385,6090.646 2448.039,6246.809 2244.711,6962.426 
						1544.053,6806.279 					"/>
				</g>
				<g>
					<defs>
						<rect id="SVGID_9_" x="1266" y="6182.064" width="1000" height="716.447"/>
					</defs>
					<clipPath id="SVGID_10_">
						<use xlink:href="#SVGID_9_"  overflow="visible"/>
					</clipPath>
					
						<linearGradient id="SVGID_11_" gradientUnits="userSpaceOnUse" x1="6363.8223" y1="-857.8799" x2="6363.8223" y2="-1012.7314" gradientTransform="matrix(-0.9766 0.9331 3.679 3.8503 11057.4834 3190.3928)">
						<stop  offset="0" style="stop-color:#FFFFFF"/>
						<stop  offset="1" style="stop-color:#000000"/>
					</linearGradient>
					<polygon clip-path="url(#SVGID_10_)" fill="url(#SVGID_11_)" points="910.996,5542.649 1433.377,5100.594 2008.975,5634.125 
						1486.604,6076.19 					"/>
				</g>
			</g>
		</mask>
		<polygon opacity="0.3" mask="url(#SVGID_2_)" fill="#0090EC" enable-background="new    " points="1642.334,6060.732 
			2142.758,6174.836 2359.99,6424.811 2068.232,6843.311 1716.217,6801.18 1935.037,6455.707 		"/>
		<defs>
			
				<filter id="Adobe_OpacityMaskFilter_1_" filterUnits="userSpaceOnUse" x="1333.869" y="6570.924" width="91.234" height="86.631">
				<feColorMatrix  type="matrix" values="1 0 0 0 0  0 1 0 0 0  0 0 1 0 0  0 0 0 1 0"/>
			</filter>
		</defs>
		<mask maskUnits="userSpaceOnUse" x="1333.869" y="6570.924" width="91.234" height="86.631" id="SVGID_1_">
			<g filter="url(#Adobe_OpacityMaskFilter_1_)">
				<g>
					<g>
						<defs>
							<rect id="SVGID_12_" x="1064" y="6040.766" width="1000" height="766.268"/>
						</defs>
						<clipPath id="SVGID_13_">
							<use xlink:href="#SVGID_12_"  overflow="visible"/>
						</clipPath>
					</g>
					<g>
						<defs>
							<rect id="SVGID_14_" x="1064" y="6040.766" width="1000" height="766.268"/>
						</defs>
						<defs>
							<rect id="SVGID_15_" x="1325.09" y="6569.398" width="109.395" height="96.24"/>
						</defs>
						<clipPath id="SVGID_16_">
							<use xlink:href="#SVGID_14_"  overflow="visible"/>
						</clipPath>
						<clipPath id="SVGID_17_" clip-path="url(#SVGID_16_)">
							<use xlink:href="#SVGID_15_"  overflow="visible"/>
						</clipPath>
						
							<linearGradient id="SVGID_18_" gradientUnits="userSpaceOnUse" x1="9645.9531" y1="-6356.9424" x2="9637.2129" y2="-6509.8965" gradientTransform="matrix(1 0 0 -1 -8261.2744 233.8301)">
							<stop  offset="0" style="stop-color:#FFFFFF"/>
							<stop  offset="1" style="stop-color:#000000"/>
						</linearGradient>
						<rect x="1312.209" y="6564.967" clip-path="url(#SVGID_17_)" fill="url(#SVGID_18_)" width="133.578" height="250.471"/>
					</g>
				</g>
			</g>
		</mask>
		
			<ellipse opacity="0.3" mask="url(#SVGID_1_)" fill="#0090EC" enable-background="new    " cx="1379.486" cy="6614.239" rx="45.617" ry="43.315"/>
		<polygon opacity="0.3" fill="#0090EC" enable-background="new    " points="1356.885,6259.613 1341.004,6274.492 
			1325.59,6259.163 1341.471,6244.284 		"/>
	</g>
	<rect x="1246.979" y="5996.074" clip-path="url(#SVGID_4_)" fill="none" width="1009.023" height="666.568"/>
</g>
</svg>
