<?xml version="1.0" encoding="utf-8"?>
<!-- Generator: Adobe Illustrator 16.0.0, SVG Export Plug-In . SVG Version: 6.00 Build 0)  -->
<!DOCTYPE svg PUBLIC "-//W3C//DTD SVG 1.1//EN" "http://www.w3.org/Graphics/SVG/1.1/DTD/svg11.dtd">
<svg version="1.1" id="Capa_1" xmlns="http://www.w3.org/2000/svg" xmlns:xlink="http://www.w3.org/1999/xlink" x="0px" y="0px"
	 width="1000px" height="760px" viewBox="0 0 1000 760" enable-background="new 0 0 1000 760" xml:space="preserve">
<g>
	<defs>
		<rect id="SVGID_1_" width="1000" height="760"/>
	</defs>
	<clipPath id="SVGID_2_">
		<use xlink:href="#SVGID_1_"  overflow="visible"/>
	</clipPath>
	<path clip-path="url(#SVGID_2_)" fill-rule="evenodd" clip-rule="evenodd" fill="#F1F1F1" d="M1167.342-70.882
		c-71.436,468.095-142.871,936.187-214.307,1404.278c-384.485,48.092-768.974,96.187-1153.811,144.326
		c0.813-5.336,1.331-8.723,1.845-12.107C-136.824,1058.652-74.7,651.691-12.713,244.75c1.576-10.348,3.431-15.14,7.602-17.705
		c23.82-14.658,47.809-31.369,71.472-44.209c40.634-22.055,80.328-35.47,119.617-45.146c70.729-17.424,138.594-17.527,204.919-8.546
		c39.628,5.369,79.388,9.775,120.557,6.386c51.865-4.268,105.355-21.101,159.657-44.219c33.954-14.455,68.007-29.773,101.791-42.699
		c39.006-14.926,76.854-21.467,113.751-21.267c48.094,0.257,97.729-9.907,148.41-27.556c16.067-5.599,32.052-9.719,48.43-18.837
		C1111.295-34.521,1139.378-53.422,1167.342-70.882z"/>
	<linearGradient id="SVGID_3_" gradientUnits="userSpaceOnUse" x1="-57.2271" y1="286.8057" x2="1135.5135" y2="1479.5463">
		<stop  offset="0" style="stop-color:#250B63"/>
		<stop  offset="1" style="stop-color:#6B00AA"/>
	</linearGradient>
	<path clip-path="url(#SVGID_2_)" fill-rule="evenodd" clip-rule="evenodd" fill="url(#SVGID_3_)" d="M1000.001,64.074
		c0,516.99,0,1033.989,0,1550.984c-336.209,0-672.419,0-1008.935,0c0-5.894,0-9.634,0-13.373c0-449.478,0.016-898.95-0.088-1348.426
		c-0.003-11.43,0.998-16.561,4.367-18.865c19.24-13.151,38.354-28.586,57.701-39.715c33.222-19.104,66.784-28.621,100.489-33.98
		c60.681-9.657,121.167-0.216,181.513,19.24c36.058,11.626,72.1,22.183,108.341,24.165c45.654,2.503,91.047-8.919,136.309-27.302
		c28.303-11.492,56.576-23.944,84.934-33.74c32.742-11.314,65.59-13.344,98.51-7.925c42.91,7.062,85.775,2.614,128.553-10.124
		c13.563-4.041,27.25-6.431,40.611-14.388C954.983,97.122,977.446,79.793,1000.001,64.074z"/>
	<polygon opacity="0.1" clip-path="url(#SVGID_2_)" fill="#A707DB" points="129.586,224.907 113.705,240.576 98.291,224.432 
		114.172,208.762 	"/>
	<g opacity="0.1" clip-path="url(#SVGID_2_)">
		<path fill="#A707DB" d="M1240.229,491.155c-12.229-34.089-31.48-44.463-49.795-66.329c-22.368-26.706-37.454-46.119-31.646-80.468
			c9.489-56.13,13.551-196.114-135.044-177.816c-53.261,6.558-95.349,47.375-125.968,88.115
			c-26.053,34.667-72.918,37.724-110.642,45.808c-46.349,9.928-93.562,24.93-136.443,46.907
			c-88.315,45.268-114.693,110.34-111.092,193.597c1.089,25.154,4.648,64.775,47.14,111.137
			c57.353,62.576,140.69,70.957,240.997,42.219c22.96-6.578,44.662-16.895,67.249-24.662c23.464-8.068,47.878-13.371,72.576-15.76
			c57.61-5.57,117.329,4.504,172.594-12.695c29.222-9.096,56.061-25.74,77.193-47.873
			C1243.748,565.685,1253.137,527.136,1240.229,491.155z"/>
	</g>
</g>
</svg>
