<?xml version="1.0" encoding="utf-8"?>
<!-- Generator: Adobe Illustrator 16.0.0, SVG Export Plug-In . SVG Version: 6.00 Build 0)  -->
<!DOCTYPE svg PUBLIC "-//W3C//DTD SVG 1.1//EN" "http://www.w3.org/Graphics/SVG/1.1/DTD/svg11.dtd">
<svg version="1.1" id="Capa_1" xmlns="http://www.w3.org/2000/svg" xmlns:xlink="http://www.w3.org/1999/xlink" x="0px" y="0px"
	 width="1000.369px" height="807.447px" viewBox="0 0 1000.369 807.447" enable-background="new 0 0 1000.369 807.447"
	 xml:space="preserve">
<g>
	<defs>
		<rect id="SVGID_1_" y="0.577" width="1000" height="807"/>
	</defs>
	<clipPath id="SVGID_2_">
		<use xlink:href="#SVGID_1_"  overflow="visible"/>
	</clipPath>
	<rect y="0.577" clip-path="url(#SVGID_2_)" fill="none" width="1000" height="807"/>
	<path clip-path="url(#SVGID_2_)" fill="#F1F1F1" d="M-54.414,662.446c9.52-223.433,19.021-446.479,28.543-670.011
		C329.725,7.872,685.233,23.304,1041.074,38.75c-10.631,249.502-21.256,498.923-31.886,748.397
		c-8.576-5.586-16.7-11.26-25.13-16.277c-14.942-8.896-30.825-14.98-47.077-20.167c-26.656-8.504-54.004-10.358-81.427-10.25
		c-23.02,0.1-45.496,5.793-67.241,14.946c-30.953,13.03-61.719,26.713-92.898,38.967c-18.047,7.089-36.887,10.917-56.097,8.181
		c-17.93-2.558-35.149-8.304-51.673-16.434c-25.741-12.668-50.989-26.709-77.078-38.344c-21.678-9.668-44.086-17.418-66.52-24.649
		c-13.182-4.25-26.967-6.447-40.614-8.449c-18.037-2.646-36.172-4.686-54.327-6.086c-18.367-1.409-36.807-2.516-55.218-2.313
		c-21.639,0.239-43.304,1.58-64.917,3.267c-25.073,1.955-50.08,5.858-75.159,6.938c-19.676,0.846-39.452-0.864-59.129-2.287
		c-20.962-1.52-41.576-5.997-61.536-13.264c-19.457-7.082-38.703-14.962-57.815-23.168
		C-34.826,673.394-44.504,667.601-54.414,662.446z"/>
	<rect y="0.577" clip-path="url(#SVGID_2_)" fill="none" width="1000" height="807"/>
	
		<linearGradient id="SVGID_3_" gradientUnits="userSpaceOnUse" x1="154.3384" y1="1094.99" x2="721.1688" y2="113.2108" gradientTransform="matrix(1 0 0 -1 79.04 960.8472)">
		<stop  offset="0" style="stop-color:#6B00AA"/>
		<stop  offset="0.9353" style="stop-color:#250B63"/>
	</linearGradient>
	<path clip-path="url(#SVGID_2_)" fill="url(#SVGID_3_)" d="M0.392,655.629c0-218.511,0-436.646,0-655.256
		c333.152,0,666.223,0,999.608,0c0,244.006,0,487.935,0,731.915c-8.246-5.09-16.069-10.285-24.151-14.824
		c-14.328-8.052-29.423-13.318-44.826-17.691c-25.267-7.172-50.915-7.826-76.556-6.556c-21.523,1.07-42.316,7.582-62.286,17.438
		c-28.429,14.032-56.653,28.692-85.323,41.976c-16.595,7.685-34.06,12.222-52.131,10.361c-16.872-1.734-33.206-6.614-48.98-13.854
		c-24.575-11.272-48.745-23.91-73.608-34.162c-20.654-8.52-41.921-15.135-63.186-21.244c-12.498-3.589-25.476-5.15-38.319-6.527
		c-16.972-1.817-34.013-3.041-51.046-3.636c-17.232-0.602-34.521-0.896-51.731,0.08c-20.226,1.149-40.433,3.375-60.578,5.938
		c-23.368,2.972-46.598,7.841-70.009,9.956c-18.366,1.658-36.928,0.829-55.386,0.271c-19.664-0.594-39.118-4.093-58.075-10.34
		C65.33,683.387,47.019,676.51,28.82,669.31C19.145,665.483,9.863,660.238,0.392,655.629z"/>
	<rect y="0.577" clip-path="url(#SVGID_2_)" fill="none" width="1000" height="807"/>
	<rect y="-0.423" clip-path="url(#SVGID_2_)" fill="none" width="984.631" height="804"/>
	<rect y="0.577" clip-path="url(#SVGID_2_)" fill="none" width="1000" height="807"/>
	<polygon opacity="0.3" clip-path="url(#SVGID_2_)" fill="#A707DB" points="356.48,129.484 344.496,141.31 332.864,129.127 
		344.849,117.302 	"/>
	<rect y="0.577" clip-path="url(#SVGID_2_)" fill="none" width="1000" height="807"/>
	<polygon opacity="0.3" clip-path="url(#SVGID_2_)" fill="#A707DB" points="127.65,578.979 111.769,594.648 96.355,578.505 
		112.236,562.835 	"/>
	<rect y="0.577" clip-path="url(#SVGID_2_)" fill="none" width="1000" height="807"/>
	<rect y="-0.423" clip-path="url(#SVGID_2_)" fill="none" width="1000" height="808"/>
	<rect y="0.577" clip-path="url(#SVGID_2_)" fill="none" width="1000" height="807"/>
	<rect y="0.577" clip-path="url(#SVGID_2_)" fill="none" width="1000" height="807"/>
	<defs>
		<filter id="Adobe_OpacityMaskFilter" filterUnits="userSpaceOnUse" x="231.144" y="-33.527" width="84.342" height="84.342">
			<feColorMatrix  type="matrix" values="1 0 0 0 0  0 1 0 0 0  0 0 1 0 0  0 0 0 1 0"/>
		</filter>
	</defs>
	<mask maskUnits="userSpaceOnUse" x="231.144" y="-33.527" width="84.342" height="84.342" id="SVGID_7_">
		<g filter="url(#Adobe_OpacityMaskFilter)">
			<g>
				<g>
					<defs>
						<rect id="SVGID_4_" y="0.577" width="1000" height="807"/>
					</defs>
					<clipPath id="SVGID_5_" clip-path="url(#SVGID_2_)">
						<use xlink:href="#SVGID_4_"  overflow="visible"/>
					</clipPath>
				</g>
				<g>
					<defs>
						<rect id="SVGID_6_" y="0.577" width="1000" height="807"/>
					</defs>
					<defs>
						<rect id="SVGID_8_" x="223.029" y="-35.013" width="101.128" height="93.7"/>
					</defs>
					<clipPath id="SVGID_9_" clip-path="url(#SVGID_2_)">
						<use xlink:href="#SVGID_6_"  overflow="visible"/>
					</clipPath>
					<clipPath id="SVGID_10_" clip-path="url(#SVGID_9_)">
						<use xlink:href="#SVGID_8_"  overflow="visible"/>
					</clipPath>
					
						<linearGradient id="SVGID_12_" gradientUnits="userSpaceOnUse" x1="8519.6611" y1="240.4421" x2="8511.165" y2="91.7517" gradientTransform="matrix(1 0 0 -1 -8241.2744 226.3823)">
						<stop  offset="0" style="stop-color:#FFFFFF"/>
						<stop  offset="1" style="stop-color:#000000"/>
					</linearGradient>
					<rect x="211.122" y="-39.328" clip-path="url(#SVGID_10_)" fill="url(#SVGID_12_)" width="123.484" height="243.853"/>
				</g>
			</g>
		</g>
	</mask>
	<circle opacity="0.3" clip-path="url(#SVGID_2_)" mask="url(#SVGID_7_)" fill="#A707DB" cx="273.315" cy="8.644" r="42.171"/>
	<rect y="0.577" clip-path="url(#SVGID_2_)" fill="none" width="1000" height="807"/>
	<defs>
		<filter id="Adobe_OpacityMaskFilter_1_" filterUnits="userSpaceOnUse" x="60.413" y="180.964" width="67.236" height="67.236">
			<feColorMatrix  type="matrix" values="1 0 0 0 0  0 1 0 0 0  0 0 1 0 0  0 0 0 1 0"/>
		</filter>
	</defs>
	<mask maskUnits="userSpaceOnUse" x="60.413" y="180.964" width="67.236" height="67.236" id="SVGID_11_">
		<g filter="url(#Adobe_OpacityMaskFilter_1_)">
			<g>
				<g>
					<defs>
						<rect id="SVGID_13_" y="0.577" width="1000" height="807"/>
					</defs>
					<clipPath id="SVGID_14_" clip-path="url(#SVGID_2_)">
						<use xlink:href="#SVGID_13_"  overflow="visible"/>
					</clipPath>
				</g>
				<g>
					<defs>
						<rect id="SVGID_16_" y="0.577" width="1000" height="807"/>
					</defs>
					<defs>
						<rect id="SVGID_17_" x="53.943" y="179.778" width="80.62" height="74.697"/>
					</defs>
					<clipPath id="SVGID_18_" clip-path="url(#SVGID_2_)">
						<use xlink:href="#SVGID_16_"  overflow="visible"/>
					</clipPath>
					<clipPath id="SVGID_19_" clip-path="url(#SVGID_18_)">
						<use xlink:href="#SVGID_17_"  overflow="visible"/>
					</clipPath>
					
						<linearGradient id="SVGID_20_" gradientUnits="userSpaceOnUse" x1="8339.3496" y1="29.8997" x2="8332.5762" y2="-88.6358" gradientTransform="matrix(1 0 0 -1 -8241.2744 226.3823)">
						<stop  offset="0" style="stop-color:#FFFFFF"/>
						<stop  offset="1" style="stop-color:#000000"/>
					</linearGradient>
					<rect x="44.451" y="176.339" clip-path="url(#SVGID_19_)" fill="url(#SVGID_20_)" width="98.441" height="194.398"/>
				</g>
			</g>
		</g>
	</mask>
	<circle opacity="0.3" clip-path="url(#SVGID_2_)" mask="url(#SVGID_11_)" fill="#A707DB" cx="94.031" cy="214.582" r="33.618"/>
	<rect y="0.577" clip-path="url(#SVGID_2_)" fill="none" width="1000" height="807"/>
	<defs>
		<filter id="Adobe_OpacityMaskFilter_2_" filterUnits="userSpaceOnUse" x="269.868" y="558.917" width="91.236" height="91.235">
			<feColorMatrix  type="matrix" values="1 0 0 0 0  0 1 0 0 0  0 0 1 0 0  0 0 0 1 0"/>
		</filter>
	</defs>
	<mask maskUnits="userSpaceOnUse" x="269.868" y="558.917" width="91.236" height="91.235" id="SVGID_15_">
		<g filter="url(#Adobe_OpacityMaskFilter_2_)">
			<g>
				<g>
					<defs>
						<rect id="SVGID_21_" y="0.577" width="1000" height="807"/>
					</defs>
					<clipPath id="SVGID_22_" clip-path="url(#SVGID_2_)">
						<use xlink:href="#SVGID_21_"  overflow="visible"/>
					</clipPath>
				</g>
				<g>
					<defs>
						<rect id="SVGID_23_" y="0.577" width="1000" height="807"/>
					</defs>
					<defs>
						<rect id="SVGID_24_" x="261.089" y="557.309" width="109.395" height="101.357"/>
					</defs>
					<clipPath id="SVGID_25_" clip-path="url(#SVGID_2_)">
						<use xlink:href="#SVGID_23_"  overflow="visible"/>
					</clipPath>
					<clipPath id="SVGID_26_" clip-path="url(#SVGID_25_)">
						<use xlink:href="#SVGID_24_"  overflow="visible"/>
					</clipPath>
					
						<linearGradient id="SVGID_27_" gradientUnits="userSpaceOnUse" x1="8562.248" y1="-353.593" x2="8553.0566" y2="-514.4376" gradientTransform="matrix(1 0 0 -1 -8241.2744 226.3823)">
						<stop  offset="0" style="stop-color:#FFFFFF"/>
						<stop  offset="1" style="stop-color:#000000"/>
					</linearGradient>
					<rect x="248.209" y="552.642" clip-path="url(#SVGID_26_)" fill="url(#SVGID_27_)" width="133.578" height="263.785"/>
				</g>
			</g>
		</g>
	</mask>
	<circle opacity="0.3" clip-path="url(#SVGID_2_)" mask="url(#SVGID_15_)" fill="#A707DB" cx="315.486" cy="604.534" r="45.618"/>
	<rect y="0.577" clip-path="url(#SVGID_2_)" fill="none" width="1000" height="807"/>
	<rect y="0.577" clip-path="url(#SVGID_2_)" fill="none" width="1000" height="807"/>
	<g opacity="0.2" clip-path="url(#SVGID_2_)">
		<path fill="#A707DB" d="M1217.971,405.837c-12.229-34.089-31.48-44.463-49.795-66.33c-22.368-26.706-37.454-46.119-31.646-80.468
			c9.489-56.13,13.551-196.114-135.044-177.816c-53.261,6.558-95.349,47.375-125.968,88.115
			c-26.053,34.667-72.918,37.724-110.642,45.808c-46.349,9.928-93.562,24.93-136.443,46.907
			c-88.315,45.268-114.693,110.34-111.092,193.597c1.089,25.154,4.648,64.775,47.14,111.137
			c57.353,62.576,140.69,70.957,240.997,42.219c22.96-6.578,44.662-16.895,67.249-24.662c23.464-8.068,47.878-13.371,72.576-15.76
			c57.61-5.57,117.329,4.504,172.594-12.695c29.222-9.096,56.061-25.74,77.193-47.873
			C1221.489,480.366,1230.878,441.817,1217.971,405.837z"/>
	</g>
	<rect y="0.577" clip-path="url(#SVGID_2_)" fill="none" width="1000" height="807"/>
</g>
</svg>
