<?xml version="1.0" encoding="utf-8"?>
<!-- Generator: Adobe Illustrator 16.0.0, SVG Export Plug-In . SVG Version: 6.00 Build 0)  -->
<!DOCTYPE svg PUBLIC "-//W3C//DTD SVG 1.1//EN" "http://www.w3.org/Graphics/SVG/1.1/DTD/svg11.dtd">
<svg version="1.1" id="Capa_1" xmlns="http://www.w3.org/2000/svg" xmlns:xlink="http://www.w3.org/1999/xlink" x="0px" y="0px"
	 width="412.594px" height="409.676px" viewBox="0 0 412.594 409.676" enable-background="new 0 0 412.594 409.676"
	 xml:space="preserve">
<g>
	
		<image overflow="visible" opacity="0.75" width="251" height="359" xlink:href="3CB5CD55.png"  transform="matrix(1 0 0 1 71.7966 11.3379)">
	</image>
	<g>
		<rect x="87.715" y="19.544" fill="#FFFFFF" width="219.205" height="328.233"/>
	</g>
</g>
<g>
	<path fill="#4A482F" d="M130.471,143.285l3.59-3.042l0.354,0.425l-2.691,3.518C131.724,144.186,131.446,143.689,130.471,143.285z"
		/>
	<linearGradient id="SVGID_1_" gradientUnits="userSpaceOnUse" x1="54.7742" y1="214.1699" x2="66.3137" y2="224.0612">
		<stop  offset="0" style="stop-color:#540000"/>
		<stop  offset="0.182" style="stop-color:#560202"/>
		<stop  offset="0.2776" style="stop-color:#5B0A0A"/>
		<stop  offset="0.3531" style="stop-color:#641818"/>
		<stop  offset="0.4181" style="stop-color:#702B2B"/>
		<stop  offset="0.4764" style="stop-color:#814444"/>
		<stop  offset="0.5291" style="stop-color:#946262"/>
		<stop  offset="0.5373" style="stop-color:#986767"/>
		<stop  offset="0.5661" style="stop-color:#8F5A5A"/>
		<stop  offset="0.6612" style="stop-color:#763333"/>
		<stop  offset="0.7487" style="stop-color:#631717"/>
		<stop  offset="0.8253" style="stop-color:#580606"/>
		<stop  offset="0.8824" style="stop-color:#540000"/>
	</linearGradient>
	<path fill="url(#SVGID_1_)" d="M86.613,183.661l-56.164,62.032c0,0-0.146,5.241,5.303,9.973l58.841-64.96L86.613,183.661z"/>
	
		<rect x="82.109" y="189.358" transform="matrix(0.7384 0.6743 -0.6743 0.7384 151.4183 -9.198)" fill="#C89151" width="10.912" height="2.434"/>
	<path fill="#E5BC85" d="M44.632,245.942l-1.541-0.186l-0.932-0.853l-5.689-5.803l-3.838,4.068c0,0,4.861,7.246,8.108,7.034
		L44.632,245.942z"/>
	
		<linearGradient id="SVGID_2_" gradientUnits="userSpaceOnUse" x1="195.054" y1="57.2104" x2="199.9244" y2="57.2104" gradientTransform="matrix(0.7384 0.6744 0.6744 -0.7384 -135.8604 131.192)">
		<stop  offset="0.0787" style="stop-color:#C88840"/>
		<stop  offset="0.1041" style="stop-color:#D09550"/>
		<stop  offset="0.1568" style="stop-color:#DCAC6B"/>
		<stop  offset="0.2143" style="stop-color:#E6BD80"/>
		<stop  offset="0.2784" style="stop-color:#EECA8F"/>
		<stop  offset="0.3543" style="stop-color:#F2D197"/>
		<stop  offset="0.4719" style="stop-color:#F3D39A"/>
		<stop  offset="0.6755" style="stop-color:#DEAE6E"/>
		<stop  offset="0.8708" style="stop-color:#C88840"/>
	</linearGradient>
	<path fill="url(#SVGID_2_)" d="M36.333,238.852c0,0-2.099-1.182-0.284-3.434l18.407-20.557l6.462-3.866c0,0,4.072-3.12,5.6-7.469
		c0,0,0.969-2.53-2.064-0.414l-11,10.04l-22.571,25.915c0,0,0.097,2.835,1.448,4.435C32.33,243.502,36.542,239.291,36.333,238.852z"
		/>
	<path fill="#E5BC85" d="M30.759,248.297l-7.601,8.322c0,0-1.138,1.647,0.513,4.253c0,0,2.246,1.685,4.289,0.252l6.14-6.726
		C34.099,254.398,31.718,251.126,30.759,248.297z"/>
	<linearGradient id="SVGID_3_" gradientUnits="userSpaceOnUse" x1="100.2234" y1="165.6069" x2="110.6934" y2="174.8859">
		<stop  offset="0" style="stop-color:#000027"/>
		<stop  offset="0.1782" style="stop-color:#000229"/>
		<stop  offset="0.2719" style="stop-color:#010831"/>
		<stop  offset="0.3458" style="stop-color:#02133F"/>
		<stop  offset="0.4095" style="stop-color:#042352"/>
		<stop  offset="0.4666" style="stop-color:#07386B"/>
		<stop  offset="0.5182" style="stop-color:#0A5089"/>
		<stop  offset="0.5333" style="stop-color:#0B5993"/>
		<stop  offset="0.585" style="stop-color:#094A81"/>
		<stop  offset="0.7098" style="stop-color:#052A5A"/>
		<stop  offset="0.8247" style="stop-color:#02133E"/>
		<stop  offset="0.9251" style="stop-color:#01052D"/>
		<stop  offset="1" style="stop-color:#000027"/>
	</linearGradient>
	<polygon fill="url(#SVGID_3_)" points="86.613,183.661 117.219,150.554 125.076,157.729 94.593,190.705 	"/>
	<image overflow="visible" width="16" height="17" xlink:href="3CB5CD57.png"  transform="matrix(1 0 0 1 116.7966 141.3379)">
	</image>
	<path fill="#AF8049" d="M56.928,213.089l9.686-10.204c0,0-0.371,3.082-3.362,6.09C63.252,208.975,60.641,211.964,56.928,213.089z"
		/>
	<path fill="#865C2F" d="M33.495,253.724l-6.25,7.111c0,0-1.827,0.531-2.96-0.502c0,0-1.469-1.466-0.648-3.036l7.491-7.934
		l0.016,0.385l-6.985,7.781c0,0-0.704,1.438,0.686,2.459c0,0,1.07,1.101,1.935,0.423l6.496-7.379L33.495,253.724z"/>
	<path fill="#C89151" d="M32.544,252.492l-6.443,7.055c0,0-0.865,0.679-0.401-0.364l6.44-7.184L32.544,252.492z"/>
	
		<ellipse transform="matrix(0.7379 0.6749 -0.6749 0.7379 181.7796 51.4272)" fill="#FFFFFF" cx="24.673" cy="259.771" rx="0.991" ry="0.493"/>
	<path fill="#FFFFFF" d="M38.469,249.169c0.185-0.2,0.061-0.616-0.276-0.923c-0.336-0.308-0.76-0.392-0.944-0.191
		c-0.184,0.202-0.063,0.615,0.272,0.924C37.862,249.287,38.284,249.37,38.469,249.169z"/>
	<polygon fill="#AF8049" points="43.672,245.923 39.829,250.129 39.371,249.831 42.913,245.686 	"/>
	<polygon fill="#F6E0AE" points="38.974,241.973 35.388,246.305 34.799,245.878 38.567,241.486 	"/>
	<polygon fill="#F6E0AE" points="41.466,244.593 38.184,248.857 37.652,248.37 41.068,244.227 	"/>
	<polygon fill="#C89151" points="38.24,240.841 34.343,245.707 32.33,243.502 36.333,238.852 	"/>
</g>
<g>
	<rect x="118.841" y="118.874" width="157.053" height="2.83"/>
	<rect x="118.841" y="126.796" width="157.053" height="2.83"/>
	<rect x="118.841" y="134.719" width="157.053" height="2.83"/>
	<rect x="118.841" y="168.112" width="157.053" height="2.83"/>
	<rect x="118.841" y="176.035" width="157.053" height="2.83"/>
	<rect x="118.841" y="183.957" width="157.053" height="2.83"/>
	<rect x="118.841" y="217.35" width="157.053" height="2.83"/>
	<rect x="118.841" y="225.271" width="157.053" height="2.831"/>
	<rect x="118.841" y="233.195" width="157.053" height="2.83"/>
	<rect x="118.841" y="266.588" width="157.053" height="2.83"/>
	<rect x="118.841" y="274.511" width="157.053" height="2.83"/>
	<rect x="118.841" y="282.434" width="157.053" height="2.829"/>
	<rect x="118.841" y="315.826" width="157.053" height="2.83"/>
	<rect x="118.841" y="323.748" width="157.053" height="2.831"/>
	<rect x="118.841" y="331.672" width="157.053" height="2.829"/>
</g>
<g>
	<path fill="#0F78F4" d="M248.262,63.417c0,5.625-4.561,10.187-10.188,10.187h-84.977c-5.626,0-10.187-4.562-10.187-10.187v-7.641
		c0-5.626,4.561-10.187,10.187-10.187h84.977c5.627,0,10.188,4.561,10.188,10.187V63.417z"/>
	<path fill="#0F78F4" d="M222.265,43.042c0,5.626-4.563,10.187-10.188,10.187h-36.059c-5.626,0-10.187-4.561-10.187-10.187v-10.75
		c0-5.625,4.561-10.187,10.187-10.187h36.059c5.625,0,10.188,4.562,10.188,10.187V43.042z"/>
	<rect x="174.746" y="27.549" fill="#515050" width="38.798" height="3.396"/>
	<rect x="174.746" y="32.218" fill="#515050" width="38.798" height="3.396"/>
	<rect x="174.746" y="36.887" fill="#515050" width="38.798" height="3.396"/>
</g>
<g>
	<path d="M155.281,88.219h1.641v7.055h2.391v1.564h-4.031V88.219z"/>
	<path d="M160.566,88.219h4.705v1.605h-3.076v1.559h3.076v1.576h-3.076v2.268h3.076v1.611h-4.705V88.219z"/>
	<path d="M174.758,89.625l-1.155,1.143c-0.731-0.773-1.583-1.16-2.557-1.16c-0.848,0-1.559,0.281-2.131,0.844
		c-0.573,0.563-0.859,1.246-0.859,2.051c0,0.832,0.297,1.537,0.892,2.115s1.328,0.867,2.2,0.867c0.567,0,1.045-0.119,1.434-0.357
		s0.703-0.611,0.941-1.119h-2.496v-1.541h4.336l0.012,0.363c0,0.754-0.195,1.469-0.586,2.145s-0.896,1.191-1.518,1.547
		s-1.35,0.533-2.186,0.533c-0.895,0-1.692-0.194-2.394-0.583s-1.256-0.942-1.664-1.661s-0.612-1.494-0.612-2.326
		c0-1.141,0.377-2.133,1.131-2.977c0.895-1.004,2.059-1.506,3.492-1.506c0.75,0,1.451,0.139,2.104,0.416
		C173.691,88.652,174.23,89.055,174.758,89.625z"/>
	<path d="M179.508,88.219h1.664l3.315,8.619h-1.705l-0.674-1.775h-3.517l-0.701,1.775h-1.705L179.508,88.219z M180.35,90.504
		l-1.156,2.959h2.306L180.35,90.504z"/>
	<path d="M185.756,88.219h1.641v7.055h2.391v1.564h-4.031V88.219z"/>
	<path d="M194.398,88.219h1.574l3.688,5.672v-5.672h1.641v8.619h-1.578l-3.684-5.654v5.654h-1.641V88.219z"/>
	<path d="M207.339,88.002c1.22,0,2.269,0.441,3.146,1.324s1.316,1.959,1.316,3.229c0,1.258-0.434,2.322-1.299,3.193
		s-1.916,1.307-3.151,1.307c-1.294,0-2.369-0.447-3.225-1.342s-1.284-1.957-1.284-3.188c0-0.824,0.199-1.582,0.598-2.273
		c0.398-0.691,0.947-1.239,1.645-1.644S206.533,88.002,207.339,88.002z M207.321,89.607c-0.798,0-1.468,0.277-2.012,0.832
		c-0.544,0.555-0.815,1.26-0.815,2.115c0,0.953,0.342,1.707,1.026,2.262c0.532,0.434,1.142,0.65,1.83,0.65
		c0.778,0,1.44-0.281,1.988-0.844s0.821-1.256,0.821-2.08c0-0.82-0.275-1.515-0.827-2.083S208.111,89.607,207.321,89.607z"/>
	<path d="M212.498,88.219h4.764v1.617h-1.57v7.002h-1.664v-7.002h-1.529V88.219z"/>
	<path d="M218.269,88.219h1.629v8.619h-1.629V88.219z"/>
	<path d="M229.666,89.733l-1.147,1.094c-0.78-0.825-1.659-1.237-2.634-1.237c-0.824,0-1.518,0.282-2.082,0.845
		c-0.563,0.563-0.846,1.257-0.846,2.082c0,0.575,0.125,1.085,0.375,1.531s0.603,0.796,1.059,1.05
		c0.457,0.254,0.965,0.381,1.523,0.381c0.476,0,0.91-0.089,1.305-0.267c0.395-0.178,0.828-0.501,1.3-0.97l1.112,1.16
		c-0.637,0.622-1.238,1.053-1.805,1.293s-1.213,0.36-1.939,0.36c-1.34,0-2.437-0.425-3.29-1.274s-1.28-1.938-1.28-3.267
		c0-0.859,0.194-1.623,0.583-2.291s0.945-1.205,1.67-1.611s1.505-0.609,2.341-0.609c0.711,0,1.396,0.15,2.054,0.45
		C228.622,88.753,229.189,89.18,229.666,89.733z"/>
	<path d="M231.107,88.219h4.705v1.605h-3.076v1.559h3.076v1.576h-3.076v2.268h3.076v1.611h-4.705V88.219z"/>
</g>
<g>
	<path fill="#0F78F4" d="M261.865,287.802c0,5.795-21.222,10.494-47.398,10.494c-26.175,0-47.396-4.699-47.396-10.494
		c0-5.792,21.222-10.491,47.396-10.491C240.643,277.311,261.865,282.01,261.865,287.802z"/>
	<path fill="#0F78F4" d="M406.594,287.802c0,5.795-21.222,10.494-47.396,10.494c-26.178,0-47.399-4.699-47.399-10.494
		c0-5.792,21.222-10.491,47.399-10.491C385.372,277.311,406.594,282.01,406.594,287.802z"/>
	<path fill="#0F78F4" d="M282.49,144.524c0,0-32.202,19.994-43.778,20.13c-8.322-0.231-10.133-0.957-19.902-3.849
		c-9.769-2.895-17.729-5.064-16.282,0.36c2.535,3.62,8.684,7.598,35.099,7.598c11.941,0,34.37-11.938,44.864-17.729
		C282.129,151.035,282.49,144.524,282.49,144.524z"/>
	<path fill="#0F78F4" d="M285.465,144.524c0,0,32.204,19.994,43.783,20.13c8.319-0.231,10.128-0.957,19.897-3.849
		c9.77-2.895,17.732-5.064,16.284,0.36c-2.534,3.62-8.685,7.598-35.098,7.598c-11.938,0-34.374-11.938-44.867-17.729
		C285.828,151.035,285.465,144.524,285.465,144.524z"/>
	<rect x="282.49" y="140.478" fill="#0F78F4" width="3.948" height="161.435"/>
	<rect x="281.043" y="140.478" fill="#0F78F4" width="6.858" height="34.842"/>
	<path fill="#0F78F4" d="M237.068,331.704c0,0,0.676-5.338,10.808-9.306c0.722-2.034,6.514-11.198,18.574-12.162
		c5.305-1.688,7.479-3.619,9.406-6.032c1.93-2.408,7.72-7.475,14.229-2.291c1.69,2.534,7.24,6.876,11.823,8.081
		c4.822,1.206,12.785,1.69,18.813,11.337c5.546,2.655,11.712,7.554,11.143,10.373C325.303,333.875,237.068,331.704,237.068,331.704z
		"/>
	<path fill="#0F78F4" d="M331.865,332.897c0,5.79-21.223,10.49-47.399,10.49s-47.397-4.7-47.397-10.49
		c0-5.798,21.221-10.499,47.397-10.499S331.865,327.1,331.865,332.897z"/>
	<path fill="#0F78F4" d="M173.77,282.424c1.239-0.433,38.527-118.853,37.44-118.97c-1.086-0.116,38.356,120.732,38.356,120.732
		l-39.442-2.17l1.54-110.829"/>
	<path fill="#0F78F4" d="M321.301,282.424c1.237-0.433,38.526-118.853,37.439-118.97c-1.086-0.116,38.353,120.732,38.353,120.732
		l-39.438-2.17l1.544-110.829"/>
</g>
</svg>
