<?xml version="1.0" encoding="utf-8"?>
<!-- Generator: Adobe Illustrator 16.0.0, SVG Export Plug-In . SVG Version: 6.00 Build 0)  -->
<!DOCTYPE svg PUBLIC "-//W3C//DTD SVG 1.1//EN" "http://www.w3.org/Graphics/SVG/1.1/DTD/svg11.dtd">
<svg version="1.1" id="Capa_1" xmlns="http://www.w3.org/2000/svg" xmlns:xlink="http://www.w3.org/1999/xlink" x="0px" y="0px"
	 width="919.08px" height="261.254px" viewBox="0 0 919.08 261.254" enable-background="new 0 0 919.08 261.254"
	 xml:space="preserve">
<g>
	<g>
		<rect x="55.486" y="13.146" fill="#27272B" width="150.154" height="220.333"/>
		
			<image overflow="visible" width="450" height="619" xlink:href="50-Ways-2-450x619.png"  transform="matrix(0.2769 0 0 0.2769 68.6084 19.4194)">
		</image>
		<g>
			<path fill="#FFFFFF" d="M75.88,201.818c1.754,0,3.262,0.635,4.524,1.904c1.262,1.271,1.893,2.818,1.893,4.645
				c0,1.809-0.622,3.34-1.868,4.594c-1.246,1.252-2.756,1.879-4.533,1.879c-1.861,0-3.407-0.645-4.638-1.93
				c-1.231-1.287-1.847-2.816-1.847-4.586c0-1.186,0.287-2.273,0.86-3.27c0.574-0.994,1.362-1.781,2.366-2.363
				C73.641,202.111,74.722,201.818,75.88,201.818z M75.855,204.129c-1.147,0-2.112,0.398-2.894,1.195
				c-0.782,0.799-1.172,1.813-1.172,3.043c0,1.371,0.492,2.455,1.476,3.254c0.765,0.623,1.642,0.934,2.632,0.934
				c1.119,0,2.072-0.402,2.86-1.213c0.788-0.809,1.181-1.805,1.181-2.992c0-1.18-0.397-2.178-1.189-2.994
				C77.956,204.537,76.991,204.129,75.855,204.129z"/>
			<path fill="#FFFFFF" d="M84.27,205.359h2.301v0.939c0.521-0.439,0.994-0.746,1.418-0.918c0.423-0.172,0.857-0.258,1.3-0.258
				c0.909,0,1.68,0.316,2.314,0.951c0.533,0.539,0.799,1.338,0.799,2.395v6.061h-2.275v-4.016c0-1.096-0.049-1.822-0.147-2.182
				c-0.098-0.357-0.269-0.633-0.513-0.82c-0.244-0.188-0.545-0.283-0.904-0.283c-0.465,0-0.865,0.156-1.198,0.469
				c-0.333,0.311-0.564,0.742-0.694,1.291c-0.067,0.287-0.101,0.906-0.101,1.861v3.68H84.27V205.359z"/>
			<path fill="#FFFFFF" d="M94.375,201.818h2.301v12.711h-2.301V201.818z"/>
			<path fill="#FFFFFF" d="M99.663,201.584c0.403,0,0.749,0.145,1.038,0.438s0.433,0.646,0.433,1.061
				c0,0.41-0.143,0.762-0.429,1.051c-0.285,0.289-0.627,0.434-1.025,0.434c-0.409,0-0.757-0.148-1.046-0.441
				c-0.289-0.297-0.433-0.654-0.433-1.076c0-0.404,0.143-0.75,0.429-1.035C98.915,201.727,99.259,201.584,99.663,201.584z
				 M98.512,205.359h2.301v9.17h-2.301V205.359z"/>
			<path fill="#FFFFFF" d="M102.903,205.359h2.301v0.939c0.521-0.439,0.994-0.746,1.417-0.918s0.857-0.258,1.3-0.258
				c0.909,0,1.68,0.316,2.314,0.951c0.533,0.539,0.799,1.338,0.799,2.395v6.061h-2.275v-4.016c0-1.096-0.049-1.822-0.147-2.182
				c-0.098-0.357-0.269-0.633-0.513-0.82c-0.244-0.188-0.545-0.283-0.904-0.283c-0.465,0-0.864,0.156-1.198,0.469
				c-0.333,0.311-0.564,0.742-0.694,1.291c-0.067,0.287-0.1,0.906-0.1,1.861v3.68h-2.301V205.359z"/>
			<path fill="#FFFFFF" d="M122.447,210.609h-7.391c0.106,0.652,0.392,1.17,0.855,1.555c0.464,0.385,1.055,0.576,1.774,0.576
				c0.86,0,1.598-0.299,2.217-0.9l1.938,0.91c-0.483,0.686-1.063,1.191-1.737,1.521c-0.674,0.328-1.474,0.492-2.401,0.492
				c-1.438,0-2.61-0.453-3.515-1.361c-0.904-0.906-1.356-2.043-1.356-3.408c0-1.398,0.451-2.561,1.353-3.484
				c0.902-0.926,2.032-1.387,3.392-1.387c1.444,0,2.618,0.461,3.523,1.387c0.904,0.924,1.356,2.145,1.356,3.66L122.447,210.609z
				 M120.146,208.797c-0.152-0.512-0.452-0.926-0.899-1.248c-0.448-0.32-0.966-0.479-1.558-0.479c-0.642,0-1.205,0.18-1.688,0.539
				c-0.303,0.225-0.585,0.621-0.844,1.188H120.146z"/>
			<path fill="#FFFFFF" d="M135.897,203.816l-1.748,1.543c-0.613-0.855-1.238-1.281-1.874-1.281c-0.31,0-0.563,0.084-0.76,0.248
				c-0.197,0.166-0.296,0.352-0.296,0.561c0,0.207,0.071,0.404,0.211,0.59c0.191,0.248,0.768,0.779,1.73,1.594
				c0.901,0.752,1.446,1.227,1.638,1.424c0.479,0.482,0.817,0.945,1.018,1.387c0.2,0.439,0.299,0.922,0.299,1.443
				c0,1.018-0.351,1.859-1.055,2.521c-0.703,0.662-1.62,0.994-2.75,0.994c-0.883,0-1.652-0.217-2.307-0.648
				c-0.655-0.434-1.217-1.113-1.684-2.039l1.984-1.197c0.596,1.096,1.283,1.643,2.059,1.643c0.405,0,0.746-0.117,1.021-0.354
				c0.276-0.236,0.414-0.51,0.414-0.818c0-0.281-0.104-0.561-0.313-0.842c-0.208-0.281-0.667-0.711-1.376-1.289
				c-1.351-1.102-2.223-1.951-2.617-2.549c-0.395-0.6-0.591-1.197-0.591-1.793c0-0.859,0.328-1.596,0.983-2.211
				s1.464-0.924,2.426-0.924c0.619,0,1.208,0.145,1.767,0.43C134.638,202.535,135.244,203.059,135.897,203.816z"/>
			<path fill="#FFFFFF" d="M138.392,201.979h2.301v3.381h1.365v1.98h-1.365v7.189h-2.301v-7.189h-1.18v-1.98h1.18V201.979z"/>
			<path fill="#FFFFFF" d="M147.595,205.123c0.865,0,1.678,0.215,2.439,0.648c0.761,0.432,1.355,1.02,1.783,1.762
				s0.641,1.541,0.641,2.4c0,0.867-0.215,1.676-0.645,2.43c-0.43,0.752-1.016,1.34-1.757,1.764s-1.559,0.637-2.453,0.637
				c-1.314,0-2.437-0.467-3.367-1.402s-1.395-2.072-1.395-3.41c0-1.432,0.526-2.625,1.576-3.582
				C145.339,205.539,146.398,205.123,147.595,205.123z M147.633,207.289c-0.715,0-1.31,0.248-1.786,0.746
				c-0.476,0.496-0.713,1.133-0.713,1.908c0,0.797,0.235,1.443,0.705,1.938c0.47,0.496,1.065,0.742,1.785,0.742
				s1.32-0.25,1.798-0.75c0.479-0.5,0.718-1.143,0.718-1.93s-0.235-1.426-0.705-1.918
				C148.965,207.535,148.364,207.289,147.633,207.289z"/>
			<path fill="#FFFFFF" d="M153.797,205.359h1.973v1.154c0.213-0.455,0.497-0.801,0.851-1.037c0.354-0.236,0.741-0.354,1.163-0.354
				c0.298,0,0.61,0.078,0.936,0.236l-0.716,1.98c-0.27-0.135-0.492-0.203-0.666-0.203c-0.354,0-0.653,0.221-0.898,0.658
				c-0.244,0.438-0.367,1.297-0.367,2.578l0.009,0.447v3.709h-2.284V205.359z"/>
			<path fill="#FFFFFF" d="M169.042,210.609h-7.391c0.106,0.652,0.392,1.17,0.855,1.555c0.464,0.385,1.055,0.576,1.774,0.576
				c0.86,0,1.598-0.299,2.217-0.9l1.938,0.91c-0.483,0.686-1.063,1.191-1.737,1.521c-0.674,0.328-1.475,0.492-2.401,0.492
				c-1.438,0-2.61-0.453-3.515-1.361c-0.904-0.906-1.356-2.043-1.356-3.408c0-1.398,0.451-2.561,1.353-3.484
				c0.902-0.926,2.032-1.387,3.392-1.387c1.444,0,2.618,0.461,3.522,1.387c0.905,0.924,1.357,2.145,1.357,3.66L169.042,210.609z
				 M166.742,208.797c-0.152-0.512-0.452-0.926-0.899-1.248c-0.448-0.32-0.967-0.479-1.558-0.479c-0.642,0-1.205,0.18-1.688,0.539
				c-0.304,0.225-0.585,0.621-0.844,1.188H166.742z"/>
		</g>
		<g>
			<path fill="#BE0411" d="M99.973,240.328h1.71v9.051h-1.71V240.328z"/>
			<path fill="#BE0411" d="M103.627,240.328h1.652l3.873,5.955v-5.955h1.723v9.051h-1.657l-3.868-5.938v5.938h-1.723V240.328z"/>
			<path fill="#BE0411" d="M112.819,240.328h1.71v9.051h-1.71V240.328z"/>
			<path fill="#BE0411" d="M124.786,241.918l-1.205,1.148c-0.82-0.865-1.742-1.299-2.766-1.299c-0.865,0-1.593,0.295-2.186,0.887
				c-0.592,0.592-0.888,1.32-0.888,2.186c0,0.605,0.131,1.141,0.393,1.607c0.263,0.469,0.633,0.838,1.113,1.104
				c0.48,0.268,1.013,0.4,1.599,0.4c0.5,0,0.957-0.094,1.371-0.281s0.869-0.525,1.365-1.018l1.168,1.217
				c-0.668,0.654-1.3,1.105-1.895,1.359c-0.595,0.252-1.273,0.377-2.037,0.377c-1.407,0-2.559-0.445-3.455-1.338
				s-1.344-2.035-1.344-3.43c0-0.902,0.204-1.705,0.612-2.406c0.408-0.701,0.992-1.266,1.753-1.691
				c0.761-0.426,1.58-0.641,2.458-0.641c0.746,0,1.465,0.158,2.156,0.473C123.689,240.889,124.286,241.338,124.786,241.918z"/>
			<path fill="#BE0411" d="M126.17,240.328h1.71v9.051h-1.71V240.328z"/>
			<path fill="#BE0411" d="M132.58,240.328h1.747l3.481,9.051h-1.791l-0.708-1.865h-3.693l-0.736,1.865h-1.791L132.58,240.328z
				 M133.464,242.727l-1.214,3.107h2.421L133.464,242.727z"/>
			<path fill="#BE0411" d="M139.256,240.328h1.826c1,0,1.711,0.09,2.135,0.268s0.765,0.475,1.023,0.889
				c0.258,0.414,0.387,0.904,0.387,1.471c0,0.596-0.143,1.092-0.428,1.492s-0.715,0.703-1.289,0.908l2.144,4.023h-1.883
				l-2.035-3.834h-0.158v3.834h-1.723V240.328z M140.979,243.865h0.54c0.548,0,0.925-0.072,1.132-0.215
				c0.207-0.145,0.31-0.383,0.31-0.717c0-0.197-0.051-0.369-0.153-0.516c-0.103-0.146-0.239-0.25-0.411-0.314
				s-0.487-0.096-0.944-0.096h-0.472V243.865z"/>
		</g>
	</g>
	<g>
		<rect x="217.708" y="13.146" fill="#27272B" width="150.153" height="220.333"/>
		
			<image overflow="visible" width="450" height="619" xlink:href="../../Recursos Proyecto Clientes/PARSON TRAINING/DISENO WEB/Para las portadas de los ebook/Ideas inspiracion/101_dropshipping_cover_450x619.jpg"  transform="matrix(0.2769 0 0 0.2769 230.8296 19.4199)">
		</image>
		<g>
			<path fill="#FFFFFF" d="M238.102,201.818c1.754,0,3.262,0.635,4.524,1.904c1.263,1.271,1.894,2.818,1.894,4.645
				c0,1.809-0.623,3.34-1.868,4.594c-1.246,1.252-2.756,1.879-4.533,1.879c-1.861,0-3.407-0.645-4.638-1.93
				c-1.231-1.287-1.847-2.816-1.847-4.586c0-1.186,0.287-2.273,0.86-3.27c0.574-0.994,1.362-1.781,2.366-2.363
				C235.863,202.111,236.944,201.818,238.102,201.818z M238.077,204.129c-1.147,0-2.112,0.398-2.894,1.195
				c-0.782,0.799-1.172,1.813-1.172,3.043c0,1.371,0.492,2.455,1.476,3.254c0.765,0.623,1.642,0.934,2.632,0.934
				c1.119,0,2.072-0.402,2.86-1.213c0.788-0.809,1.181-1.805,1.181-2.992c0-1.18-0.397-2.178-1.189-2.994
				C240.178,204.537,239.213,204.129,238.077,204.129z"/>
			<path fill="#FFFFFF" d="M246.492,205.359h2.301v0.939c0.521-0.439,0.994-0.746,1.417-0.918c0.424-0.172,0.857-0.258,1.3-0.258
				c0.909,0,1.68,0.316,2.314,0.951c0.533,0.539,0.799,1.338,0.799,2.395v6.061h-2.275v-4.016c0-1.096-0.049-1.822-0.147-2.182
				c-0.098-0.357-0.269-0.633-0.513-0.82c-0.244-0.188-0.545-0.283-0.904-0.283c-0.465,0-0.865,0.156-1.198,0.469
				c-0.333,0.311-0.564,0.742-0.694,1.291c-0.067,0.287-0.101,0.906-0.101,1.861v3.68h-2.301V205.359z"/>
			<path fill="#FFFFFF" d="M256.597,201.818h2.301v12.711h-2.301V201.818z"/>
			<path fill="#FFFFFF" d="M261.885,201.584c0.403,0,0.749,0.145,1.038,0.438s0.433,0.646,0.433,1.061
				c0,0.41-0.143,0.762-0.429,1.051c-0.286,0.289-0.627,0.434-1.025,0.434c-0.409,0-0.758-0.148-1.046-0.441
				c-0.289-0.297-0.433-0.654-0.433-1.076c0-0.404,0.143-0.75,0.429-1.035C261.137,201.727,261.481,201.584,261.885,201.584z
				 M260.734,205.359h2.301v9.17h-2.301V205.359z"/>
			<path fill="#FFFFFF" d="M265.125,205.359h2.301v0.939c0.521-0.439,0.994-0.746,1.418-0.918c0.423-0.172,0.857-0.258,1.3-0.258
				c0.909,0,1.68,0.316,2.314,0.951c0.534,0.539,0.8,1.338,0.8,2.395v6.061h-2.276v-4.016c0-1.096-0.049-1.822-0.147-2.182
				c-0.098-0.357-0.269-0.633-0.513-0.82c-0.244-0.188-0.545-0.283-0.904-0.283c-0.465,0-0.865,0.156-1.198,0.469
				c-0.333,0.311-0.564,0.742-0.694,1.291c-0.067,0.287-0.101,0.906-0.101,1.861v3.68h-2.301V205.359z"/>
			<path fill="#FFFFFF" d="M284.669,210.609h-7.391c0.106,0.652,0.392,1.17,0.855,1.555s1.055,0.576,1.774,0.576
				c0.86,0,1.598-0.299,2.217-0.9l1.938,0.91c-0.483,0.686-1.063,1.191-1.737,1.521c-0.674,0.328-1.474,0.492-2.401,0.492
				c-1.438,0-2.61-0.453-3.515-1.361c-0.904-0.906-1.356-2.043-1.356-3.408c0-1.398,0.451-2.561,1.353-3.484
				c0.902-0.926,2.032-1.387,3.392-1.387c1.444,0,2.618,0.461,3.522,1.387c0.905,0.924,1.357,2.145,1.357,3.66L284.669,210.609z
				 M282.369,208.797c-0.152-0.512-0.452-0.926-0.899-1.248c-0.448-0.32-0.966-0.479-1.558-0.479c-0.642,0-1.205,0.18-1.688,0.539
				c-0.304,0.225-0.585,0.621-0.844,1.188H282.369z"/>
			<path fill="#FFFFFF" d="M298.119,203.816l-1.748,1.543c-0.613-0.855-1.238-1.281-1.874-1.281c-0.31,0-0.563,0.084-0.76,0.248
				c-0.197,0.166-0.296,0.352-0.296,0.561c0,0.207,0.071,0.404,0.211,0.59c0.191,0.248,0.768,0.779,1.73,1.594
				c0.9,0.752,1.446,1.227,1.638,1.424c0.479,0.482,0.817,0.945,1.018,1.387c0.2,0.439,0.299,0.922,0.299,1.443
				c0,1.018-0.351,1.859-1.055,2.521c-0.703,0.662-1.62,0.994-2.75,0.994c-0.883,0-1.652-0.217-2.308-0.648
				c-0.655-0.434-1.216-1.113-1.683-2.039l1.984-1.197c0.596,1.096,1.283,1.643,2.059,1.643c0.405,0,0.746-0.117,1.021-0.354
				c0.276-0.236,0.414-0.51,0.414-0.818c0-0.281-0.104-0.561-0.313-0.842c-0.208-0.281-0.667-0.711-1.376-1.289
				c-1.351-1.102-2.223-1.951-2.617-2.549c-0.395-0.6-0.591-1.197-0.591-1.793c0-0.859,0.328-1.596,0.983-2.211
				s1.464-0.924,2.426-0.924c0.619,0,1.208,0.145,1.767,0.43C296.86,202.535,297.466,203.059,298.119,203.816z"/>
			<path fill="#FFFFFF" d="M300.614,201.979h2.3v3.381h1.366v1.98h-1.366v7.189h-2.3v-7.189h-1.18v-1.98h1.18V201.979z"/>
			<path fill="#FFFFFF" d="M309.817,205.123c0.865,0,1.678,0.215,2.439,0.648c0.761,0.432,1.355,1.02,1.783,1.762
				s0.641,1.541,0.641,2.4c0,0.867-0.215,1.676-0.645,2.43c-0.43,0.752-1.016,1.34-1.757,1.764s-1.559,0.637-2.453,0.637
				c-1.314,0-2.437-0.467-3.367-1.402s-1.395-2.072-1.395-3.41c0-1.432,0.525-2.625,1.576-3.582
				C307.561,205.539,308.62,205.123,309.817,205.123z M309.855,207.289c-0.715,0-1.31,0.248-1.786,0.746
				c-0.475,0.496-0.713,1.133-0.713,1.908c0,0.797,0.235,1.443,0.705,1.938c0.469,0.496,1.065,0.742,1.785,0.742
				s1.32-0.25,1.798-0.75c0.479-0.5,0.718-1.143,0.718-1.93s-0.235-1.426-0.705-1.918
				C311.187,207.535,310.586,207.289,309.855,207.289z"/>
			<path fill="#FFFFFF" d="M316.019,205.359h1.973v1.154c0.213-0.455,0.497-0.801,0.851-1.037c0.354-0.236,0.741-0.354,1.163-0.354
				c0.298,0,0.61,0.078,0.936,0.236l-0.716,1.98c-0.27-0.135-0.492-0.203-0.666-0.203c-0.354,0-0.653,0.221-0.898,0.658
				c-0.244,0.438-0.367,1.297-0.367,2.578l0.009,0.447v3.709h-2.284V205.359z"/>
			<path fill="#FFFFFF" d="M331.265,210.609h-7.391c0.106,0.652,0.392,1.17,0.855,1.555s1.055,0.576,1.774,0.576
				c0.86,0,1.598-0.299,2.217-0.9l1.938,0.91c-0.483,0.686-1.063,1.191-1.737,1.521c-0.674,0.328-1.475,0.492-2.401,0.492
				c-1.438,0-2.61-0.453-3.515-1.361c-0.904-0.906-1.356-2.043-1.356-3.408c0-1.398,0.451-2.561,1.353-3.484
				c0.902-0.926,2.032-1.387,3.392-1.387c1.443,0,2.618,0.461,3.522,1.387c0.905,0.924,1.357,2.145,1.357,3.66L331.265,210.609z
				 M328.964,208.797c-0.152-0.512-0.452-0.926-0.899-1.248c-0.448-0.32-0.967-0.479-1.558-0.479c-0.642,0-1.205,0.18-1.688,0.539
				c-0.304,0.225-0.585,0.621-0.844,1.188H328.964z"/>
		</g>
		<g>
			<path fill="#BE0411" d="M262.195,240.328h1.71v9.051h-1.71V240.328z"/>
			<path fill="#BE0411" d="M265.85,240.328h1.652l3.873,5.955v-5.955h1.723v9.051h-1.657l-3.868-5.938v5.938h-1.723V240.328z"/>
			<path fill="#BE0411" d="M275.042,240.328h1.71v9.051h-1.71V240.328z"/>
			<path fill="#BE0411" d="M287.008,241.918l-1.205,1.148c-0.82-0.865-1.742-1.299-2.766-1.299c-0.865,0-1.593,0.295-2.186,0.887
				c-0.592,0.592-0.888,1.32-0.888,2.186c0,0.605,0.131,1.141,0.393,1.607c0.263,0.469,0.633,0.838,1.113,1.104
				c0.48,0.268,1.013,0.4,1.599,0.4c0.5,0,0.957-0.094,1.371-0.281s0.869-0.525,1.365-1.018l1.168,1.217
				c-0.669,0.654-1.3,1.105-1.895,1.359c-0.595,0.252-1.273,0.377-2.037,0.377c-1.407,0-2.559-0.445-3.455-1.338
				c-0.896-0.893-1.344-2.035-1.344-3.43c0-0.902,0.204-1.705,0.612-2.406c0.408-0.701,0.993-1.266,1.754-1.691
				c0.761-0.426,1.58-0.641,2.458-0.641c0.747,0,1.465,0.158,2.157,0.473C285.912,240.889,286.507,241.338,287.008,241.918z"/>
			<path fill="#BE0411" d="M288.392,240.328h1.71v9.051h-1.71V240.328z"/>
			<path fill="#BE0411" d="M294.802,240.328h1.747l3.481,9.051h-1.791l-0.708-1.865h-3.693l-0.736,1.865h-1.791L294.802,240.328z
				 M295.686,242.727l-1.214,3.107h2.421L295.686,242.727z"/>
			<path fill="#BE0411" d="M301.479,240.328h1.825c1,0,1.712,0.09,2.136,0.268s0.765,0.475,1.023,0.889
				c0.258,0.414,0.387,0.904,0.387,1.471c0,0.596-0.142,1.092-0.427,1.492s-0.715,0.703-1.289,0.908l2.144,4.023h-1.883
				l-2.035-3.834h-0.158v3.834h-1.723V240.328z M303.201,243.865h0.54c0.548,0,0.925-0.072,1.132-0.215
				c0.207-0.145,0.31-0.383,0.31-0.717c0-0.197-0.051-0.369-0.153-0.516c-0.103-0.146-0.24-0.25-0.411-0.314
				c-0.172-0.064-0.487-0.096-0.944-0.096h-0.473V243.865z"/>
		</g>
	</g>
	<g>
		<rect x="379.931" y="13.146" fill="#27272B" width="150.154" height="220.333"/>
		
			<image overflow="visible" width="450" height="619" xlink:href="../../Recursos Proyecto Clientes/PARSON TRAINING/DISENO WEB/Para las portadas de los ebook/Ideas inspiracion/2019_Smaller_thumb_450x619.png"  transform="matrix(0.2769 0 0 0.2769 393.0522 19.4199)">
		</image>
		<g>
			<path fill="#FFFFFF" d="M400.324,201.818c1.754,0,3.262,0.635,4.524,1.904c1.262,1.271,1.894,2.818,1.894,4.645
				c0,1.809-0.623,3.34-1.868,4.594c-1.246,1.252-2.756,1.879-4.533,1.879c-1.86,0-3.407-0.645-4.638-1.93
				c-1.231-1.287-1.847-2.816-1.847-4.586c0-1.186,0.287-2.273,0.86-3.27c0.574-0.994,1.362-1.781,2.366-2.363
				C398.085,202.111,399.166,201.818,400.324,201.818z M400.299,204.129c-1.147,0-2.112,0.398-2.894,1.195
				c-0.782,0.799-1.172,1.813-1.172,3.043c0,1.371,0.492,2.455,1.476,3.254c0.765,0.623,1.642,0.934,2.632,0.934
				c1.12,0,2.073-0.402,2.86-1.213c0.787-0.809,1.181-1.805,1.181-2.992c0-1.18-0.397-2.178-1.189-2.994
				C402.399,204.537,401.435,204.129,400.299,204.129z"/>
			<path fill="#FFFFFF" d="M408.714,205.359h2.301v0.939c0.521-0.439,0.994-0.746,1.417-0.918c0.424-0.172,0.857-0.258,1.3-0.258
				c0.909,0,1.68,0.316,2.314,0.951c0.533,0.539,0.799,1.338,0.799,2.395v6.061h-2.275v-4.016c0-1.096-0.049-1.822-0.147-2.182
				c-0.098-0.357-0.27-0.633-0.513-0.82c-0.244-0.188-0.545-0.283-0.904-0.283c-0.465,0-0.864,0.156-1.198,0.469
				c-0.333,0.311-0.565,0.742-0.694,1.291c-0.067,0.287-0.101,0.906-0.101,1.861v3.68h-2.301V205.359z"/>
			<path fill="#FFFFFF" d="M418.819,201.818h2.301v12.711h-2.301V201.818z"/>
			<path fill="#FFFFFF" d="M424.107,201.584c0.403,0,0.749,0.145,1.038,0.438s0.433,0.646,0.433,1.061
				c0,0.41-0.143,0.762-0.429,1.051c-0.286,0.289-0.627,0.434-1.025,0.434c-0.409,0-0.758-0.148-1.046-0.441
				c-0.289-0.297-0.433-0.654-0.433-1.076c0-0.404,0.143-0.75,0.429-1.035C423.359,201.727,423.703,201.584,424.107,201.584z
				 M422.956,205.359h2.301v9.17h-2.301V205.359z"/>
			<path fill="#FFFFFF" d="M427.347,205.359h2.301v0.939c0.521-0.439,0.994-0.746,1.418-0.918c0.423-0.172,0.857-0.258,1.3-0.258
				c0.909,0,1.68,0.316,2.314,0.951c0.533,0.539,0.799,1.338,0.799,2.395v6.061h-2.275v-4.016c0-1.096-0.049-1.822-0.147-2.182
				c-0.098-0.357-0.269-0.633-0.513-0.82c-0.244-0.188-0.545-0.283-0.904-0.283c-0.465,0-0.865,0.156-1.198,0.469
				c-0.333,0.311-0.564,0.742-0.694,1.291c-0.067,0.287-0.101,0.906-0.101,1.861v3.68h-2.301V205.359z"/>
			<path fill="#FFFFFF" d="M446.891,210.609H439.5c0.106,0.652,0.392,1.17,0.855,1.555s1.055,0.576,1.774,0.576
				c0.86,0,1.598-0.299,2.217-0.9l1.938,0.91c-0.483,0.686-1.063,1.191-1.737,1.521c-0.674,0.328-1.475,0.492-2.401,0.492
				c-1.438,0-2.61-0.453-3.515-1.361c-0.904-0.906-1.356-2.043-1.356-3.408c0-1.398,0.451-2.561,1.353-3.484
				c0.902-0.926,2.032-1.387,3.392-1.387c1.444,0,2.618,0.461,3.522,1.387c0.905,0.924,1.357,2.145,1.357,3.66L446.891,210.609z
				 M444.59,208.797c-0.152-0.512-0.452-0.926-0.899-1.248c-0.448-0.32-0.967-0.479-1.558-0.479c-0.642,0-1.205,0.18-1.688,0.539
				c-0.304,0.225-0.585,0.621-0.844,1.188H444.59z"/>
			<path fill="#FFFFFF" d="M460.341,203.816l-1.748,1.543c-0.613-0.855-1.238-1.281-1.874-1.281c-0.31,0-0.563,0.084-0.76,0.248
				c-0.197,0.166-0.296,0.352-0.296,0.561c0,0.207,0.071,0.404,0.211,0.59c0.191,0.248,0.768,0.779,1.73,1.594
				c0.901,0.752,1.447,1.227,1.638,1.424c0.479,0.482,0.817,0.945,1.018,1.387c0.199,0.439,0.299,0.922,0.299,1.443
				c0,1.018-0.351,1.859-1.054,2.521c-0.703,0.662-1.62,0.994-2.75,0.994c-0.883,0-1.652-0.217-2.307-0.648
				c-0.655-0.434-1.216-1.113-1.683-2.039l1.984-1.197c0.596,1.096,1.283,1.643,2.059,1.643c0.405,0,0.746-0.117,1.021-0.354
				c0.276-0.236,0.414-0.51,0.414-0.818c0-0.281-0.104-0.561-0.313-0.842c-0.208-0.281-0.667-0.711-1.376-1.289
				c-1.351-1.102-2.223-1.951-2.617-2.549c-0.395-0.6-0.591-1.197-0.591-1.793c0-0.859,0.328-1.596,0.983-2.211
				s1.464-0.924,2.426-0.924c0.619,0,1.208,0.145,1.768,0.43C459.083,202.535,459.688,203.059,460.341,203.816z"/>
			<path fill="#FFFFFF" d="M462.836,201.979h2.3v3.381h1.366v1.98h-1.366v7.189h-2.3v-7.189h-1.18v-1.98h1.18V201.979z"/>
			<path fill="#FFFFFF" d="M472.039,205.123c0.864,0,1.679,0.215,2.439,0.648c0.761,0.432,1.355,1.02,1.782,1.762
				c0.428,0.742,0.641,1.541,0.641,2.4c0,0.867-0.215,1.676-0.645,2.43c-0.43,0.752-1.016,1.34-1.757,1.764s-1.56,0.637-2.452,0.637
				c-1.315,0-2.438-0.467-3.367-1.402s-1.395-2.072-1.395-3.41c0-1.432,0.525-2.625,1.576-3.582
				C469.783,205.539,470.843,205.123,472.039,205.123z M472.077,207.289c-0.715,0-1.311,0.248-1.786,0.746
				c-0.476,0.496-0.713,1.133-0.713,1.908c0,0.797,0.235,1.443,0.705,1.938c0.47,0.496,1.064,0.742,1.785,0.742
				c0.72,0,1.319-0.25,1.798-0.75s0.718-1.143,0.718-1.93s-0.235-1.426-0.705-1.918
				C473.409,207.535,472.809,207.289,472.077,207.289z"/>
			<path fill="#FFFFFF" d="M478.241,205.359h1.973v1.154c0.213-0.455,0.496-0.801,0.852-1.037c0.354-0.236,0.74-0.354,1.162-0.354
				c0.298,0,0.609,0.078,0.936,0.236l-0.716,1.98c-0.271-0.135-0.491-0.203-0.666-0.203c-0.354,0-0.653,0.221-0.897,0.658
				s-0.367,1.297-0.367,2.578l0.009,0.447v3.709h-2.284V205.359z"/>
			<path fill="#FFFFFF" d="M493.487,210.609h-7.391c0.105,0.652,0.391,1.17,0.854,1.555s1.055,0.576,1.774,0.576
				c0.859,0,1.598-0.299,2.216-0.9l1.938,0.91c-0.483,0.686-1.063,1.191-1.736,1.521c-0.674,0.328-1.475,0.492-2.401,0.492
				c-1.438,0-2.61-0.453-3.515-1.361c-0.904-0.906-1.356-2.043-1.356-3.408c0-1.398,0.45-2.561,1.353-3.484
				c0.901-0.926,2.032-1.387,3.392-1.387c1.444,0,2.618,0.461,3.522,1.387c0.905,0.924,1.357,2.145,1.357,3.66L493.487,210.609z
				 M491.187,208.797c-0.152-0.512-0.452-0.926-0.899-1.248c-0.448-0.32-0.967-0.479-1.558-0.479c-0.642,0-1.205,0.18-1.688,0.539
				c-0.304,0.225-0.585,0.621-0.844,1.188H491.187z"/>
		</g>
		<g>
			<path fill="#BE0411" d="M424.417,240.328h1.71v9.051h-1.71V240.328z"/>
			<path fill="#BE0411" d="M428.071,240.328h1.653l3.873,5.955v-5.955h1.723v9.051h-1.657l-3.868-5.938v5.938h-1.723V240.328z"/>
			<path fill="#BE0411" d="M437.264,240.328h1.71v9.051h-1.71V240.328z"/>
			<path fill="#BE0411" d="M449.23,241.918l-1.205,1.148c-0.82-0.865-1.742-1.299-2.766-1.299c-0.865,0-1.593,0.295-2.186,0.887
				c-0.591,0.592-0.888,1.32-0.888,2.186c0,0.605,0.131,1.141,0.393,1.607c0.263,0.469,0.633,0.838,1.113,1.104
				c0.48,0.268,1.013,0.4,1.599,0.4c0.5,0,0.957-0.094,1.37-0.281c0.415-0.188,0.869-0.525,1.365-1.018l1.168,1.217
				c-0.669,0.654-1.3,1.105-1.895,1.359c-0.595,0.252-1.274,0.377-2.037,0.377c-1.407,0-2.559-0.445-3.455-1.338
				c-0.896-0.893-1.344-2.035-1.344-3.43c0-0.902,0.204-1.705,0.612-2.406c0.408-0.701,0.993-1.266,1.753-1.691
				c0.761-0.426,1.581-0.641,2.458-0.641c0.747,0,1.465,0.158,2.157,0.473C448.134,240.889,448.729,241.338,449.23,241.918z"/>
			<path fill="#BE0411" d="M450.614,240.328h1.71v9.051h-1.71V240.328z"/>
			<path fill="#BE0411" d="M457.024,240.328h1.747l3.481,9.051h-1.79l-0.708-1.865h-3.693l-0.736,1.865h-1.791L457.024,240.328z
				 M457.908,242.727l-1.214,3.107h2.421L457.908,242.727z"/>
			<path fill="#BE0411" d="M463.7,240.328h1.826c1,0,1.711,0.09,2.135,0.268s0.766,0.475,1.023,0.889s0.387,0.904,0.387,1.471
				c0,0.596-0.142,1.092-0.427,1.492s-0.715,0.703-1.289,0.908l2.144,4.023h-1.883l-2.035-3.834h-0.158v3.834H463.7V240.328z
				 M465.423,243.865h0.541c0.547,0,0.924-0.072,1.131-0.215c0.207-0.145,0.311-0.383,0.311-0.717c0-0.197-0.052-0.369-0.154-0.516
				c-0.102-0.146-0.239-0.25-0.41-0.314c-0.172-0.064-0.487-0.096-0.945-0.096h-0.473V243.865z"/>
		</g>
	</g>
	<g>
		<rect x="542.152" y="13.146" fill="#27272B" width="150.154" height="220.333"/>
		
			<image overflow="visible" width="450" height="619" xlink:href="../../Recursos Proyecto Clientes/PARSON TRAINING/DISENO WEB/Para las portadas de los ebook/Ideas inspiracion/cover-450x619.jpg"  transform="matrix(0.2769 0 0 0.2769 555.2744 19.4199)">
		</image>
		<g>
			<path fill="#FFFFFF" d="M562.546,201.818c1.754,0,3.263,0.635,4.524,1.904c1.263,1.271,1.894,2.818,1.894,4.645
				c0,1.809-0.622,3.34-1.867,4.594c-1.246,1.252-2.757,1.879-4.533,1.879c-1.861,0-3.408-0.645-4.639-1.93
				c-1.231-1.287-1.847-2.816-1.847-4.586c0-1.186,0.286-2.273,0.86-3.27c0.573-0.994,1.362-1.781,2.365-2.363
				C560.308,202.111,561.388,201.818,562.546,201.818z M562.521,204.129c-1.147,0-2.112,0.398-2.894,1.195
				c-0.782,0.799-1.174,1.813-1.174,3.043c0,1.371,0.492,2.455,1.477,3.254c0.766,0.623,1.643,0.934,2.633,0.934
				c1.118,0,2.072-0.402,2.859-1.213c0.788-0.809,1.182-1.805,1.182-2.992c0-1.18-0.396-2.178-1.189-2.994
				C564.621,204.537,563.657,204.129,562.521,204.129z"/>
			<path fill="#FFFFFF" d="M570.936,205.359h2.302v0.939c0.521-0.439,0.994-0.746,1.417-0.918c0.424-0.172,0.856-0.258,1.3-0.258
				c0.909,0,1.681,0.316,2.315,0.951c0.533,0.539,0.799,1.338,0.799,2.395v6.061h-2.275v-4.016c0-1.096-0.049-1.822-0.147-2.182
				c-0.098-0.357-0.269-0.633-0.513-0.82s-0.545-0.283-0.903-0.283c-0.465,0-0.865,0.156-1.199,0.469
				c-0.332,0.311-0.563,0.742-0.693,1.291c-0.067,0.287-0.1,0.906-0.1,1.861v3.68h-2.302V205.359z"/>
			<path fill="#FFFFFF" d="M581.04,201.818h2.301v12.711h-2.301V201.818z"/>
			<path fill="#FFFFFF" d="M586.329,201.584c0.403,0,0.749,0.145,1.038,0.438c0.288,0.293,0.433,0.646,0.433,1.061
				c0,0.41-0.144,0.762-0.429,1.051c-0.286,0.289-0.628,0.434-1.025,0.434c-0.409,0-0.758-0.148-1.046-0.441
				c-0.289-0.297-0.433-0.654-0.433-1.076c0-0.404,0.142-0.75,0.429-1.035C585.581,201.727,585.926,201.584,586.329,201.584z
				 M585.179,205.359h2.301v9.17h-2.301V205.359z"/>
			<path fill="#FFFFFF" d="M589.569,205.359h2.302v0.939c0.521-0.439,0.993-0.746,1.417-0.918s0.857-0.258,1.3-0.258
				c0.909,0,1.68,0.316,2.314,0.951c0.533,0.539,0.799,1.338,0.799,2.395v6.061h-2.274v-4.016c0-1.096-0.049-1.822-0.147-2.182
				c-0.099-0.357-0.269-0.633-0.513-0.82s-0.546-0.283-0.904-0.283c-0.465,0-0.863,0.156-1.198,0.469
				c-0.333,0.311-0.563,0.742-0.692,1.291c-0.068,0.287-0.101,0.906-0.101,1.861v3.68h-2.302V205.359z"/>
			<path fill="#FFFFFF" d="M609.113,210.609h-7.391c0.107,0.652,0.392,1.17,0.855,1.555s1.054,0.576,1.774,0.576
				c0.859,0,1.598-0.299,2.216-0.9l1.938,0.91c-0.483,0.686-1.062,1.191-1.736,1.521c-0.675,0.328-1.475,0.492-2.402,0.492
				c-1.438,0-2.609-0.453-3.515-1.361c-0.904-0.906-1.355-2.043-1.355-3.408c0-1.398,0.45-2.561,1.352-3.484
				c0.902-0.926,2.032-1.387,3.392-1.387c1.444,0,2.619,0.461,3.523,1.387c0.904,0.924,1.356,2.145,1.356,3.66L609.113,210.609z
				 M606.813,208.797c-0.153-0.512-0.452-0.926-0.9-1.248c-0.447-0.32-0.966-0.479-1.557-0.479c-0.643,0-1.205,0.18-1.689,0.539
				c-0.303,0.225-0.585,0.621-0.844,1.188H606.813z"/>
			<path fill="#FFFFFF" d="M622.563,203.816l-1.748,1.543c-0.613-0.855-1.238-1.281-1.873-1.281c-0.311,0-0.564,0.084-0.762,0.248
				c-0.196,0.166-0.295,0.352-0.295,0.561c0,0.207,0.07,0.404,0.211,0.59c0.191,0.248,0.769,0.779,1.731,1.594
				c0.9,0.752,1.445,1.227,1.638,1.424c0.479,0.482,0.816,0.945,1.017,1.387c0.2,0.439,0.3,0.922,0.3,1.443
				c0,1.018-0.352,1.859-1.056,2.521c-0.702,0.662-1.619,0.994-2.75,0.994c-0.882,0-1.65-0.217-2.307-0.648
				c-0.654-0.434-1.217-1.113-1.683-2.039l1.983-1.197c0.596,1.096,1.282,1.643,2.06,1.643c0.405,0,0.745-0.117,1.021-0.354
				c0.274-0.236,0.413-0.51,0.413-0.818c0-0.281-0.104-0.561-0.313-0.842c-0.207-0.281-0.666-0.711-1.376-1.289
				c-1.351-1.102-2.223-1.951-2.616-2.549c-0.395-0.6-0.591-1.197-0.591-1.793c0-0.859,0.328-1.596,0.982-2.211
				c0.656-0.615,1.464-0.924,2.426-0.924c0.619,0,1.208,0.145,1.768,0.43C621.305,202.535,621.91,203.059,622.563,203.816z"/>
			<path fill="#FFFFFF" d="M625.058,201.979h2.301v3.381h1.366v1.98h-1.366v7.189h-2.301v-7.189h-1.18v-1.98h1.18V201.979z"/>
			<path fill="#FFFFFF" d="M634.262,205.123c0.864,0,1.678,0.215,2.438,0.648c0.762,0.432,1.355,1.02,1.783,1.762
				s0.641,1.541,0.641,2.4c0,0.867-0.215,1.676-0.645,2.43c-0.43,0.752-1.017,1.34-1.757,1.764c-0.742,0.424-1.56,0.637-2.453,0.637
				c-1.314,0-2.438-0.467-3.367-1.402c-0.929-0.936-1.395-2.072-1.395-3.41c0-1.432,0.525-2.625,1.576-3.582
				C632.006,205.539,633.063,205.123,634.262,205.123z M634.299,207.289c-0.714,0-1.31,0.248-1.785,0.746
				c-0.476,0.496-0.713,1.133-0.713,1.908c0,0.797,0.233,1.443,0.704,1.938c0.47,0.496,1.065,0.742,1.785,0.742
				c0.721,0,1.32-0.25,1.799-0.75c0.478-0.5,0.718-1.143,0.718-1.93s-0.235-1.426-0.705-1.918
				C635.632,207.535,635.03,207.289,634.299,207.289z"/>
			<path fill="#FFFFFF" d="M640.464,205.359h1.973v1.154c0.213-0.455,0.496-0.801,0.851-1.037c0.354-0.236,0.74-0.354,1.163-0.354
				c0.298,0,0.609,0.078,0.936,0.236l-0.716,1.98c-0.271-0.135-0.492-0.203-0.667-0.203c-0.354,0-0.653,0.221-0.898,0.658
				c-0.244,0.438-0.365,1.297-0.365,2.578l0.009,0.447v3.709h-2.284V205.359z"/>
			<path fill="#FFFFFF" d="M655.709,210.609h-7.391c0.106,0.652,0.392,1.17,0.854,1.555c0.464,0.385,1.055,0.576,1.774,0.576
				c0.859,0,1.598-0.299,2.217-0.9l1.938,0.91c-0.484,0.686-1.063,1.191-1.737,1.521c-0.674,0.328-1.475,0.492-2.401,0.492
				c-1.438,0-2.608-0.453-3.515-1.361c-0.904-0.906-1.356-2.043-1.356-3.408c0-1.398,0.451-2.561,1.353-3.484
				c0.901-0.926,2.032-1.387,3.393-1.387c1.443,0,2.617,0.461,3.522,1.387c0.904,0.924,1.357,2.145,1.357,3.66L655.709,210.609z
				 M653.408,208.797c-0.151-0.512-0.451-0.926-0.899-1.248c-0.448-0.32-0.967-0.479-1.558-0.479c-0.642,0-1.204,0.18-1.688,0.539
				c-0.304,0.225-0.586,0.621-0.845,1.188H653.408z"/>
		</g>
		<g>
			<path fill="#BE0411" d="M586.639,240.328h1.711v9.051h-1.711V240.328z"/>
			<path fill="#BE0411" d="M590.294,240.328h1.652l3.872,5.955v-5.955h1.723v9.051h-1.657l-3.867-5.938v5.938h-1.723V240.328z"/>
			<path fill="#BE0411" d="M599.485,240.328h1.711v9.051h-1.711V240.328z"/>
			<path fill="#BE0411" d="M611.452,241.918l-1.205,1.148c-0.819-0.865-1.742-1.299-2.766-1.299c-0.865,0-1.593,0.295-2.186,0.887
				c-0.592,0.592-0.889,1.32-0.889,2.186c0,0.605,0.132,1.141,0.395,1.607c0.262,0.469,0.632,0.838,1.111,1.104
				c0.479,0.268,1.013,0.4,1.6,0.4c0.499,0,0.955-0.094,1.37-0.281c0.414-0.188,0.869-0.525,1.364-1.018l1.168,1.217
				c-0.668,0.654-1.3,1.105-1.895,1.359c-0.595,0.252-1.273,0.377-2.037,0.377c-1.406,0-2.558-0.445-3.454-1.338
				s-1.345-2.035-1.345-3.43c0-0.902,0.204-1.705,0.612-2.406s0.993-1.266,1.754-1.691s1.58-0.641,2.458-0.641
				c0.746,0,1.465,0.158,2.156,0.473C610.356,240.889,610.952,241.338,611.452,241.918z"/>
			<path fill="#BE0411" d="M612.837,240.328h1.71v9.051h-1.71V240.328z"/>
			<path fill="#BE0411" d="M619.245,240.328h1.748l3.48,9.051h-1.79l-0.708-1.865h-3.693l-0.736,1.865h-1.79L619.245,240.328z
				 M620.13,242.727l-1.214,3.107h2.421L620.13,242.727z"/>
			<path fill="#BE0411" d="M625.923,240.328h1.825c1,0,1.712,0.09,2.135,0.268c0.425,0.178,0.766,0.475,1.023,0.889
				c0.259,0.414,0.388,0.904,0.388,1.471c0,0.596-0.143,1.092-0.428,1.492s-0.715,0.703-1.289,0.908l2.145,4.023h-1.884
				l-2.034-3.834h-0.158v3.834h-1.723V240.328z M627.646,243.865h0.539c0.548,0,0.926-0.072,1.133-0.215
				c0.207-0.145,0.31-0.383,0.31-0.717c0-0.197-0.052-0.369-0.154-0.516s-0.238-0.25-0.41-0.314s-0.487-0.096-0.945-0.096h-0.472
				V243.865z"/>
		</g>
	</g>
	<g>
		<rect x="704.374" y="13.146" fill="#27272B" width="150.154" height="220.333"/>
		
			<image overflow="visible" width="450" height="619" xlink:href="../../Recursos Proyecto Clientes/PARSON TRAINING/DISENO WEB/Para las portadas de los ebook/Ideas inspiracion/Email-Marketing-Cover-450x619.jpg"  transform="matrix(0.2769 0 0 0.2769 717.4971 19.4199)">
		</image>
		<g>
			<path fill="#FFFFFF" d="M724.769,201.818c1.754,0,3.262,0.635,4.524,1.904c1.262,1.271,1.894,2.818,1.894,4.645
				c0,1.809-0.623,3.34-1.868,4.594c-1.245,1.252-2.757,1.879-4.532,1.879c-1.861,0-3.408-0.645-4.64-1.93
				c-1.23-1.287-1.846-2.816-1.846-4.586c0-1.186,0.286-2.273,0.859-3.27c0.574-0.994,1.362-1.781,2.366-2.363
				C722.53,202.111,723.61,201.818,724.769,201.818z M724.743,204.129c-1.146,0-2.111,0.398-2.895,1.195
				c-0.781,0.799-1.172,1.813-1.172,3.043c0,1.371,0.492,2.455,1.476,3.254c0.766,0.623,1.643,0.934,2.634,0.934
				c1.118,0,2.071-0.402,2.858-1.213c0.788-0.809,1.182-1.805,1.182-2.992c0-1.18-0.396-2.178-1.189-2.994
				C726.844,204.537,725.879,204.129,724.743,204.129z"/>
			<path fill="#FFFFFF" d="M733.157,205.359h2.301v0.939c0.522-0.439,0.995-0.746,1.419-0.918c0.423-0.172,0.856-0.258,1.3-0.258
				c0.909,0,1.681,0.316,2.314,0.951c0.533,0.539,0.8,1.338,0.8,2.395v6.061h-2.276v-4.016c0-1.096-0.049-1.822-0.146-2.182
				c-0.098-0.357-0.27-0.633-0.513-0.82c-0.244-0.188-0.545-0.283-0.903-0.283c-0.466,0-0.866,0.156-1.199,0.469
				c-0.333,0.311-0.564,0.742-0.694,1.291c-0.066,0.287-0.101,0.906-0.101,1.861v3.68h-2.301V205.359z"/>
			<path fill="#FFFFFF" d="M743.263,201.818h2.301v12.711h-2.301V201.818z"/>
			<path fill="#FFFFFF" d="M748.551,201.584c0.404,0,0.749,0.145,1.038,0.438s0.433,0.646,0.433,1.061
				c0,0.41-0.143,0.762-0.429,1.051c-0.285,0.289-0.628,0.434-1.025,0.434c-0.408,0-0.757-0.148-1.046-0.441
				c-0.289-0.297-0.433-0.654-0.433-1.076c0-0.404,0.143-0.75,0.429-1.035C747.803,201.727,748.147,201.584,748.551,201.584z
				 M747.4,205.359h2.301v9.17H747.4V205.359z"/>
			<path fill="#FFFFFF" d="M751.791,205.359h2.302v0.939c0.521-0.439,0.994-0.746,1.417-0.918c0.424-0.172,0.857-0.258,1.3-0.258
				c0.91,0,1.681,0.316,2.315,0.951c0.533,0.539,0.799,1.338,0.799,2.395v6.061h-2.275v-4.016c0-1.096-0.049-1.822-0.147-2.182
				c-0.098-0.357-0.269-0.633-0.513-0.82s-0.545-0.283-0.903-0.283c-0.465,0-0.864,0.156-1.199,0.469
				c-0.332,0.311-0.563,0.742-0.693,1.291c-0.067,0.287-0.1,0.906-0.1,1.861v3.68h-2.302V205.359z"/>
			<path fill="#FFFFFF" d="M771.336,210.609h-7.392c0.107,0.652,0.392,1.17,0.855,1.555s1.054,0.576,1.774,0.576
				c0.858,0,1.597-0.299,2.217-0.9l1.938,0.91c-0.483,0.686-1.062,1.191-1.736,1.521c-0.674,0.328-1.475,0.492-2.402,0.492
				c-1.438,0-2.608-0.453-3.514-1.361c-0.904-0.906-1.356-2.043-1.356-3.408c0-1.398,0.451-2.561,1.353-3.484
				c0.901-0.926,2.032-1.387,3.392-1.387c1.444,0,2.618,0.461,3.522,1.387c0.904,0.924,1.357,2.145,1.357,3.66L771.336,210.609z
				 M769.035,208.797c-0.152-0.512-0.451-0.926-0.899-1.248c-0.448-0.32-0.967-0.479-1.558-0.479c-0.643,0-1.204,0.18-1.688,0.539
				c-0.303,0.225-0.585,0.621-0.845,1.188H769.035z"/>
			<path fill="#FFFFFF" d="M784.785,203.816l-1.747,1.543c-0.613-0.855-1.239-1.281-1.875-1.281c-0.31,0-0.563,0.084-0.76,0.248
				c-0.197,0.166-0.296,0.352-0.296,0.561c0,0.207,0.071,0.404,0.211,0.59c0.192,0.248,0.77,0.779,1.731,1.594
				c0.9,0.752,1.445,1.227,1.639,1.424c0.478,0.482,0.815,0.945,1.017,1.387c0.199,0.439,0.3,0.922,0.3,1.443
				c0,1.018-0.352,1.859-1.056,2.521c-0.702,0.662-1.619,0.994-2.75,0.994c-0.883,0-1.651-0.217-2.307-0.648
				c-0.655-0.434-1.218-1.113-1.683-2.039l1.982-1.197c0.597,1.096,1.283,1.643,2.06,1.643c0.406,0,0.746-0.117,1.021-0.354
				s0.414-0.51,0.414-0.818c0-0.281-0.104-0.561-0.313-0.842c-0.208-0.281-0.667-0.711-1.376-1.289
				c-1.351-1.102-2.223-1.951-2.616-2.549c-0.396-0.6-0.592-1.197-0.592-1.793c0-0.859,0.328-1.596,0.983-2.211
				s1.464-0.924,2.426-0.924c0.618,0,1.208,0.145,1.767,0.43C783.526,202.535,784.133,203.059,784.785,203.816z"/>
			<path fill="#FFFFFF" d="M787.28,201.979h2.3v3.381h1.366v1.98h-1.366v7.189h-2.3v-7.189H786.1v-1.98h1.181V201.979z"/>
			<path fill="#FFFFFF" d="M796.483,205.123c0.865,0,1.678,0.215,2.439,0.648c0.762,0.432,1.355,1.02,1.783,1.762
				c0.427,0.742,0.64,1.541,0.64,2.4c0,0.867-0.215,1.676-0.644,2.43c-0.431,0.752-1.017,1.34-1.758,1.764
				c-0.742,0.424-1.559,0.637-2.453,0.637c-1.314,0-2.437-0.467-3.366-1.402s-1.396-2.072-1.396-3.41
				c0-1.432,0.526-2.625,1.577-3.582C794.228,205.539,795.286,205.123,796.483,205.123z M796.521,207.289
				c-0.715,0-1.31,0.248-1.785,0.746c-0.477,0.496-0.714,1.133-0.714,1.908c0,0.797,0.234,1.443,0.705,1.938
				c0.47,0.496,1.064,0.742,1.784,0.742c0.721,0,1.321-0.25,1.799-0.75s0.718-1.143,0.718-1.93s-0.235-1.426-0.705-1.918
				C797.854,207.535,797.252,207.289,796.521,207.289z"/>
			<path fill="#FFFFFF" d="M802.685,205.359h1.974v1.154c0.213-0.455,0.496-0.801,0.851-1.037c0.354-0.236,0.741-0.354,1.163-0.354
				c0.298,0,0.609,0.078,0.936,0.236l-0.716,1.98c-0.27-0.135-0.492-0.203-0.667-0.203c-0.353,0-0.652,0.221-0.897,0.658
				c-0.244,0.438-0.365,1.297-0.365,2.578l0.008,0.447v3.709h-2.285V205.359z"/>
			<path fill="#FFFFFF" d="M817.931,210.609h-7.391c0.106,0.652,0.392,1.17,0.854,1.555c0.464,0.385,1.056,0.576,1.774,0.576
				c0.86,0,1.599-0.299,2.217-0.9l1.938,0.91c-0.483,0.686-1.063,1.191-1.736,1.521c-0.674,0.328-1.475,0.492-2.401,0.492
				c-1.438,0-2.609-0.453-3.515-1.361c-0.904-0.906-1.357-2.043-1.357-3.408c0-1.398,0.451-2.561,1.354-3.484
				c0.901-0.926,2.032-1.387,3.393-1.387c1.443,0,2.617,0.461,3.522,1.387c0.904,0.924,1.356,2.145,1.356,3.66L817.931,210.609z
				 M815.63,208.797c-0.151-0.512-0.451-0.926-0.898-1.248c-0.448-0.32-0.967-0.479-1.559-0.479c-0.641,0-1.204,0.18-1.688,0.539
				c-0.304,0.225-0.585,0.621-0.844,1.188H815.63z"/>
		</g>
		<g>
			<path fill="#BE0411" d="M748.86,240.328h1.711v9.051h-1.711V240.328z"/>
			<path fill="#BE0411" d="M752.516,240.328h1.652l3.872,5.955v-5.955h1.723v9.051h-1.657l-3.867-5.938v5.938h-1.723V240.328z"/>
			<path fill="#BE0411" d="M761.707,240.328h1.711v9.051h-1.711V240.328z"/>
			<path fill="#BE0411" d="M773.674,241.918l-1.204,1.148c-0.82-0.865-1.742-1.299-2.767-1.299c-0.865,0-1.593,0.295-2.186,0.887
				c-0.591,0.592-0.889,1.32-0.889,2.186c0,0.605,0.132,1.141,0.394,1.607c0.263,0.469,0.634,0.838,1.113,1.104
				c0.479,0.268,1.012,0.4,1.599,0.4c0.5,0,0.956-0.094,1.37-0.281s0.869-0.525,1.365-1.018l1.167,1.217
				c-0.668,0.654-1.3,1.105-1.895,1.359c-0.595,0.252-1.273,0.377-2.037,0.377c-1.406,0-2.557-0.445-3.453-1.338
				s-1.346-2.035-1.346-3.43c0-0.902,0.205-1.705,0.613-2.406s0.993-1.266,1.754-1.691s1.579-0.641,2.457-0.641
				c0.746,0,1.466,0.158,2.157,0.473C772.579,240.889,773.174,241.338,773.674,241.918z"/>
			<path fill="#BE0411" d="M775.059,240.328h1.71v9.051h-1.71V240.328z"/>
			<path fill="#BE0411" d="M781.468,240.328h1.748l3.48,9.051h-1.79l-0.709-1.865h-3.692l-0.736,1.865h-1.79L781.468,240.328z
				 M782.353,242.727l-1.214,3.107h2.42L782.353,242.727z"/>
			<path fill="#BE0411" d="M788.145,240.328h1.825c1.001,0,1.713,0.09,2.136,0.268c0.424,0.178,0.766,0.475,1.023,0.889
				s0.387,0.904,0.387,1.471c0,0.596-0.142,1.092-0.427,1.492s-0.716,0.703-1.29,0.908l2.146,4.023h-1.884l-2.035-3.834h-0.158
				v3.834h-1.723V240.328z M789.867,243.865h0.54c0.548,0,0.926-0.072,1.132-0.215c0.207-0.145,0.31-0.383,0.31-0.717
				c0-0.197-0.052-0.369-0.153-0.516c-0.103-0.146-0.238-0.25-0.411-0.314c-0.172-0.064-0.486-0.096-0.944-0.096h-0.473V243.865z"/>
		</g>
	</g>
</g>
</svg>
