<?xml version="1.0" encoding="utf-8"?>
<!-- Generator: Adobe Illustrator 16.0.0, SVG Export Plug-In . SVG Version: 6.00 Build 0)  -->
<!DOCTYPE svg PUBLIC "-//W3C//DTD SVG 1.1//EN" "http://www.w3.org/Graphics/SVG/1.1/DTD/svg11.dtd">
<svg version="1.1" id="Capa_1" xmlns="http://www.w3.org/2000/svg" xmlns:xlink="http://www.w3.org/1999/xlink" x="0px" y="0px"
	 width="1000px" height="900px" viewBox="0 0 1000 900" enable-background="new 0 0 1000 900" xml:space="preserve">
<g>
	<defs>
		<rect id="SVGID_3_" y="0" width="1000" height="900"/>
	</defs>
	<clipPath id="SVGID_4_">
		<use xlink:href="#SVGID_3_"  overflow="visible"/>
	</clipPath>
	<rect y="0" clip-path="url(#SVGID_4_)" fill="none" width="1000" height="900"/>
	<g clip-path="url(#SVGID_4_)">
		<g>
			
				<linearGradient id="SVGID_5_" gradientUnits="userSpaceOnUse" x1="-259.7168" y1="1368.9963" x2="1176.3743" y2="-67.0947" gradientTransform="matrix(0.9996 0.0295 0.0295 -0.9996 8.7043 1039.5715)">
				<stop  offset="0.1073" style="stop-color:#1A1E7E"/>
				<stop  offset="1" style="stop-color:#040527"/>
			</linearGradient>
			<path fill="url(#SVGID_5_)" d="M1423.729-148.042c-10.743,364.157-21.485,728.323-32.229,1092.487
				c-634.472-18.719-1268.943-37.438-1903.994-56.174c0.123-4.15,0.2-6.785,0.278-9.418
				c9.339-316.607,18.712-633.204,27.855-949.814c0.234-8.052,2.23-11.607,8.634-13.044c36.582-8.192,72.973-17.999,109.715-24.763
				c63.091-11.607,126.625-16.44,190.342-18.341c114.714-3.424,228.664,6.595,342.141,23.659
				c67.805,10.197,135.599,19.64,203.952,23.054c86.102,4.306,171.999-1.213,257.799-11.642
				c53.651-6.52,107.265-13.716,160.981-19.038c62.021-6.146,124.055-5.749,186.067-0.098c80.826,7.361,161.813,6.617,242.804,0.026
				c25.681-2.091,51.561-3.013,76.937-7.874C1338.09-127.27,1380.844-138.227,1423.729-148.042z"/>
		</g>
		
			<linearGradient id="SVGID_6_" gradientUnits="userSpaceOnUse" x1="-320.2334" y1="1276.2698" x2="1124.6991" y2="-168.6627" gradientTransform="matrix(0.9996 0.0295 0.0295 -0.9996 8.7043 1039.5715)">
			<stop  offset="0.1073" style="stop-color:#1A1E7E"/>
			<stop  offset="1" style="stop-color:#040527"/>
		</linearGradient>
		<path fill="url(#SVGID_6_)" d="M-519.408,1048.043c10.743-364.158,21.485-728.324,32.23-1092.487
			C153.192-25.552,793.564-6.658,1434.517,12.251c-0.121,4.15-0.199,6.785-0.276,9.42c-9.343,316.602-18.715,633.204-27.854,949.813
			c-0.235,8.053-2.246,11.607-8.713,13.043c-36.92,8.183-73.646,17.98-110.729,24.732c-63.674,11.588-127.797,16.405-192.104,18.289
			c-115.774,3.391-230.787-6.658-345.324-23.752c-68.435-10.218-136.863-19.683-205.854-23.111
			c-86.898-4.326-173.598,1.166-260.19,11.57c-54.146,6.506-108.255,13.688-162.471,18.995
			c-62.599,6.127-125.206,5.711-187.794,0.048c-81.582-7.386-163.319-6.664-245.061-0.095c-25.918,2.084-52.04,2.998-77.651,7.853
			C-432.978,1027.297-476.124,1038.236-519.408,1048.043z"/>
	</g>
	<rect y="0" clip-path="url(#SVGID_4_)" fill="none" width="1000" height="900"/>
	<defs>
		<filter id="Adobe_OpacityMaskFilter" filterUnits="userSpaceOnUse" x="314.596" y="-165.968" width="960.623" height="1179.92">
			<feColorMatrix  type="matrix" values="1 0 0 0 0  0 1 0 0 0  0 0 1 0 0  0 0 0 1 0"/>
		</filter>
	</defs>
	<mask maskUnits="userSpaceOnUse" x="314.596" y="-165.968" width="960.623" height="1179.92" id="SVGID_2_">
		<g filter="url(#Adobe_OpacityMaskFilter)">
			<g>
				<defs>
					<rect id="SVGID_7_" x="-189.146" y="16.967" width="1338.554" height="1080.214"/>
				</defs>
				<clipPath id="SVGID_8_" clip-path="url(#SVGID_4_)">
					<use xlink:href="#SVGID_7_"  overflow="visible"/>
				</clipPath>
				
					<linearGradient id="SVGID_9_" gradientUnits="userSpaceOnUse" x1="5046.8789" y1="-1078.7263" x2="5046.8789" y2="-1287.7839" gradientTransform="matrix(-1.3098 -0.3296 -1.2996 5.1644 5888.519 8200.0703)">
					<stop  offset="0" style="stop-color:#FFFFFF"/>
					<stop  offset="1" style="stop-color:#000000"/>
				</linearGradient>
				<polygon clip-path="url(#SVGID_8_)" fill="url(#SVGID_9_)" points="455.213,-120.865 1393.076,114.587 1120.91,1193.548 
					183.042,958.118 				"/>
			</g>
			<g>
				<defs>
					<rect id="SVGID_10_" x="-189.146" y="16.967" width="1338.554" height="1080.214"/>
				</defs>
				<clipPath id="SVGID_11_" clip-path="url(#SVGID_4_)">
					<use xlink:href="#SVGID_10_"  overflow="visible"/>
				</clipPath>
				
					<linearGradient id="SVGID_12_" gradientUnits="userSpaceOnUse" x1="3801.8906" y1="-1761.0911" x2="3801.8906" y2="-1970.4695" gradientTransform="matrix(-0.9766 0.9331 3.679 3.8503 10568.6846 2675.4888)">
					<stop  offset="0" style="stop-color:#FFFFFF"/>
					<stop  offset="1" style="stop-color:#000000"/>
				</linearGradient>
				<polygon clip-path="url(#SVGID_11_)" fill="url(#SVGID_12_)" points="-664.338,-947.1 34.897,-1613.604 805.364,-809.179 
					106.145,-142.66 				"/>
			</g>
		</g>
	</mask>
	<polygon opacity="0.1" clip-path="url(#SVGID_4_)" mask="url(#SVGID_2_)" fill="#0090EC" enable-background="new    " points="
		314.596,-165.968 984.44,6.07 1275.219,382.967 884.684,1013.952 413.493,950.431 706.395,429.552 	"/>
	<g opacity="0.05" clip-path="url(#SVGID_4_)">
		<g>
			<path fill="#FFFFFF" d="M174.897,259.336h46.133c31.328,0,46.709,17.023,46.709,48.289v19.257
				c0,31.264-15.381,48.293-46.709,48.293h-14.81v79.546h-31.323V259.336L174.897,259.336z M221.023,347.258
				c9.966,0,15.379-4.465,15.379-18.418v-23.168c0-13.958-5.413-18.423-15.379-18.423h-14.81v60.009H221.023z"/>
			<path fill="#FFFFFF" d="M299.046,259.336h42.429l32.46,195.385h-31.328l-5.695-38.795v0.562h-35.594l-5.695,38.244h-29.047
				L299.046,259.336z M333.215,389.969l-13.954-96.582h-0.569l-13.667,96.582H333.215z"/>
			<path fill="#FFFFFF" d="M389.017,259.336h46.419c32.464,0,46.416,14.794,46.416,44.938v12c0,20.104-6.549,32.941-20.502,38.515
				v0.566c15.666,4.743,20.795,19.257,20.795,41.305v34.335c0,9.488,0.279,16.467,3.418,23.724h-31.9
				c-1.705-5.024-2.848-8.093-2.848-24.002v-35.728c0-18.139-5.408-24.002-19.652-24.002h-10.821v83.736h-31.324L389.017,259.336
				L389.017,259.336z M431.732,343.072c11.684,0,18.803-5.021,18.803-20.655v-15.071c0-13.958-4.844-20.101-15.949-20.101h-14.239
				v55.823h11.386L431.732,343.072L431.732,343.072z"/>
			<path fill="#FFFFFF" d="M498.356,408.386v-11.161h29.614v13.399c0,13.957,6.271,18.977,16.234,18.977
				c9.971,0,16.234-5.022,16.234-19.535c0-16.192-6.265-26.519-26.773-44.104c-26.201-22.606-34.744-38.514-34.744-60.849
				c0-30.702,16.234-48.562,46.709-48.562c30.474,0,45.566,17.863,45.566,49.127v8.09H561.58v-10.047
				c0-13.953-5.693-19.257-15.666-19.257c-9.959,0-15.662,5.304-15.662,18.702c0,14.239,6.549,24.566,27.055,42.146
				c26.201,22.608,34.461,38.239,34.461,62.521c0,31.82-16.52,49.681-47.278,49.681
				C513.737,457.514,498.356,439.649,498.356,408.386z"/>
			<path fill="#FFFFFF" d="M607.413,408.386V305.672c0-31.262,16.805-49.125,47.563-49.125c30.755,0,47.556,17.864,47.556,49.125
				v102.714c0,31.264-16.802,49.128-47.556,49.128C624.218,457.514,607.413,439.649,607.413,408.386z M671.206,410.346V303.714
				c0-13.953-6.271-19.257-16.23-19.257c-9.971,0-16.233,5.304-16.233,19.257v106.631c0,13.953,6.264,19.255,16.233,19.255
				C664.937,429.601,671.206,424.299,671.206,410.346z"/>
			<path fill="#FFFFFF" d="M723.591,259.336h39.291l30.476,116.946h0.569V259.336h27.906v195.385h-32.178L752.063,312.09h-0.572
				v142.631h-27.91V259.336H723.591z"/>
		</g>
		<g>
			<path fill="#FFFFFF" d="M175.704,489.303v-5.341h30.472v5.341h-12.405v49.188h-5.672v-49.188H175.704z"/>
			<path fill="#FFFFFF" d="M257.36,483.962h11.081c6.175,0,10.358,0.244,12.56,0.744c3.302,0.74,5.982,2.331,8.051,4.768
				c2.063,2.435,3.1,5.437,3.1,9.001c0,2.973-0.713,5.584-2.135,7.838c-1.42,2.254-3.46,3.955-6.104,5.099
				c-2.649,1.153-6.302,1.74-10.963,1.763l20.009,25.318h-6.884l-20.005-25.318h-3.142v25.318h-5.556v-54.529L257.36,483.962
				L257.36,483.962z M262.921,489.303v18.533l9.584,0.076c3.713,0,6.455-0.35,8.237-1.042c1.782-0.69,3.17-1.793,4.169-3.317
				c1.003-1.521,1.496-3.221,1.496-5.101c0-1.822-0.51-3.489-1.518-4.985c-1.016-1.492-2.338-2.563-3.977-3.208
				c-1.642-0.637-4.367-0.961-8.184-0.961h-9.809v0.005H262.921z"/>
			<path fill="#FFFFFF" d="M369.657,483.962l25.936,54.522h-6.004l-8.743-17.936h-23.957l-8.666,17.936h-6.199l26.273-54.522
				H369.657L369.657,483.962z M368.955,495.55l-9.533,19.735h19.01L368.955,495.55z"/>
			<path fill="#FFFFFF" d="M446.289,483.962h5.563v54.522h-5.563V483.962z"/>
			<path fill="#FFFFFF" d="M507.505,538.491v-54.525h1.213l37.013,41.8v-41.8h5.479v54.525h-1.244l-36.715-41.286v41.286H507.505z"
				/>
			<path fill="#FFFFFF" d="M606.829,483.962h5.563v54.522h-5.563V483.962z"/>
			<path fill="#FFFFFF" d="M668.044,538.491v-54.525h1.213l37.012,41.8v-41.8h5.48v54.525h-1.244l-36.717-41.286v41.286H668.044z"/>
			<path fill="#FFFFFF" d="M821.812,493.12l-4.305,4.005c-3.1-2.99-6.5-5.262-10.186-6.804c-3.697-1.545-7.295-2.316-10.799-2.316
				c-4.361,0-8.513,1.046-12.457,3.146c-3.943,2.103-7.004,4.947-9.166,8.546c-2.166,3.593-3.25,7.395-3.25,11.393
				c0,4.103,1.123,8.007,3.364,11.698c2.24,3.697,5.345,6.604,9.3,8.717c3.959,2.109,8.299,3.164,13.002,3.164
				c5.721,0,10.563-1.586,14.514-4.744c3.961-3.165,6.307-7.263,7.037-12.309h-17.73v-5.262h23.967
				c-0.049,8.426-2.6,15.117-7.655,20.075c-5.054,4.954-11.814,7.426-20.283,7.426c-10.285,0-18.428-3.428-24.43-10.299
				c-4.605-5.287-6.916-11.402-6.916-18.349c0-5.16,1.321-9.971,3.971-14.419c2.65-4.447,6.275-7.925,10.887-10.431
				c4.609-2.509,9.83-3.764,15.656-3.764c4.703,0,9.148,0.833,13.305,2.502C813.798,486.765,817.853,489.441,821.812,493.12z"/>
		</g>
	</g>
	<defs>
		<filter id="Adobe_OpacityMaskFilter_1_" filterUnits="userSpaceOnUse" x="44.727" y="785.829" width="58.482" height="58.482">
			<feColorMatrix  type="matrix" values="1 0 0 0 0  0 1 0 0 0  0 0 1 0 0  0 0 0 1 0"/>
		</filter>
	</defs>
	<mask maskUnits="userSpaceOnUse" x="44.727" y="785.829" width="58.482" height="58.482" id="SVGID_1_">
		<g filter="url(#Adobe_OpacityMaskFilter_1_)">
			<g>
				<g>
					<defs>
						<rect id="SVGID_13_" x="-128.258" y="427.933" width="641" height="517.288"/>
					</defs>
					<clipPath id="SVGID_14_" clip-path="url(#SVGID_4_)">
						<use xlink:href="#SVGID_13_"  overflow="visible"/>
					</clipPath>
				</g>
				<g>
					<defs>
						<rect id="SVGID_15_" x="-128.258" y="427.933" width="641" height="517.288"/>
					</defs>
					<defs>
						<rect id="SVGID_16_" x="39.1" y="784.799" width="70.122" height="64.971"/>
					</defs>
					<clipPath id="SVGID_17_" clip-path="url(#SVGID_4_)">
						<use xlink:href="#SVGID_15_"  overflow="visible"/>
					</clipPath>
					<clipPath id="SVGID_18_" clip-path="url(#SVGID_17_)">
						<use xlink:href="#SVGID_16_"  overflow="visible"/>
					</clipPath>
					
						<linearGradient id="SVGID_19_" gradientUnits="userSpaceOnUse" x1="8318.7607" y1="-480.3909" x2="8312.8691" y2="-583.4927" gradientTransform="matrix(1 0 0 -1 -8241.2744 318.936)">
						<stop  offset="0" style="stop-color:#FFFFFF"/>
						<stop  offset="1" style="stop-color:#000000"/>
					</linearGradient>
					<rect x="30.844" y="781.807" clip-path="url(#SVGID_18_)" fill="url(#SVGID_19_)" width="85.624" height="169.087"/>
				</g>
			</g>
		</g>
	</mask>
	<circle opacity="0.1" clip-path="url(#SVGID_4_)" mask="url(#SVGID_1_)" fill="#0090EC" cx="73.968" cy="815.071" r="29.241"/>
	<polygon opacity="0.3" clip-path="url(#SVGID_4_)" fill="#0090EC" enable-background="new    " points="73.968,80.171 
		61.983,91.997 50.352,79.813 62.337,67.988 	"/>
</g>
</svg>
