<?xml version="1.0" encoding="utf-8"?>
<!-- Generator: Adobe Illustrator 16.0.0, SVG Export Plug-In . SVG Version: 6.00 Build 0)  -->
<!DOCTYPE svg PUBLIC "-//W3C//DTD SVG 1.1//EN" "http://www.w3.org/Graphics/SVG/1.1/DTD/svg11.dtd">
<svg version="1.1" id="Capa_1" xmlns="http://www.w3.org/2000/svg" xmlns:xlink="http://www.w3.org/1999/xlink" x="0px" y="0px"
	 width="117px" height="51px" viewBox="0 0 117 51" enable-background="new 0 0 117 51" xml:space="preserve">
<g>
	<g>
		<path fill="#FFFFFF" d="M0.688,1.055h8.214c5.578,0,8.316,3.031,8.316,8.598v3.428c0,5.566-2.738,8.6-8.316,8.6H6.266v14.162
			H0.688V1.055z M8.901,16.709c1.774,0,2.738-0.795,2.738-3.279V9.305c0-2.486-0.964-3.281-2.738-3.281H6.265v10.686H8.901z"/>
		<path fill="#FFFFFF" d="M22.793,1.055h7.555l5.779,34.787h-5.578l-1.014-6.906v0.1h-6.338l-1.014,6.809h-5.172L22.793,1.055z
			 M28.877,24.313L26.393,7.117h-0.102l-2.434,17.195H28.877z"/>
		<path fill="#FFFFFF" d="M38.813,1.055h8.265c5.78,0,8.265,2.633,8.265,8v2.137c0,3.58-1.166,5.865-3.65,6.857v0.102
			c2.789,0.844,3.702,3.428,3.702,7.354v6.113c0,1.689,0.05,2.932,0.608,4.225h-5.68c-0.304-0.895-0.507-1.441-0.507-4.273v-6.361
			c0-3.23-0.963-4.273-3.499-4.273H44.39v14.908h-5.577V1.055z M46.418,15.963c2.08,0,3.348-0.895,3.348-3.678V9.602
			c0-2.484-0.862-3.578-2.84-3.578h-2.535v9.939H46.418L46.418,15.963z"/>
		<path fill="#FFFFFF" d="M58.28,27.592v-1.986h5.272v2.385c0,2.486,1.117,3.379,2.891,3.379c1.775,0,2.891-0.895,2.891-3.479
			c0-2.883-1.115-4.721-4.767-7.852c-4.665-4.025-6.187-6.857-6.187-10.834c0-5.467,2.891-8.646,8.316-8.646s8.113,3.18,8.113,8.746
			v1.441h-5.273V8.957c0-2.484-1.014-3.43-2.789-3.43c-1.773,0-2.789,0.945-2.789,3.33c0,2.535,1.166,4.375,4.817,7.504
			c4.665,4.025,6.136,6.809,6.136,11.133c0,5.666-2.941,8.846-8.418,8.846C61.019,36.34,58.28,33.158,58.28,27.592z"/>
		<path fill="#FFFFFF" d="M77.697,27.592V9.305c0-5.566,2.992-8.748,8.469-8.748c5.476,0,8.467,3.182,8.467,8.748v18.287
			c0,5.566-2.991,8.748-8.467,8.748C80.689,36.34,77.697,33.158,77.697,27.592z M89.056,27.941V8.955
			c0-2.484-1.116-3.428-2.89-3.428c-1.775,0-2.891,0.943-2.891,3.428v18.986c0,2.484,1.115,3.428,2.891,3.428
			C87.939,31.369,89.056,30.426,89.056,27.941z"/>
		<path fill="#FFFFFF" d="M98.383,1.055h6.996l5.426,20.822h0.102V1.055h4.969v34.787h-5.729l-6.693-25.395h-0.102v25.395h-4.97
			V1.055H98.383z"/>
	</g>
	<g>
		<path fill="#FFFFFF" d="M0.832,42v-0.951h5.426V42H4.049v8.758h-1.01V42H0.832z"/>
		<path fill="#FFFFFF" d="M15.371,41.049h1.973c1.1,0,1.845,0.043,2.236,0.133c0.588,0.131,1.065,0.414,1.434,0.848
			c0.367,0.434,0.552,0.969,0.552,1.604c0,0.529-0.127,0.994-0.38,1.395c-0.253,0.402-0.616,0.705-1.087,0.908
			c-0.472,0.205-1.122,0.311-1.952,0.314l3.563,4.508h-1.226l-3.562-4.508h-0.56v4.508h-0.989v-9.709H15.371z M16.361,42v3.299
			l1.706,0.014c0.661,0,1.149-0.063,1.467-0.186s0.564-0.318,0.742-0.59c0.179-0.271,0.267-0.574,0.267-0.908
			c0-0.324-0.091-0.621-0.271-0.889c-0.181-0.266-0.416-0.455-0.708-0.57c-0.292-0.113-0.777-0.172-1.457-0.172h-1.746V42z"/>
		<path fill="#FFFFFF" d="M35.365,41.049l4.618,9.707h-1.069l-1.557-3.193h-4.266l-1.543,3.193h-1.104l4.678-9.707H35.365z
			 M35.24,43.111l-1.697,3.514h3.385L35.24,43.111z"/>
		<path fill="#FFFFFF" d="M49.01,41.049H50v9.707h-0.99V41.049z"/>
		<path fill="#FFFFFF" d="M59.909,50.758v-9.709h0.216l6.59,7.443v-7.443h0.976v9.709h-0.222l-6.537-7.352v7.352H59.909z"/>
		<path fill="#FFFFFF" d="M77.594,41.049h0.99v9.707h-0.99V41.049z"/>
		<path fill="#FFFFFF" d="M88.493,50.758v-9.709h0.216l6.59,7.443v-7.443h0.976v9.709h-0.222l-6.537-7.352v7.352H88.493z"/>
		<path fill="#FFFFFF" d="M115.871,42.68l-0.767,0.713c-0.552-0.533-1.157-0.938-1.813-1.211c-0.658-0.275-1.299-0.414-1.923-0.414
			c-0.776,0-1.516,0.188-2.218,0.561c-0.702,0.375-1.247,0.881-1.632,1.521c-0.386,0.641-0.579,1.316-0.579,2.029
			c0,0.73,0.2,1.426,0.6,2.082c0.398,0.658,0.951,1.176,1.655,1.553c0.705,0.375,1.478,0.563,2.315,0.563
			c1.019,0,1.881-0.281,2.584-0.844c0.705-0.564,1.123-1.293,1.253-2.191h-3.157v-0.938h4.268c-0.009,1.5-0.463,2.691-1.363,3.574
			C114.194,50.561,112.99,51,111.482,51c-1.831,0-3.281-0.609-4.35-1.834c-0.82-0.941-1.231-2.029-1.231-3.266
			c0-0.92,0.235-1.775,0.707-2.568c0.472-0.791,1.117-1.41,1.938-1.857c0.82-0.445,1.75-0.67,2.787-0.67
			c0.838,0,1.629,0.148,2.369,0.445C114.444,41.547,115.166,42.023,115.871,42.68z"/>
	</g>
</g>
</svg>
