<?xml version="1.0" encoding="utf-8"?>
<!-- Generator: Adobe Illustrator 16.0.0, SVG Export Plug-In . SVG Version: 6.00 Build 0)  -->
<!DOCTYPE svg PUBLIC "-//W3C//DTD SVG 1.1//EN" "http://www.w3.org/Graphics/SVG/1.1/DTD/svg11.dtd">
<svg version="1.1" id="Capa_1" xmlns="http://www.w3.org/2000/svg" xmlns:xlink="http://www.w3.org/1999/xlink" x="0px" y="0px"
	 width="412.594px" height="409.676px" viewBox="0 0 412.594 409.676" enable-background="new 0 0 412.594 409.676"
	 xml:space="preserve">
<g>
	
		<image overflow="visible" opacity="0.75" width="251" height="359" xlink:href="53B82438.png"  transform="matrix(1 0 0 1 71.7966 11.3379)">
	</image>
	<g>
		<rect x="87.715" y="19.544" fill="#FFFFFF" width="219.205" height="328.233"/>
	</g>
</g>
<g>
	<g>
		<path fill="#4A482F" d="M130.471,143.285l3.59-3.042l0.354,0.425l-2.691,3.518C131.724,144.186,131.446,143.689,130.471,143.285z"
			/>
		<linearGradient id="SVGID_1_" gradientUnits="userSpaceOnUse" x1="54.7742" y1="214.1699" x2="66.3137" y2="224.0612">
			<stop  offset="0" style="stop-color:#540000"/>
			<stop  offset="0.182" style="stop-color:#560202"/>
			<stop  offset="0.2776" style="stop-color:#5B0A0A"/>
			<stop  offset="0.3531" style="stop-color:#641818"/>
			<stop  offset="0.4181" style="stop-color:#702B2B"/>
			<stop  offset="0.4764" style="stop-color:#814444"/>
			<stop  offset="0.5291" style="stop-color:#946262"/>
			<stop  offset="0.5373" style="stop-color:#986767"/>
			<stop  offset="0.5661" style="stop-color:#8F5A5A"/>
			<stop  offset="0.6612" style="stop-color:#763333"/>
			<stop  offset="0.7487" style="stop-color:#631717"/>
			<stop  offset="0.8253" style="stop-color:#580606"/>
			<stop  offset="0.8824" style="stop-color:#540000"/>
		</linearGradient>
		<path fill="url(#SVGID_1_)" d="M86.613,183.661l-56.164,62.032c0,0-0.146,5.241,5.303,9.973l58.841-64.96L86.613,183.661z"/>
		
			<rect x="82.109" y="189.358" transform="matrix(0.7384 0.6743 -0.6743 0.7384 151.4183 -9.198)" fill="#C89151" width="10.912" height="2.434"/>
		<path fill="#E5BC85" d="M44.632,245.942l-1.541-0.186l-0.932-0.853l-5.689-5.803l-3.838,4.068c0,0,4.861,7.246,8.108,7.034
			L44.632,245.942z"/>
		
			<linearGradient id="SVGID_2_" gradientUnits="userSpaceOnUse" x1="195.054" y1="57.2104" x2="199.9244" y2="57.2104" gradientTransform="matrix(0.7384 0.6744 0.6744 -0.7384 -135.8604 131.192)">
			<stop  offset="0.0787" style="stop-color:#C88840"/>
			<stop  offset="0.1041" style="stop-color:#D09550"/>
			<stop  offset="0.1568" style="stop-color:#DCAC6B"/>
			<stop  offset="0.2143" style="stop-color:#E6BD80"/>
			<stop  offset="0.2784" style="stop-color:#EECA8F"/>
			<stop  offset="0.3543" style="stop-color:#F2D197"/>
			<stop  offset="0.4719" style="stop-color:#F3D39A"/>
			<stop  offset="0.6755" style="stop-color:#DEAE6E"/>
			<stop  offset="0.8708" style="stop-color:#C88840"/>
		</linearGradient>
		<path fill="url(#SVGID_2_)" d="M36.333,238.852c0,0-2.099-1.182-0.284-3.434l18.407-20.557l6.462-3.866c0,0,4.072-3.12,5.6-7.469
			c0,0,0.969-2.53-2.064-0.414l-11,10.04l-22.571,25.915c0,0,0.097,2.835,1.448,4.435C32.33,243.502,36.542,239.291,36.333,238.852z
			"/>
		<path fill="#E5BC85" d="M30.759,248.297l-7.601,8.322c0,0-1.138,1.647,0.513,4.253c0,0,2.246,1.685,4.289,0.252l6.14-6.726
			C34.099,254.398,31.718,251.126,30.759,248.297z"/>
		<linearGradient id="SVGID_3_" gradientUnits="userSpaceOnUse" x1="100.2234" y1="165.6069" x2="110.6934" y2="174.8859">
			<stop  offset="0" style="stop-color:#000027"/>
			<stop  offset="0.1782" style="stop-color:#000229"/>
			<stop  offset="0.2719" style="stop-color:#010831"/>
			<stop  offset="0.3458" style="stop-color:#02133F"/>
			<stop  offset="0.4095" style="stop-color:#042352"/>
			<stop  offset="0.4666" style="stop-color:#07386B"/>
			<stop  offset="0.5182" style="stop-color:#0A5089"/>
			<stop  offset="0.5333" style="stop-color:#0B5993"/>
			<stop  offset="0.585" style="stop-color:#094A81"/>
			<stop  offset="0.7098" style="stop-color:#052A5A"/>
			<stop  offset="0.8247" style="stop-color:#02133E"/>
			<stop  offset="0.9251" style="stop-color:#01052D"/>
			<stop  offset="1" style="stop-color:#000027"/>
		</linearGradient>
		<polygon fill="url(#SVGID_3_)" points="86.613,183.661 117.219,150.554 125.076,157.729 94.593,190.705 		"/>
		<image overflow="visible" width="16" height="17" xlink:href="53B8243E.png"  transform="matrix(1 0 0 1 116.7966 141.3379)">
		</image>
		<path fill="#AF8049" d="M56.928,213.089l9.686-10.204c0,0-0.371,3.082-3.362,6.09C63.252,208.975,60.641,211.964,56.928,213.089z"
			/>
		<path fill="#865C2F" d="M33.495,253.724l-6.25,7.111c0,0-1.827,0.531-2.96-0.502c0,0-1.469-1.466-0.648-3.036l7.491-7.934
			l0.016,0.385l-6.985,7.781c0,0-0.704,1.438,0.686,2.459c0,0,1.07,1.101,1.935,0.423l6.496-7.379L33.495,253.724z"/>
		<path fill="#C89151" d="M32.544,252.492l-6.443,7.055c0,0-0.865,0.679-0.401-0.364l6.44-7.184L32.544,252.492z"/>
		
			<ellipse transform="matrix(0.7379 0.6749 -0.6749 0.7379 181.7796 51.4272)" fill="#FFFFFF" cx="24.673" cy="259.771" rx="0.991" ry="0.493"/>
		<path fill="#FFFFFF" d="M38.469,249.169c0.185-0.2,0.061-0.616-0.276-0.923c-0.336-0.308-0.76-0.392-0.944-0.191
			c-0.184,0.202-0.063,0.615,0.272,0.924C37.862,249.287,38.284,249.37,38.469,249.169z"/>
		<polygon fill="#AF8049" points="43.672,245.923 39.829,250.129 39.371,249.831 42.913,245.686 		"/>
		<polygon fill="#F6E0AE" points="38.974,241.973 35.388,246.305 34.799,245.878 38.567,241.486 		"/>
		<polygon fill="#F6E0AE" points="41.466,244.593 38.184,248.857 37.652,248.37 41.068,244.227 		"/>
		<polygon fill="#C89151" points="38.24,240.841 34.343,245.707 32.33,243.502 36.333,238.852 		"/>
	</g>
	<g>
		<rect x="118.841" y="118.874" width="157.053" height="2.83"/>
		<rect x="118.841" y="126.796" width="157.053" height="2.83"/>
		<rect x="118.841" y="134.719" width="157.053" height="2.83"/>
		<rect x="118.841" y="168.112" width="157.053" height="2.83"/>
		<rect x="118.841" y="176.035" width="157.053" height="2.83"/>
		<rect x="118.841" y="183.957" width="157.053" height="2.83"/>
		<rect x="118.841" y="217.35" width="157.053" height="2.83"/>
		<rect x="118.841" y="225.271" width="157.053" height="2.831"/>
		<rect x="118.841" y="233.195" width="157.053" height="2.83"/>
		<rect x="118.841" y="266.588" width="157.053" height="2.83"/>
		<rect x="118.841" y="274.511" width="157.053" height="2.83"/>
		<rect x="118.841" y="282.434" width="157.053" height="2.829"/>
		<rect x="118.841" y="315.826" width="157.053" height="2.83"/>
		<rect x="118.841" y="323.748" width="157.053" height="2.831"/>
		<rect x="118.841" y="331.672" width="157.053" height="2.829"/>
	</g>
	<g>
		<path d="M153.722,91.266h1.477c0.799,0,1.375,0.074,1.729,0.221c0.353,0.147,0.631,0.386,0.835,0.716s0.306,0.726,0.306,1.187
			c0,0.51-0.133,0.935-0.4,1.273c-0.267,0.338-0.629,0.574-1.086,0.707c-0.269,0.076-0.758,0.114-1.468,0.114v3.099h-1.393V91.266z
			 M155.115,94.126h0.443c0.348,0,0.59-0.025,0.726-0.075c0.136-0.05,0.243-0.132,0.321-0.247c0.078-0.115,0.117-0.254,0.117-0.417
			c0-0.283-0.109-0.489-0.329-0.619c-0.159-0.097-0.454-0.145-0.885-0.145h-0.393V94.126z"/>
		<path d="M159.527,91.266h1.476c0.809,0,1.384,0.072,1.727,0.216c0.343,0.144,0.619,0.384,0.828,0.719
			c0.208,0.335,0.313,0.731,0.313,1.189c0,0.48-0.115,0.883-0.346,1.206s-0.578,0.568-1.042,0.734l1.733,3.253h-1.522l-1.646-3.099
			h-0.127v3.099h-1.393V91.266z M160.92,94.126h0.437c0.442,0,0.748-0.058,0.915-0.174s0.25-0.31,0.25-0.579
			c0-0.16-0.042-0.298-0.124-0.417c-0.083-0.118-0.193-0.203-0.333-0.255c-0.139-0.052-0.393-0.077-0.763-0.077h-0.382V94.126z"/>
		<path d="M165.242,91.266h1.383v7.317h-1.383V91.266z"/>
		<path d="M167.638,91.266h1.432l1.841,5.198l1.868-5.198h1.43l-2.636,7.317h-1.343L167.638,91.266z"/>
		<path d="M177.557,91.266h1.413l2.814,7.317h-1.448l-0.572-1.507h-2.986l-0.595,1.507h-1.447L177.557,91.266z M178.273,93.206
			l-0.982,2.512h1.958L178.273,93.206z"/>
		<path d="M189.587,92.552l-0.974,0.929c-0.663-0.7-1.409-1.051-2.236-1.051c-0.7,0-1.288,0.239-1.767,0.717
			c-0.479,0.478-0.718,1.067-0.718,1.768c0,0.488,0.106,0.921,0.318,1.299c0.212,0.379,0.512,0.676,0.899,0.892
			c0.388,0.216,0.819,0.324,1.293,0.324c0.404,0,0.773-0.076,1.108-0.227c0.335-0.151,0.703-0.425,1.104-0.824l0.944,0.985
			c-0.541,0.527-1.051,0.894-1.532,1.097c-0.481,0.204-1.03,0.306-1.646,0.306c-1.138,0-2.068-0.361-2.793-1.082
			s-1.087-1.646-1.087-2.773c0-0.729,0.165-1.378,0.495-1.945c0.33-0.567,0.803-1.023,1.418-1.368
			c0.615-0.345,1.277-0.517,1.987-0.517c0.604,0,1.185,0.127,1.743,0.382C188.7,91.719,189.182,92.082,189.587,92.552z"/>
		<path d="M190.285,91.266h1.495l1.365,2.632l1.359-2.632h1.477l-2.141,4.148v3.168h-1.403v-3.168L190.285,91.266z"/>
		<path d="M199.968,91.266h1.478c0.799,0,1.375,0.074,1.729,0.221s0.632,0.386,0.835,0.716c0.204,0.33,0.306,0.726,0.306,1.187
			c0,0.51-0.134,0.935-0.4,1.273c-0.267,0.338-0.629,0.574-1.087,0.707c-0.269,0.076-0.758,0.114-1.467,0.114v3.099h-1.393V91.266z
			 M201.361,94.126h0.442c0.348,0,0.59-0.025,0.727-0.075c0.136-0.05,0.243-0.132,0.321-0.247c0.078-0.115,0.117-0.254,0.117-0.417
			c0-0.283-0.109-0.489-0.328-0.619c-0.159-0.097-0.455-0.145-0.886-0.145h-0.393V94.126z"/>
		<path d="M209.133,91.082c1.035,0,1.926,0.375,2.67,1.124c0.745,0.75,1.118,1.663,1.118,2.741c0,1.068-0.368,1.972-1.103,2.711
			c-0.734,0.74-1.627,1.109-2.676,1.109c-1.098,0-2.01-0.38-2.737-1.139c-0.727-0.759-1.09-1.661-1.09-2.706
			c0-0.7,0.169-1.343,0.508-1.93c0.338-0.587,0.804-1.052,1.396-1.396C207.811,91.253,208.449,91.082,209.133,91.082z
			 M209.118,92.445c-0.678,0-1.246,0.235-1.708,0.707c-0.462,0.471-0.692,1.069-0.692,1.795c0,0.809,0.29,1.449,0.872,1.92
			c0.451,0.368,0.969,0.552,1.553,0.552c0.661,0,1.223-0.239,1.688-0.716c0.466-0.478,0.697-1.066,0.697-1.766
			c0-0.696-0.233-1.286-0.701-1.769C210.357,92.686,209.789,92.445,209.118,92.445z"/>
		<path d="M214.234,91.266h1.393v5.989h2.029v1.328h-3.422V91.266z"/>
		<path d="M218.616,91.266h1.383v7.317h-1.383V91.266z"/>
		<path d="M228.291,92.552l-0.974,0.929c-0.663-0.7-1.409-1.051-2.236-1.051c-0.699,0-1.288,0.239-1.768,0.717
			c-0.479,0.478-0.718,1.067-0.718,1.768c0,0.488,0.106,0.921,0.318,1.299c0.212,0.379,0.512,0.676,0.898,0.892
			c0.388,0.216,0.819,0.324,1.293,0.324c0.404,0,0.773-0.076,1.108-0.227c0.335-0.151,0.703-0.425,1.104-0.824l0.943,0.985
			c-0.54,0.527-1.051,0.894-1.531,1.097c-0.481,0.204-1.03,0.306-1.646,0.306c-1.138,0-2.068-0.361-2.793-1.082
			s-1.087-1.646-1.087-2.773c0-0.729,0.165-1.378,0.495-1.945c0.329-0.567,0.802-1.023,1.417-1.368
			c0.615-0.345,1.277-0.517,1.987-0.517c0.604,0,1.185,0.127,1.743,0.382C227.405,91.719,227.886,92.082,228.291,92.552z"/>
		<path d="M228.99,91.266h1.494l1.366,2.632l1.358-2.632h1.477l-2.142,4.148v3.168h-1.402v-3.168L228.99,91.266z"/>
	</g>
	<g>
		<path fill="#85D7BB" d="M248.262,63.417c0,5.625-4.561,10.187-10.188,10.187h-84.977c-5.626,0-10.187-4.562-10.187-10.187v-7.641
			c0-5.626,4.561-10.187,10.187-10.187h84.977c5.627,0,10.188,4.561,10.188,10.187V63.417z"/>
		<path fill="#85D7BB" d="M222.265,43.042c0,5.626-4.563,10.187-10.188,10.187h-36.059c-5.626,0-10.187-4.561-10.187-10.187v-10.75
			c0-5.625,4.561-10.187,10.187-10.187h36.059c5.625,0,10.188,4.562,10.188,10.187V43.042z"/>
		<rect x="174.746" y="27.549" fill="#515050" width="38.798" height="3.396"/>
		<rect x="174.746" y="32.218" fill="#515050" width="38.798" height="3.396"/>
		<rect x="174.746" y="36.887" fill="#515050" width="38.798" height="3.396"/>
	</g>
	<g>
		<path fill="#496E78" d="M174.706,185.436c0,0,79.285,6.928,112.542-22.583c0,0,41.938,40.604,92.969,29.75
			c0,0-12.532,173.59-109.878,204.419C270.339,397.022,176.163,367.327,174.706,185.436z"/>
		<path fill="#85D7BB" d="M271.028,385.503c-6.306-3.022-27.082-12.434-43.095-34.359c-12.108-16.581-21.831-37.044-28.901-60.826
			c-8.044-27.061-12.649-58.484-13.718-93.547c20.959,0.389,73.179-0.643,101.799-20.489c11.166,7.895,27.416,22.267,56.383,27.299
			c8.406,1.461,16.629,1.958,24.575,1.494C361.893,244.433,342.647,359.489,271.028,385.503z"/>
		<path fill="#ADE6D6" d="M224.702,330.627c0,0-37.04-126.834-24.965-125.256C211.811,206.95,224.702,330.627,224.702,330.627z"/>
		<path opacity="0.5" fill="#496E78" d="M380.263,192.61c-10.325,2.314-20.598,2.358-30.396,0.988
			c-0.002,0.012-7.955,148.934-75.575,181.826l-58.895-29.387c24.323,41.812,57.097,51.374,57.097,51.374
			C367.184,366.103,380.263,192.61,380.263,192.61z"/>
		<g opacity="0.5">
			<path fill="#85D7BB" d="M264.893,314.258c-26.427-4.593-43.689-30.871-38.482-58.583c5.206-27.712,30.939-46.521,57.365-41.928
				c5.596,0.972,10.89,2.927,15.737,5.813c2.773,1.65,3.669,5.377,2.002,8.32c-1.671,2.944-5.271,3.99-8.043,2.342
				c-3.681-2.189-7.704-3.677-11.962-4.415c-20.083-3.49-39.641,10.805-43.598,31.866c-3.957,21.06,9.162,41.033,29.245,44.522
				s39.643-10.806,43.599-31.865c0.946-5.045,0.946-10.101-0.004-15.031c-0.632-3.29,1.428-6.573,4.604-7.333
				c3.173-0.76,6.26,1.288,6.895,4.578c1.249,6.497,1.253,13.153,0.007,19.783C317.051,300.04,291.316,318.849,264.893,314.258z"/>
		</g>
		<g>
			<path fill="#FFFFFF" d="M265.46,311.243c-26.426-4.593-43.688-30.872-38.481-58.584c5.205-27.712,30.939-46.521,57.364-41.93
				c5.596,0.973,10.89,2.929,15.737,5.814c2.773,1.652,3.67,5.377,2.002,8.322c-1.67,2.944-5.271,3.99-8.044,2.342
				c-3.679-2.19-7.703-3.677-11.96-4.416c-20.083-3.49-39.642,10.805-43.599,31.865c-3.956,21.061,9.163,41.034,29.245,44.522
				c20.083,3.49,39.642-10.805,43.599-31.865c0.946-5.043,0.946-10.1-0.003-15.03c-0.632-3.29,1.427-6.573,4.603-7.333
				c3.171-0.759,6.26,1.289,6.895,4.579c1.249,6.496,1.253,13.152,0.007,19.782C317.619,297.024,291.884,315.833,265.46,311.243z"/>
		</g>
		<path fill="#FFFFFF" d="M257.167,248.657c1.973,1.771,3.784,3.654,5.569,5.553c0.872,0.963,1.769,1.91,2.612,2.893
			c0.858,0.972,1.713,1.947,2.539,2.943c0.839,0.983,1.666,1.98,2.47,2.989c0.815,1.001,1.627,2.005,2.409,3.031
			c1.594,2.03,3.144,4.088,4.66,6.168l-7.806-0.582c3.959-5.263,8.093-10.355,12.368-15.313c4.278-4.959,8.697-9.78,13.271-14.454
			c4.584-4.662,9.313-9.188,14.274-13.489c1.229-1.088,2.494-2.139,3.755-3.196c1.27-1.046,2.547-2.087,3.852-3.1
			c1.3-1.02,2.621-2.018,3.966-2.993c1.342-0.978,2.712-1.93,4.133-2.831c-0.744,1.549-1.542,3.048-2.367,4.521
			c-0.822,1.475-1.67,2.928-2.538,4.358c-0.863,1.438-1.754,2.847-2.65,4.252c-0.908,1.394-1.809,2.793-2.75,4.157
			c-3.709,5.501-7.649,10.779-11.736,15.919c-4.097,5.129-8.349,10.11-12.743,14.957c-4.395,4.845-8.932,9.554-13.643,14.095
			l-0.608,0.59c-1.904,1.834-4.828,1.756-6.528-0.174c-0.266-0.302-0.495-0.651-0.67-0.998c-1.158-2.326-2.283-4.672-3.364-7.049
			c-0.555-1.18-1.084-2.377-1.605-3.578c-0.531-1.194-1.043-2.401-1.54-3.62c-0.513-1.209-0.995-2.437-1.476-3.666
			c-0.491-1.222-0.934-2.477-1.397-3.718C258.732,253.815,257.868,251.292,257.167,248.657z"/>
	</g>
</g>
</svg>
