<?xml version="1.0" encoding="utf-8"?>
<!-- Generator: Adobe Illustrator 16.0.0, SVG Export Plug-In . SVG Version: 6.00 Build 0)  -->
<!DOCTYPE svg PUBLIC "-//W3C//DTD SVG 1.1//EN" "http://www.w3.org/Graphics/SVG/1.1/DTD/svg11.dtd">
<svg version="1.1" id="Capa_1" xmlns="http://www.w3.org/2000/svg" xmlns:xlink="http://www.w3.org/1999/xlink" x="0px" y="0px"
	 width="450px" height="419.447px" viewBox="0 0 450 419.447" enable-background="new 0 0 450 419.447" xml:space="preserve">
<g>
	
		<linearGradient id="SVGID_1_" gradientUnits="userSpaceOnUse" x1="-1390.4521" y1="13177.3623" x2="-1359.4344" y2="13002.8057" gradientTransform="matrix(1.6103 0 0 -1.6103 813.4642 20979.3516)">
		<stop  offset="0" style="stop-color:#E5E5E5"/>
		<stop  offset="0.219" style="stop-color:#D5D5D5"/>
		<stop  offset="0.728" style="stop-color:#C4C4C4"/>
		<stop  offset="0.927" style="stop-color:#4F4F4F"/>
	</linearGradient>
	<path stroke="url(#SVGID_1_)" stroke-width="4" d="M-1581.984-202.842h369.557c3.283,0,5.944,2.66,5.944,5.943V35.984
		c0,3.282-2.661,5.944-5.944,5.944h-369.557c-3.283,0-5.944-2.662-5.944-5.944v-232.881
		C-1587.928-200.18-1585.267-202.842-1581.984-202.842z"/>
	
		<linearGradient id="SVGID_2_" gradientUnits="userSpaceOnUse" x1="-1372.6348" y1="13001.7627" x2="-1372.6348" y2="12998.6182" gradientTransform="matrix(1.6103 0 0 -1.6103 813.4642 20979.3516)">
		<stop  offset="0" style="stop-color:#FFFFFF"/>
		<stop  offset="1" style="stop-color:#E5E5E5"/>
	</linearGradient>
	<path fill="url(#SVGID_2_)" d="M-1601.905,42.616h410.031v5.063h-410.031V42.616z"/>
	<path fill="#C4C4C4" d="M-1601.905,47.045h410.031c0,2.796-2.267,5.063-5.063,5.063l0,0h-399.906
		C-1599.638,52.108-1601.905,49.841-1601.905,47.045L-1601.905,47.045z"/>
	<defs>
		<filter id="Adobe_OpacityMaskFilter" filterUnits="userSpaceOnUse" x="-1601.903" y="-214.364" width="389.688" height="595.394">
			<feColorMatrix  type="matrix" values="1 0 0 0 0  0 1 0 0 0  0 0 1 0 0  0 0 0 1 0"/>
		</filter>
	</defs>
	<mask maskUnits="userSpaceOnUse" x="-1601.903" y="-214.364" width="389.688" height="595.394" id="mask0_2_">
		<path fill="#C4C4C4" filter="url(#Adobe_OpacityMaskFilter)" d="M-1572.843-190.292h352.041V32.293h-352.041V-190.292z"/>
	</mask>
	<g mask="url(#mask0_2_)">
		<path fill="#F5EFEA" d="M-1576.145-176.422h359.965V46.163h-359.965V-176.422z"/>
		<path fill="#F7F7F7" d="M-1551.708-78.67h315.714v459.7h-315.714V-78.67z"/>
		<path fill="#333333" d="M-1576.145-185.669h363.929v128.795h-363.929V-185.669z"/>
		<g enable-background="new    ">
			<g enable-background="new    ">
				<g enable-background="new    ">
					<text transform="matrix(1 0 0 1 -1601.9033 -204.1614)" fill="#FFFFFF" font-family="'ArialMT'" font-size="11.8888">       </text>
				</g>
			</g>
		</g>
		<g enable-background="new    ">
			<g enable-background="new    ">
				<g enable-background="new    ">
					<text transform="matrix(1 0 0 1 -1447.3506 -149.5403)" fill="#FFFFFF" font-family="'ArialMT'" font-size="11.8888">Your First Week With Bootstrap</text>
				</g>
			</g>
		</g>
		<g>
			<g enable-background="new    ">
				<g enable-background="new    ">
					<text transform="matrix(1 0 0 1 -1289.2998 -149.5403)" fill="#FFFFFF" font-family="'ArialMT'" font-size="11.8888">     </text>
				</g>
			</g>
		</g>
		<g enable-background="new    ">
			<g enable-background="new    ">
				<g enable-background="new    ">
					<text transform="matrix(1 0 0 1 -1601.9033 -204.1614)" fill="#FFFFFF" font-family="'ArialMT'" font-size="6.6049">       </text>
				</g>
			</g>
		</g>
		<g enable-background="new    ">
			<g enable-background="new    ">
				<g enable-background="new    ">
					<text transform="matrix(1 0 0 1 -1447.3506 -126.0403)" fill="#FFFFFF" font-family="'ArialMT'" font-size="6.6049">Bootstrap stands as one of the most popular, open-source, front-end </text>
				</g>
			</g>
		</g>
		<g enable-background="new    ">
			<g enable-background="new    ">
				<g enable-background="new    ">
					<text transform="matrix(1 0 0 1 -1447.3506 -114.4309)" fill="#FFFFFF" font-family="'ArialMT'" font-size="6.6049">frameworks on the Web. In this book we’ll take you through Bootstrap </text>
				</g>
			</g>
		</g>
		<g enable-background="new    ">
			<g enable-background="new    ">
				<g enable-background="new    ">
					<text transform="matrix(1 0 0 1 -1447.3506 -102.8196)" fill="#FFFFFF" font-family="'ArialMT'" font-size="6.6049">basics, introduce you to its major features, and get you building your </text>
				</g>
			</g>
		</g>
		<g enable-background="new    ">
			<g enable-background="new    ">
				<g enable-background="new    ">
					<text transform="matrix(1 0 0 1 -1447.3506 -91.2102)" fill="#FFFFFF" font-family="'ArialMT'" font-size="6.6049">first Bootstrap sites.</text>
				</g>
			</g>
		</g>
		<g>
			<g enable-background="new    ">
				<g enable-background="new    ">
					<text transform="matrix(1 0 0 1 -1389.3545 -91.2102)" fill="#FFFFFF" font-family="'ArialMT'" font-size="6.6049">     </text>
				</g>
			</g>
		</g>
		<path d="M-1212.216-190.292h-363.929v14.529h363.929V-190.292z"/>
		<g enable-background="new    ">
			<g enable-background="new    ">
				<g enable-background="new    ">
					<text transform="matrix(1 0 0 1 -1601.9033 -204.1614)" fill="#F5EFEA" font-family="'ArialMT'" font-size="5.9444">       </text>
				</g>
			</g>
		</g>
		<g enable-background="new    ">
			<g enable-background="new    ">
				<g enable-background="new    ">
					<text transform="matrix(1 0 0 1 -1265.0303 -180.7766)" fill="#F5EFEA" font-family="'ArialMT'" font-size="5.9444">Dashboard</text>
				</g>
			</g>
		</g>
		<g>
			<g enable-background="new    ">
				<g enable-background="new    ">
					<text transform="matrix(1 0 0 1 -1235.9482 -180.7766)" fill="#F5EFEA" font-family="'ArialMT'" font-size="5.9444">     </text>
				</g>
			</g>
		</g>
		<g enable-background="new    ">
			<g enable-background="new    ">
				<g enable-background="new    ">
					<text transform="matrix(1 0 0 1 -1601.9033 -204.1614)" fill="#F5EFEA" font-family="'ArialMT'" font-size="5.9444">       </text>
				</g>
			</g>
		</g>
		<g enable-background="new    ">
			<g enable-background="new    ">
				<g enable-background="new    ">
					<text transform="matrix(1 0 0 1 -1303.2041 -180.7766)" fill="#F5EFEA" font-family="'ArialMT'" font-size="5.9444">Library</text>
				</g>
			</g>
		</g>
		<g>
			<g enable-background="new    ">
				<g enable-background="new    ">
					<text transform="matrix(1 0 0 1 -1285.0342 -180.7766)" fill="#F5EFEA" font-family="'ArialMT'" font-size="5.9444">     </text>
				</g>
			</g>
		</g>
		<g enable-background="new    ">
			<g enable-background="new    ">
				<g enable-background="new    ">
					<text transform="matrix(1 0 0 1 -1601.9033 -204.1614)" fill="#F5EFEA" font-family="'ArialMT'" font-size="7.2654">       </text>
				</g>
			</g>
		</g>
		<g enable-background="new    ">
			<g enable-background="new    ">
				<g enable-background="new    ">
					<text transform="matrix(1 0 0 1 -1550.6943 -179.6458)" fill="#F5EFEA" font-family="'ArialMT'" font-size="7.2654">Your First Week with Bootstrap</text>
				</g>
			</g>
		</g>
		<g>
			<g enable-background="new    ">
				<g enable-background="new    ">
					<text transform="matrix(1 0 0 1 -1451.3604 -179.6458)" fill="#F5EFEA" font-family="'ArialMT'" font-size="7.2654">     </text>
				</g>
			</g>
		</g>
		<path fill="#F5EFEA" d="M-1313.384-185.835h-1.272v0.634h1.272V-185.835z M-1311.41-185.094l1.844-0.493l1.344,4.963l-1.842,0.493
			L-1311.41-185.094z M-1313.384-184.57h-1.272v3.164h1.272V-184.57z M-1311.476-184.57h-1.271v3.164h1.271V-184.57z
			 M-1313.384-180.773h-1.272v0.633h1.272V-180.773z M-1312.748-180.773h1.271v0.633h-1.271V-180.773z M-1312.748-185.835h1.271
			v0.634h-1.271V-185.835z"/>
		<path fill="#F5EFEA" d="M-1333.366-181.313h2.067l0.397,1.173h1.254l-2.143-5.693h-1.094l-2.131,5.693h1.254L-1333.366-181.313z
			 M-1331.617-182.264h-1.432l0.713-2.131L-1331.617-182.264L-1331.617-182.264z"/>
		<path fill="#F5EFEA" d="M-1327.72-185.238h-0.732v0.729h-0.732v0.729h0.732v0.728h0.732v-0.728h0.732v-0.729h-0.732V-185.238
			L-1327.72-185.238z M-1326.988-182.323h-2.197v0.728h2.197V-182.323z M-1271.392-185.862h-0.637v0.632h-2.545v0.634h2.545v0.633
			h0.637v-0.633h2.545v-0.634h-2.545V-185.862z M-1268.847-183.332h-1.272v-0.633h-0.636v0.633h-3.818v0.634h3.818v0.633h0.636
			v-0.633h1.272V-183.332z M-1268.847-180.802v-0.633h-3.817v-0.633h-0.637v0.633h-1.272v0.633h1.272v0.634h0.637v-0.634H-1268.847z
			"/>
		<path fill="#222222" d="M-1212.223-67.44h-363.922v13.92h363.922V-67.44z"/>
		<g enable-background="new    ">
			<g enable-background="new    ">
				<g enable-background="new    ">
					<text transform="matrix(1 0 0 1 -1601.9033 -204.1614)" fill="#F5EFEA" font-family="'ArialMT'" font-size="5.9444">       </text>
				</g>
			</g>
		</g>
		<g enable-background="new    ">
			<g enable-background="new    ">
				<g enable-background="new    ">
					<text transform="matrix(1 0 0 1 -1540.3467 -58.5579)" fill="#F5EFEA" font-family="'ArialMT'" font-size="5.9444">Chapters</text>
				</g>
			</g>
		</g>
		<g>
			<g enable-background="new    ">
				<g enable-background="new    ">
					<text transform="matrix(1 0 0 1 -1516.2275 -58.5579)" fill="#F5EFEA" font-family="'ArialMT'" font-size="5.9444">     </text>
				</g>
			</g>
		</g>
		<path fill="#FFFFFF" d="M-1510.933-58.583l-0.636-0.632l2.544-2.532l2.544,2.532l-0.636,0.632l-1.908-1.896L-1510.933-58.583z"/>
		<g enable-background="new    ">
			<g enable-background="new    ">
				<g enable-background="new    ">
					<text transform="matrix(1 0 0 1 -1601.9033 -204.1614)" fill="#F5EFEA" font-family="'ArialMT'" font-size="5.9444">       </text>
				</g>
			</g>
		</g>
		<g enable-background="new    ">
			<g enable-background="new    ">
				<g enable-background="new    ">
					<text transform="matrix(1 0 0 1 -1490.792 -58.5579)" fill="#F5EFEA" font-family="'ArialMT'" font-size="5.9444">My Bookmarks</text>
				</g>
			</g>
		</g>
		<g>
			<g enable-background="new    ">
				<g enable-background="new    ">
					<text transform="matrix(1 0 0 1 -1451.4873 -58.5579)" fill="#F5EFEA" font-family="'ArialMT'" font-size="5.9444">     </text>
				</g>
			</g>
		</g>
		<path fill="#FFFFFF" d="M-1445.718-58.583l-0.636-0.632l2.545-2.532l2.544,2.532l-0.636,0.632l-1.908-1.896L-1445.718-58.583z"/>
		<g enable-background="new    ">
			<g enable-background="new    ">
				<g enable-background="new    ">
					<text transform="matrix(1 0 0 1 -1601.9033 -204.1614)" fill="#F5EFEA" font-family="'ArialMT'" font-size="5.9444">       </text>
				</g>
			</g>
		</g>
		<g enable-background="new    ">
			<g enable-background="new    ">
				<g enable-background="new    ">
					<text transform="matrix(1 0 0 1 -1416.3076 -58.6458)" fill="#F5EFEA" font-family="'ArialMT'" font-size="5.9444">Add Bookmarks</text>
				</g>
			</g>
		</g>
		<g>
			<g enable-background="new    ">
				<g enable-background="new    ">
					<text transform="matrix(1 0 0 1 -1374.3467 -58.6458)" fill="#F5EFEA" font-family="'ArialMT'" font-size="5.9444">     </text>
				</g>
			</g>
		</g>
		<path fill="#FFFFFF" d="M-1425.165-62.842c0-0.363,0.296-0.66,0.663-0.66h3.127c0.366,0,0.664,0.297,0.664,0.66v5.035
			l-2.229-1.425l-2.226,1.425L-1425.165-62.842L-1425.165-62.842z"/>
		<path fill="none" stroke="#5F5F5F" stroke-width="0.5" d="M-1434.027-65.57v10.123 M-1498.9-65.57v10.123"/>
		<path fill="#455266" d="M-1323.964,12.478h23.559V6.564h-14.81c0.294-0.487,0.782-1.025,1.417-1.563
			c0.628-0.57,1.299-1.096,2.006-1.563c0.732-0.488,1.465-0.979,2.247-1.417c0.675-0.361,1.344-0.736,2.005-1.124
			c0.74-0.426,1.475-0.866,2.198-1.319c0.782-0.489,1.466-1.124,2.151-1.81c0.646-0.7,1.189-1.49,1.612-2.347
			c0.391-0.88,0.636-1.856,0.636-3.029s-0.245-2.297-0.733-3.323c-0.483-1.021-1.184-1.92-2.054-2.64
			c-0.879-0.733-2.003-1.32-3.273-1.71c-1.445-0.429-2.942-0.643-4.448-0.637c-1.467,0-2.884,0.194-4.154,0.487
			c-1.271,0.293-2.444,0.686-3.52,1.174c-1.074,0.487-1.955,0.979-2.736,1.516c-0.782,0.538-1.417,1.026-1.809,1.468l4.203,4.838
			c0.392-0.487,0.782-0.929,1.271-1.368c0.489-0.438,0.979-0.829,1.563-1.223c0.587-0.343,1.174-0.636,1.858-0.83
			c0.635-0.196,1.368-0.344,2.149-0.344c1.468,0,2.591,0.393,3.373,1.075c0.782,0.687,1.173,1.517,1.173,2.493
			c0,0.635-0.195,1.173-0.537,1.661c-0.391,0.488-0.88,0.929-1.563,1.368c-0.684,0.489-1.563,0.979-2.59,1.517
			c-1.027,0.537-2.199,1.172-3.52,1.855c-1.563,0.881-2.835,1.711-3.812,2.591c-0.919,0.823-1.709,1.779-2.347,2.835
			c-0.585,1.029-0.982,2.155-1.173,3.323C-1323.866,9.692-1323.964,11.012-1323.964,12.478L-1323.964,12.478z"/>
		<path fill="#99AABB" d="M-1327.556-27.363c0,0.364,0.063,0.713,0.197,1.063c0.135,0.349,0.325,0.656,0.563,0.928
			c0.238,0.271,0.531,0.49,0.864,0.657c0.333,0.175,0.698,0.254,1.102,0.254c0.222,0,0.46-0.023,0.698-0.087
			c0.237-0.057,0.46-0.144,0.665-0.255c0.206-0.11,0.397-0.245,0.563-0.403c0.166-0.16,0.298-0.353,0.389-0.563l-0.896-0.515
			c-0.114,0.285-0.328,0.52-0.603,0.657c-0.122,0.067-0.253,0.12-0.389,0.148c-0.13,0.032-0.263,0.047-0.396,0.049
			c-0.246,0-0.468-0.049-0.674-0.158c-0.203-0.102-0.381-0.244-0.523-0.42c-0.146-0.18-0.258-0.385-0.333-0.603
			c-0.079-0.232-0.12-0.478-0.118-0.723c0-0.223,0.031-0.442,0.102-0.666c0.064-0.223,0.167-0.428,0.302-0.604
			c0.136-0.174,0.302-0.323,0.509-0.437c0.205-0.109,0.443-0.167,0.721-0.167c0.267,0.004,0.528,0.065,0.769,0.184
			c0.118,0.063,0.229,0.149,0.341,0.263c0.104,0.109,0.189,0.237,0.271,0.396l0.841-0.578c-0.194-0.369-0.487-0.678-0.848-0.889
			c-0.381-0.222-0.824-0.34-1.341-0.34c-0.443,0-0.831,0.086-1.172,0.245c-0.349,0.166-0.634,0.38-0.872,0.644
			c-0.238,0.269-0.42,0.569-0.547,0.902C-1327.498-28.053-1327.559-27.709-1327.556-27.363z M-1318.025-24.509v-2.594
			c0-0.206-0.024-0.403-0.057-0.604c-0.036-0.185-0.103-0.359-0.197-0.521c-0.101-0.152-0.236-0.277-0.396-0.364
			c-0.174-0.096-0.388-0.144-0.658-0.144c-0.317,0-0.609,0.079-0.871,0.222c-0.262,0.144-0.476,0.357-0.618,0.619v-2.401h-1.063
			v5.787h1.063v-2.428c0.034-0.126,0.094-0.244,0.174-0.349c0.079-0.104,0.167-0.189,0.262-0.271
			c0.091-0.075,0.192-0.137,0.301-0.183c0.104-0.039,0.206-0.063,0.301-0.063c0.223,0,0.39,0.079,0.516,0.236
			c0.119,0.157,0.183,0.396,0.183,0.723v2.33h1.06V-24.509z M-1315.968-24.43c0.301,0,0.578-0.063,0.848-0.189
			c0.266-0.129,0.496-0.318,0.674-0.555l0.023,0.229c0.017,0.14,0.088,0.269,0.198,0.355c0.111,0.096,0.262,0.135,0.468,0.135
			c0.127,0,0.285-0.018,0.468-0.055v-0.904c-0.096,0-0.159-0.031-0.198-0.079c-0.04-0.047-0.055-0.128-0.055-0.237v-1.292
			c0-0.555-0.167-0.976-0.5-1.269c-0.332-0.294-0.793-0.443-1.387-0.443c-0.619,0-1.197,0.183-1.729,0.53l0.326,0.675
			c0.221-0.151,0.435-0.271,0.648-0.35c0.207-0.079,0.428-0.119,0.65-0.119c0.302,0,0.531,0.079,0.689,0.224
			c0.159,0.149,0.238,0.363,0.238,0.634v0.237c-0.154-0.061-0.313-0.104-0.477-0.136c-0.178-0.031-0.357-0.048-0.539-0.048
			c-0.261,0-0.498,0.04-0.713,0.104c-0.201,0.058-0.392,0.147-0.563,0.271c-0.158,0.118-0.277,0.263-0.365,0.43
			c-0.085,0.165-0.129,0.351-0.127,0.537c0,0.189,0.033,0.364,0.104,0.521c0.146,0.325,0.417,0.576,0.752,0.698
			C-1316.357-24.462-1316.174-24.43-1315.968-24.43z M-1315.667-25.207c-0.206,0-0.373-0.056-0.507-0.175
			c-0.136-0.11-0.212-0.277-0.206-0.451c0-0.189,0.087-0.341,0.262-0.469c0.174-0.127,0.396-0.189,0.673-0.189
			c0.135,0,0.277,0.017,0.428,0.049c0.143,0.03,0.285,0.063,0.413,0.109v0.478c0,0.109-0.063,0.213-0.175,0.301
			c-0.104,0.113-0.235,0.201-0.381,0.253C-1315.319-25.238-1315.494-25.207-1315.667-25.207z M-1310.062-24.43
			c0.261,0,0.507-0.056,0.729-0.166s0.412-0.262,0.57-0.46c0.159-0.188,0.285-0.421,0.381-0.688
			c0.088-0.262,0.135-0.547,0.135-0.849c-0.002-0.281-0.053-0.561-0.151-0.823c-0.087-0.252-0.225-0.483-0.403-0.683
			c-0.171-0.191-0.379-0.349-0.609-0.46c-0.243-0.113-0.509-0.174-0.777-0.175c-0.317,0-0.604,0.07-0.84,0.215
			c-0.242,0.14-0.447,0.334-0.595,0.57v-0.715h-0.928v5.843h1.063v-2.417c0.135,0.253,0.325,0.45,0.57,0.595
			C-1310.681-24.501-1310.396-24.43-1310.062-24.43z M-1310.419-25.334c-0.23,0-0.444-0.069-0.634-0.229
			c-0.198-0.158-0.341-0.356-0.438-0.596v-0.975c0.03-0.097,0.087-0.189,0.159-0.277c0.07-0.078,0.15-0.157,0.244-0.222
			c0.09-0.064,0.188-0.113,0.293-0.144c0.104-0.032,0.207-0.058,0.31-0.058c0.311-0.001,0.607,0.129,0.816,0.355
			c0.104,0.11,0.183,0.246,0.245,0.396c0.057,0.149,0.088,0.311,0.088,0.483c0,0.166-0.031,0.324-0.078,0.477
			c-0.057,0.158-0.128,0.293-0.223,0.404c-0.096,0.117-0.214,0.213-0.35,0.276C-1310.119-25.366-1310.261-25.334-1310.419-25.334z
			 M-1305.093-24.723l-0.214-0.84c-0.082,0.038-0.167,0.068-0.253,0.095c-0.111,0.04-0.215,0.057-0.325,0.057
			c-0.104,0.006-0.203-0.024-0.286-0.088c-0.079-0.063-0.11-0.166-0.11-0.315v-2.029h0.872v-0.815h-0.872v-1.347h-1.063v1.347
			h-0.547v0.815h0.547v2.387c0,0.189,0.024,0.351,0.088,0.477c0.055,0.127,0.135,0.237,0.229,0.316
			c0.096,0.079,0.214,0.144,0.341,0.176c0.127,0.038,0.27,0.055,0.421,0.055c0.221,0,0.443-0.032,0.648-0.095
			C-1305.41-24.596-1305.236-24.66-1305.093-24.723z M-1302.714-24.43c0.46,0,0.863-0.095,1.197-0.302
			c0.332-0.206,0.578-0.467,0.736-0.784l-0.912-0.254c-0.07,0.175-0.197,0.311-0.388,0.412c-0.183,0.102-0.386,0.15-0.595,0.15
			c-0.143,0-0.27-0.023-0.396-0.07c-0.127-0.043-0.243-0.114-0.342-0.206c-0.103-0.092-0.187-0.201-0.245-0.325
			c-0.066-0.137-0.107-0.284-0.119-0.437h3.21c0.008-0.039,0.016-0.096,0.016-0.157c0-0.063,0.009-0.127,0.009-0.198
			c0-0.276-0.057-0.547-0.151-0.81c-0.094-0.254-0.239-0.485-0.429-0.682c-0.195-0.197-0.427-0.354-0.68-0.469
			c-0.287-0.117-0.595-0.176-0.904-0.175c-0.341,0-0.65,0.063-0.92,0.175c-0.27,0.119-0.499,0.276-0.689,0.477
			c-0.189,0.197-0.34,0.429-0.436,0.688c-0.103,0.268-0.154,0.549-0.151,0.833c0,0.285,0.049,0.563,0.151,0.815
			c0.104,0.263,0.254,0.492,0.443,0.683c0.191,0.197,0.42,0.355,0.69,0.468S-1303.047-24.43-1302.714-24.43L-1302.714-24.43z
			 M-1301.636-26.935h-2.156c0.008-0.149,0.039-0.293,0.104-0.42c0.061-0.12,0.141-0.229,0.237-0.325
			c0.095-0.087,0.198-0.156,0.324-0.205c0.128-0.048,0.263-0.079,0.405-0.079c0.285,0,0.531,0.096,0.736,0.284
			C-1301.78-27.489-1301.668-27.244-1301.636-26.935z M-1297.422-27.743v-0.967c-0.032,0-0.056-0.009-0.087-0.009h-0.128
			c-0.11,0-0.229,0.023-0.349,0.07c-0.118,0.048-0.237,0.11-0.348,0.189c-0.12,0.088-0.23,0.19-0.326,0.303
			c-0.102,0.109-0.189,0.236-0.261,0.381v-0.89h-0.976v4.153h1.063v-2.514c0.11-0.237,0.293-0.411,0.547-0.53
			C-1298.033-27.673-1297.748-27.735-1297.422-27.743z"/>
		<g enable-background="new    ">
			<g enable-background="new    ">
				<g enable-background="new    ">
					<text transform="matrix(1 0 0 1 -1601.9033 -204.1614)" fill="#333333" font-family="'Arial-BoldMT'" font-size="9.2468">       </text>
				</g>
			</g>
		</g>
		<g enable-background="new    ">
			<g enable-background="new    ">
				<g enable-background="new    ">
					<text transform="matrix(1 0 0 1 -1499.6963 -21.761)" fill="#333333" font-family="'Arial-BoldMT'" font-size="9.2468">Understanding Bootstrap: How it </text>
				</g>
			</g>
		</g>
		<g enable-background="new    ">
			<g enable-background="new    ">
				<g enable-background="new    ">
					<text transform="matrix(1 0 0 1 -1459.2803 -8.842)" fill="#333333" font-family="'Arial-BoldMT'" font-size="9.2468">Works, and What’s New</text>
				</g>
			</g>
		</g>
		<g>
			<g enable-background="new    ">
				<g enable-background="new    ">
					<text transform="matrix(1 0 0 1 -1355.4912 -8.842)" fill="#333333" font-family="'Arial-BoldMT'" font-size="9.2468">     </text>
				</g>
			</g>
		</g>
		<g enable-background="new    ">
			<g enable-background="new    ">
				<g enable-background="new    ">
					<text transform="matrix(1 0 0 1 -1601.9033 -204.1614)" fill="#99AABB" font-family="'Arial-BoldMT'" font-size="8.5863">       </text>
				</g>
			</g>
		</g>
		<g enable-background="new    ">
			<g enable-background="new    ">
				<g enable-background="new    ">
					<text transform="matrix(1 0 0 1 -1434.0791 3.3777)" fill="#99AABB" font-family="'Arial-BoldMT'" font-size="8.5863">Syed Fazel Rahman</text>
				</g>
			</g>
		</g>
		<g>
			<g enable-background="new    ">
				<g enable-background="new    ">
					<text transform="matrix(1 0 0 1 -1353.4346 3.3777)" fill="#99AABB" font-family="'Arial-BoldMT'" font-size="8.5863">     </text>
				</g>
			</g>
		</g>
		<path fill="#553D7C" d="M-1540.479-165.853h70.012v88.505h-70.012V-165.853z"/>
		<path fill="#BEBDBB" d="M-1527.385-111.135v-6.92l-7.149-0.243v0.02L-1527.385-111.135z"/>
		
			<linearGradient id="SVGID_3_" gradientUnits="userSpaceOnUse" x1="-1458.0303" y1="13097.6631" x2="-1455.2119" y2="13100.041" gradientTransform="matrix(1.6103 0 0 -1.6103 813.4642 20979.3516)">
			<stop  offset="0" style="stop-color:#C7C1BD"/>
			<stop  offset="1" style="stop-color:#A29D9A"/>
		</linearGradient>
		<path fill="url(#SVGID_3_)" d="M-1534.535-118.299l0.244,7.163h6.905v-0.02L-1534.535-118.299z"/>
		
			<linearGradient id="SVGID_4_" gradientUnits="userSpaceOnUse" x1="-1449.6426" y1="13097.3525" x2="-1451.4573" y2="13099.4717" gradientTransform="matrix(1.6103 0 0 -1.6103 813.4642 20979.3516)">
			<stop  offset="0" style="stop-color:#C7C1BD"/>
			<stop  offset="1" style="stop-color:#A29D9A"/>
		</linearGradient>
		<path fill="url(#SVGID_4_)" d="M-1527.395-111.144h6.924l0.243-7.146h-0.018L-1527.395-111.144z"/>
		<path fill="#CDC8C5" d="M-1520.227-118.289l-7.167,0.244v6.899h0.018L-1520.227-118.289z"/>
		
			<linearGradient id="SVGID_5_" gradientUnits="userSpaceOnUse" x1="-1453.665" y1="13093.0146" x2="-1451.4462" y2="13095.0322" gradientTransform="matrix(1.6103 0 0 -1.6103 813.4642 20979.3516)">
			<stop  offset="0" style="stop-color:#FCFCFC"/>
			<stop  offset="1" style="stop-color:#E6E6E6"/>
		</linearGradient>
		<path fill="url(#SVGID_5_)" d="M-1527.376-111.155v6.921l7.148,0.242v-0.019L-1527.376-111.155z"/>
		<path fill="#EFEFED" d="M-1520.228-103.99l-0.243-7.164h-6.905v0.021L-1520.228-103.99z"/>
		<path fill="#F0EEF1" d="M-1527.367-111.144h-6.924l-0.244,7.146h0.021L-1527.367-111.144z"/>
		
			<linearGradient id="SVGID_6_" gradientUnits="userSpaceOnUse" x1="-1453.3105" y1="13092.4014" x2="-1456.0334" y2="13095.1768" gradientTransform="matrix(1.6103 0 0 -1.6103 813.4642 20979.3516)">
			<stop  offset="0" style="stop-color:#DBDBDB"/>
			<stop  offset="0.718" style="stop-color:#DED9D9"/>
			<stop  offset="0.972" style="stop-color:#CFCCCC"/>
		</linearGradient>
		<path fill="url(#SVGID_6_)" d="M-1534.535-104l7.169-0.243v-6.9h-0.02L-1534.535-104z"/>
		<path fill="#EFEFED" d="M-1506.401-110.628v-3.991c-2.207-1.314-3.616-1.801-6.338-2.357v0.018L-1506.401-110.628z"/>
		
			<linearGradient id="SVGID_7_" gradientUnits="userSpaceOnUse" x1="-1444.9316" y1="13096.6182" x2="-1442.4771" y2="13099.0293" gradientTransform="matrix(1.6103 0 0 -1.6103 813.4642 20979.3516)">
			<stop  offset="0" style="stop-color:#DBDBDB"/>
			<stop  offset="0.718" style="stop-color:#DED9D9"/>
			<stop  offset="0.972" style="stop-color:#CFCCCC"/>
		</linearGradient>
		<path fill="url(#SVGID_7_)" d="M-1512.739-116.977c0.711,2.792,1.174,4.263,2.358,6.351h3.979v-0.018L-1512.739-116.977z"/>
		
			<linearGradient id="SVGID_8_" gradientUnits="userSpaceOnUse" x1="-1437.0674" y1="13097.0244" x2="-1438.6764" y2="13098.9023" gradientTransform="matrix(1.6103 0 0 -1.6103 813.4642 20979.3516)">
			<stop  offset="0" style="stop-color:#C7C1BD"/>
			<stop  offset="1" style="stop-color:#8C7E76"/>
		</linearGradient>
		<path fill="url(#SVGID_8_)" d="M-1506.408-110.635h3.995c1.365-2.146,1.835-3.567,2.358-6.334h-0.016L-1506.408-110.635z"/>
		<path fill="#F5F5F5" d="M-1500.054-116.969c-2.618,0.48-4.045,0.882-6.354,2.272v4.062h0.017L-1500.054-116.969z"/>
		
			<linearGradient id="SVGID_9_" gradientUnits="userSpaceOnUse" x1="-1440.5649" y1="13093.3643" x2="-1438.0652" y2="13095.4727" gradientTransform="matrix(1.6103 0 0 -1.6103 813.4642 20979.3516)">
			<stop  offset="0" style="stop-color:#705D50"/>
			<stop  offset="1" style="stop-color:#817369"/>
		</linearGradient>
		<path fill="url(#SVGID_9_)" d="M-1506.392-110.643v4.163c2.232,1.225,3.698,1.583,6.338,2.188v-0.017L-1506.392-110.643z"/>
		
			<linearGradient id="SVGID_10_" gradientUnits="userSpaceOnUse" x1="-1436.3384" y1="13097.2529" x2="-1438.7958" y2="13094.8389" gradientTransform="matrix(1.6103 0 0 -1.6103 813.4642 20979.3516)">
			<stop  offset="0" style="stop-color:#DBDBDB"/>
			<stop  offset="0.718" style="stop-color:#DED9D9"/>
			<stop  offset="0.972" style="stop-color:#CFCCCC"/>
		</linearGradient>
		<path fill="url(#SVGID_10_)" d="M-1500.054-104.294c-0.772-3.086-1.235-4.694-2.358-6.351h-3.979v0.017L-1500.054-104.294z"/>
		<path fill="#F0EEF1" d="M-1506.384-110.635h-4.082c-1.288,2.083-1.678,3.575-2.272,6.334h0.017L-1506.384-110.635z"/>
		
			<linearGradient id="SVGID_11_" gradientUnits="userSpaceOnUse" x1="-1441.0098" y1="13093.0693" x2="-1442.7472" y2="13095.1318" gradientTransform="matrix(1.6103 0 0 -1.6103 813.4642 20979.3516)">
			<stop  offset="0" style="stop-color:#A19A95"/>
			<stop  offset="1" style="stop-color:#6D5951"/>
		</linearGradient>
		<path fill="url(#SVGID_11_)" d="M-1512.738-104.302c2.542-0.618,3.984-0.901,6.354-2.188v-4.146h-0.016L-1512.738-104.302z"/>
		
			<linearGradient id="SVGID_12_" gradientUnits="userSpaceOnUse" x1="-1428.02" y1="13094.2393" x2="-1424.0188" y2="13097.7256" gradientTransform="matrix(1.6103 0 0 -1.6103 813.4642 20979.3516)">
			<stop  offset="0.024" style="stop-color:#8F847D"/>
			<stop  offset="1" style="stop-color:#F7F7F7"/>
		</linearGradient>
		<path fill="url(#SVGID_12_)" d="M-1485.873-115.327l-0.013,9.357l9.692-0.085v-0.024L-1485.873-115.327z"/>
		
			<linearGradient id="SVGID_13_" gradientUnits="userSpaceOnUse" x1="-1428.1519" y1="13096.9346" x2="-1432.5236" y2="13096.9004" gradientTransform="matrix(1.6103 0 0 -1.6103 813.4642 20979.3516)">
			<stop  offset="0" style="stop-color:#8B7F79"/>
			<stop  offset="1" style="stop-color:#B2A9A4"/>
		</linearGradient>
		<path fill="url(#SVGID_13_)" d="M-1495.566-106.067l9.68,0.099l0.024-9.346h-0.024L-1495.566-106.067z"/>
		
			<linearGradient id="SVGID_14_" gradientUnits="userSpaceOnUse" x1="-1427.897" y1="13094.7158" x2="-1424.8901" y2="13097.4463" gradientTransform="matrix(1.6103 0 0 -1.6103 813.4642 20979.3516)">
			<stop  offset="0" style="stop-color:#F5F5F5"/>
			<stop  offset="1" style="stop-color:#F5F5F5"/>
		</linearGradient>
		<path fill="url(#SVGID_14_)" d="M-1485.885-116.316v10.236l9.692-0.525v-0.022L-1485.885-116.316z"/>
		
			<linearGradient id="SVGID_15_" gradientUnits="userSpaceOnUse" x1="-1427.9033" y1="13097.2822" x2="-1432.6857" y2="13097.2822" gradientTransform="matrix(1.6103 0 0 -1.6103 813.4642 20979.3516)">
			<stop  offset="0" style="stop-color:#EBEBEB"/>
			<stop  offset="0.404" style="stop-color:#F0EEF1"/>
			<stop  offset="0.972" style="stop-color:#F5F5F5"/>
		</linearGradient>
		<path fill="url(#SVGID_15_)" d="M-1495.566-106.617l9.68,0.538v-10.236L-1495.566-106.617z"/>
		<path fill="#FFFFFF" d="M-1528.653-134.256c0-0.492-0.127-0.91-0.38-1.262c-0.248-0.35-0.604-0.604-1.013-0.726
			c0.339-0.153,0.603-0.406,0.791-0.735c0.314-0.544,0.372-1.198,0.158-1.79c-0.075-0.229-0.189-0.443-0.337-0.635
			c-0.147-0.188-0.33-0.345-0.537-0.463c-0.219-0.113-0.46-0.175-0.707-0.176h-3.857v7.794h3.573
			c0.304,0.002,0.605-0.042,0.896-0.132c0.266-0.083,0.513-0.219,0.728-0.396c0.212-0.177,0.369-0.386,0.496-0.637
			C-1528.716-133.651-1528.653-133.936-1528.653-134.256z M-1529.865-134.486c0,0.166-0.032,0.318-0.085,0.462
			c-0.058,0.135-0.137,0.261-0.229,0.373c-0.106,0.109-0.222,0.188-0.349,0.254c-0.136,0.062-0.282,0.09-0.432,0.086h-2.393v-2.381
			h2.467c0.146,0,0.285,0.031,0.411,0.098c0.127,0.066,0.229,0.154,0.313,0.265C-1529.973-135.089-1529.87-134.792-1529.865-134.486
			z M-1533.354-138.974h2.234c0.274,0,0.507,0.11,0.695,0.329c0.18,0.219,0.274,0.494,0.274,0.822c0,0.176-0.031,0.329-0.084,0.462
			c-0.048,0.135-0.123,0.259-0.222,0.36c-0.092,0.1-0.203,0.178-0.327,0.23c-0.126,0.065-0.253,0.088-0.399,0.088h-2.172
			L-1533.354-138.974L-1533.354-138.974z M-1524.312-132.19c0.506,0,0.98-0.101,1.422-0.319c0.436-0.213,0.825-0.507,1.15-0.866
			c0.323-0.372,0.577-0.801,0.748-1.264c0.182-0.476,0.275-0.981,0.273-1.491c0-0.482-0.095-0.968-0.264-1.438
			c-0.163-0.464-0.41-0.896-0.727-1.273c-0.313-0.37-0.696-0.678-1.128-0.897c-0.449-0.234-0.948-0.354-1.455-0.354
			c-0.527,0-1.001,0.11-1.444,0.33c-0.433,0.21-0.82,0.507-1.138,0.867c-0.32,0.375-0.573,0.802-0.748,1.263
			c-0.187,0.478-0.278,0.981-0.275,1.492c0,0.506,0.084,0.988,0.254,1.46c0.165,0.468,0.415,0.899,0.737,1.274
			c0.312,0.37,0.694,0.674,1.128,0.888C-1525.322-132.297-1524.821-132.184-1524.312-132.19z M-1526.695-136.143
			c0-0.352,0.053-0.69,0.157-1.031c0.1-0.33,0.262-0.641,0.476-0.91c0.2-0.266,0.453-0.474,0.748-0.637
			c0.296-0.165,0.633-0.253,1.012-0.253c0.358,0,0.675,0.088,0.971,0.241c0.29,0.151,0.545,0.365,0.748,0.625
			c0.211,0.263,0.369,0.562,0.484,0.899c0.105,0.341,0.169,0.69,0.169,1.063c0,0.353-0.053,0.703-0.158,1.032
			c-0.106,0.34-0.264,0.647-0.464,0.91c-0.201,0.271-0.456,0.494-0.749,0.659c-0.294,0.164-0.622,0.239-1.001,0.239
			c-0.344,0.008-0.684-0.071-0.99-0.229c-0.294-0.156-0.553-0.374-0.76-0.637c-0.215-0.271-0.377-0.579-0.475-0.911
			C-1526.641-135.422-1526.699-135.781-1526.695-136.143z M-1516.386-132.19c0.505,0,0.979-0.101,1.423-0.319
			c0.435-0.213,0.824-0.507,1.148-0.866c0.325-0.371,0.579-0.799,0.749-1.264c0.182-0.476,0.275-0.981,0.274-1.491
			c0-0.482-0.096-0.968-0.265-1.438c-0.163-0.464-0.41-0.896-0.727-1.273c-0.313-0.37-0.696-0.678-1.128-0.897
			c-0.45-0.234-0.948-0.354-1.455-0.354c-0.526,0-1.001,0.11-1.444,0.33c-0.433,0.21-0.82,0.507-1.139,0.867
			c-0.319,0.375-0.572,0.802-0.748,1.263c-0.185,0.478-0.277,0.981-0.273,1.492c0,0.506,0.085,0.988,0.253,1.46
			c0.164,0.468,0.415,0.899,0.738,1.274c0.31,0.37,0.694,0.674,1.127,0.888C-1517.41-132.3-1516.923-132.19-1516.386-132.19z
			 M-1518.769-136.143c0-0.352,0.053-0.69,0.159-1.031c0.104-0.34,0.263-0.646,0.474-0.91c0.2-0.266,0.453-0.474,0.749-0.637
			c0.294-0.165,0.632-0.253,1.011-0.253c0.358,0,0.676,0.088,0.97,0.241c0.292,0.151,0.546,0.365,0.748,0.625
			c0.211,0.263,0.37,0.562,0.485,0.899c0.106,0.341,0.17,0.69,0.17,1.063c0,0.352-0.053,0.699-0.159,1.032
			c-0.104,0.34-0.263,0.647-0.464,0.91c-0.201,0.271-0.455,0.494-0.748,0.659c-0.295,0.164-0.623,0.239-1.002,0.239
			c-0.344,0.008-0.684-0.072-0.99-0.229c-0.295-0.156-0.553-0.374-0.759-0.637c-0.216-0.271-0.377-0.579-0.475-0.911
			C-1518.715-135.422-1518.772-135.781-1518.769-136.143z M-1506.428-138.954v-1.086h-6.177v1.086h2.498v6.708h1.191v-6.708
			H-1506.428z M-1500.998-138.206l0.537-1.011c-0.35-0.255-0.728-0.465-1.128-0.627c-0.448-0.169-0.923-0.255-1.401-0.253
			c-0.364-0.001-0.727,0.051-1.076,0.154c-0.313,0.099-0.604,0.255-0.864,0.461c-0.242,0.196-0.432,0.45-0.568,0.747
			c-0.147,0.297-0.212,0.636-0.212,1.01c0,0.308,0.043,0.57,0.139,0.79c0.094,0.221,0.23,0.406,0.421,0.561
			c0.179,0.166,0.411,0.31,0.688,0.418c0.271,0.108,0.601,0.22,0.979,0.317c0.315,0.088,0.61,0.176,0.864,0.252
			c0.252,0.089,0.463,0.177,0.643,0.274c0.168,0.099,0.306,0.209,0.4,0.34c0.095,0.132,0.148,0.297,0.148,0.495
			c0,0.328-0.127,0.582-0.381,0.746c-0.253,0.176-0.611,0.252-1.074,0.252c-0.296,0-0.57-0.033-0.832-0.1
			c-0.258-0.063-0.508-0.146-0.749-0.253c-0.212-0.088-0.414-0.198-0.602-0.329c-0.144-0.088-0.274-0.193-0.391-0.316l-0.537,1.053
			c0.425,0.352,0.911,0.619,1.434,0.791c0.534,0.178,1.094,0.266,1.655,0.265c0.379,0,0.727-0.033,1.064-0.121
			c0.31-0.08,0.602-0.214,0.865-0.396c0.252-0.176,0.441-0.418,0.589-0.703c0.149-0.286,0.223-0.626,0.223-1.021
			c0-0.352-0.063-0.646-0.18-0.889c-0.114-0.242-0.279-0.454-0.485-0.625c-0.238-0.181-0.5-0.324-0.779-0.43
			c-0.336-0.122-0.677-0.229-1.023-0.317c-0.315-0.077-0.579-0.153-0.811-0.221c-0.202-0.056-0.397-0.138-0.58-0.242
			c-0.158-0.087-0.273-0.196-0.348-0.316c-0.074-0.12-0.105-0.273-0.105-0.472c0-0.33,0.115-0.595,0.348-0.791
			c0.232-0.188,0.602-0.286,1.107-0.286c0.221,0,0.441,0.034,0.652,0.077c0.211,0.058,0.412,0.12,0.591,0.198
			c0.18,0.086,0.338,0.176,0.475,0.264C-1501.176-138.372-1501.072-138.284-1500.998-138.206z M-1493.541-138.954v-1.086h-6.178
			v1.086h2.498v6.708h1.191v-6.708H-1493.541z M-1492.538-132.246h1.181v-2.711h1.729l1.623,2.711h1.339l-1.761-2.964
			c0.212-0.064,0.411-0.177,0.602-0.329c0.179-0.153,0.336-0.33,0.464-0.538c0.126-0.196,0.222-0.429,0.295-0.67
			c0.063-0.241,0.104-0.493,0.104-0.758c0-0.309-0.063-0.614-0.178-0.923c-0.111-0.295-0.271-0.569-0.475-0.813
			c-0.208-0.236-0.458-0.435-0.738-0.581c-0.287-0.146-0.605-0.223-0.928-0.221h-3.257L-1492.538-132.246L-1492.538-132.246z
			 M-1491.357-136.044v-2.909h2.003c0.147,0,0.295,0.043,0.442,0.121c0.146,0.076,0.273,0.176,0.38,0.308
			c0.104,0.133,0.2,0.285,0.263,0.462c0.064,0.175,0.105,0.36,0.105,0.56c0,0.197-0.031,0.385-0.084,0.562
			c-0.056,0.167-0.133,0.326-0.231,0.472c-0.099,0.129-0.22,0.236-0.358,0.318c-0.139,0.075-0.296,0.113-0.454,0.109
			L-1491.357-136.044L-1491.357-136.044z M-1483.479-140.04l-2.973,7.794h1.255l0.78-2.117h2.888l0.789,2.117h1.245l-2.951-7.793
			L-1483.479-140.04L-1483.479-140.04z M-1481.761-135.275h-2.445l1.244-3.351L-1481.761-135.275z M-1478.57-132.246h1.182v-2.711
			h2.021c0.337,0,0.643-0.064,0.916-0.209c0.275-0.142,0.521-0.334,0.717-0.57c0.191-0.241,0.349-0.504,0.454-0.813
			c0.105-0.308,0.169-0.627,0.169-0.955c0-0.309-0.063-0.614-0.179-0.923c-0.111-0.295-0.272-0.569-0.475-0.813
			c-0.21-0.235-0.459-0.434-0.739-0.58c-0.287-0.146-0.605-0.223-0.927-0.221h-3.142L-1478.57-132.246L-1478.57-132.246z
			 M-1477.388-136.044v-2.909h1.887c0.148,0,0.294,0.043,0.442,0.108c0.147,0.066,0.273,0.165,0.39,0.298
			c0.105,0.131,0.2,0.272,0.264,0.448c0.063,0.178,0.095,0.374,0.095,0.594s-0.031,0.405-0.084,0.582
			c-0.056,0.162-0.134,0.317-0.232,0.461c-0.106,0.132-0.221,0.241-0.357,0.309c-0.14,0.075-0.296,0.113-0.454,0.109H-1477.388z
			 M-1526.783-145.359h-0.569l1.216,2.099v1.187h0.518v-1.175l1.226-2.108h-0.568l-0.916,1.646L-1526.783-145.359z
			 M-1522.842-142.053c0.222,0,0.43-0.041,0.624-0.135c0.195-0.092,0.361-0.212,0.505-0.364c0.138-0.15,0.249-0.327,0.327-0.53
			c0.08-0.199,0.121-0.414,0.12-0.629c-0.001-0.207-0.041-0.413-0.115-0.604c-0.071-0.197-0.18-0.379-0.319-0.537
			c-0.138-0.156-0.306-0.286-0.494-0.379c-0.198-0.1-0.416-0.149-0.639-0.147c-0.23,0-0.438,0.047-0.633,0.141
			c-0.189,0.087-0.358,0.211-0.499,0.364c-0.14,0.155-0.251,0.337-0.329,0.53c-0.154,0.4-0.159,0.843-0.008,1.244
			c0.073,0.204,0.184,0.379,0.322,0.536C-1523.696-142.234-1523.279-142.047-1522.842-142.053z M-1523.887-143.719
			c0-0.146,0.021-0.291,0.07-0.435c0.044-0.142,0.114-0.271,0.207-0.385c0.088-0.11,0.198-0.198,0.329-0.27
			c0.129-0.068,0.276-0.104,0.443-0.104c0.156,0,0.296,0.036,0.425,0.103c0.13,0.063,0.236,0.151,0.329,0.265
			c0.092,0.11,0.162,0.233,0.212,0.378c0.046,0.146,0.075,0.292,0.075,0.45c0,0.146-0.023,0.295-0.07,0.435
			c-0.047,0.144-0.115,0.271-0.203,0.385c-0.093,0.113-0.198,0.207-0.329,0.275c-0.135,0.069-0.286,0.104-0.438,0.104
			c-0.299,0.004-0.584-0.131-0.768-0.366c-0.095-0.111-0.165-0.242-0.209-0.384
			C-1523.864-143.414-1523.889-143.564-1523.887-143.719L-1523.887-143.719z M-1519.362-142.519c-0.17,0-0.313-0.033-0.429-0.099
			c-0.114-0.063-0.21-0.152-0.278-0.264c-0.071-0.115-0.122-0.242-0.147-0.375c-0.029-0.146-0.043-0.292-0.042-0.438v-1.665h-0.519
			v1.665c0,0.212,0.023,0.421,0.074,0.613c0.047,0.199,0.13,0.375,0.241,0.526c0.11,0.152,0.254,0.272,0.435,0.364
			c0.18,0.094,0.402,0.135,0.665,0.135c0.25,0,0.468-0.041,0.647-0.129c0.181-0.084,0.329-0.203,0.443-0.353
			c0.115-0.156,0.2-0.334,0.25-0.521c0.051-0.199,0.078-0.412,0.078-0.639v-1.665h-0.521v1.665c0,0.146-0.019,0.296-0.046,0.434
			c-0.028,0.14-0.079,0.266-0.147,0.375c-0.068,0.109-0.162,0.2-0.271,0.265C-1519.046-142.552-1519.19-142.519-1519.362-142.519z
			 M-1517.253-142.076h0.518v-1.144h0.759l0.712,1.145h0.588l-0.772-1.248c0.093-0.028,0.18-0.074,0.264-0.14
			c0.078-0.064,0.148-0.14,0.203-0.229c0.114-0.181,0.175-0.389,0.175-0.602c0-0.13-0.027-0.26-0.078-0.39
			c-0.049-0.125-0.119-0.239-0.208-0.343c-0.092-0.101-0.202-0.183-0.324-0.243c-0.126-0.063-0.265-0.094-0.406-0.093h-1.429v3.283
			h-0.002V-142.076z M-1516.736-143.677v-1.226h0.879c0.065,0,0.13,0.02,0.193,0.051c0.064,0.031,0.122,0.075,0.167,0.13
			c0.103,0.12,0.16,0.271,0.162,0.431c0,0.083-0.014,0.161-0.037,0.235c-0.024,0.07-0.059,0.138-0.102,0.198
			c-0.043,0.055-0.097,0.101-0.157,0.134c-0.062,0.032-0.129,0.049-0.199,0.047H-1516.736z M-1513.055-142.076h0.519v-1.414h1.396
			v-0.43h-1.396v-0.98h1.669v-0.458h-2.188V-142.076z M-1510.376-142.076h0.518v-3.282h-0.518V-142.076z M-1509.117-142.076h0.518
			v-1.144h0.758l0.713,1.145h0.587l-0.772-1.248c0.092-0.028,0.181-0.074,0.264-0.14c0.078-0.064,0.147-0.14,0.203-0.229
			c0.114-0.181,0.176-0.389,0.176-0.602c0-0.13-0.028-0.26-0.078-0.39c-0.051-0.125-0.12-0.239-0.209-0.343
			c-0.092-0.101-0.202-0.183-0.323-0.243c-0.126-0.063-0.267-0.094-0.407-0.093h-1.428v3.283h-0.002V-142.076z M-1508.599-143.677
			v-1.226h0.878c0.063,0,0.13,0.02,0.194,0.051c0.063,0.031,0.121,0.075,0.167,0.13c0.103,0.12,0.159,0.271,0.161,0.431
			c0,0.083-0.014,0.161-0.037,0.235c-0.024,0.07-0.059,0.138-0.102,0.198c-0.043,0.055-0.097,0.101-0.157,0.134
			c-0.062,0.032-0.13,0.049-0.198,0.047H-1508.599z M-1504.119-144.587l0.236-0.426c-0.154-0.106-0.32-0.195-0.496-0.265
			c-0.196-0.07-0.404-0.107-0.613-0.104c-0.172,0-0.329,0.021-0.473,0.063c-0.148,0.047-0.272,0.109-0.379,0.193
			c-0.106,0.083-0.191,0.19-0.25,0.313c-0.064,0.125-0.092,0.27-0.092,0.426c0,0.129,0.019,0.239,0.061,0.332
			c0.041,0.094,0.102,0.173,0.185,0.235c0.089,0.075,0.19,0.137,0.301,0.176c0.12,0.047,0.263,0.094,0.43,0.136
			c0.139,0.036,0.268,0.072,0.379,0.105c0.11,0.035,0.204,0.072,0.282,0.114c0.068,0.035,0.127,0.084,0.176,0.145
			c0.044,0.062,0.066,0.135,0.064,0.208c0,0.139-0.055,0.245-0.166,0.313c-0.111,0.074-0.269,0.104-0.472,0.104
			c-0.13,0-0.25-0.013-0.365-0.041c-0.112-0.024-0.222-0.062-0.328-0.105c-0.093-0.035-0.182-0.083-0.265-0.139
			c-0.063-0.036-0.119-0.082-0.171-0.135l-0.235,0.442c0.186,0.147,0.397,0.26,0.629,0.333c0.23,0.074,0.476,0.111,0.726,0.111
			c0.167,0,0.319-0.014,0.468-0.052c0.143-0.037,0.268-0.094,0.378-0.166c0.112-0.073,0.194-0.176,0.259-0.297
			c0.065-0.12,0.099-0.264,0.099-0.43c0-0.148-0.028-0.273-0.08-0.376c-0.05-0.104-0.122-0.191-0.212-0.263
			c-0.105-0.076-0.221-0.138-0.342-0.183c-0.148-0.052-0.297-0.097-0.449-0.135c-0.139-0.031-0.254-0.063-0.355-0.091
			c-0.089-0.023-0.175-0.059-0.255-0.104c-0.062-0.028-0.114-0.076-0.151-0.134c-0.035-0.061-0.051-0.13-0.047-0.197
			c0-0.14,0.051-0.251,0.152-0.333c0.104-0.079,0.264-0.12,0.484-0.12c0.099,0,0.195,0.014,0.287,0.032
			c0.094,0.021,0.181,0.05,0.26,0.082c0.079,0.037,0.147,0.073,0.207,0.11C-1504.197-144.656-1504.152-144.62-1504.119-144.587
			L-1504.119-144.587z M-1500.848-144.901v-0.458h-2.709v0.458h1.096v2.824h0.522v-2.824H-1500.848z M-1498.389-145.345l0.564,1.461
			l-0.49,1.207l-1.026-2.682h-0.564l1.355,3.282h0.443l0.615-1.471l0.609,1.471h0.444l1.354-3.282h-0.568l-1.021,2.682l-0.49-1.207
			l0.56-1.461h-0.485l-0.407,1.114l-0.401-1.114H-1498.389z M-1492.445-142.534h-1.734v-1.004h1.466v-0.429h-1.466v-0.936h1.692
			v-0.458h-2.209v3.282h2.251V-142.534z M-1489.658-142.534h-1.734v-1.004h1.466v-0.429h-1.466v-0.936h1.692v-0.458h-2.211v3.282
			h2.253V-142.534z M-1489.125-142.076h0.518v-0.988l0.504-0.521l1.109,1.513h0.578l-1.367-1.832l1.295-1.451h-0.574l-1.545,1.691
			v-1.688h-0.518V-142.076L-1489.125-142.076z M-1483.977-145.345l0.563,1.461l-0.49,1.207l-1.026-2.682h-0.563l1.355,3.282h0.443
			l0.615-1.471l0.609,1.471h0.444l1.354-3.282h-0.568l-1.021,2.682l-0.491-1.207l0.561-1.461h-0.485l-0.407,1.114l-0.401-1.114
			H-1483.977L-1483.977-145.345z M-1480.284-142.076h0.518v-3.282h-0.518V-142.076z M-1476.615-144.901v-0.458h-2.709v0.458h1.095
			v2.824h0.522v-2.824H-1476.615z M-1473.48-145.359h-0.522v1.374h-1.655v-1.374h-0.518v3.282h0.518v-1.446h1.655v1.446h0.522
			V-145.359z M-1533.335-85.037c0.006-0.191-0.119-0.364-0.305-0.418c0.072-0.031,0.133-0.087,0.174-0.153
			c0.067-0.114,0.081-0.253,0.034-0.378c-0.033-0.1-0.101-0.183-0.191-0.231c-0.05-0.021-0.102-0.035-0.155-0.035h-0.846v1.642
			h0.783c0.069,0,0.134-0.01,0.196-0.027c0.059-0.018,0.112-0.046,0.16-0.083C-1533.391-84.802-1533.335-84.915-1533.335-85.037z
			 M-1533.601-85.086c0,0.032-0.007,0.065-0.019,0.099c-0.013,0.026-0.03,0.056-0.05,0.077c-0.023,0.021-0.049,0.04-0.077,0.056
			c-0.03,0.012-0.063,0.02-0.095,0.019h-0.524v-0.502h0.54c0.063,0,0.121,0.026,0.16,0.075
			C-1533.625-85.213-1533.603-85.15-1533.601-85.086z M-1534.366-86.03h0.489c0.059-0.001,0.115,0.023,0.152,0.067
			c0.04,0.046,0.061,0.104,0.061,0.174c0.001,0.033-0.006,0.064-0.019,0.098c-0.021,0.058-0.064,0.103-0.12,0.125
			c-0.027,0.014-0.058,0.021-0.089,0.019h-0.475L-1534.366-86.03L-1534.366-86.03z M-1532.381-84.836
			c-0.074,0.002-0.147-0.015-0.214-0.05c-0.058-0.029-0.105-0.075-0.14-0.131c-0.036-0.059-0.061-0.121-0.073-0.188
			c-0.015-0.071-0.021-0.146-0.021-0.221v-0.831h-0.259v0.831c0,0.106,0.013,0.211,0.037,0.309c0.021,0.101,0.063,0.188,0.12,0.265
			c0.058,0.077,0.132,0.141,0.218,0.183c0.104,0.05,0.218,0.07,0.332,0.066c0.126,0,0.233-0.021,0.324-0.063
			c0.087-0.039,0.163-0.101,0.222-0.177c0.056-0.072,0.097-0.16,0.125-0.262c0.025-0.1,0.04-0.205,0.04-0.318v-0.831h-0.262v0.831
			c0,0.074-0.009,0.147-0.023,0.219c-0.013,0.064-0.038,0.13-0.073,0.188C-1532.105-84.897-1532.24-84.827-1532.381-84.836z
			 M-1531.327-84.614h0.259v-1.642h-0.259V-84.614z M-1530.697-84.614h1.14v-0.229h-0.881v-1.411h-0.259V-84.614z M-1529.347-84.614
			h0.582c0.12,0,0.231-0.02,0.331-0.059c0.098-0.039,0.183-0.096,0.251-0.166c0.07-0.072,0.124-0.158,0.16-0.26
			c0.075-0.212,0.077-0.442,0.007-0.655c-0.032-0.099-0.084-0.187-0.152-0.263c-0.069-0.075-0.155-0.137-0.25-0.176
			c-0.109-0.045-0.228-0.065-0.347-0.063h-0.582V-84.614z M-1528.228-85.437c0,0.087-0.012,0.165-0.034,0.235
			c-0.021,0.069-0.058,0.136-0.104,0.188c-0.047,0.055-0.104,0.098-0.169,0.125c-0.072,0.031-0.151,0.047-0.229,0.044h-0.323v-1.184
			h0.323c0.084,0,0.16,0.016,0.227,0.044c0.132,0.06,0.23,0.171,0.273,0.309C-1528.243-85.601-1528.228-85.522-1528.228-85.437
			L-1528.228-85.437z M-1527.121-84.614h0.26v-0.57h0.378l0.355,0.57h0.294l-0.386-0.624c0.048-0.016,0.092-0.037,0.132-0.069
			c0.039-0.03,0.073-0.068,0.102-0.112c0.058-0.089,0.088-0.192,0.088-0.301c-0.005-0.136-0.055-0.264-0.143-0.365
			c-0.047-0.051-0.102-0.092-0.163-0.122c-0.063-0.029-0.132-0.047-0.203-0.046h-0.714V-84.614L-1527.121-84.614z M-1526.861-85.414
			v-0.611h0.438c0.069,0.005,0.134,0.037,0.181,0.091c0.051,0.061,0.079,0.137,0.08,0.215c-0.001,0.078-0.024,0.153-0.069,0.219
			c-0.022,0.025-0.048,0.049-0.078,0.064c-0.031,0.018-0.065,0.023-0.1,0.022H-1526.861z M-1524.467-84.844h-0.866v-0.502h0.732
			v-0.215h-0.732v-0.467h0.847v-0.229h-1.105v1.642h1.125L-1524.467-84.844L-1524.467-84.844z M-1523.263-85.869l0.119-0.213
			c-0.078-0.054-0.16-0.099-0.248-0.131c-0.174-0.063-0.364-0.071-0.543-0.021c-0.068,0.021-0.133,0.054-0.189,0.098
			c-0.112,0.091-0.176,0.228-0.171,0.369c-0.003,0.059,0.008,0.114,0.029,0.166c0.021,0.047,0.051,0.086,0.092,0.118
			c0.046,0.038,0.097,0.067,0.151,0.088c0.06,0.022,0.131,0.046,0.215,0.066c0.069,0.02,0.134,0.037,0.188,0.054
			c0.055,0.02,0.104,0.037,0.141,0.06c0.034,0.019,0.064,0.042,0.089,0.069c0.021,0.031,0.032,0.066,0.032,0.104
			c0.003,0.063-0.029,0.124-0.084,0.155c-0.056,0.037-0.134,0.055-0.235,0.055c-0.065,0-0.125-0.007-0.183-0.021
			c-0.105-0.024-0.205-0.066-0.296-0.123c-0.032-0.02-0.061-0.041-0.086-0.065l-0.118,0.223c0.093,0.073,0.199,0.13,0.315,0.167
			c0.115,0.036,0.237,0.056,0.362,0.056c0.083,0,0.159-0.008,0.233-0.025c0.067-0.019,0.132-0.045,0.189-0.083
			c0.055-0.038,0.1-0.089,0.13-0.147c0.033-0.065,0.051-0.142,0.049-0.215c0.006-0.123-0.049-0.242-0.146-0.319
			c-0.053-0.037-0.11-0.067-0.171-0.09c-0.073-0.025-0.148-0.048-0.225-0.065c-0.068-0.018-0.127-0.032-0.178-0.047
			c-0.044-0.012-0.087-0.027-0.127-0.052c-0.03-0.016-0.057-0.039-0.076-0.066c-0.017-0.029-0.024-0.063-0.023-0.1
			c-0.002-0.064,0.026-0.127,0.076-0.167c0.052-0.039,0.133-0.06,0.243-0.06c0.094,0.001,0.187,0.021,0.273,0.058
			c0.039,0.02,0.073,0.036,0.104,0.057C-1523.305-85.906-1523.284-85.888-1523.263-85.869L-1523.263-85.869z M-1522.82-84.614h0.259
			v-0.57h0.444c0.069,0.002,0.137-0.014,0.199-0.044c0.061-0.028,0.114-0.069,0.158-0.121c0.088-0.104,0.136-0.234,0.136-0.371
			c-0.004-0.136-0.054-0.265-0.144-0.365c-0.045-0.051-0.101-0.092-0.161-0.122c-0.063-0.029-0.134-0.047-0.203-0.046h-0.688
			L-1522.82-84.614L-1522.82-84.614z M-1522.561-85.414v-0.611h0.413c0.032,0,0.065,0.009,0.098,0.022
			c0.033,0.015,0.062,0.034,0.085,0.063c0.053,0.063,0.081,0.14,0.079,0.221c0,0.041-0.006,0.082-0.019,0.122
			c-0.013,0.034-0.03,0.067-0.051,0.098c-0.021,0.026-0.048,0.05-0.079,0.063c-0.03,0.018-0.064,0.023-0.1,0.022H-1522.561z
			 M-1520.698-84.602c0.11,0,0.215-0.021,0.313-0.066c0.097-0.047,0.181-0.105,0.251-0.183c0.069-0.077,0.125-0.164,0.165-0.268
			c0.038-0.099,0.06-0.203,0.06-0.313c0-0.104-0.021-0.206-0.059-0.303c-0.035-0.1-0.09-0.188-0.158-0.269
			c-0.069-0.079-0.153-0.144-0.248-0.188c-0.099-0.051-0.208-0.075-0.319-0.073c-0.115,0-0.219,0.021-0.316,0.068
			c-0.097,0.046-0.181,0.105-0.249,0.183c-0.069,0.079-0.126,0.169-0.165,0.267c-0.118,0.304-0.058,0.646,0.157,0.891
			C-1521.125-84.693-1520.917-84.599-1520.698-84.602z M-1521.221-85.434c0-0.072,0.013-0.146,0.036-0.217
			c0.021-0.069,0.056-0.137,0.104-0.192c0.045-0.056,0.101-0.101,0.164-0.134c0.068-0.036,0.145-0.055,0.222-0.053
			c0.078,0,0.148,0.019,0.213,0.051c0.063,0.031,0.119,0.076,0.164,0.131c0.047,0.057,0.081,0.118,0.106,0.188
			c0.049,0.144,0.05,0.3,0.002,0.442c-0.022,0.068-0.057,0.134-0.102,0.19c-0.045,0.057-0.101,0.104-0.164,0.139
			c-0.068,0.035-0.144,0.054-0.22,0.052c-0.149,0.003-0.292-0.063-0.384-0.184c-0.047-0.057-0.082-0.121-0.104-0.191
			C-1521.208-85.281-1521.221-85.357-1521.221-85.434z M-1519.383-85.769l0.929,1.155h0.216v-1.64h-0.262v1.183l-0.938-1.185h-0.203
			v1.642h0.259L-1519.383-85.769L-1519.383-85.769z M-1516.899-85.869l0.118-0.213c-0.077-0.054-0.16-0.099-0.248-0.131
			c-0.174-0.063-0.363-0.071-0.542-0.021c-0.069,0.021-0.134,0.054-0.188,0.098c-0.111,0.091-0.176,0.228-0.171,0.369
			c-0.001,0.059,0.009,0.114,0.03,0.166c0.021,0.047,0.05,0.086,0.092,0.118c0.045,0.038,0.096,0.067,0.15,0.088
			c0.063,0.022,0.132,0.046,0.215,0.066c0.07,0.02,0.135,0.037,0.189,0.054c0.056,0.02,0.103,0.037,0.142,0.06
			c0.033,0.019,0.064,0.042,0.089,0.069c0.021,0.031,0.032,0.066,0.031,0.104c0.004,0.063-0.029,0.124-0.083,0.155
			c-0.056,0.037-0.134,0.055-0.235,0.055c-0.065,0-0.125-0.007-0.184-0.021c-0.104-0.024-0.205-0.066-0.296-0.123
			c-0.031-0.02-0.061-0.041-0.085-0.065l-0.119,0.223c0.094,0.073,0.199,0.13,0.315,0.167c0.115,0.036,0.238,0.056,0.363,0.056
			c0.083,0,0.159-0.008,0.233-0.025c0.066-0.019,0.131-0.045,0.189-0.083c0.055-0.038,0.099-0.089,0.129-0.147
			c0.034-0.065,0.051-0.142,0.049-0.215c0.007-0.123-0.048-0.242-0.146-0.319c-0.052-0.037-0.109-0.067-0.17-0.09
			c-0.074-0.025-0.148-0.048-0.225-0.065c-0.068-0.018-0.127-0.032-0.179-0.047c-0.044-0.012-0.086-0.027-0.126-0.052
			c-0.031-0.016-0.057-0.039-0.076-0.066c-0.018-0.029-0.025-0.063-0.023-0.1c-0.002-0.064,0.026-0.127,0.076-0.167
			c0.051-0.039,0.132-0.06,0.242-0.06c0.094,0.001,0.188,0.021,0.271,0.058c0.04,0.02,0.075,0.036,0.105,0.057
			C-1516.941-85.906-1516.918-85.888-1516.899-85.869L-1516.899-85.869z M-1516.457-84.614h0.26v-1.642h-0.26V-84.614z
			 M-1515.723-86.255h-0.274l0.658,1.642h0.222l0.657-1.642h-0.274l-0.493,1.314L-1515.723-86.255z M-1513.134-84.844h-0.867v-0.502
			h0.733v-0.215h-0.733v-0.467h0.848v-0.229h-1.105v1.642h1.125L-1513.134-84.844L-1513.134-84.844z M-1510.916-84.614h0.262v-1.642
			h-0.279l-0.541,1.003l-0.545-1.003h-0.277v1.642h0.26v-1.182l0.489,0.895h0.144l0.488-0.895L-1510.916-84.614L-1510.916-84.614z
			 M-1509.603-84.602c0.111,0,0.216-0.021,0.313-0.066c0.098-0.047,0.181-0.105,0.252-0.183c0.07-0.077,0.125-0.164,0.164-0.268
			c0.039-0.099,0.061-0.203,0.061-0.313c-0.001-0.104-0.021-0.206-0.059-0.303c-0.035-0.1-0.089-0.188-0.159-0.269
			c-0.068-0.079-0.152-0.144-0.247-0.188c-0.1-0.051-0.208-0.075-0.318-0.073c-0.117,0-0.22,0.021-0.316,0.068
			c-0.098,0.046-0.182,0.105-0.251,0.183c-0.069,0.079-0.126,0.169-0.164,0.267c-0.118,0.304-0.058,0.646,0.157,0.891
			C-1510.03-84.693-1509.822-84.599-1509.603-84.602z M-1510.125-85.434c0-0.072,0.012-0.146,0.034-0.217
			c0.022-0.069,0.058-0.137,0.104-0.192c0.046-0.056,0.101-0.101,0.165-0.134c0.068-0.036,0.145-0.055,0.222-0.053
			c0.079,0,0.146,0.019,0.213,0.051c0.063,0.031,0.118,0.076,0.163,0.131c0.047,0.057,0.082,0.118,0.107,0.188
			c0.049,0.144,0.05,0.3,0.002,0.442c-0.022,0.068-0.057,0.134-0.102,0.19c-0.044,0.057-0.101,0.104-0.165,0.139
			c-0.067,0.035-0.144,0.054-0.219,0.052c-0.148,0.003-0.292-0.063-0.384-0.184c-0.047-0.057-0.082-0.121-0.104-0.191
			C-1510.113-85.281-1510.125-85.357-1510.125-85.434z M-1507.256-85.037c0.007-0.191-0.119-0.364-0.306-0.418
			c0.073-0.031,0.135-0.087,0.174-0.153c0.068-0.114,0.082-0.253,0.035-0.378c-0.033-0.1-0.102-0.183-0.192-0.231
			c-0.048-0.021-0.101-0.035-0.154-0.035h-0.847v1.642h0.784c0.069,0,0.133-0.01,0.196-0.027c0.059-0.018,0.111-0.046,0.159-0.083
			c0.046-0.037,0.083-0.082,0.108-0.135C-1507.269-84.914-1507.254-84.974-1507.256-85.037L-1507.256-85.037z M-1507.522-85.086
			c0,0.064-0.025,0.128-0.069,0.176c-0.044,0.049-0.106,0.074-0.171,0.072h-0.524v-0.502h0.541c0.062,0,0.12,0.027,0.158,0.075
			C-1507.547-85.213-1507.524-85.15-1507.522-85.086z M-1508.287-86.03h0.489c0.059-0.001,0.115,0.023,0.153,0.067
			c0.038,0.046,0.061,0.104,0.061,0.174c0,0.063-0.024,0.126-0.068,0.174c-0.021,0.021-0.045,0.037-0.071,0.049
			c-0.027,0.014-0.058,0.021-0.087,0.019h-0.477V-86.03L-1508.287-86.03z M-1506.986-84.614h0.259v-1.642h-0.259V-84.614z
			 M-1506.357-84.614h1.141v-0.229h-0.882v-1.411h-0.259V-84.614z M-1503.88-84.844h-0.867v-0.502h0.734v-0.215h-0.734v-0.467h0.847
			v-0.229h-1.106v1.642h1.127L-1503.88-84.844L-1503.88-84.844z M-1503.698-85.132h0.69v-0.229h-0.69V-85.132z M-1502.681-84.614
			h0.26v-0.708h0.697v-0.215h-0.697v-0.489h0.834v-0.229h-1.094V-84.614z M-1501.342-84.614h0.259v-1.642h-0.259V-84.614z
			 M-1500.712-84.614h0.259v-0.57h0.379l0.356,0.57h0.294l-0.386-0.624c0.048-0.016,0.092-0.037,0.132-0.069
			c0.039-0.031,0.073-0.068,0.102-0.112c0.056-0.091,0.087-0.193,0.087-0.301c-0.004-0.136-0.054-0.265-0.143-0.365
			c-0.046-0.051-0.102-0.092-0.162-0.122c-0.063-0.029-0.133-0.047-0.203-0.046h-0.715V-84.614L-1500.712-84.614z M-1500.454-85.414
			v-0.611h0.439c0.069,0.005,0.135,0.037,0.181,0.091c0.078,0.091,0.102,0.219,0.063,0.332c-0.013,0.035-0.03,0.068-0.051,0.102
			c-0.021,0.025-0.049,0.049-0.079,0.064c-0.031,0.018-0.065,0.023-0.1,0.022H-1500.454L-1500.454-85.414z M-1498.213-85.869
			l0.117-0.213c-0.076-0.055-0.159-0.099-0.246-0.131c-0.175-0.063-0.366-0.071-0.544-0.021c-0.068,0.021-0.133,0.054-0.19,0.098
			c-0.11,0.091-0.174,0.228-0.17,0.369c0,0.064,0.009,0.12,0.03,0.166c0.02,0.047,0.051,0.086,0.092,0.118
			c0.045,0.038,0.096,0.067,0.15,0.088c0.061,0.022,0.132,0.046,0.215,0.066c0.07,0.02,0.135,0.037,0.19,0.054
			c0.056,0.02,0.102,0.037,0.141,0.06c0.034,0.019,0.063,0.042,0.087,0.069c0.023,0.031,0.034,0.066,0.033,0.104
			c0.002,0.063-0.028,0.124-0.083,0.155c-0.057,0.037-0.135,0.055-0.236,0.055c-0.065,0-0.125-0.007-0.183-0.021
			c-0.056-0.015-0.11-0.029-0.164-0.054c-0.046-0.019-0.09-0.041-0.132-0.069c-0.031-0.02-0.06-0.041-0.085-0.065l-0.118,0.223
			c0.093,0.073,0.199,0.13,0.313,0.167c0.117,0.036,0.24,0.056,0.362,0.056c0.083,0,0.16-0.008,0.233-0.025
			c0.068-0.019,0.133-0.046,0.19-0.083c0.055-0.038,0.1-0.089,0.129-0.147c0.034-0.065,0.051-0.142,0.049-0.215
			c0.002-0.063-0.012-0.129-0.039-0.188c-0.026-0.052-0.062-0.098-0.106-0.133c-0.052-0.037-0.109-0.066-0.171-0.09
			c-0.073-0.025-0.148-0.048-0.225-0.065c-0.069-0.018-0.127-0.033-0.178-0.047c-0.045-0.012-0.087-0.028-0.127-0.052
			c-0.031-0.016-0.057-0.039-0.076-0.066c-0.018-0.029-0.025-0.063-0.023-0.1c0-0.068,0.024-0.125,0.076-0.167
			c0.05-0.039,0.132-0.061,0.242-0.061c0.049,0,0.098,0.007,0.145,0.017c0.046,0.013,0.089,0.024,0.129,0.042
			c0.039,0.02,0.074,0.036,0.104,0.057C-1498.257-85.906-1498.234-85.888-1498.213-85.869z M-1496.578-86.026v-0.229h-1.354v0.229
			h0.548v1.412h0.261v-1.412H-1496.578z M-1494.88-85.869l0.117-0.213c-0.076-0.055-0.16-0.099-0.248-0.131
			c-0.174-0.063-0.363-0.071-0.542-0.021c-0.069,0.021-0.134,0.054-0.19,0.098c-0.112,0.091-0.176,0.228-0.172,0.369
			c0,0.064,0.011,0.12,0.031,0.166c0.021,0.047,0.051,0.086,0.093,0.118c0.044,0.038,0.094,0.067,0.149,0.088
			c0.061,0.022,0.133,0.046,0.216,0.066c0.069,0.02,0.134,0.037,0.188,0.054c0.057,0.02,0.104,0.037,0.142,0.06
			c0.033,0.019,0.064,0.042,0.089,0.069c0.021,0.031,0.031,0.066,0.031,0.104c0.004,0.063-0.029,0.124-0.083,0.155
			c-0.056,0.037-0.135,0.055-0.236,0.055c-0.064,0-0.125-0.007-0.182-0.021c-0.057-0.015-0.112-0.029-0.165-0.054
			c-0.046-0.019-0.09-0.041-0.131-0.069c-0.031-0.02-0.061-0.041-0.086-0.065l-0.118,0.223c0.093,0.073,0.199,0.13,0.313,0.167
			c0.119,0.036,0.24,0.056,0.364,0.056c0.083,0,0.16-0.008,0.233-0.025c0.067-0.019,0.131-0.046,0.189-0.083
			c0.055-0.038,0.099-0.089,0.13-0.147c0.033-0.065,0.05-0.142,0.048-0.215c0.002-0.063-0.012-0.129-0.039-0.188
			c-0.025-0.052-0.061-0.098-0.106-0.133c-0.053-0.037-0.11-0.066-0.171-0.09c-0.074-0.025-0.148-0.048-0.225-0.065
			c-0.069-0.018-0.127-0.033-0.178-0.047c-0.044-0.012-0.088-0.028-0.127-0.052c-0.031-0.016-0.057-0.039-0.076-0.066
			c-0.018-0.029-0.025-0.063-0.023-0.1c0-0.068,0.025-0.125,0.076-0.167c0.051-0.039,0.132-0.061,0.243-0.061
			c0.049,0,0.097,0.007,0.146,0.017c0.045,0.013,0.09,0.024,0.129,0.042c0.039,0.02,0.074,0.036,0.104,0.057
			C-1494.923-85.906-1494.902-85.888-1494.88-85.869z M-1494.439-84.614h0.259v-1.642h-0.259V-84.614z M-1492.604-86.026v-0.229
			h-1.354v0.229h0.547v1.412h0.262v-1.412H-1492.604z M-1491.259-84.844h-0.867v-0.502h0.734v-0.215h-0.734v-0.467h0.848v-0.229
			h-1.105v1.642h1.125L-1491.259-84.844L-1491.259-84.844z M-1490.054-85.869l0.117-0.213c-0.076-0.055-0.16-0.099-0.247-0.131
			c-0.175-0.063-0.364-0.071-0.543-0.021c-0.069,0.021-0.134,0.054-0.19,0.098c-0.111,0.091-0.175,0.228-0.17,0.369
			c0,0.064,0.009,0.12,0.03,0.166c0.021,0.047,0.051,0.086,0.093,0.118c0.043,0.038,0.095,0.067,0.149,0.088
			c0.06,0.022,0.132,0.046,0.215,0.066c0.07,0.02,0.134,0.037,0.188,0.054c0.056,0.02,0.104,0.037,0.141,0.06
			c0.034,0.019,0.063,0.042,0.088,0.069c0.021,0.031,0.033,0.066,0.031,0.104c0.004,0.063-0.028,0.124-0.083,0.155
			c-0.056,0.037-0.134,0.055-0.235,0.055c-0.065,0-0.125-0.007-0.183-0.021c-0.056-0.015-0.11-0.029-0.164-0.054
			c-0.047-0.019-0.091-0.041-0.132-0.069c-0.031-0.02-0.06-0.041-0.085-0.065l-0.118,0.223c0.093,0.073,0.198,0.13,0.314,0.167
			c0.117,0.036,0.24,0.056,0.362,0.056c0.083,0,0.16-0.008,0.233-0.025c0.067-0.019,0.132-0.046,0.19-0.083
			c0.055-0.038,0.1-0.089,0.129-0.147c0.033-0.065,0.05-0.142,0.049-0.215c0.001-0.063-0.012-0.129-0.04-0.188
			c-0.025-0.052-0.061-0.098-0.104-0.133c-0.052-0.037-0.109-0.066-0.171-0.09c-0.074-0.025-0.148-0.048-0.225-0.065
			c-0.069-0.018-0.128-0.033-0.177-0.047c-0.046-0.012-0.088-0.028-0.129-0.052c-0.031-0.016-0.057-0.039-0.075-0.066
			c-0.018-0.029-0.026-0.063-0.023-0.1c0-0.068,0.024-0.125,0.077-0.167c0.049-0.039,0.131-0.061,0.242-0.061
			c0.048,0,0.097,0.007,0.146,0.017c0.046,0.013,0.089,0.024,0.128,0.042c0.04,0.02,0.075,0.036,0.104,0.057
			C-1490.097-85.906-1490.075-85.888-1490.054-85.869z M-1488.538-86.248l0.282,0.729l-0.245,0.604l-0.513-1.341h-0.282l0.677,1.642
			h0.222l0.308-0.735l0.306,0.735h0.222l0.678-1.642h-0.285l-0.51,1.341l-0.246-0.604l0.28-0.729h-0.243l-0.203,0.558l-0.201-0.558
			H-1488.538L-1488.538-86.248z M-1486.691-84.614h0.258v-1.642h-0.258V-84.614z M-1484.857-86.026v-0.229h-1.354v0.229h0.547v1.412
			h0.262v-1.412H-1484.857L-1484.857-86.026z M-1483.289-86.255h-0.262v0.688h-0.828v-0.688h-0.259v1.642h0.259v-0.724h0.828v0.724
			h0.262V-86.255z M-1481.221-84.844h-0.868v-0.502h0.733v-0.215h-0.733v-0.467h0.847v-0.229h-1.104v1.642h1.126L-1481.221-84.844
			L-1481.221-84.844z M-1480.471-86.255l-0.651,1.642h0.274l0.171-0.445h0.634l0.174,0.445h0.272l-0.647-1.642H-1480.471z
			 M-1480.095-85.252h-0.535l0.272-0.705L-1480.095-85.252z M-1478.449-85.869l0.117-0.213c-0.076-0.054-0.16-0.099-0.247-0.131
			c-0.174-0.063-0.363-0.071-0.542-0.021c-0.069,0.021-0.134,0.054-0.189,0.098c-0.113,0.091-0.176,0.228-0.172,0.369
			c-0.002,0.059,0.009,0.114,0.029,0.166c0.021,0.047,0.052,0.086,0.094,0.118c0.044,0.038,0.095,0.067,0.15,0.088
			c0.06,0.022,0.131,0.046,0.214,0.066c0.069,0.02,0.134,0.037,0.189,0.054c0.057,0.02,0.102,0.037,0.142,0.06
			c0.034,0.019,0.064,0.042,0.088,0.069c0.022,0.031,0.033,0.066,0.032,0.104c0.003,0.063-0.028,0.124-0.083,0.155
			c-0.055,0.037-0.134,0.055-0.235,0.055c-0.065,0-0.125-0.007-0.184-0.021c-0.104-0.024-0.204-0.066-0.296-0.123
			c-0.031-0.02-0.06-0.041-0.084-0.065l-0.119,0.223c0.092,0.073,0.198,0.13,0.314,0.167c0.115,0.036,0.238,0.056,0.363,0.056
			c0.084,0,0.16-0.008,0.232-0.025c0.067-0.019,0.132-0.045,0.19-0.083c0.054-0.038,0.1-0.089,0.129-0.147
			c0.035-0.065,0.051-0.142,0.049-0.215c0.006-0.123-0.048-0.242-0.146-0.319c-0.053-0.037-0.109-0.067-0.171-0.09
			c-0.073-0.025-0.148-0.048-0.224-0.065c-0.07-0.018-0.128-0.032-0.18-0.047c-0.044-0.012-0.086-0.027-0.126-0.052
			c-0.031-0.016-0.058-0.039-0.077-0.066c-0.017-0.029-0.025-0.063-0.022-0.1c-0.003-0.064,0.026-0.127,0.077-0.167
			c0.051-0.039,0.131-0.06,0.241-0.06c0.095,0.001,0.187,0.021,0.272,0.058c0.041,0.02,0.075,0.036,0.105,0.057
			C-1478.492-85.906-1478.469-85.888-1478.449-85.869z M-1476.881-84.844h-0.866v-0.502h0.732v-0.215h-0.732v-0.467h0.847v-0.229
			h-1.105v1.642h1.125L-1476.881-84.844L-1476.881-84.844z M-1487.753-158.416c0.026,0.049,0.068,0.085,0.121,0.105l0.146,0.064
			h0.337c0.051-0.001,0.103-0.016,0.148-0.039c0.043-0.015,0.08-0.043,0.107-0.079c0.029-0.037,0.043-0.086,0.04-0.132
			c0.002-0.034-0.005-0.069-0.021-0.101c-0.017-0.03-0.042-0.056-0.072-0.071c-0.067-0.042-0.141-0.072-0.217-0.095l-0.295-0.064
			c-0.103-0.013-0.202-0.038-0.296-0.078c-0.082-0.033-0.155-0.082-0.217-0.146c-0.115-0.146-0.126-0.349-0.026-0.503
			c0.044-0.063,0.098-0.116,0.161-0.158s0.139-0.069,0.216-0.08c0.078-0.021,0.16-0.029,0.243-0.025
			c0.1-0.006,0.199,0.003,0.296,0.025c0.084,0.014,0.167,0.04,0.242,0.08c0.067,0.043,0.123,0.103,0.161,0.171
			c0.038,0.084,0.061,0.173,0.067,0.266h-0.31c0.001-0.047-0.013-0.095-0.04-0.133c-0.029-0.037-0.066-0.068-0.108-0.093
			l-0.135-0.053h-0.282l-0.121,0.025c-0.041,0.025-0.081,0.039-0.095,0.078c-0.014,0.016-0.023,0.03-0.029,0.05
			c-0.01,0.019-0.012,0.037-0.011,0.059c-0.005,0.045,0.016,0.092,0.054,0.117c0.042,0.041,0.093,0.073,0.148,0.094l0.188,0.052
			l0.215,0.041l0.229,0.064c0.066,0.021,0.129,0.045,0.188,0.079c0.057,0.039,0.104,0.089,0.135,0.146
			c0.04,0.063,0.059,0.138,0.055,0.21c0.003,0.094-0.021,0.186-0.066,0.266c-0.047,0.072-0.111,0.133-0.188,0.172
			c-0.076,0.053-0.164,0.084-0.256,0.094l-0.283,0.025l-0.282-0.025c-0.091-0.02-0.179-0.056-0.256-0.105
			c-0.071-0.049-0.132-0.111-0.175-0.186c-0.045-0.087-0.068-0.182-0.067-0.277h0.31
			C-1487.798-158.518-1487.784-158.463-1487.753-158.416z M-1485.857-159.776h-0.309v1.764h0.309V-159.776L-1485.857-159.776z
			 M-1484.604-159.776v0.251h-0.363v1.096c0,0.04,0,0.066,0.014,0.08c0.001,0.021,0.011,0.041,0.027,0.054h0.322v0.25h-0.43
			c-0.049-0.007-0.095-0.022-0.135-0.053c-0.042-0.026-0.07-0.069-0.082-0.119c-0.017-0.063-0.026-0.132-0.026-0.197v-1.108h-0.31
			v-0.251h0.31v-0.528h0.312v0.528L-1484.604-159.776L-1484.604-159.776z M-1482.947-158.125c-0.156,0.103-0.339,0.15-0.525,0.146
			c-0.129,0-0.256-0.021-0.377-0.066c-0.109-0.041-0.205-0.108-0.282-0.197c-0.077-0.081-0.132-0.183-0.162-0.291
			c-0.089-0.237-0.089-0.501,0-0.738c0.042-0.104,0.101-0.204,0.175-0.291c0.08-0.081,0.177-0.145,0.283-0.185
			c0.109-0.051,0.229-0.072,0.35-0.066c0.143-0.006,0.281,0.024,0.404,0.093c0.111,0.06,0.205,0.146,0.27,0.251
			c0.064,0.098,0.109,0.203,0.135,0.317c0.029,0.111,0.038,0.228,0.026,0.343h-1.387c0.002,0.076,0.011,0.15,0.026,0.226
			c0.023,0.068,0.06,0.131,0.107,0.188c0.051,0.058,0.116,0.098,0.189,0.118c0.188,0.082,0.404,0.066,0.579-0.04
			c0.085-0.06,0.144-0.149,0.161-0.251h0.297C-1482.704-158.395-1482.8-158.233-1482.947-158.125z M-1483.014-159.26
			c-0.024-0.063-0.066-0.118-0.121-0.158c-0.046-0.045-0.101-0.081-0.162-0.104c-0.063-0.024-0.133-0.039-0.201-0.04
			c-0.14-0.003-0.276,0.049-0.378,0.146c-0.049,0.042-0.086,0.099-0.107,0.159c-0.029,0.063-0.048,0.129-0.054,0.197h1.063
			C-1482.974-159.131-1482.988-159.198-1483.014-159.26z M-1482.017-159.776v0.235h0.014c0.044-0.1,0.126-0.175,0.229-0.21
			c0.113-0.051,0.238-0.072,0.363-0.065c0.131-0.007,0.259,0.015,0.378,0.065c0.102,0.047,0.19,0.12,0.256,0.21
			c0.079,0.082,0.135,0.183,0.161,0.292c0.04,0.115,0.059,0.234,0.055,0.354c-0.001,0.121-0.014,0.24-0.042,0.356
			c-0.036,0.104-0.091,0.203-0.161,0.291c-0.075,0.084-0.167,0.15-0.269,0.197c-0.121,0.046-0.249,0.066-0.378,0.066h-0.146
			l-0.162-0.04l-0.161-0.093c-0.053-0.03-0.096-0.076-0.121-0.133h-0.014v0.911h-0.297v-2.442h0.296v0.004H-1482.017z
			 M-1480.913-159.155c-0.022-0.077-0.059-0.149-0.108-0.213c-0.049-0.06-0.107-0.107-0.175-0.146
			c-0.08-0.036-0.167-0.056-0.256-0.053c-0.093-0.005-0.185,0.014-0.27,0.053c-0.069,0.038-0.13,0.093-0.175,0.158
			c-0.045,0.063-0.077,0.135-0.094,0.211c-0.027,0.078-0.041,0.157-0.041,0.238c-0.001,0.086,0.013,0.171,0.041,0.251
			c0.044,0.153,0.146,0.286,0.282,0.37c0.084,0.04,0.177,0.06,0.27,0.054c0.093-0.002,0.184-0.021,0.27-0.054
			c0.066-0.038,0.122-0.093,0.161-0.158c0.047-0.067,0.08-0.145,0.095-0.225c0.022-0.083,0.031-0.167,0.027-0.252
			C-1480.882-158.998-1480.89-159.078-1480.913-159.155 M-1480.238-159.26c0.037-0.108,0.097-0.206,0.175-0.289
			c0.077-0.089,0.175-0.155,0.283-0.198c0.123-0.053,0.257-0.074,0.391-0.066c0.133-0.006,0.267,0.018,0.391,0.066
			c0.103,0.046,0.193,0.112,0.269,0.198c0.079,0.083,0.14,0.181,0.176,0.289c0.043,0.118,0.063,0.243,0.067,0.369
			c-0.002,0.123-0.024,0.243-0.067,0.355c-0.037,0.108-0.098,0.209-0.176,0.291c-0.075,0.084-0.166,0.15-0.269,0.197
			c-0.126,0.044-0.258,0.066-0.391,0.066c-0.134,0-0.266-0.021-0.391-0.066c-0.108-0.043-0.206-0.109-0.283-0.197
			c-0.078-0.083-0.138-0.183-0.175-0.291c-0.039-0.113-0.057-0.234-0.054-0.355C-1480.295-159.017-1480.277-159.142-1480.238-159.26
			z M-1479.928-158.613c0.024,0.077,0.063,0.149,0.121,0.212c0.058,0.051,0.121,0.095,0.188,0.131c0.144,0.053,0.301,0.053,0.445,0
			c0.067-0.036,0.131-0.08,0.188-0.131c0.057-0.063,0.098-0.135,0.121-0.212c0.034-0.091,0.053-0.185,0.055-0.278
			c-0.002-0.098-0.02-0.196-0.055-0.29c-0.023-0.079-0.064-0.15-0.121-0.211c-0.057-0.053-0.121-0.097-0.188-0.133
			c-0.146-0.054-0.302-0.054-0.445,0c-0.067,0.036-0.131,0.08-0.188,0.133c-0.056,0.061-0.097,0.132-0.121,0.211
			c-0.029,0.095-0.042,0.192-0.04,0.29C-1479.97-158.797-1479.957-158.703-1479.928-158.613 M-1477.8-159.776h-0.313v1.764h0.313
			V-159.776L-1477.8-159.776z M-1477.046-159.776v0.276c0.063-0.103,0.152-0.185,0.258-0.239c0.107-0.056,0.227-0.083,0.348-0.077
			c0.104-0.003,0.21,0.011,0.311,0.04c0.074,0.032,0.143,0.076,0.201,0.131c0.045,0.063,0.077,0.137,0.095,0.212
			c0.027,0.081,0.041,0.165,0.04,0.252v1.162h-0.31v-1.188c0.008-0.099-0.026-0.193-0.095-0.266
			c-0.078-0.067-0.18-0.103-0.282-0.093c-0.083-0.001-0.165,0.011-0.243,0.04c-0.065,0.026-0.125,0.066-0.175,0.118
			c-0.044,0.051-0.077,0.108-0.095,0.172c-0.026,0.071-0.04,0.147-0.039,0.226v0.99h-0.311v-1.757L-1477.046-159.776
			L-1477.046-159.776z M-1474.541-159.776v0.251h-0.377v1.096c0.003,0.028,0.006,0.055,0.014,0.08c0,0.026,0.014,0.04,0.04,0.054
			h0.323v0.25h-0.444l-0.136-0.053c-0.033-0.031-0.056-0.073-0.066-0.119c-0.024-0.063-0.033-0.131-0.027-0.197v-1.108h-0.322
			v-0.251h0.322v-0.528h0.297v0.528L-1474.541-159.776L-1474.541-159.776z M-1492.201-159.102l0.283,0.266l0.889,0.817l0.378-0.37
			c0.039-0.041,0.039-0.104,0-0.146l-0.35-0.303l-0.378-0.356c-0.021-0.024-0.031-0.055-0.031-0.086s0.011-0.063,0.031-0.085
			l1.024-0.966l-0.473-0.448l-1.091,1.044l-0.283,0.264c-0.025,0.023-0.046,0.054-0.061,0.084c-0.027,0.064-0.027,0.138,0,0.202
			C-1492.247-159.155-1492.226-159.127-1492.201-159.102"/>
		<path fill="#FFFFFF" d="M-1489.169-158.64l-0.283-0.264l-0.889-0.819l-0.377,0.37c-0.039,0.041-0.039,0.104,0,0.146l0.35,0.305
			l0.378,0.368c0.02,0.022,0.03,0.052,0.03,0.08c0,0.029-0.011,0.058-0.03,0.079l-1.024,0.964l0.472,0.449l1.091-1.043l0.283-0.266
			c0.102-0.093,0.11-0.25,0.018-0.354C-1489.158-158.629-1489.164-158.635-1489.169-158.64 M-1485.841-160.146
			c0,0.045-0.021,0.089-0.053,0.121c-0.069,0.066-0.179,0.066-0.248,0c-0.066-0.064-0.067-0.172-0.002-0.239
			c0.001-0.002,0.002-0.003,0.002-0.003c0.069-0.067,0.179-0.067,0.248-0.001C-1485.86-160.235-1485.841-160.192-1485.841-160.146
			 M-1477.788-160.146c0,0.045-0.019,0.089-0.052,0.121c-0.068,0.065-0.178,0.065-0.247,0c-0.067-0.066-0.067-0.177-0.001-0.243
			c0.001,0,0.001,0,0.001,0c0.069-0.065,0.179-0.065,0.247,0C-1477.806-160.235-1477.788-160.192-1477.788-160.146"/>
	</g>
</g>
<g>
	<g>
		<path fill="#00216C" d="M243.457,253.643l146.392,80.906l-20.367,2.011c0,0-63.907-6.421-103.035-41.454"/>
		<polyline fill="#00216C" points="248.188,288.82 153.834,338.565 213.903,270.73 243.457,259.294 		"/>
		<path fill="#003591" d="M57.12,303.286l88.465-26.341l91.985-29.041l89.574,87.396h-16.044c0,0-56.072-19.406-77.818-59.259
			l-79.448,62.524c0,0-38.638,19.131-60.978,7.842C61.588,330.603,57.12,303.286,57.12,303.286z"/>
		<path fill="#002974" d="M57.12,303.286l78.055-23.239l0,0c2.327-0.694-71.531,39.297-71.622,39.347
			C58.297,310.369,57.12,303.286,57.12,303.286z"/>
		<polygon fill="#000F1F" points="311.101,335.3 311.101,349.959 365.406,349.959 327.145,335.3 		"/>
		<polygon fill="#000F1F" points="367.81,336.259 373.236,349.959 423.979,331.369 382.797,330.767 		"/>
		<g>
			<path fill="#14AFFF" d="M110.65,163.925c0,0-11.016,17.315-7.602,45.996c0,0,81.867,0.253,133.026-83.499l-13.725-11.651
				C222.351,114.77,164.084,171.129,110.65,163.925z"/>
			<polygon fill="#0091F4" points="116.812,164.573 148.858,200.155 129.241,206.179 			"/>
			<path fill="#FFCDA9" d="M229.689,111.808c0,0,0.613-7.679,1.82-10.174c0,0,4.157-13.41,4.945-15.451c0,0,3.383-0.605,3.34,3.392
				c-0.044,3.993-1.418,8.92-1.418,8.92s4.611-4.271,6.375-7.81c1.764-3.539,5.448-10.436,7.813-11.348
				c2.362-0.914,2.394,1.578,2.394,1.578s-5.668,10.591-6.863,12.872c-1.05,2.002,0.084,1.859,0.084,1.859s7.541-11.668,9.199-13.59
				c1.658-1.923,3.076-2.18,4.224-0.324c0,0-5.541,9.24-6.346,10.628c-0.802,1.393-4.201,5.449-2.647,6.303
				c0,0,7.11-9.762,8.441-11.353c1.326-1.595,2.958-1.616,3.409,0.417l-9.063,13.915c0,0-0.617,0.993,0.174,1.127
				c0.714,0.118,6.438-4.401,7.056-5.002c0.616-0.598,2.709-2.327,3.838-0.577c0,0,0.294,0.649-1.642,2.298
				c-1.938,1.654-9.799,10.275-9.799,10.275s-5.333,5.87-13.71,9.097c-8.438,3.252-10.998,1.005-6.231,2.491l-2.18-4.043
				L229.689,111.808z"/>
			<polygon fill="#3BFAFF" points="242.795,119.34 228.871,108.046 222.351,114.77 236.075,126.421 			"/>
		</g>
		<g>
			<g>
				<path fill="#FFCDA9" d="M121.402,98.048c0,0,10.486,15.969,13.982,39.494c0,0-8.302,6.724-25.78,6.724v21.762l-20.802-11.697
					v-15.105l4.886-0.842l-3.31-6.346c0,0-6.976-0.471-9.388-7.355c-2.411-6.884,5.8-5.205,7.812-4.368l2.889,4.368
					c0,0-0.777-9.829-6.945-12.35l2.136-9.661C86.882,102.673,102.615,106.035,121.402,98.048z"/>
				<path fill="#131637" d="M93.688,138.384l-4.886,0.842v5.053c0,0-3.137-1.266-5.094-5.895c0,0-24.238-5.381-18.375-33.199
					c0,0-4.549-17.926,9.384-25.563c13.933-7.633,35.128-1.127,48.251-10.149c0,0,14.657,6.766,6.272,19.924l6.144,0.375
					c0,0-10.581,14.63-27.418,12.392l5.064,4.712c0,0-12.811,3.059-26.149-4.203l-2.136,9.661c0,0,6.525,1.679,6.945,12.35
					l-2.889-4.368c0,0-4.638-2.348-7.106,0.892c-2.473,3.24,2.429,9.463,8.683,10.831L93.688,138.384z"/>
				<polygon fill="#FF907D" points="116.812,109.431 116.812,121.986 122.969,121.986 				"/>
				<path fill="#FFFFFF" d="M129.241,125.5c-0.955,5.339-5.766,9.413-11.593,9.413c-5.826,0-10.636-4.073-11.59-9.413H129.241z"/>
			</g>
			<path fill="#001A79" d="M120.213,177.108l2.572-6.559c0.724-1.843-0.245-3.897-2.161-4.591l-6.823-2.474l-3.877,9.896
				L120.213,177.108z"/>
			<path fill="#001A79" d="M119.862,175.614c0,0,23.561,38.72,12.787,77.676c-14.635-34.252-22.235-68.616-22.235-68.616"/>
			<path fill="#3BFAFF" d="M57.12,303.286l78.055-23.239l-15.313-104.433c0,0-6.964-23.083-26.039-21.203
				c-17.297,1.705-33.392,24.598-35.4,51.735C56.195,236.332,57.12,303.286,57.12,303.286z"/>
		</g>
		<path fill="#14AFFF" d="M85.351,156.948l1.825-10.436c0,0,17.775,1.457,27.281,13.28l-0.573,4.583
			C113.884,164.376,97.749,158.843,85.351,156.948z"/>
		<path fill="#24E9FF" d="M134.269,273.865c-27.719,5.112-44.844,3.282-44.844,3.282s-13.566-63.895-14.311-79.425
			c-0.752-15.716,2.425-31.129,19.662-30.426c17.699,0.724,16.871,24.775,16.871,24.775l-1.024,54.955l19.454-1.743L134.269,273.865
			z"/>
		<path fill="#14AFFF" d="M115.937,190.85c0,0-1.382-24.165-19.887-23.201c-18.375,0.956-20.082,17.066-17.565,32.9
			c2.451,15.45,22.901,75.44,22.901,75.44s48.275-2.154,108.237-40.415l-3.216-10.241l-86.514,19.104L115.937,190.85z"/>
		<path fill="#FFCDA9" d="M213.239,224.219l19.167-6.371l17.672,3.187l6.627,18.761c0,0-4.29,2.205-8.517-8.831h-4.731
			c0,0-7.724,5.293-14.542,4.938c-6.819-0.357-13.474,0.266-13.474,0.266L213.239,224.219z"/>
		<polygon fill="#3BFAFF" points="215.441,236.168 206.364,237.713 204.162,225.762 213.239,224.219 		"/>
		<g>
			<path fill="#003591" d="M292.432,189.627c-1.864,0.955-2.591,3.226-2.591,3.226l-18.415,55.302l4.521,0.965l19.921-59.831
				C295.867,189.289,294.389,188.629,292.432,189.627z"/>
			<rect x="200.513" y="244.13" fill="#003591" width="75.254" height="4.986"/>
		</g>
	</g>
	<path fill="#695EBF" d="M104.058,115.959c0.525,1.973,1.927,3.333,3.127,3.038c1.202-0.296,1.749-2.137,1.223-4.11
		c-0.526-1.973-1.927-3.333-3.128-3.037C104.078,112.145,103.531,113.986,104.058,115.959z"/>
	<path fill="#695EBF" d="M121.211,112.247c0.564,2.119,1.835,3.637,2.837,3.39c1.002-0.247,1.356-2.166,0.792-4.284
		c-0.564-2.119-1.836-3.638-2.838-3.39C121,108.209,120.646,110.129,121.211,112.247z"/>
</g>
</svg>
